<?xml version="1.0" standalone="no"?>
<!DOCTYPE svg PUBLIC "-//W3C//DTD SVG 1.1//EN"
  "http://www.w3.org/Graphics/SVG/1.1/DTD/svg11.dtd">
<svg width="252.39700317382812mm" height="101.99999999999997mm" viewBox="-120.30000305175781 -48.700000762939446 252.39700317382812 101.99999999999997" xmlns="http://www.w3.org/2000/svg" version="1.1">
	<title>svgOutput</title>
	<desc>made with tinkercad</desc>
<path d="M 131.0970001220703 -4.900000095367431 L 131.0970001220703 8.852000236511229 L 131.0970001220703 20.100000381469723 L 128.09100341796875 20.100000381469723 L 128.09100341796875 40.05199813842773 L 128.09100341796875 43.59999847412109 L 97.09500122070312 43.59999847412109 L 88.00599670410156 43.59999847412109 L 88.00599670410156 20.100000381469723 L 87.59500122070312 20.100000381469723 L 86 20.100000381469723 L 86 -4.900000095367431 L 87.59500122070312 -4.900000095367431 L 88.00599670410156 -4.900000095367431 L 88.00599670410156 -28.399999618530266 L 90.0989990234375 -28.399999618530266 L 97.09500122070312 -28.399999618530266 L 119.0999984741211 -28.399999618530266 L 127.09500122070312 -28.399999618530266 L 128.09100341796875 -28.399999618530266 L 128.09100341796875 -4.900000095367431 L 129.5989990234375 -4.900000095367431 L 131.0970001220703 -4.900000095367431 M 84 -28.399999618530266 L 84 -17.747999191284176 L 84 -6.495999813079832 L 80.99700164794922 -6.495999813079832 L 80.99700164794922 0.9999999999999999 L 80.5979995727539 0.9999999999999999 L 78.59700012207031 0.9999999999999999 L 76.5 0.9999999999999999 L 76.5 1.1019999980926514 L 76.5 2.7000000476837154 L 62.74800109863281 2.7000000476837154 L 51.5 2.7000000476837154 L 51.5 0.9999999999999999 L 41.09700012207031 0.9999999999999999 L 32 0.9999999999999999 L 32 -38.99999999999999 L 41.09700012207031 -38.99999999999999 L 51.5 -38.99999999999999 L 51.5 -41.99999999999999 L 62.74800109863281 -41.99999999999999 L 65.25199890136719 -41.99999999999999 L 76.5 -41.99999999999999 L 76.5 -38.99999999999999 L 78.59700012207031 -38.99999999999999 L 80.5979995727539 -38.99999999999999 L 80.99700164794922 -38.99999999999999 L 80.99700164794922 -31.503999710083 L 83.10199737548828 -31.503999710083 L 84 -31.503999710083 L 84 -28.399999618530266 M -22 -31.503999710083 L -21.402999877929688 -31.503999710083 L -21.101999282836914 -31.503999710083 L -18.996999740600586 -31.503999710083 L -18.996999740600586 -38.99999999999999 L -18.597999572753906 -38.99999999999999 L -14.5 -38.99999999999999 L -14.5 -41.99999999999999 L -3.252000093460083 -41.99999999999999 L -0.7480000257492065 -41.99999999999999 L 10.5 -41.99999999999999 L 10.5 -38.99999999999999 L 11.045999526977539 -38.99999999999999 L 16.097000122070312 -38.99999999999999 L 17.405000686645508 -38.99999999999999 L 30 -38.99999999999999 L 30 -30.24699974060058 L 30 -9.93000030517578 L 30 -3.7300000190734854 L 30 0.9999999999999999 L 16.097000122070312 0.9999999999999999 L 10.5 0.9999999999999999 L 10.5 1.1019999980926514 L 10.5 2.7000000476837154 L -3.252000093460083 2.7000000476837154 L -14.5 2.7000000476837154 L -14.5 0.9999999999999999 L -18.996999740600586 0.9999999999999999 L -18.996999740600586 -6.495999813079832 L -21.101999282836914 -6.495999813079832 L -21.402999877929688 -6.495999813079832 L -22 -6.495999813079832 L -22 -31.503999710083 M 7.193999767303467 -10.557999610900877 L 7.085000038146973 -10.880000114440916 L 6.986999988555908 -11.206000328063963 L 6.89900016784668 -11.538000106811522 L 6.822000026702881 -11.873000144958494 L 6.756999969482422 -12.213000297546383 L 6.745226860046387 -12.28800010681152 L 6.703000068664551 -12.557000160217282 L 6.660999774932861 -12.902999877929684 L 6.63100004196167 -13.253999710083004 L 6.611999988555908 -13.607999801635739 L 6.605999946594238 -13.965000152587887 L 6.642000198364258 -14.826999664306637 L 6.748000144958496 -15.668999671936032 L 6.90009069442749 -16.38400077819824 L 6.921999931335449 -16.486999511718746 L 7.160999774932861 -17.280000686645504 L 7.264999866485596 -17.544853210449215 L 7.460999965667725 -18.044000625610348 L 7.821000099182129 -18.775999069213864 L 8.192000389099121 -19.401502609252926 L 8.234999656677246 -19.47400093078613 L 8.70300006866455 -20.13400077819824 L 9.220999717712402 -20.753999710083004 L 9.78600025177002 -21.330999374389645 L 10.395000457763672 -21.861000061035153 L 11.045999526977539 -22.341999053955075 L 11.045999526977539 -23.986000061035153 L 11.045999526977539 -29.48399925231933 L 11.045999526977539 -29.57399940490722 L 2.6029999256134033 -29.57399940490722 L 2.6029999256134033 -16.804000854492184 L 2.623018264770508 -16.38400077819824 L 2.6549999713897705 -15.713000297546383 L 2.802999973297119 -14.736000061035153 L 3.0369999408721924 -13.869999885559078 L 3.3480000495910645 -13.104999542236325 L 3.7269999980926514 -12.4370002746582 L 3.8393945693969727 -12.28800010681152 L 4.0960001945495605 -11.947820663452147 L 4.163000106811523 -11.85900020599365 L 4.646999835968018 -11.366000175476072 L 5.169000148773193 -10.947999954223631 L 5.718999862670898 -10.602999687194822 L 6.288000106811523 -10.32199954986572 L 6.867000102996826 -10.098999977111815 L 7.099540710449219 -10.030890464782713 L 7.178594589233398 -10.00773525238037 L 7.255939483642578 -9.985081672668455 L 7.315218925476074 -9.967719078063963 L 7.363494396209717 -9.953579902648924 L 7.4024658203125 -9.942165374755858 L 7.431039333343506 -9.933795928955076 L 7.443999767303467 -9.93000030517578 L 7.314000129699707 -10.241999626159666 L 7.264999866485596 -10.371033668518065 L 7.193999767303467 -10.557999610900877 M 15.777000427246094 -24.295999526977532 L 16.097000122070312 -24.33727073669433 L 16.312000274658203 -24.364999771118157 L 16.384000778198242 -24.37044715881347 L 16.854000091552734 -24.406000137329094 L 17.402000427246094 -24.419948577880852 L 17.402000427246094 -24.420000076293938 L 17.402000427246094 -29.48399925231933 L 16.097000122070312 -29.48399925231933 L 13.345000267028809 -29.48399925231933 L 13.345000267028809 -24.420000076293938 L 13.345000267028809 -23.986000061035153 L 13.345000267028809 -23.982339859008786 L 13.345000267028809 -23.862209320068356 L 13.345000267028809 -23.762668609619137 L 13.345000267028809 -23.68301200866699 L 13.345000267028809 -23.638257980346676 L 13.345000267028809 -23.61587524414062 L 13.730999946594238 -23.76899909973144 L 14.22700023651123 -23.9370002746582 L 14.397157669067383 -23.986000061035153 L 14.734000205993652 -24.08300018310546 L 15.25 -24.201999664306634 L 15.777000427246094 -24.295999526977532 M 32 2.7999999523162837 L 41.09700012207031 2.7999999523162837 L 41.09700012207031 5.800000190734862 L 49.099998474121094 5.800000190734862 L 51.5 5.800000190734862 L 72.4990005493164 5.800000190734862 L 74.9990005493164 5.800000190734862 L 75.59500122070312 5.800000190734862 L 76.5 5.800000190734862 L 78.59700012207031 5.800000190734862 L 78.59700012207031 13.296999931335446 L 75.59500122070312 13.296999931335446 L 75.59500122070312 26.30200004577636 L 75.59500122070312 27.05200004577636 L 75.59500122070312 38.30199813842773 L 78.59700012207031 38.30199813842773 L 78.59700012207031 45.79999923706054 L 75.59500122070312 45.79999923706054 L 72.4990005493164 45.79999923706054 L 21.69499969482422 45.79999923706054 L 8.095000267028809 45.79999923706054 L -17.80500030517578 45.79999923706054 L -18.399999618530273 45.79999923706054 L -21.402999877929688 45.79999923706054 L -21.402999877929688 38.30199813842773 L -18.399999618530273 38.30199813842773 L -18.399999618530273 13.296999931335446 L -21.402999877929688 13.296999931335446 L -21.402999877929688 5.800000190734862 L -18.399999618530273 5.800000190734862 L -17.80500030517578 5.800000190734862 L -15.305000305175781 5.800000190734862 L -14.5 5.800000190734862 L -3.526571750640869 5.800000190734862 L 8.095000267028809 5.800000190734862 L 10.5 5.800000190734862 L 16.097000122070312 5.800000190734862 L 16.097000122070312 2.7999999523162837 L 27.344999313354492 2.7999999523162837 L 29.849000930786133 2.7999999523162837 L 30 2.7999999523162837 L 32 2.7999999523162837 M 24.576000213623047 27.197999954223626 L 21.69499969482422 27.197999954223626 L 21.729000091552734 27.893999099731438 L 21.83099937438965 28.583999633789055 L 22 29.26000022888183 L 22.235000610351562 29.91600036621093 L 22.533000946044922 30.54700088500976 L 22.891000747680664 31.145000457763665 L 23.30699920654297 31.704999923706048 L 23.774999618530273 32.22100067138671 L 24.291000366210938 32.68999862670898 L 24.576000213623047 32.90120697021484 L 24.85099983215332 33.10499954223632 L 25.448999404907227 33.46400070190429 L 26.07900047302246 33.76200103759765 L 26.735000610351562 33.99700164794921 L 27.410999298095703 34.16600036621093 L 28.10099983215332 34.26800155639648 L 28.797000885009766 34.30300140380859 L 29.493000030517578 34.26800155639648 L 30.183000564575195 34.16600036621093 L 30.858999252319336 33.99700164794921 L 31.514999389648438 33.76200103759765 L 32.14500045776367 33.46400070190429 L 32.74300003051758 33.10499954223632 L 32.768001556396484 33.08647155761718 L 33.303001403808594 32.68999862670898 L 33.819000244140625 32.22100067138671 L 34.2869987487793 31.704999923706048 L 34.702999114990234 31.145000457763665 L 35.06100082397461 30.54700088500976 L 35.35900115966797 29.91600036621093 L 35.59400177001953 29.26000022888183 L 35.76300048828125 28.583999633789055 L 35.8650016784668 27.893999099731438 L 35.900001525878906 27.197999954223626 L 32.768001556396484 27.197999954223626 L 24.576000213623047 27.197999954223626 M -6.5091872215271 14.545026779174801 L 0.6000000238418579 15.760999679565426 L -2.615999937057495 7.998000144958494 L -6.782750129699707 13.88488388061523 L -13.890999794006348 12.668000221252438 L -13.617178916931152 13.329258918762203 L -10.675999641418457 20.431999206542965 L -6.5091872215271 14.545026779174801 M -67.30500030517578 -47.700000762939446 L -67.30500030517578 -47.69800186157226 L -67.30500030517578 -44.69800186157226 L -67.30500030517578 -40.485000610351555 L -67.30500030517578 -33.69800186157226 L -24.30299949645996 -33.69800186157226 L -24.30299949645996 -19.00300025939941 L -24.30299949645996 -10.201999664306639 L -27.30500030517578 -10.201999664306639 L -27.30500030517578 3.5520000457763663 L -27.30500030517578 14.803000450134274 L -24.30299949645996 14.803000450134274 L -24.30299949645996 23.60199928283691 L -24.30299949645996 38.29800033569335 L -67.30500030517578 38.29800033569335 L -67.30500030517578 47.58900070190429 L -67.30500030517578 49.298000335693345 L -67.30500030517578 52.298000335693345 L -67.30500030517578 52.29999923706053 L -74.302001953125 52.29999923706053 L -74.30000305175781 52.298000335693345 L -86.8010025024414 52.298000335693345 L -86.8010025024414 49.298000335693345 L -100.552001953125 49.298000335693345 L -111.80400085449219 49.298000335693345 L -111.80400085449219 52.298000335693345 L -119.30000305175781 52.298000335693345 L -119.30000305175781 49.298000335693345 L -119.30000305175781 38.29800033569335 L -119.30000305175781 23.60199928283691 L -119.30000305175781 14.803000450134274 L -116.2979965209961 14.803000450134274 L -116.2979965209961 -10.201999664306639 L -116.2979965209961 -10.203000068664549 L -119.30000305175781 -10.203000068664549 L -119.30000305175781 -19.00300025939941 L -119.30000305175781 -33.69800186157226 L -119.30000305175781 -44.69800186157226 L -119.30000305175781 -47.69800186157226 L -111.80400085449219 -47.69800186157226 L -111.80400085449219 -44.69800186157226 L -100.552001953125 -44.69800186157226 L -98.0479965209961 -44.69800186157226 L -86.802001953125 -44.69800186157226 L -86.802001953125 -47.69800186157226 L -74.30000305175781 -47.69800186157226 L -74.30000305175781 -47.700000762939446 L -67.30500030517578 -47.700000762939446 M -38.809364318847656 -18.32692146301269 L -38.882999420166016 -18.39399909973144 L -39.19200134277344 -18.5620002746582 L -39.2772331237793 -18.585956573486325 L -39.562904357910156 -18.65924263000488 L -39.673606872558594 -18.66302680969238 L -40.09912109375 -18.65031242370605 L -40.18587112426758 -18.63089561462402 L -40.24639129638672 -18.60366058349609 L -40.553001403808594 -18.486999511718746 L -40.625877380371094 -18.436313629150387 L -40.79264450073242 -18.32937431335449 L -40.823753356933594 -18.298690795898434 L -40.956417083740234 -18.16784286499023 L -40.959999084472656 -18.163959503173825 L -41.01643371582031 -18.102783203124996 L -41.0519905090332 -18.04629516601562 L -41.24717330932617 -17.74342536926269 L -41.25238800048828 -17.727937698364254 L -41.28247833251953 -17.638521194458004 L -41.361000061035156 -17.388000488281246 L -41.375999450683594 -16.861999511718746 L -41.28900146484375 -16.520999908447262 L -41.220062255859375 -16.38400077819824 L -41.13100051879883 -16.20700073242187 L -40.97715759277344 -16.006338119506832 L -40.970001220703125 -15.996999740600582 L -40.8928337097168 -15.933957099914547 L -40.72715377807617 -15.791740417480465 L -40.718589782714844 -15.784391403198239 L -40.629825592041016 -15.739756584167477 L -40.3120002746582 -15.569999694824215 L -40.05549621582031 -15.512417793273922 L -39.946807861328125 -15.490478515624996 L -39.55419921875 -15.512165069580075 L -39.4119758605957 -15.531582832336422 L -39.047035217285156 -15.67965221405029 L -38.95600128173828 -15.720000267028805 L -38.67900085449219 -15.93599987030029 L -38.45500183105469 -16.20700073242187 L -38.37073516845703 -16.38400077819824 L -38.26599884033203 -16.60400009155273 L -38.198001861572266 -16.948999404907223 L -38.224998474121094 -17.388000488281246 L -38.25148010253906 -17.472478866577145 L -38.38908004760742 -17.84040832519531 L -38.45489501953125 -17.942539215087887 L -38.59017562866211 -18.127250671386715 L -38.610443115234375 -18.15492248535156 L -38.809364318847656 -18.32692146301269 M -103.2498550415039 -18.565061569213864 L -103.4988784790039 -18.65031242370605 L -103.62899780273438 -18.672000885009762 L -104.06800079345703 -18.65699958801269 L -104.15323638916016 -18.633043289184567 L -104.43516540527344 -18.54629516601562 L -104.54814147949219 -18.476696014404293 L -104.61982727050781 -18.431999206542965 L -104.85399627685547 -18.2859992980957 L -104.91401672363281 -18.220939636230465 L -105.10919952392578 -17.99958229064941 L -105.15357971191406 -17.92267036437988 L -105.31436157226562 -17.599609374999996 L -105.3408432006836 -17.515130996704098 L -105.39094543457031 -17.25712966918945 L -105.39775848388672 -17.146427154541012 L -105.38204956054688 -16.81887817382812 L -105.35708618164062 -16.71094703674316 L -105.3010025024414 -16.520999908447262 L -105.23206329345703 -16.38400077819824 L -105.14299774169922 -16.20700073242187 L -104.86407470703125 -15.883368492126461 L -104.85600280761719 -15.873999595642086 L -104.80203247070312 -15.835165023803707 L -104.69808959960938 -15.754400253295895 L -104.4341049194336 -15.62203502655029 L -104.31104278564453 -15.572104454040524 L -104.08968353271484 -15.507791519165036 L -103.97948455810547 -15.497956275939938 L -103.52182006835938 -15.512165069580075 L -103.45600128173828 -15.522000312805172 L -103.20697021484375 -15.607252120971676 L -103.1136703491211 -15.641799926757809 L -102.81678009033203 -15.84595680236816 L -102.72462463378906 -15.91058540344238 L -102.71717071533203 -15.915808677673336 L -102.66069030761719 -15.984148025512692 L -102.46700286865234 -16.20700073242187 L -102.42715454101562 -16.28618240356445 L -102.38433837890625 -16.38400077819824 L -102.26936340332031 -16.64663505554199 L -102.24742889404297 -16.732625961303707 L -102.21377563476562 -17.02577400207519 L -102.21150207519531 -17.11428642272949 L -102.22840118408203 -17.201286315917965 L -102.27999877929688 -17.55800056457519 L -102.3102798461914 -17.622915267944332 L -102.4000015258789 -17.815244674682614 L -102.4048843383789 -17.825721740722653 L -102.4561538696289 -17.92695808410644 L -102.46490478515625 -17.94424247741699 L -102.5249252319336 -18.009304046630856 L -102.75599670410156 -18.2859992980957 L -102.80921173095703 -18.326095581054684 L -102.96871948242188 -18.431999206542965 L -103.08291625976562 -18.507818222045895 L -103.08352661132812 -18.508121490478512 L -103.1426773071289 -18.53732109069824 L -103.2498550415039 -18.565061569213864 M -102.521484375 20.88640975952148 L -102.64495086669922 20.736484527587887 L -102.68900299072266 20.68300056457519 L -102.92755889892578 20.50875663757324 L -102.96324157714844 20.479999542236325 L -102.97950744628906 20.466896057128903 L -103.05742645263672 20.424781799316403 L -103.32814025878906 20.307373046874996 L -103.45750427246094 20.278373718261715 L -103.71700286865234 20.23500061035156 L -104.06800079345703 20.253999710083004 L -104.15323638916016 20.27820777893066 L -104.36810302734375 20.34489250183105 L -104.43516540527344 20.36570358276367 L -104.58016204833984 20.466070175170895 L -104.60454559326172 20.479999542236325 L -104.836669921875 20.612644195556637 L -104.98100280761719 20.747999191284176 L -105.18107604980469 21.020215988159176 L -105.18900299072266 21.031000137329098 L -105.21800231933594 21.091016769409176 L -105.23968505859375 21.17726135253906 L -105.37728881835938 21.545938491821286 L -105.37703704833984 21.645547866821286 L -105.39871978759766 21.907287597656246 L -105.37653350830078 22.004373550415036 L -105.3761215209961 22.005836486816403 L -105.23057556152344 22.527999877929684 L -105.21874237060547 22.57047843933105 L -105.15242004394531 22.68521690368652 L -105.03800201416016 22.846000671386715 L -104.78600311279297 23.09099960327148 L -104.51704406738281 23.256509780883786 L -104.48699951171875 23.27499961853027 L -104.20581817626953 23.363990783691403 L -104.12184143066406 23.392992019653317 L -104.01164245605469 23.402574539184567 L -103.63175201416016 23.412588119506832 L -103.58612823486328 23.413791656494137 L -103.39468383789062 23.363687515258786 L -103.30718231201172 23.349060058593746 L -102.90933990478516 23.12097358703613 L -102.8268814086914 23.087686538696286 L -102.77165222167969 23.050617218017575 L -102.7081069946289 22.988834381103512 L -102.51441955566406 22.76523399353027 L -102.4559097290039 22.671175003051754 L -102.4000015258789 22.560483932495114 L -102.30859375 22.379522323608395 L -102.28740692138672 22.316478729248043 L -102.27530670166016 22.22846984863281 L -102.2094955444336 21.940557479858395 L -102.2125244140625 21.87423515319824 L -102.22000122070312 21.611000061035153 L -102.2254867553711 21.59002876281738 L -102.27832794189453 21.388147354125973 L -102.31792449951172 21.261304855346676 L -102.4000015258789 21.085351943969723 L -102.44281005859375 20.993581771850582 L -102.47984313964844 20.93697929382324 L -102.4914779663086 20.91919136047363 L -102.521484375 20.88640975952148 M 128.09100341796875 6.3669228553771955 L 127.77200317382812 6.471000194549559 L 127.45099639892578 6.703999996185301 L 127.21800231933594 7.02500009536743 L 127.09500122070312 7.401999950408934 L 127.09500122070312 7.797999858856199 L 127.21800231933594 8.175000190734862 L 127.45099639892578 8.49600028991699 L 127.77200317382812 8.729000091552733 L 128.09100341796875 8.83307647705078 L 128.1490020751953 8.852000236511229 L 128.5449981689453 8.852000236511229 L 128.9219970703125 8.729000091552733 L 129.2429962158203 8.49600028991699 L 129.4759979248047 8.175000190734862 L 129.5989990234375 7.797999858856199 L 129.5989990234375 7.401999950408934 L 129.4759979248047 7.02500009536743 L 129.2429962158203 6.703999996185301 L 128.9219970703125 6.471000194549559 L 128.5449981689453 6.348000049591063 L 128.1490020751953 6.348000049591063 L 128.09100341796875 6.3669228553771955 M 88.00599670410156 8.535922050476072 L 88.27200317382812 8.729000091552733 L 88.64900207519531 8.852000236511229 L 89.04499816894531 8.852000236511229 L 89.4219970703125 8.729000091552733 L 89.74299621582031 8.49600028991699 L 89.97599792480469 8.175000190734862 L 90.0989990234375 7.797999858856199 L 90.0989990234375 7.401999950408934 L 89.97599792480469 7.02500009536743 L 89.74299621582031 6.703999996185301 L 89.4219970703125 6.471000194549559 L 89.04499816894531 6.348000049591063 L 88.64900207519531 6.348000049591063 L 88.27200317382812 6.471000194549559 L 88.00599670410156 6.664077758789061 L 87.95099639892578 6.703999996185301 L 87.71800231933594 7.02500009536743 L 87.59500122070312 7.401999950408934 L 87.59500122070312 7.797999858856199 L 87.71800231933594 8.175000190734862 L 87.95099639892578 8.49600028991699 L 88.00599670410156 8.535922050476072 M 118.96199798583984 36.40200042724609 L 119.0999984741211 33.562000274658196 L 119.0999984741211 -18.361999511718746 L 118.96199798583984 -21.201999664306637 L 118.54900360107422 -23.229999542236325 L 117.86199951171875 -24.447000503540032 L 116.89900207519531 -24.853000640869134 L 99.29499816894531 -24.853000640869134 L 98.33200073242188 -24.447000503540032 L 97.6449966430664 -23.229999542236325 L 97.23200225830078 -21.201999664306637 L 97.09500122070312 -18.361999511718746 L 97.09500122070312 8.852000236511229 L 97.09500122070312 33.562000274658196 L 97.23200225830078 36.40200042724609 L 97.6449966430664 38.430000305175774 L 98.33200073242188 39.64699935913085 L 99.29499816894531 40.05199813842773 L 116.89900207519531 40.05199813842773 L 117.86199951171875 39.64699935913085 L 118.54900360107422 38.430000305175774 L 118.96199798583984 36.40200042724609 M 81.2750015258789 -17.87100028991699 L 81.6520004272461 -17.747999191284176 L 82.0479965209961 -17.747999191284176 L 82.42500305175781 -17.87100028991699 L 82.74600219726562 -18.10400009155273 L 82.97899627685547 -18.424999237060543 L 83.10199737548828 -18.802000045776364 L 83.10199737548828 -19.19799995422363 L 82.97899627685547 -19.57500076293945 L 82.74600219726562 -19.895999908447262 L 82.42500305175781 -20.128999710083004 L 82.0479965209961 -20.252000808715817 L 81.6520004272461 -20.252000808715817 L 81.2750015258789 -20.128999710083004 L 80.99700164794922 -19.927211761474606 L 80.9540023803711 -19.895999908447262 L 80.72100067138672 -19.57500076293945 L 80.5979995727539 -19.19799995422363 L 80.5979995727539 -18.802000045776364 L 80.72100067138672 -18.424999237060543 L 80.9540023803711 -18.10400009155273 L 80.99700164794922 -18.072788238525387 L 81.2750015258789 -17.87100028991699 M 62.87099838256836 -40.42499923706054 L 62.74800109863281 -40.04800033569335 L 62.74800109863281 -39.65200042724609 L 62.87099838256836 -39.2750015258789 L 63.07061004638672 -38.99999999999999 L 63.104000091552734 -38.95399856567382 L 63.42499923706055 -38.72100067138671 L 63.801998138427734 -38.5979995727539 L 64.197998046875 -38.5979995727539 L 64.57499694824219 -38.72100067138671 L 64.89600372314453 -38.95399856567382 L 64.92938995361328 -38.99999999999999 L 65.12899780273438 -39.2750015258789 L 65.25199890136719 -39.65200042724609 L 65.25199890136719 -40.04800033569335 L 65.12899780273438 -40.42499923706054 L 64.89600372314453 -40.74599838256835 L 64.57499694824219 -40.97900009155273 L 64.197998046875 -41.10200119018554 L 63.801998138427734 -41.10200119018554 L 63.42499923706055 -40.97900009155273 L 63.104000091552734 -40.74599838256835 L 62.87099838256836 -40.42499923706054 M 62.87099838256836 -0.7250000238418577 L 62.74800109863281 -0.3479999899864195 L 62.74800109863281 0.04800000041723261 L 62.87099838256836 0.42500001192092896 L 63.104000091552734 0.7459999918937683 L 63.42499923706055 0.9789999723434447 L 63.48936462402344 0.9999999999999999 L 63.801998138427734 1.1019999980926514 L 64.197998046875 1.1019999980926514 L 64.51063537597656 0.9999999999999999 L 64.57499694824219 0.9789999723434447 L 64.89600372314453 0.7459999918937683 L 65.12899780273438 0.42500001192092896 L 65.25199890136719 0.04800000041723261 L 65.25199890136719 -0.3479999899864195 L 65.12899780273438 -0.7250000238418577 L 64.89600372314453 -1.0460000038146968 L 64.57499694824219 -1.279000043869018 L 64.197998046875 -1.401999950408935 L 63.801998138427734 -1.401999950408935 L 63.42499923706055 -1.279000043869018 L 63.104000091552734 -1.0460000038146968 L 62.87099838256836 -0.7250000238418577 M -0.8709999918937683 -40.42499923706054 L -1.1039999723434448 -40.74599838256835 L -1.4249999523162842 -40.97900009155273 L -1.8020000457763672 -41.10200119018554 L -2.197999954223633 -41.10200119018554 L -2.575000047683716 -40.97900009155273 L -2.8959999084472656 -40.74599838256835 L -3.128999948501587 -40.42499923706054 L -3.252000093460083 -40.04800033569335 L -3.252000093460083 -39.65200042724609 L -3.128999948501587 -39.2750015258789 L -2.929389476776123 -38.99999999999999 L -2.8959999084472656 -38.95399856567382 L -2.575000047683716 -38.72100067138671 L -2.197999954223633 -38.5979995727539 L -1.8020000457763672 -38.5979995727539 L -1.4249999523162842 -38.72100067138671 L -1.1039999723434448 -38.95399856567382 L -1.0706106424331665 -38.99999999999999 L -0.8709999918937683 -39.2750015258789 L -0.7480000257492065 -39.65200042724609 L -0.7480000257492065 -40.04800033569335 L -0.8709999918937683 -40.42499923706054 M -2.510634183883667 0.9999999999999999 L -2.197999954223633 1.1019999980926514 L -1.8020000457763672 1.1019999980926514 L -1.489365816116333 0.9999999999999999 L -1.4249999523162842 0.9789999723434447 L -1.1039999723434448 0.7459999918937683 L -0.8709999918937683 0.42500001192092896 L -0.7480000257492065 0.04800000041723261 L -0.7480000257492065 -0.3479999899864195 L -0.8709999918937683 -0.7250000238418577 L -1.1039999723434448 -1.0460000038146968 L -1.4249999523162842 -1.279000043869018 L -1.8020000457763672 -1.401999950408935 L -2.197999954223633 -1.401999950408935 L -2.575000047683716 -1.279000043869018 L -2.8959999084472656 -1.0460000038146968 L -3.128999948501587 -0.7250000238418577 L -3.252000093460083 -0.3479999899864195 L -3.252000093460083 0.04800000041723261 L -3.128999948501587 0.42500001192092896 L -2.8959999084472656 0.7459999918937683 L -2.575000047683716 0.9789999723434447 L -2.510634183883667 0.9999999999999999 M 8.057999610900879 -9.93000030517578 L 8.102999687194824 -9.82199954986572 L 8.192000389099121 -9.642146110534666 L 8.53499984741211 -8.949000358581541 L 9.004100799560547 -8.19200038909912 L 9.045000076293945 -8.126000404357908 L 9.628999710083008 -7.3569998741149885 L 10.282999992370605 -6.65000009536743 L 11.00100040435791 -6.005000114440916 L 11.777999877929688 -5.432000160217284 L 12.609000205993652 -4.933000087738036 L 13.489999771118164 -4.513000011444091 L 14.414999961853027 -4.177999973297118 L 15.378999710083008 -3.933000087738036 L 16.097000122070312 -3.8237547874450675 L 16.378000259399414 -3.7809998989105216 L 17.4060001373291 -3.7300000190734854 L 17.4060001373291 -8.19200038909912 L 17.4060001373291 -9.93000030517578 L 17.4060001373291 -16.38400077819824 L 17.4060001373291 -23.986000061035153 L 16.881000518798828 -23.97200012207031 L 16.384000778198242 -23.934581756591793 L 16.363000869750977 -23.93300056457519 L 16.097000122070312 -23.89864349365234 L 15.85200023651123 -23.86700057983398 L 15.348999977111816 -23.77700042724609 L 14.855999946594238 -23.66300010681152 L 14.371999740600586 -23.524000167846676 L 13.89799976348877 -23.364000320434567 L 13.435999870300293 -23.180000305175778 L 12.984000205993652 -22.97400093078613 L 12.545000076293945 -22.747999191284176 L 12.288000106811523 -22.599336624145504 L 12.118000030517578 -22.50099945068359 L 11.704999923706055 -22.233999252319332 L 11.055000305175781 -21.753999710083004 L 11.045999526977539 -21.746168136596676 L 10.446000099182129 -21.22400093078613 L 9.880000114440918 -20.646999359130856 L 9.36299991607666 -20.02700042724609 L 8.895000457763672 -19.365999221801754 L 8.479999542236328 -18.669000625610348 L 8.192000389099121 -18.08176803588867 L 8.121000289916992 -17.9370002746582 L 7.820000171661377 -17.172000885009762 L 7.583201885223389 -16.38400077819824 L 7.581999778747559 -16.379999160766598 L 7.4079999923706055 -15.56099987030029 L 7.301000118255615 -14.718999862670895 L 7.264999866485596 -13.857999801635739 L 7.270999908447266 -13.501000404357907 L 7.289000034332275 -13.147000312805172 L 7.320000171661377 -12.795999526977536 L 7.36299991607666 -12.44900035858154 L 7.388347148895264 -12.28800010681152 L 7.416999816894531 -12.105999946594235 L 7.48199987411499 -11.765999794006346 L 7.559000015258789 -11.430999755859373 L 7.645999908447266 -11.098999977111815 L 7.74399995803833 -10.772000312805174 L 7.854000091552734 -10.451000213623045 L 7.9730000495910645 -10.133999824523924 L 8.057999610900879 -9.93000030517578 M -18.996999740600586 -18.072788238525387 L -18.95400047302246 -18.10400009155273 L -18.72100067138672 -18.424999237060543 L -18.597999572753906 -18.802000045776364 L -18.597999572753906 -19.19799995422363 L -18.72100067138672 -19.57500076293945 L -18.95400047302246 -19.895999908447262 L -18.996999740600586 -19.927211761474606 L -19.274999618530273 -20.128999710083004 L -19.652000427246094 -20.252000808715817 L -20.04800033569336 -20.252000808715817 L -20.424999237060547 -20.128999710083004 L -20.746000289916992 -19.895999908447262 L -20.979000091552734 -19.57500076293945 L -21.101999282836914 -19.19799995422363 L -21.101999282836914 -18.802000045776364 L -20.979000091552734 -18.424999237060543 L -20.746000289916992 -18.10400009155273 L -20.424999237060547 -17.87100028991699 L -20.04800033569336 -17.747999191284176 L -19.652000427246094 -17.747999191284176 L -19.274999618530273 -17.87100028991699 L -18.996999740600586 -18.072788238525387 M 29.72599983215332 4.9749999046325675 L 29.493000030517578 4.653999805450439 L 29.172000885009766 4.421000003814696 L 28.795000076293945 4.2979998588562 L 28.39900016784668 4.2979998588562 L 28.02199935913086 4.421000003814696 L 27.701000213623047 4.653999805450439 L 27.468000411987305 4.9749999046325675 L 27.344999313354492 5.35200023651123 L 27.344999313354492 5.748000144958495 L 27.36196517944336 5.800000190734862 L 27.468000411987305 6.124999999999998 L 27.701000213623047 6.446000099182127 L 28.02199935913086 6.678999900817869 L 28.39900016784668 6.802000045776365 L 28.795000076293945 6.802000045776365 L 29.172000885009766 6.678999900817869 L 29.493000030517578 6.446000099182127 L 29.72599983215332 6.124999999999998 L 29.832035064697266 5.800000190734862 L 29.849000930786133 5.748000144958495 L 29.849000930786133 5.35200023651123 L 29.72599983215332 4.9749999046325675 M 15.310999870300293 26.263999938964837 L 16.094999313354492 26.30200004577636 L 16.384000778198242 26.28800964355468 L 16.8799991607666 26.263999938964837 L 17.6560001373291 26.149000167846673 L 18.417999267578125 25.95800018310546 L 19.156999588012695 25.693000793457024 L 19.867000579833984 25.357999801635735 L 20.541000366210938 24.954000473022454 L 21.049846649169922 24.57600021362304 L 21.17099952697754 24.48600006103515 L 21.753000259399414 23.95899963378906 L 22.280000686645508 23.377000808715817 L 22.74799919128418 22.74600028991699 L 23.152000427246094 22.072000503540036 L 23.48699951171875 21.361999511718746 L 23.75200080871582 20.622999191284176 L 23.94300079345703 19.861000061035153 L 24.058000564575195 19.08399963378906 L 24.09600067138672 18.299999237060543 L 24.058000564575195 17.51600074768066 L 23.94300079345703 16.739000320434567 L 23.85401725769043 16.38400077819824 L 23.75200080871582 15.977000236511227 L 23.48699951171875 15.237999916076657 L 23.152000427246094 14.527999877929684 L 22.74799919128418 13.85400009155273 L 22.280000686645508 13.222999572753903 L 21.753000259399414 12.640999794006344 L 21.17099952697754 12.114000320434567 L 20.541000366210938 11.645999908447264 L 19.867000579833984 11.241999626159666 L 19.156999588012695 10.906999588012694 L 18.417999267578125 10.642000198364256 L 17.6560001373291 10.451000213623045 L 16.8799991607666 10.336000442504881 L 16.384000778198242 10.311357498168944 L 16.094999313354492 10.296999931335447 L 15.310999870300293 10.336000442504881 L 14.53499984741211 10.451000213623045 L 13.77299976348877 10.642000198364256 L 13.034000396728516 10.906999588012694 L 12.324000358581543 11.241999626159666 L 12.288000106811523 11.26357841491699 L 11.649999618530273 11.645999908447264 L 11.020000457763672 12.114000320434567 L 10.437999725341797 12.640999794006344 L 9.91100025177002 13.222999572753903 L 9.442999839782715 13.85400009155273 L 9.038999557495117 14.527999877929684 L 8.704000473022461 15.237999916076657 L 8.439000129699707 15.977000236511227 L 8.336982727050781 16.38400077819824 L 8.248000144958496 16.739000320434567 L 8.133000373840332 17.51600074768066 L 8.095000267028809 18.299999237060543 L 8.133000373840332 19.08399963378906 L 8.248000144958496 19.861000061035153 L 8.439000129699707 20.622999191284176 L 8.704000473022461 21.361999511718746 L 9.038999557495117 22.072000503540036 L 9.442999839782715 22.74600028991699 L 9.91100025177002 23.377000808715817 L 10.437999725341797 23.95899963378906 L 11.020000457763672 24.48600006103515 L 11.141154289245605 24.57600021362304 L 11.649999618530273 24.954000473022454 L 12.324000358581543 25.357999801635735 L 13.034000396728516 25.693000793457024 L 13.77299976348877 25.95800018310546 L 14.53499984741211 26.149000167846673 L 15.310999870300293 26.263999938964837 M 40.959999084472656 26.295270919799798 L 41.0989990234375 26.30200004577636 L 41.882999420166016 26.263999938964837 L 42.659000396728516 26.149000167846673 L 43.42100143432617 25.95800018310546 L 44.15999984741211 25.693000793457024 L 44.869998931884766 25.357999801635735 L 45.54399871826172 24.954000473022454 L 46.0528450012207 24.57600021362304 L 46.17399978637695 24.48600006103515 L 46.75600051879883 23.95899963378906 L 47.28300094604492 23.377000808715817 L 47.750999450683594 22.74600028991699 L 48.154998779296875 22.072000503540036 L 48.4900016784668 21.361999511718746 L 48.755001068115234 20.622999191284176 L 48.94599914550781 19.861000061035153 L 49.06100082397461 19.08399963378906 L 49.099998474121094 18.299999237060543 L 49.06100082397461 17.51600074768066 L 48.94599914550781 16.739000320434567 L 48.857017517089844 16.38400077819824 L 48.755001068115234 15.977000236511227 L 48.4900016784668 15.237999916076657 L 48.154998779296875 14.527999877929684 L 47.750999450683594 13.85400009155273 L 47.28300094604492 13.222999572753903 L 46.75600051879883 12.640999794006344 L 46.17399978637695 12.114000320434567 L 45.54399871826172 11.645999908447264 L 45.055999755859375 11.353489875793455 L 44.869998931884766 11.241999626159666 L 44.15999984741211 10.906999588012694 L 43.42100143432617 10.642000198364256 L 42.659000396728516 10.451000213623045 L 41.882999420166016 10.336000442504881 L 41.0989990234375 10.296999931335447 L 40.959999084472656 10.303905487060545 L 40.31399917602539 10.336000442504881 L 39.53799819946289 10.451000213623045 L 38.7760009765625 10.642000198364256 L 38.0369987487793 10.906999588012694 L 37.32699966430664 11.241999626159666 L 36.65299987792969 11.645999908447264 L 36.02299880981445 12.114000320434567 L 35.441001892089844 12.640999794006344 L 34.91400146484375 13.222999572753903 L 34.44599914550781 13.85400009155273 L 34.04199981689453 14.527999877929684 L 33.707000732421875 15.237999916076657 L 33.44200134277344 15.977000236511227 L 33.33998107910156 16.38400077819824 L 33.250999450683594 16.739000320434567 L 33.13600158691406 17.51600074768066 L 33.097999572753906 18.299999237060543 L 33.13600158691406 19.08399963378906 L 33.250999450683594 19.861000061035153 L 33.44200134277344 20.622999191284176 L 33.707000732421875 21.361999511718746 L 34.04199981689453 22.072000503540036 L 34.44599914550781 22.74600028991699 L 34.91400146484375 23.377000808715817 L 35.441001892089844 23.95899963378906 L 36.02299880981445 24.48600006103515 L 36.1441535949707 24.57600021362304 L 36.65299987792969 24.954000473022454 L 37.32699966430664 25.357999801635735 L 38.0369987487793 25.693000793457024 L 38.7760009765625 25.95800018310546 L 39.53799819946289 26.149000167846673 L 40.31399917602539 26.263999938964837 L 40.959999084472656 26.295270919799798 M 74.87699890136719 25.22500038146972 L 74.64399719238281 24.903999328613274 L 74.3239974975586 24.670999526977532 L 73.9469985961914 24.548000335693352 L 73.5510025024414 24.548000335693352 L 73.17500305175781 24.670999526977532 L 72.85399627685547 24.903999328613274 L 72.62200164794922 25.22500038146972 L 72.4990005493164 25.601999282836907 L 72.4990005493164 25.997999191284173 L 72.59818267822266 26.30200004577636 L 72.62200164794922 26.374999999999993 L 72.85399627685547 26.695999145507805 L 73.17500305175781 26.92900085449218 L 73.5510025024414 27.05200004577636 L 73.9469985961914 27.05200004577636 L 74.3239974975586 26.92900085449218 L 74.64399719238281 26.695999145507805 L 74.87699890136719 26.374999999999993 L 74.90062713623047 26.30200004577636 L 74.9990005493164 25.997999191284173 L 74.9990005493164 25.601999282836907 L 74.87699890136719 25.22500038146972 M -15.428000450134277 25.22500038146972 L -15.65999984741211 24.903999328613274 L -15.980999946594238 24.670999526977532 L -16.35700035095215 24.548000335693352 L -16.753000259399414 24.548000335693352 L -17.1299991607666 24.670999526977532 L -17.450000762939453 24.903999328613274 L -17.683000564575195 25.22500038146972 L -17.80500030517578 25.601999282836907 L -17.80500030517578 25.997999191284173 L -17.683000564575195 26.374999999999993 L -17.450000762939453 26.695999145507805 L -17.1299991607666 26.92900085449218 L -16.753000259399414 27.05200004577636 L -16.35700035095215 27.05200004577636 L -15.980999946594238 26.92900085449218 L -15.65999984741211 26.695999145507805 L -15.428000450134277 26.374999999999993 L -15.305000305175781 25.997999191284173 L -15.305000305175781 25.601999282836907 L -15.428000450134277 25.22500038146972 M -28.92099952697754 1.7250000238418575 L -29.15399932861328 1.4040000438690186 L -29.475000381469727 1.1710000038146973 L -29.851999282836914 1.0479999780654907 L -30.24799919128418 1.0479999780654907 L -30.625 1.1710000038146973 L -30.945999145507812 1.4040000438690186 L -31.179000854492188 1.7250000238418575 L -31.302000045776367 2.101999998092651 L -31.302000045776367 2.4979999065399165 L -31.179000854492188 2.8749999999999996 L -30.945999145507812 3.196000099182128 L -30.625 3.42899990081787 L -30.24799919128418 3.5520000457763663 L -29.851999282836914 3.5520000457763663 L -29.475000381469727 3.42899990081787 L -29.15399932861328 3.196000099182128 L -28.92099952697754 2.8749999999999996 L -28.79800033569336 2.4979999065399165 L -28.79800033569336 2.101999998092651 L -28.92099952697754 1.7250000238418575 M -57.34400177001953 -10.151000022888182 L -65.53600311279297 -10.151000022888182 L -73.72799682617188 -10.151000022888182 L -76.11499786376953 -10.151000022888182 L -76.83982849121094 -10.151000022888182 L -77.17930603027344 -10.151000022888182 L -77.50662231445312 -10.151000022888182 L -77.61215209960938 -10.151000022888182 L -77.85053253173828 -10.151000022888182 L -78.49044799804688 -10.151000022888182 L -78.77821350097656 -10.151000022888182 L -81.91999816894531 -10.151000022888182 L -90.11199951171875 -10.151000022888182 L -91.06300354003906 -10.151000022888182 L -91.06300354003906 -8.19200038909912 L -91.06300354003906 1.1102230246251565e-16 L -91.06300354003906 8.19200038909912 L -91.06300354003906 14.803000450134274 L -91.06300354003906 16.38400077819824 L -91.06300354003906 17.201023101806637 L -91.06300354003906 17.250690460205075 L -91.06300354003906 17.295906066894528 L -91.06300354003906 17.296041488647457 L -91.06300354003906 18.043333053588864 L -91.06300354003906 18.059549331665036 L -91.06300354003906 18.149900436401364 L -91.06300354003906 18.249166488647457 L -91.06300354003906 18.431999206542965 L -91.06300354003906 19.88600349426269 L -91.06300354003906 19.905481338500973 L -91.06300354003906 20.07107353210449 L -91.06300354003906 20.479999542236325 L -91.06300354003906 20.647512435913082 L -91.06300354003906 20.663547515869137 L -91.06300354003906 20.692239761352536 L -91.06300354003906 20.752000808715817 L -90.11199951171875 20.752000808715817 L -88.98295593261719 20.752000808715817 L -88.84234619140625 20.752000808715817 L -88.66547393798828 20.752000808715817 L -88.62715911865234 20.752000808715817 L -88.5025634765625 20.752000808715817 L -86.41766357421875 20.752000808715817 L -86.3290786743164 20.752000808715817 L -86.2516098022461 20.752000808715817 L -86.01599884033203 20.752000808715817 L -85.97362518310547 20.752000808715817 L -83.89520263671875 20.752000808715817 L -83.63420104980469 20.752000808715817 L -83.5972900390625 20.752000808715817 L -83.49566650390625 20.752000808715817 L -83.40670013427734 20.752000808715817 L -81.91999816894531 20.752000808715817 L -81.33666229248047 20.752000808715817 L -81.22147369384766 20.752000808715817 L -81.11551666259766 20.752000808715817 L -81.00672149658203 20.752000808715817 L -80.94597625732422 20.752000808715817 L -80.90746307373047 20.752000808715817 L -78.09331512451172 20.752000808715817 L -77.95133972167969 20.752000808715817 L -77.95088958740234 20.752000808715817 L -77.8239974975586 20.752000808715817 L -77.34635925292969 20.752000808715817 L -77.34349822998047 20.752000808715817 L -77.3145523071289 20.752000808715817 L -77.22746276855469 20.752000808715817 L -77.20572662353516 20.752000808715817 L -73.72799682617188 20.752000808715817 L -65.53600311279297 20.752000808715817 L -65.32054138183594 20.752000808715817 L -65.00965881347656 20.752000808715817 L -64.85860443115234 20.752000808715817 L -64.68394470214844 20.752000808715817 L -64.66073608398438 20.752000808715817 L -64.47409057617188 20.752000808715817 L -64.39692687988281 20.752000808715817 L -63.847999572753906 20.752000808715817 L -63.84327697753906 20.752000808715817 L -63.83237838745117 20.752000808715817 L -63.487998962402344 20.752000808715817 L -63.07997131347656 20.752000808715817 L -62.452999114990234 20.752000808715817 L -62.17866897583008 20.752000808715817 L -62.03364944458008 20.752000808715817 L -62.0074577331543 20.752000808715817 L -61.904335021972656 20.752000808715817 L -61.87138366699219 20.752000808715817 L -61.85599899291992 20.752000808715817 L -61.439998626708984 20.752000808715817 L -61.32765579223633 20.752000808715817 L -61.24370193481445 20.752000808715817 L -57.34400177001953 20.752000808715817 L -53.060001373291016 20.752000808715817 L -53.060001373291016 16.38400077819824 L -53.060001373291016 14.803000450134274 L -53.060001373291016 8.19200038909912 L -53.060001373291016 1.1102230246251565e-16 L -53.060001373291016 -8.19200038909912 L -53.060001373291016 -10.151000022888182 L -57.34400177001953 -10.151000022888182 M -111.9209976196289 1.7250000238418575 L -112.15399932861328 1.4040000438690186 L -112.4749984741211 1.1710000038146973 L -112.85199737548828 1.0479999780654907 L -113.24800109863281 1.0479999780654907 L -113.625 1.1710000038146973 L -113.94599914550781 1.4040000438690186 L -114.17900085449219 1.7250000238418575 L -114.302001953125 2.101999998092651 L -114.302001953125 2.4979999065399165 L -114.17900085449219 2.8749999999999996 L -113.94599914550781 3.196000099182128 L -113.625 3.42899990081787 L -113.24800109863281 3.5520000457763663 L -112.85199737548828 3.5520000457763663 L -112.4749984741211 3.42899990081787 L -112.15399932861328 3.196000099182128 L -111.9209976196289 2.8749999999999996 L -111.7979965209961 2.4979999065399165 L -111.7979965209961 2.101999998092651 L -111.9209976196289 1.7250000238418575 M -98.1709976196289 -42.31299972534179 L -98.40399932861328 -42.63299942016601 L -98.7239990234375 -42.86600112915038 L -99.10199737548828 -42.98899841308593 L -99.49800109863281 -42.98899841308593 L -99.875 -42.86600112915038 L -100.19599914550781 -42.63299942016601 L -100.42900085449219 -42.31299972534179 L -100.552001953125 -41.93500137329101 L -100.552001953125 -41.53900146484374 L -100.42900085449219 -41.16199874877929 L -100.19599914550781 -40.84099960327148 L -99.875 -40.60800170898437 L -99.49800109863281 -40.485000610351555 L -99.10199737548828 -40.485000610351555 L -98.7239990234375 -40.60800170898437 L -98.40399932861328 -40.84099960327148 L -98.1709976196289 -41.16199874877929 L -98.0479965209961 -41.53900146484374 L -98.0479965209961 -41.93500137329101 L -98.1709976196289 -42.31299972534179 M -98.1709976196289 45.76200103759765 L -98.40399932861328 45.44100189208984 L -98.7239990234375 45.20800018310546 L -99.10199737548828 45.08499908447265 L -99.49800109863281 45.08499908447265 L -99.875 45.20800018310546 L -100.19599914550781 45.44100189208984 L -100.42900085449219 45.76200103759765 L -100.552001953125 46.13899993896484 L -100.552001953125 46.5349998474121 L -100.42900085449219 46.91199874877929 L -100.19599914550781 47.23300170898437 L -99.875 47.46599960327148 L -99.49800109863281 47.58900070190429 L -99.10199737548828 47.58900070190429 L -98.7239990234375 47.46599960327148 L -98.40399932861328 47.23300170898437 L -98.1709976196289 46.91199874877929 L -98.0479965209961 46.5349998474121 L -98.0479965209961 46.13899993896484 L -98.1709976196289 45.76200103759765 M -39.19200134277344 20.350000381469723 L -39.2772331237793 20.325792312622067 L -39.562904357910156 20.25250434875488 L -39.69554901123047 20.25250434875488 L -40.055999755859375 20.253999710083004 L -40.3129997253418 20.3169994354248 L -40.401763916015625 20.36213874816894 L -40.631595611572266 20.479999542236325 L -40.693416595458984 20.511703491210934 L -40.76982498168945 20.57525253295898 L -40.959999084472656 20.741025924682614 L -40.96799850463867 20.747999191284176 L -41.040626525878906 20.858955383300778 L -41.196922302246094 21.070590972900387 L -41.23283767700195 21.152614593505856 L -41.302364349365234 21.311391830444332 L -41.3331298828125 21.41806030273437 L -41.37799835205078 21.611000061035153 L -41.379512786865234 21.68841743469238 L -41.39073181152344 21.819286346435543 L -41.38372802734375 21.90404891967773 L -41.36904525756836 22.081773757934567 L -41.35562515258789 22.163551330566403 L -41.3529052734375 22.180122375488278 L -41.3372688293457 22.221731185913082 L -41.257999420166016 22.472999572753903 L -41.20554733276367 22.557729721069332 L -40.99017333984375 22.88752174377441 L -40.959999084472656 22.91835212707519 L -40.92057418823242 22.95863533020019 L -40.77399826049805 23.09099960327148 L -40.474998474121094 23.27499961853027 L -40.225975036621094 23.361000061035153 L -40.12969207763672 23.391792297363278 L -40.12031173706055 23.39479064941406 L -40.0761833190918 23.399581909179684 L -39.913421630859375 23.423278808593746 L -39.88100051879883 23.427999496459957 L -39.77080154418945 23.418416976928707 L -39.5733757019043 23.411687850952145 L -39.31686782836914 23.354104995727536 L -39.22356414794922 23.31930351257324 L -38.87807083129883 23.131599426269528 L -38.77846145629883 23.0620002746582 L -38.59000778198242 22.878782272338864 L -38.511329650878906 22.77186012268066 L -38.367000579833984 22.552000045776364 L -38.358028411865234 22.527999877929684 L -38.24399948120117 22.222999572753903 L -38.19599914550781 21.874000549316403 L -38.224998474121094 21.524000167846676 L -38.33000183105469 21.187999725341793 L -38.505001068115234 20.88400077819824 L -38.882999420166016 20.517000198364254 L -38.95146179199219 20.479999542236325 L -39.19200134277344 20.350000381469723 M 9.293999671936035 -30.24699974060058 L 11.045999526977539 -30.24699974060058 L 16.097000122070312 -30.24699974060058 L 17.402000427246094 -30.24699974060058 L 17.405000686645508 -30.24699974060058 L 17.405000686645508 -34.30199813842773 L 16.097000122070312 -34.30199813842773 L 11.045999526977539 -34.30199813842773 L 9.293999671936035 -34.30199813842773 L 9.293999671936035 -30.24699974060058 z" fill="none" stroke="rgb(255,0,0)" stroke-width="0.001mm" />
</svg>