  0
SECTION
  2
HEADER
  9
$ACADVER
  1
AC1014
  9
$HANDSEED
  5
FFFF
  9
$INSUNITS
 70
     4
  9
$MEASUREMENT
 70
     1
  0
ENDSEC
  0
SECTION
  2
TABLES
  0
TABLE
  2
VPORT
  5
8
330
0
100
AcDbSymbolTable
 70
     4
  0
VPORT
  5
2E
330
8
100
AcDbSymbolTableRecord
100
AcDbViewportTableRecord
  2
*ACTIVE
 70
     0
 10
0.0
 20
0.0
 11
1.0
 21
1.0
 12
210.0
 22
148.5
 13
0.0
 23
0.0
 14
10.0
 24
10.0
 15
10.0
 25
10.0
 16
0.0
 26
0.0
 36
1.0
 17
0.0
 27
0.0
 37
0.0
 40
341.0
 41
1.24
 42
50.0
 43
0.0
 44
0.0
 50
0.0
 51
0.0
 71
     0
 72
   100
 73
     1
 74
     3
 75
     0
 76
     0
 77
     0
 78
     0
  0
ENDTAB
  0
TABLE
  2
LTYPE
  5
5
330
0
100
AcDbSymbolTable
 70
     1
  0
LTYPE
  5
14
330
5
100
AcDbSymbolTableRecord
100
AcDbLinetypeTableRecord
  2
BYBLOCK
 70
     0
  3

 72
    65
 73
     0
 40
0.0
  0
LTYPE
  5
15
330
5
100
AcDbSymbolTableRecord
100
AcDbLinetypeTableRecord
  2
BYLAYER
 70
     0
  3

 72
    65
 73
     0
 40
0.0
  0
LTYPE
  5
16
330
5
100
AcDbSymbolTableRecord
100
AcDbLinetypeTableRecord
  2
CONTINUOUS
 70
     0
  3
Solid line
 72
    65
 73
     0
 40
0.0
  0
ENDTAB
  0
TABLE
  2
LAYER
  5
2
100
AcDbSymbolTable
 70
1
  0
LAYER
  5
50
100
AcDbSymbolTableRecord
100
AcDbLayerTableRecord
  2
0
 70
0
  6
CONTINUOUS
  0
ENDTAB
  0
TABLE
  2
STYLE
  5
3
330
0
100
AcDbSymbolTable
 70
     1
  0
STYLE
  5
11
330
3
100
AcDbSymbolTableRecord
100
AcDbTextStyleTableRecord
  2
STANDARD
 70
     0
 40
0.0
 41
1.0
 50
0.0
 71
     0
 42
2.5
  3
txt
  4

  0
ENDTAB
  0
TABLE
  2
VIEW
  5
6
330
0
100
AcDbSymbolTable
 70
     0
  0
ENDTAB
  0
TABLE
  2
UCS
  5
7
330
0
100
AcDbSymbolTable
 70
     0
  0
ENDTAB
  0
TABLE
  2
APPID
  5
9
330
0
100
AcDbSymbolTable
 70
     2
  0
APPID
  5
12
330
9
100
AcDbSymbolTableRecord
100
AcDbRegAppTableRecord
  2
ACAD
 70
     0
  0
ENDTAB
  0
TABLE
  2
DIMSTYLE
  5
A
330
0
100
AcDbSymbolTable
 70
     1
  0
DIMSTYLE
105
27
330
A
100
AcDbSymbolTableRecord
100
AcDbDimStyleTableRecord
  2
ISO-25
 70
     0
  3

  4

  5

  6

  7

 40
1.0
 41
2.5
 42
0.625
 43
3.75
 44
1.25
 45
0.0
 46
0.0
 47
0.0
 48
0.0
140
2.5
141
2.5
142
0.0
143
0.03937007874016
144
1.0
145
0.0
146
1.0
147
0.625
 71
     0
 72
     0
 73
     0
 74
     0
 75
     0
 76
     0
 77
     1
 78
     8
170
     0
171
     3
172
     1
173
     0
174
     0
175
     0
176
     0
177
     0
178
     0
270
     2
271
     2
272
     2
273
     2
274
     3
340
11
275
     0
280
     0
281
     0
282
     0
283
     0
284
     8
285
     0
286
     0
287
     3
288
     0
  0
ENDTAB
  0
TABLE
  2
BLOCK_RECORD
  5
1
330
0
100
AcDbSymbolTable
 70
     1
  0
BLOCK_RECORD
  5
1F
330
1
100
AcDbSymbolTableRecord
100
AcDbBlockTableRecord
  2
*MODEL_SPACE
  0
BLOCK_RECORD
  5
1B
330
1
100
AcDbSymbolTableRecord
100
AcDbBlockTableRecord
  2
*PAPER_SPACE
  0
ENDTAB
  0
ENDSEC
  0
SECTION
  2
BLOCKS
  0
BLOCK
  5
20
330
1F
100
AcDbEntity
  8
0
100
AcDbBlockBegin
  2
*MODEL_SPACE
 70
     0
 10
0.0
 20
0.0
 30
0.0
  3
*MODEL_SPACE
  1

  0
ENDBLK
  5
21
330
1F
100
AcDbEntity
  8
0
100
AcDbBlockEnd
  0
BLOCK
  5
1C
330
1B
100
AcDbEntity
 67
     1
  8
0
100
AcDbBlockBegin
  2
*PAPER_SPACE
  1

  0
ENDBLK
  5
1D
330
1B
100
AcDbEntity
 67
     1
  8
0
100
AcDbBlockEnd
  0
ENDSEC
  0
SECTION
  2
ENTITIES
  0
LINE
  5
100
100
AcDbEntity
  8
0
 62
7
100
AcDbLine
 10
-97.900013
 20
185.026548
 30
0.0
 11
-97.900013
 21
177.530364
 31
0.0
  0
LINE
  5
101
100
AcDbEntity
  8
0
 62
7
100
AcDbLine
 10
-97.900013
 20
177.530364
 30
0.0
 11
-94.899673
 21
177.530364
 31
0.0
  0
LINE
  5
102
100
AcDbEntity
  8
0
 62
7
100
AcDbLine
 10
-94.899673
 20
177.530364
 30
0.0
 11
-94.899673
 21
152.527236
 31
0.0
  0
LINE
  5
103
100
AcDbEntity
  8
0
 62
7
100
AcDbLine
 10
-94.899673
 20
152.527236
 30
0.0
 11
-97.900013
 21
152.527236
 31
0.0
  0
LINE
  5
104
100
AcDbEntity
  8
0
 62
7
100
AcDbLine
 10
-97.900013
 20
152.527236
 30
0.0
 11
-97.900013
 21
137.316990
 31
0.0
  0
SPLINE
  5
105
100
AcDbEntity
  8
0
 62
7
100
AcDbSpline
 70
8
 71
3
 72
8
 73
4
 74
0
 40
0
 40
0
 40
0
 40
0
 40
1
 40
1
 40
1
 40
1
 10
-97.900013
 20
137.316990
 30
0.0
 10
-97.900013
 20
134.950049
 30
0.0
 10
-95.981228
 20
133.031264
 30
0.0
 10
-93.614287
 20
133.031264
 30
0.0
  0
LINE
  5
106
100
AcDbEntity
  8
0
 62
7
100
AcDbLine
 10
-93.614287
 20
133.031264
 30
0.0
 11
-83.899831
 21
133.031264
 31
0.0
  0
LINE
  5
107
100
AcDbEntity
  8
0
 62
7
100
AcDbLine
 10
-83.899831
 20
133.031264
 30
0.0
 11
-83.899831
 21
90.029228
 31
0.0
  0
LINE
  5
108
100
AcDbEntity
  8
0
 62
7
100
AcDbLine
 10
-83.899831
 20
90.029228
 30
0.0
 11
-60.403586
 21
90.029228
 31
0.0
  0
LINE
  5
109
100
AcDbEntity
  8
0
 62
7
100
AcDbLine
 10
-60.403586
 20
90.029228
 30
0.0
 11
-60.403586
 21
93.031638
 31
0.0
  0
LINE
  5
10a
100
AcDbEntity
  8
0
 62
7
100
AcDbLine
 10
-60.403586
 20
93.031638
 30
0.0
 11
-35.398908
 21
93.031638
 31
0.0
  0
LINE
  5
10b
100
AcDbEntity
  8
0
 62
7
100
AcDbLine
 10
-35.398908
 20
93.031638
 30
0.0
 11
-35.398908
 21
90.029228
 31
0.0
  0
LINE
  5
10c
100
AcDbEntity
  8
0
 62
7
100
AcDbLine
 10
-35.398908
 20
90.029228
 30
0.0
 11
-11.903698
 21
90.029228
 31
0.0
  0
LINE
  5
10d
100
AcDbEntity
  8
0
 62
7
100
AcDbLine
 10
-11.903698
 20
90.029228
 30
0.0
 11
-11.903698
 21
133.031264
 31
0.0
  0
LINE
  5
10e
100
AcDbEntity
  8
0
 62
7
100
AcDbLine
 10
-11.903698
 20
133.031264
 30
0.0
 11
-2.187692
 21
133.031264
 31
0.0
  0
SPLINE
  5
10f
100
AcDbEntity
  8
0
 62
7
100
AcDbSpline
 70
8
 71
3
 72
8
 73
4
 74
0
 40
0
 40
0
 40
0
 40
0
 40
1
 40
1
 40
1
 40
1
 10
-2.187692
 20
133.031264
 30
0.0
 10
-1.051089
 20
133.031264
 30
0.0
 10
0.038954
 20
133.482809
 30
0.0
 10
0.842611
 20
134.286552
 30
0.0
  0
SPLINE
  5
110
100
AcDbEntity
  8
0
 62
7
100
AcDbSpline
 70
8
 71
3
 72
8
 73
4
 74
0
 40
0
 40
0
 40
0
 40
0
 40
1
 40
1
 40
1
 40
1
 10
0.842611
 20
134.286552
 30
0.0
 10
1.646267
 20
135.090295
 30
0.0
 10
2.097695
 20
136.180388
 30
0.0
 10
2.097572
 20
137.316990
 30
0.0
  0
LINE
  5
111
100
AcDbEntity
  8
0
 62
7
100
AcDbLine
 10
2.097572
 20
137.316990
 30
0.0
 11
2.095972
 21
152.528266
 31
0.0
  0
LINE
  5
112
100
AcDbEntity
  8
0
 62
7
100
AcDbLine
 10
2.095972
 20
152.528266
 30
0.0
 11
-0.903850
 21
152.528266
 31
0.0
  0
LINE
  5
113
100
AcDbEntity
  8
0
 62
7
100
AcDbLine
 10
-0.903850
 20
152.528266
 30
0.0
 11
-0.903850
 21
177.530364
 31
0.0
  0
LINE
  5
114
100
AcDbEntity
  8
0
 62
7
100
AcDbLine
 10
-0.903850
 20
177.530364
 30
0.0
 11
2.095967
 21
177.530364
 31
0.0
  0
LINE
  5
115
100
AcDbEntity
  8
0
 62
7
100
AcDbLine
 10
2.095967
 20
177.530364
 30
0.0
 11
2.095967
 21
185.026548
 31
0.0
  0
LINE
  5
116
100
AcDbEntity
  8
0
 62
7
100
AcDbLine
 10
2.095967
 20
185.026548
 30
0.0
 11
-97.900013
 21
185.026548
 31
0.0
  0
LINE
  5
117
100
AcDbEntity
  8
0
 62
7
100
AcDbLine
 10
-83.403731
 20
177.529330
 30
0.0
 11
-80.402881
 21
177.529330
 31
0.0
  0
LINE
  5
118
100
AcDbEntity
  8
0
 62
7
100
AcDbLine
 10
-80.402881
 20
177.529330
 30
0.0
 11
-80.402881
 21
177.528813
 31
0.0
  0
LINE
  5
119
100
AcDbEntity
  8
0
 62
7
100
AcDbLine
 10
-80.402881
 20
177.528813
 30
0.0
 11
-80.402881
 21
152.524646
 31
0.0
  0
LINE
  5
11a
100
AcDbEntity
  8
0
 62
7
100
AcDbLine
 10
-80.402881
 20
152.524646
 30
0.0
 11
-83.403731
 21
152.524646
 31
0.0
  0
LINE
  5
11b
100
AcDbEntity
  8
0
 62
7
100
AcDbLine
 10
-83.403731
 20
152.524646
 30
0.0
 11
-83.403731
 21
177.528813
 31
0.0
  0
LINE
  5
11c
100
AcDbEntity
  8
0
 62
7
100
AcDbLine
 10
-83.403731
 20
177.528813
 30
0.0
 11
-83.403731
 21
177.529330
 31
0.0
  0
LINE
  5
11d
100
AcDbEntity
  8
0
 62
7
100
AcDbLine
 10
-15.398575
 20
177.529330
 30
0.0
 11
-12.398758
 21
177.529330
 31
0.0
  0
LINE
  5
11e
100
AcDbEntity
  8
0
 62
7
100
AcDbLine
 10
-12.398758
 20
177.529330
 30
0.0
 11
-12.398758
 21
177.528813
 31
0.0
  0
LINE
  5
11f
100
AcDbEntity
  8
0
 62
7
100
AcDbLine
 10
-12.398758
 20
177.528813
 30
0.0
 11
-12.398758
 21
152.524646
 31
0.0
  0
LINE
  5
120
100
AcDbEntity
  8
0
 62
7
100
AcDbLine
 10
-12.398758
 20
152.524646
 30
0.0
 11
-15.398575
 21
152.524646
 31
0.0
  0
LINE
  5
121
100
AcDbEntity
  8
0
 62
7
100
AcDbLine
 10
-15.398575
 20
152.524646
 30
0.0
 11
-15.398575
 21
177.528813
 31
0.0
  0
LINE
  5
122
100
AcDbEntity
  8
0
 62
7
100
AcDbLine
 10
-15.398575
 20
177.528813
 30
0.0
 11
-15.398575
 21
177.529330
 31
0.0
  0
SPLINE
  5
123
100
AcDbEntity
  8
0
 62
7
100
AcDbSpline
 70
8
 71
3
 72
8
 73
4
 74
0
 40
0
 40
0
 40
0
 40
0
 40
1
 40
1
 40
1
 40
1
 10
-91.909162
 20
166.276268
 30
0.0
 10
-91.354604
 20
166.263098
 30
0.0
 10
-90.875060
 20
165.886031
 30
0.0
 10
-90.731452
 20
165.350228
 30
0.0
  0
SPLINE
  5
124
100
AcDbEntity
  8
0
 62
7
100
AcDbSpline
 70
8
 71
3
 72
8
 73
4
 74
0
 40
0
 40
0
 40
0
 40
0
 40
1
 40
1
 40
1
 40
1
 10
-90.731452
 20
165.350228
 30
0.0
 10
-90.552608
 20
164.683383
 30
0.0
 10
-90.948257
 20
163.997827
 30
0.0
 10
-91.615122
 20
163.819058
 30
0.0
  0
SPLINE
  5
125
100
AcDbEntity
  8
0
 62
7
100
AcDbSpline
 70
8
 71
3
 72
8
 73
4
 74
0
 40
0
 40
0
 40
0
 40
0
 40
1
 40
1
 40
1
 40
1
 10
-91.615122
 20
163.819058
 30
0.0
 10
-92.282122
 20
163.640248
 30
0.0
 10
-92.967750
 20
164.036166
 30
0.0
 10
-93.146293
 20
164.703238
 30
0.0
  0
SPLINE
  5
126
100
AcDbEntity
  8
0
 62
7
100
AcDbSpline
 70
8
 71
3
 72
8
 73
4
 74
0
 40
0
 40
0
 40
0
 40
0
 40
1
 40
1
 40
1
 40
1
 10
-93.146293
 20
164.703238
 30
0.0
 10
-93.324811
 20
165.369918
 30
0.0
 10
-92.929233
 20
166.055122
 30
0.0
 10
-92.262622
 20
166.233898
 30
0.0
  0
LINE
  5
127
100
AcDbEntity
  8
0
 62
7
100
AcDbLine
 10
-92.262622
 20
166.233898
 30
0.0
 11
-92.262112
 21
166.233898
 31
0.0
  0
SPLINE
  5
128
100
AcDbEntity
  8
0
 62
7
100
AcDbSpline
 70
8
 71
3
 72
8
 73
4
 74
0
 40
0
 40
0
 40
0
 40
0
 40
1
 40
1
 40
1
 40
1
 10
-92.262112
 20
166.233898
 30
0.0
 10
-92.147083
 20
166.264778
 30
0.0
 10
-92.028231
 20
166.279048
 30
0.0
 10
-91.909162
 20
166.276298
 30
0.0
  0
LINE
  5
129
100
AcDbEntity
  8
0
 62
7
100
AcDbLine
 10
-91.909162
 20
166.276298
 30
0.0
 11
-91.909162
 21
166.276268
 31
0.0
  0
SPLINE
  5
12a
100
AcDbEntity
  8
0
 62
7
100
AcDbSpline
 70
8
 71
3
 72
8
 73
4
 74
0
 40
0
 40
0
 40
0
 40
0
 40
1
 40
1
 40
1
 40
1
 10
-3.834939
 20
166.276268
 30
0.0
 10
-3.280575
 20
166.262868
 30
0.0
 10
-2.801302
 20
165.885850
 30
0.0
 10
-2.657749
 20
165.350228
 30
0.0
  0
SPLINE
  5
12b
100
AcDbEntity
  8
0
 62
7
100
AcDbSpline
 70
8
 71
3
 72
8
 73
4
 74
0
 40
0
 40
0
 40
0
 40
0
 40
1
 40
1
 40
1
 40
1
 10
-2.657749
 20
165.350228
 30
0.0
 10
-2.478904
 20
164.683384
 30
0.0
 10
-2.874551
 20
163.997828
 30
0.0
 10
-3.541416
 20
163.819058
 30
0.0
  0
SPLINE
  5
12c
100
AcDbEntity
  8
0
 62
7
100
AcDbSpline
 70
8
 71
3
 72
8
 73
4
 74
0
 40
0
 40
0
 40
0
 40
0
 40
1
 40
1
 40
1
 40
1
 10
-3.541416
 20
163.819058
 30
0.0
 10
-4.208249
 20
163.640576
 30
0.0
 10
-4.893522
 20
164.036423
 30
0.0
 10
-5.072072
 20
164.703238
 30
0.0
  0
SPLINE
  5
12d
100
AcDbEntity
  8
0
 62
7
100
AcDbSpline
 70
8
 71
3
 72
8
 73
4
 74
0
 40
0
 40
0
 40
0
 40
0
 40
1
 40
1
 40
1
 40
1
 10
-5.072072
 20
164.703238
 30
0.0
 10
-5.250591
 20
165.369917
 30
0.0
 10
-4.855015
 20
166.055121
 30
0.0
 10
-4.188405
 20
166.233898
 30
0.0
  0
SPLINE
  5
12e
100
AcDbEntity
  8
0
 62
7
100
AcDbSpline
 70
8
 71
3
 72
8
 73
4
 74
0
 40
0
 40
0
 40
0
 40
0
 40
1
 40
1
 40
1
 40
1
 10
-4.188405
 20
166.233898
 30
0.0
 10
-4.073209
 20
166.264818
 30
0.0
 10
-3.954180
 20
166.279098
 30
0.0
 10
-3.834939
 20
166.276298
 30
0.0
  0
LINE
  5
12f
100
AcDbEntity
  8
0
 62
7
100
AcDbLine
 10
-3.834939
 20
166.276298
 30
0.0
 11
-3.834939
 21
166.276268
 31
0.0
  0
LINE
  5
130
100
AcDbEntity
  8
0
 62
7
100
AcDbLine
 10
-92.118805
 20
149.029256
 30
0.0
 11
-54.684720
 21
149.029256
 31
0.0
  0
SPLINE
  5
131
100
AcDbEntity
  8
0
 62
7
100
AcDbSpline
 70
8
 71
3
 72
8
 73
4
 74
0
 40
0
 40
0
 40
0
 40
0
 40
1
 40
1
 40
1
 40
1
 10
-54.684720
 20
149.029256
 30
0.0
 10
-54.476354
 20
149.029256
 30
0.0
 10
-54.276521
 20
148.946483
 30
0.0
 10
-54.129184
 20
148.799145
 30
0.0
  0
SPLINE
  5
132
100
AcDbEntity
  8
0
 62
7
100
AcDbSpline
 70
8
 71
3
 72
8
 73
4
 74
0
 40
0
 40
0
 40
0
 40
0
 40
1
 40
1
 40
1
 40
1
 10
-54.129184
 20
148.799145
 30
0.0
 10
-53.981847
 20
148.651808
 30
0.0
 10
-53.899073
 20
148.451975
 30
0.0
 10
-53.899073
 20
148.243609
 30
0.0
  0
LINE
  5
133
100
AcDbEntity
  8
0
 62
7
100
AcDbLine
 10
-53.899073
 20
148.243609
 30
0.0
 11
-53.899073
 21
138.809372
 31
0.0
  0
SPLINE
  5
134
100
AcDbEntity
  8
0
 62
7
100
AcDbSpline
 70
8
 71
3
 72
8
 73
4
 74
0
 40
0
 40
0
 40
0
 40
0
 40
1
 40
1
 40
1
 40
1
 10
-53.899073
 20
138.809372
 30
0.0
 10
-53.899073
 20
138.601005
 30
0.0
 10
-53.981847
 20
138.401173
 30
0.0
 10
-54.129184
 20
138.253835
 30
0.0
  0
SPLINE
  5
135
100
AcDbEntity
  8
0
 62
7
100
AcDbSpline
 70
8
 71
3
 72
8
 73
4
 74
0
 40
0
 40
0
 40
0
 40
0
 40
1
 40
1
 40
1
 40
1
 10
-54.129184
 20
138.253835
 30
0.0
 10
-54.276521
 20
138.106498
 30
0.0
 10
-54.476354
 20
138.023725
 30
0.0
 10
-54.684720
 20
138.023725
 30
0.0
  0
LINE
  5
136
100
AcDbEntity
  8
0
 62
7
100
AcDbLine
 10
-54.684720
 20
138.023725
 30
0.0
 11
-92.118805
 21
138.023725
 31
0.0
  0
SPLINE
  5
137
100
AcDbEntity
  8
0
 62
7
100
AcDbSpline
 70
8
 71
3
 72
8
 73
4
 74
0
 40
0
 40
0
 40
0
 40
0
 40
1
 40
1
 40
1
 40
1
 10
-92.118805
 20
138.023725
 30
0.0
 10
-92.327172
 20
138.023725
 30
0.0
 10
-92.527004
 20
138.106498
 30
0.0
 10
-92.674342
 20
138.253835
 30
0.0
  0
SPLINE
  5
138
100
AcDbEntity
  8
0
 62
7
100
AcDbSpline
 70
8
 71
3
 72
8
 73
4
 74
0
 40
0
 40
0
 40
0
 40
0
 40
1
 40
1
 40
1
 40
1
 10
-92.674342
 20
138.253835
 30
0.0
 10
-92.821679
 20
138.401173
 30
0.0
 10
-92.904452
 20
138.601005
 30
0.0
 10
-92.904452
 20
138.809372
 30
0.0
  0
LINE
  5
139
100
AcDbEntity
  8
0
 62
7
100
AcDbLine
 10
-92.904452
 20
138.809372
 30
0.0
 11
-92.904452
 21
148.243609
 31
0.0
  0
SPLINE
  5
13a
100
AcDbEntity
  8
0
 62
7
100
AcDbSpline
 70
8
 71
3
 72
8
 73
4
 74
0
 40
0
 40
0
 40
0
 40
0
 40
1
 40
1
 40
1
 40
1
 10
-92.904452
 20
148.243609
 30
0.0
 10
-92.904452
 20
148.451975
 30
0.0
 10
-92.821679
 20
148.651808
 30
0.0
 10
-92.674342
 20
148.799145
 30
0.0
  0
SPLINE
  5
13b
100
AcDbEntity
  8
0
 62
7
100
AcDbSpline
 70
8
 71
3
 72
8
 73
4
 74
0
 40
0
 40
0
 40
0
 40
0
 40
1
 40
1
 40
1
 40
1
 10
-92.674342
 20
148.799145
 30
0.0
 10
-92.527004
 20
148.946483
 30
0.0
 10
-92.327172
 20
149.029256
 30
0.0
 10
-92.118805
 20
149.029256
 30
0.0
  0
LINE
  5
13c
100
AcDbEntity
  8
0
 62
7
100
AcDbLine
 10
-92.118805
 20
149.029256
 30
0.0
 11
-92.118805
 21
149.029256
 31
0.0
  0
LINE
  5
13d
100
AcDbEntity
  8
0
 62
7
100
AcDbLine
 10
-46.903633
 20
149.029256
 30
0.0
 11
-40.898830
 21
149.029256
 31
0.0
  0
LINE
  5
13e
100
AcDbEntity
  8
0
 62
7
100
AcDbLine
 10
-40.898830
 20
149.029256
 30
0.0
 11
-40.898830
 21
138.023205
 31
0.0
  0
LINE
  5
13f
100
AcDbEntity
  8
0
 62
7
100
AcDbLine
 10
-40.898830
 20
138.023205
 30
0.0
 11
-46.903633
 21
138.023205
 31
0.0
  0
LINE
  5
140
100
AcDbEntity
  8
0
 62
7
100
AcDbLine
 10
-46.903633
 20
138.023205
 30
0.0
 11
-46.903633
 21
149.029256
 31
0.0
  0
SPLINE
  5
141
100
AcDbEntity
  8
0
 62
7
100
AcDbSpline
 70
8
 71
3
 72
8
 73
4
 74
0
 40
0
 40
0
 40
0
 40
0
 40
1
 40
1
 40
1
 40
1
 10
-38.371336
 20
144.776285
 30
0.0
 10
-37.816973
 20
144.762885
 30
0.0
 10
-37.337700
 20
144.385867
 30
0.0
 10
-37.194147
 20
143.850245
 30
0.0
  0
SPLINE
  5
142
100
AcDbEntity
  8
0
 62
7
100
AcDbSpline
 70
8
 71
3
 72
8
 73
4
 74
0
 40
0
 40
0
 40
0
 40
0
 40
1
 40
1
 40
1
 40
1
 10
-37.194147
 20
143.850245
 30
0.0
 10
-37.015303
 20
143.183401
 30
0.0
 10
-37.410950
 20
142.497845
 30
0.0
 10
-38.077814
 20
142.319075
 30
0.0
  0
SPLINE
  5
143
100
AcDbEntity
  8
0
 62
7
100
AcDbSpline
 70
8
 71
3
 72
8
 73
4
 74
0
 40
0
 40
0
 40
0
 40
0
 40
1
 40
1
 40
1
 40
1
 10
-38.077814
 20
142.319075
 30
0.0
 10
-38.744648
 20
142.140593
 30
0.0
 10
-39.429920
 20
142.536440
 30
0.0
 10
-39.608470
 20
143.203255
 30
0.0
  0
SPLINE
  5
144
100
AcDbEntity
  8
0
 62
7
100
AcDbSpline
 70
8
 71
3
 72
8
 73
4
 74
0
 40
0
 40
0
 40
0
 40
0
 40
1
 40
1
 40
1
 40
1
 10
-39.608470
 20
143.203255
 30
0.0
 10
-39.786988
 20
143.869934
 30
0.0
 10
-39.391413
 20
144.555138
 30
0.0
 10
-38.724803
 20
144.733915
 30
0.0
  0
SPLINE
  5
145
100
AcDbEntity
  8
0
 62
7
100
AcDbSpline
 70
8
 71
3
 72
8
 73
4
 74
0
 40
0
 40
0
 40
0
 40
0
 40
1
 40
1
 40
1
 40
1
 10
-38.724803
 20
144.733915
 30
0.0
 10
-38.609607
 20
144.764845
 30
0.0
 10
-38.490578
 20
144.779115
 30
0.0
 10
-38.371336
 20
144.776315
 30
0.0
  0
LINE
  5
146
100
AcDbEntity
  8
0
 62
7
100
AcDbLine
 10
-38.371336
 20
144.776315
 30
0.0
 11
-38.371336
 21
144.776285
 31
0.0
  0
SPLINE
  5
147
100
AcDbEntity
  8
0
 62
7
100
AcDbSpline
 70
8
 71
3
 72
8
 73
4
 74
0
 40
0
 40
0
 40
0
 40
0
 40
1
 40
1
 40
1
 40
1
 10
-32.321575
 20
144.776285
 30
0.0
 10
-31.767018
 20
144.763115
 30
0.0
 10
-31.287477
 20
144.386047
 30
0.0
 10
-31.143869
 20
143.850245
 30
0.0
  0
SPLINE
  5
148
100
AcDbEntity
  8
0
 62
7
100
AcDbSpline
 70
8
 71
3
 72
8
 73
4
 74
0
 40
0
 40
0
 40
0
 40
0
 40
1
 40
1
 40
1
 40
1
 10
-31.143869
 20
143.850245
 30
0.0
 10
-30.965025
 20
143.183401
 30
0.0
 10
-31.360672
 20
142.497845
 30
0.0
 10
-32.027536
 20
142.319075
 30
0.0
  0
SPLINE
  5
149
100
AcDbEntity
  8
0
 62
7
100
AcDbSpline
 70
8
 71
3
 72
8
 73
4
 74
0
 40
0
 40
0
 40
0
 40
0
 40
1
 40
1
 40
1
 40
1
 10
-32.027536
 20
142.319075
 30
0.0
 10
-32.694537
 20
142.140263
 30
0.0
 10
-33.380167
 20
142.536182
 30
0.0
 10
-33.558710
 20
143.203255
 30
0.0
  0
SPLINE
  5
14a
100
AcDbEntity
  8
0
 62
7
100
AcDbSpline
 70
8
 71
3
 72
8
 73
4
 74
0
 40
0
 40
0
 40
0
 40
0
 40
1
 40
1
 40
1
 40
1
 10
-33.558710
 20
143.203255
 30
0.0
 10
-33.737228
 20
143.869934
 30
0.0
 10
-33.341652
 20
144.555138
 30
0.0
 10
-32.675042
 20
144.733915
 30
0.0
  0
LINE
  5
14b
100
AcDbEntity
  8
0
 62
7
100
AcDbLine
 10
-32.675042
 20
144.733915
 30
0.0
 11
-32.674525
 21
144.733915
 31
0.0
  0
SPLINE
  5
14c
100
AcDbEntity
  8
0
 62
7
100
AcDbSpline
 70
8
 71
3
 72
8
 73
4
 74
0
 40
0
 40
0
 40
0
 40
0
 40
1
 40
1
 40
1
 40
1
 10
-32.674525
 20
144.733915
 30
0.0
 10
-32.559496
 20
144.764795
 30
0.0
 10
-32.440644
 20
144.779065
 30
0.0
 10
-32.321575
 20
144.776315
 30
0.0
  0
LINE
  5
14d
100
AcDbEntity
  8
0
 62
7
100
AcDbLine
 10
-32.321575
 20
144.776315
 30
0.0
 11
-32.321575
 21
144.776285
 31
0.0
  0
SPLINE
  5
14e
100
AcDbEntity
  8
0
 62
7
100
AcDbSpline
 70
8
 71
3
 72
8
 73
4
 74
0
 40
0
 40
0
 40
0
 40
0
 40
1
 40
1
 40
1
 40
1
 10
-70.405039
 20
120.632022
 30
0.0
 10
-69.825089
 20
120.632055
 30
0.0
 10
-69.354940
 20
120.161902
 30
0.0
 10
-69.354979
 20
119.581952
 30
0.0
  0
SPLINE
  5
14f
100
AcDbEntity
  8
0
 62
7
100
AcDbSpline
 70
8
 71
3
 72
8
 73
4
 74
0
 40
0
 40
0
 40
0
 40
0
 40
1
 40
1
 40
1
 40
1
 10
-69.354979
 20
119.581952
 30
0.0
 10
-69.355227
 20
119.002205
 30
0.0
 10
-69.825292
 20
118.532369
 30
0.0
 10
-70.405039
 20
118.532402
 30
0.0
  0
SPLINE
  5
150
100
AcDbEntity
  8
0
 62
7
100
AcDbSpline
 70
8
 71
3
 72
8
 73
4
 74
0
 40
0
 40
0
 40
0
 40
0
 40
1
 40
1
 40
1
 40
1
 10
-70.405039
 20
118.532402
 30
0.0
 10
-70.984791
 20
118.532363
 30
0.0
 10
-71.454862
 20
119.002201
 30
0.0
 10
-71.455110
 20
119.581952
 30
0.0
  0
SPLINE
  5
151
100
AcDbEntity
  8
0
 62
7
100
AcDbSpline
 70
8
 71
3
 72
8
 73
4
 74
0
 40
0
 40
0
 40
0
 40
0
 40
1
 40
1
 40
1
 40
1
 10
-71.455110
 20
119.581952
 30
0.0
 10
-71.455149
 20
120.161906
 30
0.0
 10
-70.984994
 20
120.632061
 30
0.0
 10
-70.405039
 20
120.632022
 30
0.0
  0
LINE
  5
152
100
AcDbEntity
  8
0
 62
7
100
AcDbLine
 10
-70.405039
 20
120.632022
 30
0.0
 11
-70.405039
 21
120.632022
 31
0.0
  0
SPLINE
  5
153
100
AcDbEntity
  8
0
 62
7
100
AcDbSpline
 70
8
 71
3
 72
8
 73
4
 74
0
 40
0
 40
0
 40
0
 40
0
 40
1
 40
1
 40
1
 40
1
 10
-25.398999
 20
120.632022
 30
0.0
 10
-24.819249
 20
120.631772
 30
0.0
 10
-24.349412
 20
120.161702
 30
0.0
 10
-24.349451
 20
119.581952
 30
0.0
  0
SPLINE
  5
154
100
AcDbEntity
  8
0
 62
7
100
AcDbSpline
 70
8
 71
3
 72
8
 73
4
 74
0
 40
0
 40
0
 40
0
 40
0
 40
1
 40
1
 40
1
 40
1
 10
-24.349451
 20
119.581952
 30
0.0
 10
-24.349699
 20
119.002405
 30
0.0
 10
-24.819452
 20
118.532651
 30
0.0
 10
-25.398999
 20
118.532402
 30
0.0
  0
SPLINE
  5
155
100
AcDbEntity
  8
0
 62
7
100
AcDbSpline
 70
8
 71
3
 72
8
 73
4
 74
0
 40
0
 40
0
 40
0
 40
0
 40
1
 40
1
 40
1
 40
1
 10
-25.398999
 20
118.532402
 30
0.0
 10
-25.978748
 20
118.532366
 30
0.0
 10
-26.448817
 20
119.002203
 30
0.0
 10
-26.449065
 20
119.581952
 30
0.0
  0
SPLINE
  5
156
100
AcDbEntity
  8
0
 62
7
100
AcDbSpline
 70
8
 71
3
 72
8
 73
4
 74
0
 40
0
 40
0
 40
0
 40
0
 40
1
 40
1
 40
1
 40
1
 10
-26.449065
 20
119.581952
 30
0.0
 10
-26.449104
 20
120.161904
 30
0.0
 10
-25.978951
 20
120.632058
 30
0.0
 10
-25.398999
 20
120.632022
 30
0.0
  0
LINE
  5
157
100
AcDbEntity
  8
0
 62
7
100
AcDbLine
 10
-25.398999
 20
120.632022
 30
0.0
 11
-25.398999
 21
120.632022
 31
0.0
  0
SPLINE
  5
158
100
AcDbEntity
  8
0
 62
7
100
AcDbSpline
 70
8
 71
3
 72
8
 73
4
 74
0
 40
0
 40
0
 40
0
 40
0
 40
1
 40
1
 40
1
 40
1
 10
-70.404529
 20
102.627430
 30
0.0
 10
-69.824579
 20
102.627469
 30
0.0
 10
-69.354426
 20
102.157320
 30
0.0
 10
-69.354459
 20
101.577370
 30
0.0
  0
SPLINE
  5
159
100
AcDbEntity
  8
0
 62
7
100
AcDbSpline
 70
8
 71
3
 72
8
 73
4
 74
0
 40
0
 40
0
 40
0
 40
0
 40
1
 40
1
 40
1
 40
1
 10
-69.354459
 20
101.577370
 30
0.0
 10
-69.354420
 20
100.997416
 30
0.0
 10
-69.824575
 20
100.527261
 30
0.0
 10
-70.404529
 20
100.527300
 30
0.0
  0
SPLINE
  5
15a
100
AcDbEntity
  8
0
 62
7
100
AcDbSpline
 70
8
 71
3
 72
8
 73
4
 74
0
 40
0
 40
0
 40
0
 40
0
 40
1
 40
1
 40
1
 40
1
 10
-70.404529
 20
100.527300
 30
0.0
 10
-70.984480
 20
100.527267
 30
0.0
 10
-71.454629
 20
100.997420
 30
0.0
 10
-71.454590
 20
101.577370
 30
0.0
  0
SPLINE
  5
15b
100
AcDbEntity
  8
0
 62
7
100
AcDbSpline
 70
8
 71
3
 72
8
 73
4
 74
0
 40
0
 40
0
 40
0
 40
0
 40
1
 40
1
 40
1
 40
1
 10
-71.454590
 20
101.577370
 30
0.0
 10
-71.454623
 20
102.157316
 30
0.0
 10
-70.984476
 20
102.627463
 30
0.0
 10
-70.404529
 20
102.627430
 30
0.0
  0
LINE
  5
15c
100
AcDbEntity
  8
0
 62
7
100
AcDbLine
 10
-70.404529
 20
102.627430
 30
0.0
 11
-70.404529
 21
102.627430
 31
0.0
  0
SPLINE
  5
15d
100
AcDbEntity
  8
0
 62
7
100
AcDbSpline
 70
8
 71
3
 72
8
 73
4
 74
0
 40
0
 40
0
 40
0
 40
0
 40
1
 40
1
 40
1
 40
1
 10
-25.398999
 20
102.627430
 30
0.0
 10
-24.819253
 20
102.627180
 30
0.0
 10
-24.349418
 20
102.157116
 30
0.0
 10
-24.349451
 20
101.577370
 30
0.0
  0
SPLINE
  5
15e
100
AcDbEntity
  8
0
 62
7
100
AcDbSpline
 70
8
 71
3
 72
8
 73
4
 74
0
 40
0
 40
0
 40
0
 40
0
 40
1
 40
1
 40
1
 40
1
 10
-24.349451
 20
101.577370
 30
0.0
 10
-24.349699
 20
100.997823
 30
0.0
 10
-24.819452
 20
100.528069
 30
0.0
 10
-25.398999
 20
100.527820
 30
0.0
  0
SPLINE
  5
15f
100
AcDbEntity
  8
0
 62
7
100
AcDbSpline
 70
8
 71
3
 72
8
 73
4
 74
0
 40
0
 40
0
 40
0
 40
0
 40
1
 40
1
 40
1
 40
1
 10
-25.398999
 20
100.527820
 30
0.0
 10
-25.978748
 20
100.527784
 30
0.0
 10
-26.448817
 20
100.997621
 30
0.0
 10
-26.449065
 20
101.577370
 30
0.0
  0
SPLINE
  5
160
100
AcDbEntity
  8
0
 62
7
100
AcDbSpline
 70
8
 71
3
 72
8
 73
4
 74
0
 40
0
 40
0
 40
0
 40
0
 40
1
 40
1
 40
1
 40
1
 10
-26.449065
 20
101.577370
 30
0.0
 10
-26.449098
 20
102.157318
 30
0.0
 10
-25.978947
 20
102.627466
 30
0.0
 10
-25.398999
 20
102.627430
 30
0.0
  0
LINE
  5
161
100
AcDbEntity
  8
0
 62
7
100
AcDbLine
 10
-25.398999
 20
102.627430
 30
0.0
 11
-25.398999
 21
102.627430
 31
0.0
  0
SPLINE
  5
162
100
AcDbEntity
  8
0
 62
7
100
AcDbSpline
 70
8
 71
3
 72
8
 73
4
 74
0
 40
0
 40
0
 40
0
 40
0
 40
1
 40
1
 40
1
 40
1
 10
-47.872049
 20
97.026219
 30
0.0
 10
-47.317492
 20
97.013049
 30
0.0
 10
-46.837951
 20
96.635981
 30
0.0
 10
-46.694343
 20
96.100179
 30
0.0
  0
SPLINE
  5
163
100
AcDbEntity
  8
0
 62
7
100
AcDbSpline
 70
8
 71
3
 72
8
 73
4
 74
0
 40
0
 40
0
 40
0
 40
0
 40
1
 40
1
 40
1
 40
1
 10
-46.694343
 20
96.100179
 30
0.0
 10
-46.515831
 20
95.433503
 30
0.0
 10
-46.911405
 20
94.748306
 30
0.0
 10
-47.578010
 20
94.569529
 30
0.0
  0
SPLINE
  5
164
100
AcDbEntity
  8
0
 62
7
100
AcDbSpline
 70
8
 71
3
 72
8
 73
4
 74
0
 40
0
 40
0
 40
0
 40
0
 40
1
 40
1
 40
1
 40
1
 10
-47.578010
 20
94.569529
 30
0.0
 10
-48.244853
 20
94.390682
 30
0.0
 10
-48.930411
 20
94.786326
 30
0.0
 10
-49.109184
 20
95.453189
 30
0.0
  0
SPLINE
  5
165
100
AcDbEntity
  8
0
 62
7
100
AcDbSpline
 70
8
 71
3
 72
8
 73
4
 74
0
 40
0
 40
0
 40
0
 40
0
 40
1
 40
1
 40
1
 40
1
 10
-49.109184
 20
95.453189
 30
0.0
 10
-49.287702
 20
96.119868
 30
0.0
 10
-48.892127
 20
96.805072
 30
0.0
 10
-48.225516
 20
96.983849
 30
0.0
  0
SPLINE
  5
166
100
AcDbEntity
  8
0
 62
7
100
AcDbSpline
 70
8
 71
3
 72
8
 73
4
 74
0
 40
0
 40
0
 40
0
 40
0
 40
1
 40
1
 40
1
 40
1
 10
-48.225516
 20
96.983849
 30
0.0
 10
-48.110320
 20
97.014769
 30
0.0
 10
-47.991291
 20
97.029049
 30
0.0
 10
-47.872049
 20
97.026249
 30
0.0
  0
LINE
  5
167
100
AcDbEntity
  8
0
 62
7
100
AcDbLine
 10
-47.872049
 20
97.026249
 30
0.0
 11
-47.872049
 21
97.026219
 31
0.0
  0
LINE
  5
168
100
AcDbEntity
  8
0
 62
7
100
AcDbLine
 10
74.752223
 20
136.598194
 30
0.0
 11
71.752403
 21
136.598194
 31
0.0
  0
LINE
  5
169
100
AcDbEntity
  8
0
 62
7
100
AcDbLine
 10
71.752403
 20
136.598194
 30
0.0
 11
71.752403
 21
149.098213
 31
0.0
  0
LINE
  5
16a
100
AcDbEntity
  8
0
 62
7
100
AcDbLine
 10
71.752403
 20
149.098213
 30
0.0
 11
55.593180
 21
132.939503
 31
0.0
  0
LINE
  5
16b
100
AcDbEntity
  8
0
 62
7
100
AcDbLine
 10
55.593180
 20
132.939503
 30
0.0
 11
57.715531
 21
130.817152
 31
0.0
  0
LINE
  5
16c
100
AcDbEntity
  8
0
 62
7
100
AcDbLine
 10
57.715531
 20
130.817152
 30
0.0
 11
40.033408
 21
113.136059
 31
0.0
  0
LINE
  5
16d
100
AcDbEntity
  8
0
 62
7
100
AcDbLine
 10
40.033408
 20
113.136059
 30
0.0
 11
37.911578
 21
115.258409
 31
0.0
  0
LINE
  5
16e
100
AcDbEntity
  8
0
 62
7
100
AcDbLine
 10
37.911578
 20
115.258409
 30
0.0
 11
21.748736
 21
99.095047
 31
0.0
  0
SPLINE
  5
16f
100
AcDbEntity
  8
0
 62
7
100
AcDbSpline
 70
8
 71
3
 72
8
 73
4
 74
0
 40
0
 40
0
 40
0
 40
0
 40
1
 40
1
 40
1
 40
1
 10
21.748736
 20
99.095047
 30
0.0
 10
21.420831
 20
98.767128
 30
0.0
 10
21.281527
 20
98.295334
 30
0.0
 10
21.378726
 20
97.841897
 30
0.0
  0
LINE
  5
170
100
AcDbEntity
  8
0
 62
7
100
AcDbLine
 10
21.378726
 20
97.841897
 30
0.0
 11
21.562186
 21
96.985621
 31
0.0
  0
SPLINE
  5
171
100
AcDbEntity
  8
0
 62
7
100
AcDbSpline
 70
8
 71
3
 72
8
 73
4
 74
0
 40
0
 40
0
 40
0
 40
0
 40
1
 40
1
 40
1
 40
1
 10
21.562186
 20
96.985621
 30
0.0
 10
21.673145
 20
96.468091
 30
0.0
 10
22.130503
 20
96.098371
 30
0.0
 10
22.659786
 20
96.098341
 30
0.0
  0
LINE
  5
172
100
AcDbEntity
  8
0
 62
7
100
AcDbLine
 10
22.659786
 20
96.098341
 30
0.0
 11
71.752403
 21
96.098341
 31
0.0
  0
LINE
  5
173
100
AcDbEntity
  8
0
 62
7
100
AcDbLine
 10
71.752403
 20
96.098341
 30
0.0
 11
71.752403
 21
111.598169
 31
0.0
  0
LINE
  5
174
100
AcDbEntity
  8
0
 62
7
100
AcDbLine
 10
71.752403
 20
111.598169
 30
0.0
 11
74.752223
 21
111.598169
 31
0.0
  0
SPLINE
  5
175
100
AcDbEntity
  8
0
 62
7
100
AcDbSpline
 70
8
 71
3
 72
8
 73
4
 74
0
 40
0
 40
0
 40
0
 40
0
 40
1
 40
1
 40
1
 40
1
 10
70.032102
 20
125.347717
 30
0.0
 10
70.586657
 20
125.334547
 30
0.0
 10
71.066196
 20
124.957476
 30
0.0
 10
71.209803
 20
124.421676
 30
0.0
  0
SPLINE
  5
176
100
AcDbEntity
  8
0
 62
7
100
AcDbSpline
 70
8
 71
3
 72
8
 73
4
 74
0
 40
0
 40
0
 40
0
 40
0
 40
1
 40
1
 40
1
 40
1
 10
71.209803
 20
124.421676
 30
0.0
 10
71.388319
 20
123.754997
 30
0.0
 10
70.992742
 20
123.069796
 30
0.0
 10
70.326132
 20
122.891020
 30
0.0
  0
SPLINE
  5
177
100
AcDbEntity
  8
0
 62
7
100
AcDbSpline
 70
8
 71
3
 72
8
 73
4
 74
0
 40
0
 40
0
 40
0
 40
0
 40
1
 40
1
 40
1
 40
1
 10
70.326132
 20
122.891020
 30
0.0
 10
69.659288
 20
122.712175
 30
0.0
 10
68.973732
 20
123.107823
 30
0.0
 10
68.794962
 20
123.774687
 30
0.0
  0
SPLINE
  5
178
100
AcDbEntity
  8
0
 62
7
100
AcDbSpline
 70
8
 71
3
 72
8
 73
4
 74
0
 40
0
 40
0
 40
0
 40
0
 40
1
 40
1
 40
1
 40
1
 10
68.794962
 20
123.774687
 30
0.0
 10
68.616151
 20
124.441691
 30
0.0
 10
69.012075
 20
125.127321
 30
0.0
 10
69.679152
 20
125.305859
 30
0.0
  0
SPLINE
  5
179
100
AcDbEntity
  8
0
 62
7
100
AcDbSpline
 70
8
 71
3
 72
8
 73
4
 74
0
 40
0
 40
0
 40
0
 40
0
 40
1
 40
1
 40
1
 40
1
 10
69.679152
 20
125.305859
 30
0.0
 10
69.794208
 20
125.336549
 30
0.0
 10
69.913059
 20
125.350649
 30
0.0
 10
70.032102
 20
125.347719
 30
0.0
  0
LINE
  5
17a
100
AcDbEntity
  8
0
 62
7
100
AcDbLine
 10
70.032102
 20
125.347719
 30
0.0
 11
70.032102
 21
125.347717
 31
0.0
  0
SPLINE
  5
17b
100
AcDbEntity
  8
0
 62
7
100
AcDbSpline
 70
8
 71
3
 72
8
 73
4
 74
0
 40
0
 40
0
 40
0
 40
0
 40
1
 40
1
 40
1
 40
1
 10
50.777970
 20
121.352611
 30
0.0
 10
51.332675
 20
121.339381
 30
0.0
 10
51.812265
 20
120.962061
 30
0.0
 10
51.955680
 20
120.426053
 30
0.0
  0
SPLINE
  5
17c
100
AcDbEntity
  8
0
 62
7
100
AcDbSpline
 70
8
 71
3
 72
8
 73
4
 74
0
 40
0
 40
0
 40
0
 40
0
 40
1
 40
1
 40
1
 40
1
 10
51.955680
 20
120.426053
 30
0.0
 10
52.134196
 20
119.759374
 30
0.0
 10
51.738619
 20
119.074173
 30
0.0
 10
51.072010
 20
118.895397
 30
0.0
  0
SPLINE
  5
17d
100
AcDbEntity
  8
0
 62
7
100
AcDbSpline
 70
8
 71
3
 72
8
 73
4
 74
0
 40
0
 40
0
 40
0
 40
0
 40
1
 40
1
 40
1
 40
1
 10
51.072010
 20
118.895397
 30
0.0
 10
50.405166
 20
118.716553
 30
0.0
 10
49.719610
 20
119.112200
 30
0.0
 10
49.540840
 20
119.779064
 30
0.0
  0
SPLINE
  5
17e
100
AcDbEntity
  8
0
 62
7
100
AcDbSpline
 70
8
 71
3
 72
8
 73
4
 74
0
 40
0
 40
0
 40
0
 40
0
 40
1
 40
1
 40
1
 40
1
 10
49.540840
 20
119.779064
 30
0.0
 10
49.362028
 20
120.446065
 30
0.0
 10
49.757947
 20
121.131695
 30
0.0
 10
50.425020
 20
121.310237
 30
0.0
  0
SPLINE
  5
17f
100
AcDbEntity
  8
0
 62
7
100
AcDbSpline
 70
8
 71
3
 72
8
 73
4
 74
0
 40
0
 40
0
 40
0
 40
0
 40
1
 40
1
 40
1
 40
1
 10
50.425020
 20
121.310237
 30
0.0
 10
50.540051
 20
121.341107
 30
0.0
 10
50.658902
 20
121.355367
 30
0.0
 10
50.777970
 20
121.352607
 30
0.0
  0
LINE
  5
180
100
AcDbEntity
  8
0
 62
7
100
AcDbLine
 10
50.777970
 20
121.352607
 30
0.0
 11
50.777970
 21
121.352611
 31
0.0
  0
SPLINE
  5
181
100
AcDbEntity
  8
0
 62
7
100
AcDbSpline
 70
8
 71
3
 72
8
 73
4
 74
0
 40
0
 40
0
 40
0
 40
0
 40
1
 40
1
 40
1
 40
1
 10
129.648367
 20
149.987778
 30
0.0
 10
129.648287
 20
151.152042
 30
0.0
 10
130.591988
 20
152.095963
 30
0.0
 10
131.756248
 20
152.096168
 30
0.0
  0
LINE
  5
182
100
AcDbEntity
  8
0
 62
7
100
AcDbLine
 10
131.756248
 20
152.096168
 30
0.0
 11
133.650188
 21
152.096168
 31
0.0
  0
LINE
  5
183
100
AcDbEntity
  8
0
 62
7
100
AcDbLine
 10
133.650188
 20
152.096168
 30
0.0
 11
133.650188
 21
157.790919
 31
0.0
  0
SPLINE
  5
184
100
AcDbEntity
  8
0
 62
7
100
AcDbSpline
 70
8
 71
3
 72
8
 73
4
 74
0
 40
0
 40
0
 40
0
 40
0
 40
1
 40
1
 40
1
 40
1
 10
133.650188
 20
157.790919
 30
0.0
 10
133.650218
 20
159.065221
 30
0.0
 10
134.683238
 20
160.098240
 30
0.0
 10
135.957538
 20
160.098270
 30
0.0
  0
LINE
  5
185
100
AcDbEntity
  8
0
 62
7
100
AcDbLine
 10
179.648414
 20
160.098270
 30
0.0
 11
179.648414
 21
136.597895
 31
0.0
  0
LINE
  5
186
100
AcDbEntity
  8
0
 62
7
100
AcDbLine
 10
179.648414
 20
136.597895
 30
0.0
 11
182.648235
 21
136.597895
 31
0.0
  0
LINE
  5
187
100
AcDbEntity
  8
0
 62
7
100
AcDbLine
 10
182.648235
 20
136.597895
 30
0.0
 11
182.648235
 21
111.597862
 31
0.0
  0
LINE
  5
188
100
AcDbEntity
  8
0
 62
7
100
AcDbLine
 10
182.648235
 20
111.597862
 30
0.0
 11
179.894394
 21
111.597862
 31
0.0
  0
LINE
  5
189
100
AcDbEntity
  8
0
 62
7
100
AcDbLine
 10
179.894394
 20
111.597862
 30
0.0
 11
179.648414
 21
111.597862
 31
0.0
  0
LINE
  5
18a
100
AcDbEntity
  8
0
 62
7
100
AcDbLine
 10
179.648414
 20
111.597862
 30
0.0
 11
179.648414
 21
88.098000
 31
0.0
  0
LINE
  5
18b
100
AcDbEntity
  8
0
 62
7
100
AcDbLine
 10
179.648414
 20
88.098000
 30
0.0
 11
135.957538
 21
88.098000
 31
0.0
  0
SPLINE
  5
18c
100
AcDbEntity
  8
0
 62
7
100
AcDbSpline
 70
8
 71
3
 72
8
 73
4
 74
0
 40
0
 40
0
 40
0
 40
0
 40
1
 40
1
 40
1
 40
1
 10
135.957538
 20
88.098000
 30
0.0
 10
134.683238
 20
88.098030
 30
0.0
 10
133.650218
 20
89.131050
 30
0.0
 10
133.650188
 20
90.405360
 30
0.0
  0
LINE
  5
18d
100
AcDbEntity
  8
0
 62
7
100
AcDbLine
 10
133.650188
 20
90.405360
 30
0.0
 11
133.650188
 21
96.101131
 31
0.0
  0
LINE
  5
18e
100
AcDbEntity
  8
0
 62
7
100
AcDbLine
 10
133.650188
 20
96.101131
 30
0.0
 11
131.756248
 21
96.101131
 31
0.0
  0
SPLINE
  5
18f
100
AcDbEntity
  8
0
 62
7
100
AcDbSpline
 70
8
 71
3
 72
8
 73
4
 74
0
 40
0
 40
0
 40
0
 40
0
 40
1
 40
1
 40
1
 40
1
 10
131.756248
 20
96.101131
 30
0.0
 10
130.591978
 20
96.101331
 30
0.0
 10
129.648287
 20
97.045261
 30
0.0
 10
129.648367
 20
98.209530
 30
0.0
  0
LINE
  5
190
100
AcDbEntity
  8
0
 62
7
100
AcDbLine
 10
147.640550
 20
93.096671
 30
0.0
 11
161.655192
 21
93.096671
 31
0.0
  0
SPLINE
  5
191
100
AcDbEntity
  8
0
 62
7
100
AcDbSpline
 70
8
 71
3
 72
8
 73
4
 74
0
 40
0
 40
0
 40
0
 40
0
 40
1
 40
1
 40
1
 40
1
 10
161.655192
 20
93.096671
 30
0.0
 10
163.309382
 20
93.096651
 30
0.0
 10
164.650372
 20
94.437641
 30
0.0
 10
164.650362
 20
96.091831
 30
0.0
  0
LINE
  5
192
100
AcDbEntity
  8
0
 62
7
100
AcDbLine
 10
164.650362
 20
96.091831
 30
0.0
 11
164.650362
 21
152.106508
 31
0.0
  0
SPLINE
  5
193
100
AcDbEntity
  8
0
 62
7
100
AcDbSpline
 70
8
 71
3
 72
8
 73
4
 74
0
 40
0
 40
0
 40
0
 40
0
 40
1
 40
1
 40
1
 40
1
 10
164.650362
 20
152.106508
 30
0.0
 10
164.650382
 20
153.760703
 30
0.0
 10
163.309392
 20
155.101698
 30
0.0
 10
161.655192
 20
155.101679
 30
0.0
  0
LINE
  5
194
100
AcDbEntity
  8
0
 62
7
100
AcDbLine
 10
161.655192
 20
155.101679
 30
0.0
 11
147.640550
 21
155.101679
 31
0.0
  0
SPLINE
  5
195
100
AcDbEntity
  8
0
 62
7
100
AcDbSpline
 70
8
 71
3
 72
8
 73
4
 74
0
 40
0
 40
0
 40
0
 40
0
 40
1
 40
1
 40
1
 40
1
 10
147.640550
 20
155.101679
 30
0.0
 10
145.986360
 20
155.101698
 30
0.0
 10
144.645359
 20
153.760703
 30
0.0
 10
144.645379
 20
152.106508
 30
0.0
  0
LINE
  5
196
100
AcDbEntity
  8
0
 62
7
100
AcDbLine
 10
144.645379
 20
152.106508
 30
0.0
 11
144.645379
 21
96.091831
 31
0.0
  0
SPLINE
  5
197
100
AcDbEntity
  8
0
 62
7
100
AcDbSpline
 70
8
 71
3
 72
8
 73
4
 74
0
 40
0
 40
0
 40
0
 40
0
 40
1
 40
1
 40
1
 40
1
 10
144.645379
 20
96.091831
 30
0.0
 10
144.645369
 20
94.437641
 30
0.0
 10
145.986360
 20
93.096651
 30
0.0
 10
147.640550
 20
93.096671
 30
0.0
  0
LINE
  5
198
100
AcDbEntity
  8
0
 62
7
100
AcDbLine
 10
147.640550
 20
93.096671
 30
0.0
 11
147.640550
 21
93.096671
 31
0.0
  0
SPLINE
  5
199
100
AcDbEntity
  8
0
 62
7
100
AcDbSpline
 70
8
 71
3
 72
8
 73
4
 74
0
 40
0
 40
0
 40
0
 40
0
 40
1
 40
1
 40
1
 40
1
 10
177.527614
 20
122.848853
 30
0.0
 10
178.082174
 20
122.862024
 30
0.0
 10
178.561714
 20
123.239100
 30
0.0
 10
178.705314
 20
123.774904
 30
0.0
  0
SPLINE
  5
19a
100
AcDbEntity
  8
0
 62
7
100
AcDbSpline
 70
8
 71
3
 72
8
 73
4
 74
0
 40
0
 40
0
 40
0
 40
0
 40
1
 40
1
 40
1
 40
1
 10
178.705314
 20
123.774904
 30
0.0
 10
178.884124
 20
124.441904
 30
0.0
 10
178.488204
 20
125.127532
 30
0.0
 10
177.821134
 20
125.306074
 30
0.0
  0
SPLINE
  5
19b
100
AcDbEntity
  8
0
 62
7
100
AcDbSpline
 70
8
 71
3
 72
8
 73
4
 74
0
 40
0
 40
0
 40
0
 40
0
 40
1
 40
1
 40
1
 40
1
 10
177.821134
 20
125.306074
 30
0.0
 10
177.154294
 20
125.484558
 30
0.0
 10
176.469014
 20
125.088705
 30
0.0
 10
176.290474
 20
124.421884
 30
0.0
  0
SPLINE
  5
19c
100
AcDbEntity
  8
0
 62
7
100
AcDbSpline
 70
8
 71
3
 72
8
 73
4
 74
0
 40
0
 40
0
 40
0
 40
0
 40
1
 40
1
 40
1
 40
1
 10
176.290474
 20
124.421884
 30
0.0
 10
176.111964
 20
123.755207
 30
0.0
 10
176.507534
 20
123.070010
 30
0.0
 10
177.174144
 20
122.891234
 30
0.0
  0
SPLINE
  5
19d
100
AcDbEntity
  8
0
 62
7
100
AcDbSpline
 70
8
 71
3
 72
8
 73
4
 74
0
 40
0
 40
0
 40
0
 40
0
 40
1
 40
1
 40
1
 40
1
 10
177.174144
 20
122.891234
 30
0.0
 10
177.289344
 20
122.860314
 30
0.0
 10
177.408374
 20
122.846033
 30
0.0
 10
177.527614
 20
122.848833
 30
0.0
  0
LINE
  5
19e
100
AcDbEntity
  8
0
 62
7
100
AcDbLine
 10
177.527614
 20
122.848833
 30
0.0
 11
177.527614
 21
122.848853
 31
0.0
  0
SPLINE
  5
19f
100
AcDbEntity
  8
0
 62
7
100
AcDbSpline
 70
8
 71
3
 72
8
 73
4
 74
0
 40
0
 40
0
 40
0
 40
0
 40
1
 40
1
 40
1
 40
1
 10
131.427578
 20
122.849373
 30
0.0
 10
131.982138
 20
122.862544
 30
0.0
 10
132.461678
 20
123.239611
 30
0.0
 10
132.605288
 20
123.775414
 30
0.0
  0
SPLINE
  5
1a0
100
AcDbEntity
  8
0
 62
7
100
AcDbSpline
 70
8
 71
3
 72
8
 73
4
 74
0
 40
0
 40
0
 40
0
 40
0
 40
1
 40
1
 40
1
 40
1
 10
132.605288
 20
123.775414
 30
0.0
 10
132.783778
 20
124.442249
 30
0.0
 10
132.387928
 20
125.127524
 30
0.0
 10
131.721108
 20
125.306074
 30
0.0
  0
SPLINE
  5
1a1
100
AcDbEntity
  8
0
 62
7
100
AcDbSpline
 70
8
 71
3
 72
8
 73
4
 74
0
 40
0
 40
0
 40
0
 40
0
 40
1
 40
1
 40
1
 40
1
 10
131.721108
 20
125.306074
 30
0.0
 10
131.054428
 20
125.484592
 30
0.0
 10
130.369228
 20
125.089015
 30
0.0
 10
130.190447
 20
124.422404
 30
0.0
  0
SPLINE
  5
1a2
100
AcDbEntity
  8
0
 62
7
100
AcDbSpline
 70
8
 71
3
 72
8
 73
4
 74
0
 40
0
 40
0
 40
0
 40
0
 40
1
 40
1
 40
1
 40
1
 10
130.190447
 20
124.422404
 30
0.0
 10
130.011607
 20
123.755559
 30
0.0
 10
130.407258
 20
123.070003
 30
0.0
 10
131.074118
 20
122.891234
 30
0.0
  0
SPLINE
  5
1a3
100
AcDbEntity
  8
0
 62
7
100
AcDbSpline
 70
8
 71
3
 72
8
 73
4
 74
0
 40
0
 40
0
 40
0
 40
0
 40
1
 40
1
 40
1
 40
1
 10
131.074118
 20
122.891234
 30
0.0
 10
131.189338
 20
122.860474
 30
0.0
 10
131.308368
 20
122.846363
 30
0.0
 10
131.427578
 20
122.849333
 30
0.0
  0
LINE
  5
1a4
100
AcDbEntity
  8
0
 62
7
100
AcDbLine
 10
131.427578
 20
122.849333
 30
0.0
 11
131.427578
 21
122.849373
 31
0.0
  0
LINE
  5
1a5
100
AcDbEntity
  8
0
 62
7
100
AcDbLine
 10
23.878393
 20
101.219625
 30
0.0
 11
23.878393
 21
109.476826
 31
0.0
  0
LINE
  5
1a6
100
AcDbEntity
  8
0
 62
7
100
AcDbLine
 10
23.878393
 20
109.476826
 30
0.0
 11
20.878393
 21
109.476826
 31
0.0
  0
SPLINE
  5
1a7
100
AcDbEntity
  8
0
 62
7
100
AcDbSpline
 70
8
 71
3
 72
8
 73
4
 74
0
 40
0
 40
0
 40
0
 40
0
 40
1
 40
1
 40
1
 40
1
 10
20.878393
 20
109.476826
 30
0.0
 10
17.049542
 20
109.811706
 30
0.0
 10
14.096972
 20
114.101616
 30
0.0
 10
13.878392
 20
121.976827
 30
0.0
  0
SPLINE
  5
1a8
100
AcDbEntity
  8
0
 62
7
100
AcDbSpline
 70
8
 71
3
 72
8
 73
4
 74
0
 40
0
 40
0
 40
0
 40
0
 40
1
 40
1
 40
1
 40
1
 10
13.878392
 20
121.976827
 30
0.0
 10
13.972292
 20
125.358338
 30
0.0
 10
14.791012
 20
132.987047
 30
0.0
 10
20.192403
 20
134.416827
 30
0.0
  0
LINE
  5
1a9
100
AcDbEntity
  8
0
 62
7
100
AcDbLine
 10
20.192403
 20
134.416827
 30
0.0
 11
23.878413
 21
134.476827
 31
0.0
  0
LINE
  5
1aa
100
AcDbEntity
  8
0
 62
7
100
AcDbLine
 10
23.878413
 20
134.476827
 30
0.0
 11
23.878133
 21
137.473627
 31
0.0
  0
LINE
  5
1ab
100
AcDbEntity
  8
0
 62
7
100
AcDbLine
 10
63.124621
 20
177.976149
 30
0.0
 11
60.124801
 21
177.976149
 31
0.0
  0
LINE
  5
1ac
100
AcDbEntity
  8
0
 62
7
100
AcDbLine
 10
60.124801
 20
177.976149
 30
0.0
 11
60.124801
 21
190.476167
 31
0.0
  0
LINE
  5
1ad
100
AcDbEntity
  8
0
 62
7
100
AcDbLine
 10
60.124801
 20
190.476167
 30
0.0
 11
43.965579
 21
174.317457
 31
0.0
  0
LINE
  5
1ae
100
AcDbEntity
  8
0
 62
7
100
AcDbLine
 10
43.965579
 20
174.317457
 30
0.0
 11
46.087929
 21
172.195106
 31
0.0
  0
LINE
  5
1af
100
AcDbEntity
  8
0
 62
7
100
AcDbLine
 10
46.087929
 20
172.195106
 30
0.0
 11
28.405807
 21
154.514013
 31
0.0
  0
LINE
  5
1b0
100
AcDbEntity
  8
0
 62
7
100
AcDbLine
 10
28.405807
 20
154.514013
 30
0.0
 11
26.283977
 21
156.636363
 31
0.0
  0
LINE
  5
1b1
100
AcDbEntity
  8
0
 62
7
100
AcDbLine
 10
26.283977
 20
156.636363
 30
0.0
 11
10.121138
 21
140.473001
 31
0.0
  0
SPLINE
  5
1b2
100
AcDbEntity
  8
0
 62
7
100
AcDbSpline
 70
8
 71
3
 72
8
 73
4
 74
0
 40
0
 40
0
 40
0
 40
0
 40
1
 40
1
 40
1
 40
1
 10
10.121138
 20
140.473001
 30
0.0
 10
9.793228
 20
140.145082
 30
0.0
 10
9.653928
 20
139.673288
 30
0.0
 10
9.751128
 20
139.219851
 30
0.0
  0
LINE
  5
1b3
100
AcDbEntity
  8
0
 62
7
100
AcDbLine
 10
9.751128
 20
139.219851
 30
0.0
 11
9.934588
 21
138.363571
 31
0.0
  0
SPLINE
  5
1b4
100
AcDbEntity
  8
0
 62
7
100
AcDbSpline
 70
8
 71
3
 72
8
 73
4
 74
0
 40
0
 40
0
 40
0
 40
0
 40
1
 40
1
 40
1
 40
1
 10
9.934588
 20
138.363571
 30
0.0
 10
10.045538
 20
137.846049
 30
0.0
 10
10.502898
 20
137.476328
 30
0.0
 10
11.032188
 20
137.476290
 30
0.0
  0
LINE
  5
1b5
100
AcDbEntity
  8
0
 62
7
100
AcDbLine
 10
11.032188
 20
137.476290
 30
0.0
 11
60.124801
 21
137.476290
 31
0.0
  0
LINE
  5
1b6
100
AcDbEntity
  8
0
 62
7
100
AcDbLine
 10
60.124801
 20
137.476290
 30
0.0
 11
60.124801
 21
152.976123
 31
0.0
  0
LINE
  5
1b7
100
AcDbEntity
  8
0
 62
7
100
AcDbLine
 10
60.124801
 20
152.976123
 30
0.0
 11
63.124621
 21
152.976123
 31
0.0
  0
LINE
  5
1b8
100
AcDbEntity
  8
0
 62
7
100
AcDbLine
 10
63.124621
 20
152.976123
 30
0.0
 11
63.124621
 21
177.976149
 31
0.0
  0
SPLINE
  5
1b9
100
AcDbEntity
  8
0
 62
7
100
AcDbSpline
 70
8
 71
3
 72
8
 73
4
 74
0
 40
0
 40
0
 40
0
 40
0
 40
1
 40
1
 40
1
 40
1
 10
58.404501
 20
166.725671
 30
0.0
 10
58.959056
 20
166.712501
 30
0.0
 10
59.438594
 20
166.335430
 30
0.0
 10
59.582201
 20
165.799630
 30
0.0
  0
SPLINE
  5
1ba
100
AcDbEntity
  8
0
 62
7
100
AcDbSpline
 70
8
 71
3
 72
8
 73
4
 74
0
 40
0
 40
0
 40
0
 40
0
 40
1
 40
1
 40
1
 40
1
 10
59.582201
 20
165.799630
 30
0.0
 10
59.760717
 20
165.132951
 30
0.0
 10
59.365140
 20
164.447750
 30
0.0
 10
58.698531
 20
164.268974
 30
0.0
  0
SPLINE
  5
1bb
100
AcDbEntity
  8
0
 62
7
100
AcDbSpline
 70
8
 71
3
 72
8
 73
4
 74
0
 40
0
 40
0
 40
0
 40
0
 40
1
 40
1
 40
1
 40
1
 10
58.698531
 20
164.268974
 30
0.0
 10
58.031687
 20
164.090130
 30
0.0
 10
57.346131
 20
164.485777
 30
0.0
 10
57.167361
 20
165.152641
 30
0.0
  0
SPLINE
  5
1bc
100
AcDbEntity
  8
0
 62
7
100
AcDbSpline
 70
8
 71
3
 72
8
 73
4
 74
0
 40
0
 40
0
 40
0
 40
0
 40
1
 40
1
 40
1
 40
1
 10
57.167361
 20
165.152641
 30
0.0
 10
56.988550
 20
165.819645
 30
0.0
 10
57.384474
 20
166.505275
 30
0.0
 10
58.051551
 20
166.683813
 30
0.0
  0
SPLINE
  5
1bd
100
AcDbEntity
  8
0
 62
7
100
AcDbSpline
 70
8
 71
3
 72
8
 73
4
 74
0
 40
0
 40
0
 40
0
 40
0
 40
1
 40
1
 40
1
 40
1
 10
58.051551
 20
166.683813
 30
0.0
 10
58.166607
 20
166.714503
 30
0.0
 10
58.285458
 20
166.728603
 30
0.0
 10
58.404501
 20
166.725673
 30
0.0
  0
LINE
  5
1be
100
AcDbEntity
  8
0
 62
7
100
AcDbLine
 10
58.404501
 20
166.725673
 30
0.0
 11
58.404501
 21
166.725671
 31
0.0
  0
SPLINE
  5
1bf
100
AcDbEntity
  8
0
 62
7
100
AcDbSpline
 70
8
 71
3
 72
8
 73
4
 74
0
 40
0
 40
0
 40
0
 40
0
 40
1
 40
1
 40
1
 40
1
 10
39.150368
 20
162.730565
 30
0.0
 10
39.705073
 20
162.717335
 30
0.0
 10
40.184663
 20
162.340015
 30
0.0
 10
40.328078
 20
161.804007
 30
0.0
  0
SPLINE
  5
1c0
100
AcDbEntity
  8
0
 62
7
100
AcDbSpline
 70
8
 71
3
 72
8
 73
4
 74
0
 40
0
 40
0
 40
0
 40
0
 40
1
 40
1
 40
1
 40
1
 10
40.328078
 20
161.804007
 30
0.0
 10
40.506594
 20
161.137328
 30
0.0
 10
40.111017
 20
160.452127
 30
0.0
 10
39.444408
 20
160.273351
 30
0.0
  0
SPLINE
  5
1c1
100
AcDbEntity
  8
0
 62
7
100
AcDbSpline
 70
8
 71
3
 72
8
 73
4
 74
0
 40
0
 40
0
 40
0
 40
0
 40
1
 40
1
 40
1
 40
1
 10
39.444408
 20
160.273351
 30
0.0
 10
38.777564
 20
160.094507
 30
0.0
 10
38.092008
 20
160.490154
 30
0.0
 10
37.913238
 20
161.157018
 30
0.0
  0
SPLINE
  5
1c2
100
AcDbEntity
  8
0
 62
7
100
AcDbSpline
 70
8
 71
3
 72
8
 73
4
 74
0
 40
0
 40
0
 40
0
 40
0
 40
1
 40
1
 40
1
 40
1
 10
37.913238
 20
161.157018
 30
0.0
 10
37.734426
 20
161.824019
 30
0.0
 10
38.130345
 20
162.509649
 30
0.0
 10
38.797418
 20
162.688191
 30
0.0
  0
SPLINE
  5
1c3
100
AcDbEntity
  8
0
 62
7
100
AcDbSpline
 70
8
 71
3
 72
8
 73
4
 74
0
 40
0
 40
0
 40
0
 40
0
 40
1
 40
1
 40
1
 40
1
 10
38.797418
 20
162.688191
 30
0.0
 10
38.912449
 20
162.719061
 30
0.0
 10
39.031300
 20
162.733321
 30
0.0
 10
39.150368
 20
162.730561
 30
0.0
  0
LINE
  5
1c4
100
AcDbEntity
  8
0
 62
7
100
AcDbLine
 10
39.150368
 20
162.730561
 30
0.0
 11
39.150368
 21
162.730565
 31
0.0
  0
LINE
  5
1c5
100
AcDbEntity
  8
0
 62
7
100
AcDbLine
 10
12.250789
 20
142.597578
 30
0.0
 11
12.250789
 21
150.854779
 31
0.0
  0
LINE
  5
1c6
100
AcDbEntity
  8
0
 62
7
100
AcDbLine
 10
12.250789
 20
150.854779
 30
0.0
 11
9.250788
 21
150.854779
 31
0.0
  0
SPLINE
  5
1c7
100
AcDbEntity
  8
0
 62
7
100
AcDbSpline
 70
8
 71
3
 72
8
 73
4
 74
0
 40
0
 40
0
 40
0
 40
0
 40
1
 40
1
 40
1
 40
1
 10
9.250788
 20
150.854779
 30
0.0
 10
5.421938
 20
151.189659
 30
0.0
 10
2.469367
 20
155.479570
 30
0.0
 10
2.250787
 20
163.354782
 30
0.0
  0
SPLINE
  5
1c8
100
AcDbEntity
  8
0
 62
7
100
AcDbSpline
 70
8
 71
3
 72
8
 73
4
 74
0
 40
0
 40
0
 40
0
 40
0
 40
1
 40
1
 40
1
 40
1
 10
2.250787
 20
163.354782
 30
0.0
 10
2.344687
 20
166.736292
 30
0.0
 10
3.163407
 20
174.365001
 30
0.0
 10
8.564798
 20
175.794781
 30
0.0
  0
LINE
  5
1c9
100
AcDbEntity
  8
0
 62
7
100
AcDbLine
 10
8.564798
 20
175.794781
 30
0.0
 11
12.250809
 21
175.854781
 31
0.0
  0
LINE
  5
1ca
100
AcDbEntity
  8
0
 62
7
100
AcDbLine
 10
12.250809
 20
175.854781
 30
0.0
 11
12.250529
 21
178.851581
 31
0.0
  0
LINE
  5
1cb
100
AcDbEntity
  8
0
 62
7
100
AcDbLine
 10
12.250529
 20
178.851581
 30
0.0
 11
48.502807
 21
178.851581
 31
0.0
  0
SPLINE
  5
1cc
100
AcDbEntity
  8
0
 62
7
100
AcDbSpline
 70
8
 71
3
 72
8
 73
4
 74
0
 40
0
 40
0
 40
0
 40
0
 40
1
 40
1
 40
1
 40
1
 10
78.881516
 20
131.899640
 30
0.0
 10
79.548351
 20
131.720978
 30
0.0
 10
80.233762
 20
132.116720
 30
0.0
 10
80.412426
 20
132.783555
 30
0.0
  0
SPLINE
  5
1cd
100
AcDbEntity
  8
0
 62
7
100
AcDbSpline
 70
8
 71
3
 72
8
 73
4
 74
0
 40
0
 40
0
 40
0
 40
0
 40
1
 40
1
 40
1
 40
1
 10
80.412426
 20
132.783555
 30
0.0
 10
80.591089
 20
133.450390
 30
0.0
 10
80.195349
 20
134.135802
 30
0.0
 10
79.528515
 20
134.314467
 30
0.0
  0
SPLINE
  5
1ce
100
AcDbEntity
  8
0
 62
7
100
AcDbSpline
 70
8
 71
3
 72
8
 73
4
 74
0
 40
0
 40
0
 40
0
 40
0
 40
1
 40
1
 40
1
 40
1
 10
79.528515
 20
134.314467
 30
0.0
 10
78.861681
 20
134.493132
 30
0.0
 10
78.176266
 20
134.097395
 30
0.0
 10
77.997599
 20
133.430561
 30
0.0
  0
SPLINE
  5
1cf
100
AcDbEntity
  8
0
 62
7
100
AcDbSpline
 70
8
 71
3
 72
8
 73
4
 74
0
 40
0
 40
0
 40
0
 40
0
 40
1
 40
1
 40
1
 40
1
 10
77.997599
 20
133.430561
 30
0.0
 10
77.818931
 20
132.763727
 30
0.0
 10
78.214669
 20
132.078312
 30
0.0
 10
78.881503
 20
131.899643
 30
0.0
  0
SPLINE
  5
1d0
100
AcDbEntity
  8
0
 62
7
100
AcDbSpline
 70
8
 71
3
 72
8
 73
4
 74
0
 40
0
 40
0
 40
0
 40
0
 40
1
 40
1
 40
1
 40
1
 10
78.881516
 20
113.881688
 30
0.0
 10
79.548352
 20
113.703026
 30
0.0
 10
80.233763
 20
114.098769
 30
0.0
 10
80.412426
 20
114.765604
 30
0.0
  0
SPLINE
  5
1d1
100
AcDbEntity
  8
0
 62
7
100
AcDbSpline
 70
8
 71
3
 72
8
 73
4
 74
0
 40
0
 40
0
 40
0
 40
0
 40
1
 40
1
 40
1
 40
1
 10
80.412426
 20
114.765604
 30
0.0
 10
80.591089
 20
115.432440
 30
0.0
 10
80.195349
 20
116.117852
 30
0.0
 10
79.528515
 20
116.296517
 30
0.0
  0
SPLINE
  5
1d2
100
AcDbEntity
  8
0
 62
7
100
AcDbSpline
 70
8
 71
3
 72
8
 73
4
 74
0
 40
0
 40
0
 40
0
 40
0
 40
1
 40
1
 40
1
 40
1
 10
79.528515
 20
116.296517
 30
0.0
 10
78.861680
 20
116.475182
 30
0.0
 10
78.176266
 20
116.079444
 30
0.0
 10
77.997599
 20
115.412610
 30
0.0
  0
SPLINE
  5
1d3
100
AcDbEntity
  8
0
 62
7
100
AcDbSpline
 70
8
 71
3
 72
8
 73
4
 74
0
 40
0
 40
0
 40
0
 40
0
 40
1
 40
1
 40
1
 40
1
 10
77.997599
 20
115.412610
 30
0.0
 10
77.818932
 20
114.745775
 30
0.0
 10
78.214669
 20
114.060361
 30
0.0
 10
78.881503
 20
113.881692
 30
0.0
  0
SPLINE
  5
1d4
100
AcDbEntity
  8
0
 62
7
100
AcDbSpline
 70
8
 71
3
 72
8
 73
4
 74
0
 40
0
 40
0
 40
0
 40
0
 40
1
 40
1
 40
1
 40
1
 10
125.247418
 20
160.097955
 30
0.0
 10
127.680678
 20
160.097785
 30
0.0
 10
129.653188
 20
158.125274
 30
0.0
 10
129.653348
 20
155.692014
 30
0.0
  0
LINE
  5
1d5
100
AcDbEntity
  8
0
 62
7
100
AcDbLine
 10
129.653348
 20
155.692014
 30
0.0
 11
129.653348
 21
136.600158
 31
0.0
  0
LINE
  5
1d6
100
AcDbEntity
  8
0
 62
7
100
AcDbLine
 10
129.653348
 20
136.600158
 30
0.0
 11
126.651468
 21
136.600158
 31
0.0
  0
LINE
  5
1d7
100
AcDbEntity
  8
0
 62
7
100
AcDbLine
 10
126.651468
 20
136.600158
 30
0.0
 11
126.651468
 21
111.598064
 31
0.0
  0
LINE
  5
1d8
100
AcDbEntity
  8
0
 62
7
100
AcDbLine
 10
126.651468
 20
111.598064
 30
0.0
 11
129.653348
 21
111.594964
 31
0.0
  0
LINE
  5
1d9
100
AcDbEntity
  8
0
 62
7
100
AcDbLine
 10
129.653348
 20
111.594964
 30
0.0
 11
129.653348
 21
92.504652
 31
0.0
  0
SPLINE
  5
1da
100
AcDbEntity
  8
0
 62
7
100
AcDbSpline
 70
8
 71
3
 72
8
 73
4
 74
0
 40
0
 40
0
 40
0
 40
0
 40
1
 40
1
 40
1
 40
1
 10
129.653348
 20
92.504652
 30
0.0
 10
129.653468
 20
90.071190
 30
0.0
 10
127.680878
 20
88.098369
 30
0.0
 10
125.247418
 20
88.098203
 30
0.0
  0
LINE
  5
1db
100
AcDbEntity
  8
0
 62
7
100
AcDbLine
 10
125.247418
 20
88.098203
 30
0.0
 11
83.918149
 21
88.098203
 31
0.0
  0
SPLINE
  5
1dc
100
AcDbEntity
  8
0
 62
7
100
AcDbSpline
 70
8
 71
3
 72
8
 73
4
 74
0
 40
0
 40
0
 40
0
 40
0
 40
1
 40
1
 40
1
 40
1
 10
83.918149
 20
88.098203
 30
0.0
 10
81.562736
 20
88.098208
 30
0.0
 10
79.653298
 20
90.007646
 30
0.0
 10
79.653293
 20
92.363059
 30
0.0
  0
LINE
  5
1dd
100
AcDbEntity
  8
0
 62
7
100
AcDbLine
 10
79.653293
 20
92.363059
 30
0.0
 11
79.653293
 21
111.598064
 31
0.0
  0
LINE
  5
1de
100
AcDbEntity
  8
0
 62
7
100
AcDbLine
 10
79.653293
 20
111.598064
 30
0.0
 11
74.653080
 21
111.598064
 31
0.0
  0
LINE
  5
1df
100
AcDbEntity
  8
0
 62
7
100
AcDbLine
 10
74.653080
 20
111.598064
 30
0.0
 11
74.653080
 21
136.598091
 31
0.0
  0
LINE
  5
1e0
100
AcDbEntity
  8
0
 62
7
100
AcDbLine
 10
74.653080
 20
136.598091
 30
0.0
 11
79.653293
 21
136.598091
 31
0.0
  0
LINE
  5
1e1
100
AcDbEntity
  8
0
 62
7
100
AcDbLine
 10
79.653293
 20
136.598091
 30
0.0
 11
79.653293
 21
155.692014
 31
0.0
  0
SPLINE
  5
1e2
100
AcDbEntity
  8
0
 62
7
100
AcDbSpline
 70
8
 71
3
 72
8
 73
4
 74
0
 40
0
 40
0
 40
0
 40
0
 40
1
 40
1
 40
1
 40
1
 10
79.653293
 20
155.692014
 30
0.0
 10
79.653454
 20
158.125484
 30
0.0
 10
81.626276
 20
160.098075
 30
0.0
 10
84.059742
 20
160.097955
 30
0.0
  0
SPLINE
  5
1e3
100
AcDbEntity
  8
0
 62
7
100
AcDbSpline
 70
8
 71
3
 72
8
 73
4
 74
0
 40
0
 40
0
 40
0
 40
0
 40
1
 40
1
 40
1
 40
1
 10
124.796278
 20
90.488238
 30
0.0
 10
125.506118
 20
90.505138
 30
0.0
 10
126.119908
 20
90.987845
 30
0.0
 10
126.303678
 20
91.673695
 30
0.0
  0
SPLINE
  5
1e4
100
AcDbEntity
  8
0
 62
7
100
AcDbSpline
 70
8
 71
3
 72
8
 73
4
 74
0
 40
0
 40
0
 40
0
 40
0
 40
1
 40
1
 40
1
 40
1
 10
126.303678
 20
91.673695
 30
0.0
 10
126.532348
 20
92.527336
 30
0.0
 10
126.025638
 20
93.404710
 30
0.0
 10
125.171968
 20
93.633267
 30
0.0
  0
SPLINE
  5
1e5
100
AcDbEntity
  8
0
 62
7
100
AcDbSpline
 70
8
 71
3
 72
8
 73
4
 74
0
 40
0
 40
0
 40
0
 40
0
 40
1
 40
1
 40
1
 40
1
 10
125.171968
 20
93.633267
 30
0.0
 10
124.318488
 20
93.861971
 30
0.0
 10
123.441188
 20
93.355531
 30
0.0
 10
123.212398
 20
92.502069
 30
0.0
  0
SPLINE
  5
1e6
100
AcDbEntity
  8
0
 62
7
100
AcDbSpline
 70
8
 71
3
 72
8
 73
4
 74
0
 40
0
 40
0
 40
0
 40
0
 40
1
 40
1
 40
1
 40
1
 10
123.212398
 20
92.502069
 30
0.0
 10
122.983728
 20
91.648427
 30
0.0
 10
123.490438
 20
90.771055
 30
0.0
 10
124.344108
 20
90.542498
 30
0.0
  0
SPLINE
  5
1e7
100
AcDbEntity
  8
0
 62
7
100
AcDbSpline
 70
8
 71
3
 72
8
 73
4
 74
0
 40
0
 40
0
 40
0
 40
0
 40
1
 40
1
 40
1
 40
1
 10
124.344108
 20
90.542498
 30
0.0
 10
124.491478
 20
90.502948
 30
0.0
 10
124.643738
 20
90.484668
 30
0.0
 10
124.796278
 20
90.488238
 30
0.0
  0
LINE
  5
1e8
100
AcDbEntity
  8
0
 62
7
100
AcDbLine
 10
124.796278
 20
90.488238
 30
0.0
 11
124.796278
 21
90.488238
 31
0.0
  0
SPLINE
  5
1e9
100
AcDbEntity
  8
0
 62
7
100
AcDbSpline
 70
8
 71
3
 72
8
 73
4
 74
0
 40
0
 40
0
 40
0
 40
0
 40
1
 40
1
 40
1
 40
1
 10
85.878754
 20
90.493938
 30
0.0
 10
86.588599
 20
90.510838
 30
0.0
 10
87.202392
 20
90.993541
 30
0.0
 10
87.386155
 20
91.679396
 30
0.0
  0
SPLINE
  5
1ea
100
AcDbEntity
  8
0
 62
7
100
AcDbSpline
 70
8
 71
3
 72
8
 73
4
 74
0
 40
0
 40
0
 40
0
 40
0
 40
1
 40
1
 40
1
 40
1
 10
87.386155
 20
91.679396
 30
0.0
 10
87.614860
 20
92.532881
 30
0.0
 10
87.108422
 20
93.410183
 30
0.0
 10
86.254958
 20
93.638967
 30
0.0
  0
SPLINE
  5
1eb
100
AcDbEntity
  8
0
 62
7
100
AcDbSpline
 70
8
 71
3
 72
8
 73
4
 74
0
 40
0
 40
0
 40
0
 40
0
 40
1
 40
1
 40
1
 40
1
 10
86.254958
 20
93.638967
 30
0.0
 10
85.401471
 20
93.867671
 30
0.0
 10
84.524169
 20
93.361235
 30
0.0
 10
84.295387
 20
92.507769
 30
0.0
  0
SPLINE
  5
1ec
100
AcDbEntity
  8
0
 62
7
100
AcDbSpline
 70
8
 71
3
 72
8
 73
4
 74
0
 40
0
 40
0
 40
0
 40
0
 40
1
 40
1
 40
1
 40
1
 10
84.295387
 20
92.507769
 30
0.0
 10
84.066682
 20
91.654284
 30
0.0
 10
84.573120
 20
90.776982
 30
0.0
 10
85.426584
 20
90.548199
 30
0.0
  0
SPLINE
  5
1ed
100
AcDbEntity
  8
0
 62
7
100
AcDbSpline
 70
8
 71
3
 72
8
 73
4
 74
0
 40
0
 40
0
 40
0
 40
0
 40
1
 40
1
 40
1
 40
1
 10
85.426584
 20
90.548199
 30
0.0
 10
85.573949
 20
90.508649
 30
0.0
 10
85.726215
 20
90.490369
 30
0.0
 10
85.878754
 20
90.493939
 30
0.0
  0
LINE
  5
1ee
100
AcDbEntity
  8
0
 62
7
100
AcDbLine
 10
85.878754
 20
90.493939
 30
0.0
 11
85.878754
 21
90.493938
 31
0.0
  0
LINE
  5
1ef
100
AcDbEntity
  8
0
 62
7
100
AcDbLine
 10
92.378098
 20
97.102838
 30
0.0
 11
114.045516
 21
97.102838
 31
0.0
  0
SPLINE
  5
1f0
100
AcDbEntity
  8
0
 62
7
100
AcDbSpline
 70
8
 71
3
 72
8
 73
4
 74
0
 40
0
 40
0
 40
0
 40
0
 40
1
 40
1
 40
1
 40
1
 10
114.045516
 20
97.102838
 30
0.0
 10
117.248137
 20
97.102995
 30
0.0
 10
119.844257
 20
99.699346
 30
0.0
 10
119.844127
 20
102.901969
 30
0.0
  0
LINE
  5
1f1
100
AcDbEntity
  8
0
 62
7
100
AcDbLine
 10
119.844127
 20
102.901969
 30
0.0
 11
119.844127
 21
145.294736
 31
0.0
  0
SPLINE
  5
1f2
100
AcDbEntity
  8
0
 62
7
100
AcDbSpline
 70
8
 71
3
 72
8
 73
4
 74
0
 40
0
 40
0
 40
0
 40
0
 40
1
 40
1
 40
1
 40
1
 10
119.844127
 20
145.294736
 30
0.0
 10
119.843967
 20
148.497159
 30
0.0
 10
117.247937
 20
151.093189
 30
0.0
 10
114.045516
 20
151.093349
 30
0.0
  0
LINE
  5
1f3
100
AcDbEntity
  8
0
 62
7
100
AcDbLine
 10
114.045516
 20
151.093349
 30
0.0
 11
92.378098
 21
151.093349
 31
0.0
  0
SPLINE
  5
1f4
100
AcDbEntity
  8
0
 62
7
100
AcDbSpline
 70
8
 71
3
 72
8
 73
4
 74
0
 40
0
 40
0
 40
0
 40
0
 40
1
 40
1
 40
1
 40
1
 10
92.378098
 20
151.093349
 30
0.0
 10
89.175475
 20
151.093479
 30
0.0
 10
86.579124
 20
148.497359
 30
0.0
 10
86.578969
 20
145.294736
 30
0.0
  0
LINE
  5
1f5
100
AcDbEntity
  8
0
 62
7
100
AcDbLine
 10
86.578969
 20
145.294736
 30
0.0
 11
86.578969
 21
102.901953
 31
0.0
  0
SPLINE
  5
1f6
100
AcDbEntity
  8
0
 62
7
100
AcDbSpline
 70
8
 71
3
 72
8
 73
4
 74
0
 40
0
 40
0
 40
0
 40
0
 40
1
 40
1
 40
1
 40
1
 10
86.578969
 20
102.901953
 30
0.0
 10
86.578839
 20
99.699127
 30
0.0
 10
89.175273
 20
97.102692
 30
0.0
 10
92.378098
 20
97.102822
 30
0.0
  0
LINE
  5
1f7
100
AcDbEntity
  8
0
 62
7
100
AcDbLine
 10
92.378098
 20
97.102822
 30
0.0
 11
92.378098
 21
97.102838
 31
0.0
  0
SPLINE
  5
1f8
100
AcDbEntity
  8
0
 62
7
100
AcDbSpline
 70
8
 71
3
 72
8
 73
4
 74
0
 40
0
 40
0
 40
0
 40
0
 40
1
 40
1
 40
1
 40
1
 10
124.164278
 20
122.881114
 30
0.0
 10
124.704288
 20
122.893914
 30
0.0
 10
125.171238
 20
123.261331
 30
0.0
 10
125.310978
 20
123.783384
 30
0.0
  0
SPLINE
  5
1f9
100
AcDbEntity
  8
0
 62
7
100
AcDbSpline
 70
8
 71
3
 72
8
 73
4
 74
0
 40
0
 40
0
 40
0
 40
0
 40
1
 40
1
 40
1
 40
1
 10
125.310978
 20
123.783384
 30
0.0
 10
125.484648
 20
124.432936
 30
0.0
 10
125.099218
 20
125.100379
 30
0.0
 10
124.450048
 20
125.274249
 30
0.0
  0
SPLINE
  5
1fa
100
AcDbEntity
  8
0
 62
7
100
AcDbSpline
 70
8
 71
3
 72
8
 73
4
 74
0
 40
0
 40
0
 40
0
 40
0
 40
1
 40
1
 40
1
 40
1
 10
124.450048
 20
125.274249
 30
0.0
 10
123.800898
 20
125.448232
 30
0.0
 10
123.133678
 20
125.062800
 30
0.0
 10
122.959698
 20
124.413320
 30
0.0
  0
SPLINE
  5
1fb
100
AcDbEntity
  8
0
 62
7
100
AcDbSpline
 70
8
 71
3
 72
8
 73
4
 74
0
 40
0
 40
0
 40
0
 40
0
 40
1
 40
1
 40
1
 40
1
 10
122.959698
 20
124.413320
 30
0.0
 10
122.785697
 20
123.763601
 30
0.0
 10
123.171198
 20
123.095800
 30
0.0
 10
123.820628
 20
122.921938
 30
0.0
  0
SPLINE
  5
1fc
100
AcDbEntity
  8
0
 62
7
100
AcDbSpline
 70
8
 71
3
 72
8
 73
4
 74
0
 40
0
 40
0
 40
0
 40
0
 40
1
 40
1
 40
1
 40
1
 10
123.820628
 20
122.921938
 30
0.0
 10
123.932648
 20
122.892018
 30
0.0
 10
124.048368
 20
122.878268
 30
0.0
 10
124.164278
 20
122.881118
 30
0.0
  0
LINE
  5
1fd
100
AcDbEntity
  8
0
 62
7
100
AcDbLine
 10
124.164278
 20
122.881118
 30
0.0
 11
124.164278
 21
122.881114
 31
0.0
  0
SPLINE
  5
1fe
100
AcDbEntity
  8
0
 62
7
100
AcDbSpline
 70
8
 71
3
 72
8
 73
4
 74
0
 40
0
 40
0
 40
0
 40
0
 40
1
 40
1
 40
1
 40
1
 10
85.895290
 20
154.505524
 30
0.0
 10
86.605132
 20
154.522424
 30
0.0
 10
87.218925
 20
155.005134
 30
0.0
 10
87.402692
 20
155.690984
 30
0.0
  0
SPLINE
  5
1ff
100
AcDbEntity
  8
0
 62
7
100
AcDbSpline
 70
8
 71
3
 72
8
 73
4
 74
0
 40
0
 40
0
 40
0
 40
0
 40
1
 40
1
 40
1
 40
1
 10
87.402692
 20
155.690984
 30
0.0
 10
87.631361
 20
156.544624
 30
0.0
 10
87.124651
 20
157.422004
 30
0.0
 10
86.270978
 20
157.650554
 30
0.0
  0
SPLINE
  5
200
100
AcDbEntity
  8
0
 62
7
100
AcDbSpline
 70
8
 71
3
 72
8
 73
4
 74
0
 40
0
 40
0
 40
0
 40
0
 40
1
 40
1
 40
1
 40
1
 10
86.270978
 20
157.650554
 30
0.0
 10
85.417494
 20
157.879264
 30
0.0
 10
84.540193
 20
157.372814
 30
0.0
 10
84.311406
 20
156.519354
 30
0.0
  0
SPLINE
  5
201
100
AcDbEntity
  8
0
 62
7
100
AcDbSpline
 70
8
 71
3
 72
8
 73
4
 74
0
 40
0
 40
0
 40
0
 40
0
 40
1
 40
1
 40
1
 40
1
 10
84.311406
 20
156.519354
 30
0.0
 10
84.082737
 20
155.665724
 30
0.0
 10
84.589447
 20
154.788334
 30
0.0
 10
85.443120
 20
154.559784
 30
0.0
  0
SPLINE
  5
202
100
AcDbEntity
  8
0
 62
7
100
AcDbSpline
 70
8
 71
3
 72
8
 73
4
 74
0
 40
0
 40
0
 40
0
 40
0
 40
1
 40
1
 40
1
 40
1
 10
85.443120
 20
154.559784
 30
0.0
 10
85.590483
 20
154.520184
 30
0.0
 10
85.742749
 20
154.501884
 30
0.0
 10
85.895290
 20
154.505484
 30
0.0
  0
LINE
  5
203
100
AcDbEntity
  8
0
 62
7
100
AcDbLine
 10
85.895290
 20
154.505484
 30
0.0
 11
85.895290
 21
154.505524
 31
0.0
  0
SPLINE
  5
204
100
AcDbEntity
  8
0
 62
7
100
AcDbSpline
 70
8
 71
3
 72
8
 73
4
 74
0
 40
0
 40
0
 40
0
 40
0
 40
1
 40
1
 40
1
 40
1
 10
124.804548
 20
154.507524
 30
0.0
 10
125.514388
 20
154.524424
 30
0.0
 10
126.128178
 20
155.007134
 30
0.0
 10
126.311948
 20
155.692984
 30
0.0
  0
SPLINE
  5
205
100
AcDbEntity
  8
0
 62
7
100
AcDbSpline
 70
8
 71
3
 72
8
 73
4
 74
0
 40
0
 40
0
 40
0
 40
0
 40
1
 40
1
 40
1
 40
1
 10
126.311948
 20
155.692984
 30
0.0
 10
126.540618
 20
156.546624
 30
0.0
 10
126.033918
 20
157.424004
 30
0.0
 10
125.180238
 20
157.652554
 30
0.0
  0
SPLINE
  5
206
100
AcDbEntity
  8
0
 62
7
100
AcDbSpline
 70
8
 71
3
 72
8
 73
4
 74
0
 40
0
 40
0
 40
0
 40
0
 40
1
 40
1
 40
1
 40
1
 10
125.180238
 20
157.652554
 30
0.0
 10
124.326758
 20
157.881264
 30
0.0
 10
123.449458
 20
157.374814
 30
0.0
 10
123.220668
 20
156.521354
 30
0.0
  0
SPLINE
  5
207
100
AcDbEntity
  8
0
 62
7
100
AcDbSpline
 70
8
 71
3
 72
8
 73
4
 74
0
 40
0
 40
0
 40
0
 40
0
 40
1
 40
1
 40
1
 40
1
 10
123.220668
 20
156.521354
 30
0.0
 10
122.991998
 20
155.667714
 30
0.0
 10
123.498698
 20
154.790334
 30
0.0
 10
124.352378
 20
154.561784
 30
0.0
  0
SPLINE
  5
208
100
AcDbEntity
  8
0
 62
7
100
AcDbSpline
 70
8
 71
3
 72
8
 73
4
 74
0
 40
0
 40
0
 40
0
 40
0
 40
1
 40
1
 40
1
 40
1
 10
124.352378
 20
154.561784
 30
0.0
 10
124.499738
 20
154.522184
 30
0.0
 10
124.652008
 20
154.503884
 30
0.0
 10
124.804548
 20
154.507484
 30
0.0
  0
LINE
  5
209
100
AcDbEntity
  8
0
 62
7
100
AcDbLine
 10
124.804548
 20
154.507484
 30
0.0
 11
124.804548
 21
154.507524
 31
0.0
  0
SPLINE
  5
20a
100
AcDbEntity
  8
0
 62
7
100
AcDbSpline
 70
8
 71
3
 72
8
 73
4
 74
0
 40
0
 40
0
 40
0
 40
0
 40
1
 40
1
 40
1
 40
1
 10
76.749738
 20
202.668577
 30
0.0
 10
76.082903
 20
202.847239
 30
0.0
 10
75.397492
 20
202.451497
 30
0.0
 10
75.218828
 20
201.784662
 30
0.0
  0
SPLINE
  5
20b
100
AcDbEntity
  8
0
 62
7
100
AcDbSpline
 70
8
 71
3
 72
8
 73
4
 74
0
 40
0
 40
0
 40
0
 40
0
 40
1
 40
1
 40
1
 40
1
 10
75.218828
 20
201.784662
 30
0.0
 10
75.040164
 20
201.117827
 30
0.0
 10
75.435905
 20
200.432414
 30
0.0
 10
76.102740
 20
200.253749
 30
0.0
  0
SPLINE
  5
20c
100
AcDbEntity
  8
0
 62
7
100
AcDbSpline
 70
8
 71
3
 72
8
 73
4
 74
0
 40
0
 40
0
 40
0
 40
0
 40
1
 40
1
 40
1
 40
1
 10
76.102740
 20
200.253749
 30
0.0
 10
76.769574
 20
200.075084
 30
0.0
 10
77.454987
 20
200.470822
 30
0.0
 10
77.633655
 20
201.137656
 30
0.0
  0
SPLINE
  5
20d
100
AcDbEntity
  8
0
 62
7
100
AcDbSpline
 70
8
 71
3
 72
8
 73
4
 74
0
 40
0
 40
0
 40
0
 40
0
 40
1
 40
1
 40
1
 40
1
 10
77.633655
 20
201.137656
 30
0.0
 10
77.812322
 20
201.804490
 30
0.0
 10
77.416585
 20
202.489904
 30
0.0
 10
76.749752
 20
202.668573
 30
0.0
  0
SPLINE
  5
20e
100
AcDbEntity
  8
0
 62
7
100
AcDbSpline
 70
8
 71
3
 72
8
 73
4
 74
0
 40
0
 40
0
 40
0
 40
0
 40
1
 40
1
 40
1
 40
1
 10
166.385546
 20
202.668577
 30
0.0
 10
165.718711
 20
202.847238
 30
0.0
 10
165.033301
 20
202.451496
 30
0.0
 10
164.854637
 20
201.784662
 30
0.0
  0
SPLINE
  5
20f
100
AcDbEntity
  8
0
 62
7
100
AcDbSpline
 70
8
 71
3
 72
8
 73
4
 74
0
 40
0
 40
0
 40
0
 40
0
 40
1
 40
1
 40
1
 40
1
 10
164.854637
 20
201.784662
 30
0.0
 10
164.675973
 20
201.117827
 30
0.0
 10
165.071713
 20
200.432414
 30
0.0
 10
165.738548
 20
200.253749
 30
0.0
  0
SPLINE
  5
210
100
AcDbEntity
  8
0
 62
7
100
AcDbSpline
 70
8
 71
3
 72
8
 73
4
 74
0
 40
0
 40
0
 40
0
 40
0
 40
1
 40
1
 40
1
 40
1
 10
165.738548
 20
200.253749
 30
0.0
 10
166.405382
 20
200.075084
 30
0.0
 10
167.090795
 20
200.470822
 30
0.0
 10
167.269462
 20
201.137656
 30
0.0
  0
SPLINE
  5
211
100
AcDbEntity
  8
0
 62
7
100
AcDbSpline
 70
8
 71
3
 72
8
 73
4
 74
0
 40
0
 40
0
 40
0
 40
0
 40
1
 40
1
 40
1
 40
1
 10
167.269462
 20
201.137656
 30
0.0
 10
167.448129
 20
201.804490
 30
0.0
 10
167.052393
 20
202.489904
 30
0.0
 10
166.385560
 20
202.668573
 30
0.0
  0
SPLINE
  5
212
100
AcDbEntity
  8
0
 62
7
100
AcDbSpline
 70
8
 71
3
 72
8
 73
4
 74
0
 40
0
 40
0
 40
0
 40
0
 40
1
 40
1
 40
1
 40
1
 10
81.930948
 20
160.104773
 30
0.0
 10
77.686082
 20
160.104774
 30
0.0
 10
74.244939
 20
163.545917
 30
0.0
 10
74.244937
 20
167.790784
 30
0.0
  0
LINE
  5
213
100
AcDbEntity
  8
0
 62
7
100
AcDbLine
 10
74.244937
 20
167.790784
 30
0.0
 11
74.244937
 21
188.959856
 31
0.0
  0
LINE
  5
214
100
AcDbEntity
  8
0
 62
7
100
AcDbLine
 10
74.244937
 20
188.959856
 30
0.0
 11
71.245127
 21
188.959856
 31
0.0
  0
LINE
  5
215
100
AcDbEntity
  8
0
 62
7
100
AcDbLine
 10
71.245127
 20
188.959856
 30
0.0
 11
71.245127
 21
213.959890
 31
0.0
  0
LINE
  5
216
100
AcDbEntity
  8
0
 62
7
100
AcDbLine
 10
71.245127
 20
213.959890
 30
0.0
 11
74.244937
 21
213.959890
 31
0.0
  0
LINE
  5
217
100
AcDbEntity
  8
0
 62
7
100
AcDbLine
 10
74.244937
 20
213.959890
 30
0.0
 11
74.244937
 21
236.814823
 31
0.0
  0
LINE
  5
218
100
AcDbEntity
  8
0
 62
7
100
AcDbLine
 10
74.244937
 20
236.814823
 30
0.0
 11
84.244848
 21
236.814823
 31
0.0
  0
LINE
  5
219
100
AcDbEntity
  8
0
 62
7
100
AcDbLine
 10
84.244848
 20
236.814823
 30
0.0
 11
108.742062
 21
236.814823
 31
0.0
  0
LINE
  5
21a
100
AcDbEntity
  8
0
 62
7
100
AcDbLine
 10
108.742062
 20
236.814823
 30
0.0
 11
108.742062
 21
231.812032
 31
0.0
  0
LINE
  5
21b
100
AcDbEntity
  8
0
 62
7
100
AcDbLine
 10
108.742062
 20
231.812032
 30
0.0
 11
133.748292
 21
231.812032
 31
0.0
  0
LINE
  5
21c
100
AcDbEntity
  8
0
 62
7
100
AcDbLine
 10
133.748292
 20
231.812032
 30
0.0
 11
133.748292
 21
236.814823
 31
0.0
  0
LINE
  5
21d
100
AcDbEntity
  8
0
 62
7
100
AcDbLine
 10
133.748292
 20
236.814823
 30
0.0
 11
168.244899
 21
236.814823
 31
0.0
  0
LINE
  5
21e
100
AcDbEntity
  8
0
 62
7
100
AcDbLine
 10
168.244899
 20
236.814823
 30
0.0
 11
168.244899
 21
213.959890
 31
0.0
  0
LINE
  5
21f
100
AcDbEntity
  8
0
 62
7
100
AcDbLine
 10
168.244899
 20
213.959890
 30
0.0
 11
171.243166
 21
213.959890
 31
0.0
  0
LINE
  5
220
100
AcDbEntity
  8
0
 62
7
100
AcDbLine
 10
171.243166
 20
213.959890
 30
0.0
 11
171.243166
 21
188.959856
 31
0.0
  0
LINE
  5
221
100
AcDbEntity
  8
0
 62
7
100
AcDbLine
 10
171.243166
 20
188.959856
 30
0.0
 11
168.244899
 21
188.959856
 31
0.0
  0
LINE
  5
222
100
AcDbEntity
  8
0
 62
7
100
AcDbLine
 10
168.244899
 20
188.959856
 30
0.0
 11
168.244899
 21
167.790784
 31
0.0
  0
SPLINE
  5
223
100
AcDbEntity
  8
0
 62
7
100
AcDbSpline
 70
8
 71
3
 72
8
 73
4
 74
0
 40
0
 40
0
 40
0
 40
0
 40
1
 40
1
 40
1
 40
1
 10
168.244899
 20
167.790784
 30
0.0
 10
168.244898
 20
163.545917
 30
0.0
 10
164.803752
 20
160.104773
 30
0.0
 10
160.558886
 20
160.104773
 30
0.0
  0
LINE
  5
224
100
AcDbEntity
  8
0
 62
7
100
AcDbLine
 10
143.952838
 20
226.263011
 30
0.0
 11
98.546820
 21
226.263011
 31
0.0
  0
LINE
  5
225
100
AcDbEntity
  8
0
 62
7
100
AcDbLine
 10
98.546820
 20
226.263011
 30
0.0
 11
98.546820
 21
217.793250
 31
0.0
  0
LINE
  5
226
100
AcDbEntity
  8
0
 62
7
100
AcDbLine
 10
98.546820
 20
217.793250
 30
0.0
 11
100.371000
 21
217.793250
 31
0.0
  0
SPLINE
  5
227
100
AcDbEntity
  8
0
 62
7
100
AcDbSpline
 70
8
 71
3
 72
8
 73
4
 74
0
 40
0
 40
0
 40
0
 40
0
 40
1
 40
1
 40
1
 40
1
 10
100.371000
 20
217.793250
 30
0.0
 10
99.287930
 20
209.436759
 30
0.0
 10
108.981702
 20
205.405299
 30
0.0
 10
114.149022
 20
211.037929
 30
0.0
  0
LINE
  5
228
100
AcDbEntity
  8
0
 62
7
100
AcDbLine
 10
114.149022
 20
211.037929
 30
0.0
 11
114.149022
 21
208.585889
 31
0.0
  0
LINE
  5
229
100
AcDbEntity
  8
0
 62
7
100
AcDbLine
 10
114.149022
 20
208.585889
 30
0.0
 11
128.352804
 21
208.585889
 31
0.0
  0
LINE
  5
22a
100
AcDbEntity
  8
0
 62
7
100
AcDbLine
 10
128.352804
 20
208.585889
 30
0.0
 11
128.352804
 21
210.989359
 31
0.0
  0
LINE
  5
22b
100
AcDbEntity
  8
0
 62
7
100
AcDbLine
 10
128.352804
 20
210.989359
 30
0.0
 11
128.352804
 21
211.036859
 31
0.0
  0
LINE
  5
22c
100
AcDbEntity
  8
0
 62
7
100
AcDbLine
 10
128.352804
 20
211.036859
 30
0.0
 11
128.593617
 21
210.770729
 31
0.0
  0
SPLINE
  5
22d
100
AcDbEntity
  8
0
 62
7
100
AcDbSpline
 70
8
 71
3
 72
8
 73
4
 74
0
 40
0
 40
0
 40
0
 40
0
 40
1
 40
1
 40
1
 40
1
 10
128.593617
 20
210.770729
 30
0.0
 10
135.443284
 20
204.953969
 30
0.0
 10
143.340140
 20
211.019819
 30
0.0
 10
142.128753
 20
217.792180
 30
0.0
  0
LINE
  5
22e
100
AcDbEntity
  8
0
 62
7
100
AcDbLine
 10
142.128753
 20
217.792180
 30
0.0
 11
143.952414
 21
217.792180
 31
0.0
  0
LINE
  5
22f
100
AcDbEntity
  8
0
 62
7
100
AcDbLine
 10
143.952414
 20
217.792180
 30
0.0
 11
143.952838
 21
226.263011
 31
0.0
  0
LINE
  5
230
100
AcDbEntity
  8
0
 62
7
100
AcDbLine
 10
156.752576
 20
213.965570
 30
0.0
 11
153.751725
 21
213.965570
 31
0.0
  0
LINE
  5
231
100
AcDbEntity
  8
0
 62
7
100
AcDbLine
 10
153.751725
 20
213.965570
 30
0.0
 11
153.751725
 21
213.962570
 31
0.0
  0
LINE
  5
232
100
AcDbEntity
  8
0
 62
7
100
AcDbLine
 10
153.751725
 20
213.962570
 30
0.0
 11
153.751725
 21
188.960476
 31
0.0
  0
LINE
  5
233
100
AcDbEntity
  8
0
 62
7
100
AcDbLine
 10
153.751725
 20
188.960476
 30
0.0
 11
156.752576
 21
188.960476
 31
0.0
  0
LINE
  5
234
100
AcDbEntity
  8
0
 62
7
100
AcDbLine
 10
156.752576
 20
188.960476
 30
0.0
 11
156.752576
 21
213.962570
 31
0.0
  0
LINE
  5
235
100
AcDbEntity
  8
0
 62
7
100
AcDbLine
 10
156.752576
 20
213.962570
 30
0.0
 11
156.752576
 21
213.965570
 31
0.0
  0
LINE
  5
236
100
AcDbEntity
  8
0
 62
7
100
AcDbLine
 10
88.747929
 20
213.965570
 30
0.0
 11
85.747599
 21
213.965570
 31
0.0
  0
LINE
  5
237
100
AcDbEntity
  8
0
 62
7
100
AcDbLine
 10
85.747599
 20
213.965570
 30
0.0
 11
85.747599
 21
188.960896
 31
0.0
  0
LINE
  5
238
100
AcDbEntity
  8
0
 62
7
100
AcDbLine
 10
85.747599
 20
188.960896
 30
0.0
 11
88.747929
 21
188.960896
 31
0.0
  0
LINE
  5
239
100
AcDbEntity
  8
0
 62
7
100
AcDbLine
 10
88.747929
 20
188.960896
 30
0.0
 11
88.747929
 21
213.965570
 31
0.0
  0
LINE
  5
23a
100
AcDbEntity
  8
0
 62
7
100
AcDbLine
 10
81.926396
 20
160.104631
 30
0.0
 11
179.748374
 21
160.104631
 31
0.0
  0
ENDSEC
  0
SECTION
  2
OBJECTS
  0
DICTIONARY
  5
C
330
0
100
AcDbDictionary
  3
ACAD_GROUP
350
D
  3
ACAD_MLINESTYLE
350
17
  0
DICTIONARY
  5
D
330
C
100
AcDbDictionary
  0
DICTIONARY
  5
1A
330
C
100
AcDbDictionary
  0
DICTIONARY
  5
17
330
C
100
AcDbDictionary
  3
STANDARD
350
18
  0
DICTIONARY
  5
19
330
C
100
AcDbDictionary
  0
ENDSEC
  0
EOF
