<?xml version="1.0" standalone="no"?>
<!DOCTYPE svg PUBLIC "-//W3C//DTD SVG 1.1//EN"
  "http://www.w3.org/Graphics/SVG/1.1/DTD/svg11.dtd">
<svg width="177.1999969482422mm" height="194.99999999999994mm" viewBox="-79.19999694824219 -99.99999999999997 177.1999969482422 194.99999999999994" xmlns="http://www.w3.org/2000/svg" version="1.1">
	<title>svgOutput</title>
	<desc>made with tinkercad</desc>
<path d="M -64 89.99999999999999 L -64 88.99900054931639 L -64 85.75779724121092 L -64 41.99999999999999 L -64 39.99999999999999 L -51.5 39.99999999999999 L -51.5 36.99999999999999 L -40.25199890136719 36.99999999999999 L -37.74800109863281 36.99999999999999 L -29.700000762939453 36.99999999999999 L -26.5 36.99999999999999 L -26.5 39.99999999999999 L -14 39.99999999999999 L -16 41.99999999999999 L -30.159149169921875 56.15914916992186 L -32.28099822998047 54.03699874877928 L -40.25199890136719 62.008449554443345 L -40.499534606933594 62.256000518798814 L -44.24700164794922 66.00367736816405 L -49.96200180053711 71.71900177001952 L -47.84049987792969 73.84049987792967 L -62.999000549316406 88.99900054931639 L -64 89.99999999999999 M -44.5 91.99900054931639 L -44.5 88.99900054931639 L -52.75600051879883 88.99900054931639 L -57 88.99900054931639 L -40.840999603271484 72.83999633789061 L -38.71900177001953 74.96199798583983 L -33.25199890136719 69.49500274658202 L -30.74799919128418 66.99099731445311 L -29.256000518798828 65.49900054931639 L -26.753000259399414 62.995998382568345 L -21.038000106811523 57.280998229980455 L -23.159849166870117 55.15885162353514 L -10.00100040435791 41.99999999999999 L -8.00100040435791 39.99999999999999 L -7 38.9990005493164 L -7 43.24300003051757 L -7 69.2470016479492 L -7 88.50099945068358 L -7 88.99900054931639 L -19.5 88.99900054931639 L -19.5 91.99900054931639 L -44.5 91.99900054931639 M -78.19999694824219 -18.89999961853027 L -78 -18.89999961853027 L -75 -18.89999961853027 L -54.70000076293945 -18.89999961853027 L -54.70000076293945 -23.89999961853027 L -52.82699966430664 -23.89999961853027 L -50.32699966430664 -23.89999961853027 L -34.073001861572266 -23.89999961853027 L -31.572999954223633 -23.89999961853027 L -29.700000762939453 -23.89999961853027 L -29.700000762939453 -18.89999961853027 L -6.199999809265137 -18.89999961853027 L -6.199999809265137 -15.203000068664547 L -6.199999809265137 -5.999999999999998 L -6.199999809265137 27.402000427246087 L -6.199999809265137 31.10000038146972 L -29.697999954223633 31.10000038146972 L -29.697999954223633 28.0979995727539 L -29.700000762939453 28.0979995727539 L -54.70000076293945 28.0979995727539 L -54.702999114990234 28.0979995727539 L -54.702999114990234 31.10000038146972 L -78.19999694824219 31.10000038146972 L -78.19999694824219 27.402000427246087 L -78.19999694824219 -5.999999999999998 L -78.19999694824219 -18.89999961853027 M -74.184814453125 -14.99958229064941 L -74.34762573242188 -15.023286819458004 L -74.37999725341797 -15.027999877929684 L -74.4904556274414 -15.018417358398434 L -74.68788146972656 -15.011687278747555 L -74.94438171386719 -14.954104423522946 L -75 -14.933360099792477 L -75.03768920898438 -14.919304847717282 L -75.3839340209961 -14.731599807739254 L -75.48353576660156 -14.66199970245361 L -75.67198944091797 -14.47878265380859 L -75.75041961669922 -14.371861457824703 L -75.77383422851562 -14.33600044250488 L -75.89399719238281 -14.15200042724609 L -76.01699829101562 -13.82299995422363 L -76.06600189208984 -13.473999977111813 L -76.03700256347656 -13.123999595642086 L -75.93199920654297 -12.78800010681152 L -75.75599670410156 -12.484000205993649 L -75.55465698242188 -12.28800010681152 L -75.37899780273438 -12.116999626159664 L -75.06999969482422 -11.949999809265135 L -75 -11.930118560791014 L -74.9847640991211 -11.925791740417479 L -74.6990966796875 -11.852504730224608 L -74.56645202636719 -11.852504730224608 L -74.20600128173828 -11.854000091552733 L -73.9489974975586 -11.91699981689453 L -73.86023712158203 -11.96213912963867 L -73.72799682617188 -12.029778480529782 L -73.56783294677734 -12.111704826354977 L -73.49117279052734 -12.175251960754391 L -73.29299926757812 -12.347999572753903 L -73.22037506103516 -12.45895671844482 L -73.06482696533203 -12.670591354370114 L -73.0304183959961 -12.749163627624508 L -72.95938110351562 -12.911391258239743 L -72.92861938476562 -13.018060684204098 L -72.88300323486328 -13.21100044250488 L -72.88148498535156 -13.28841686248779 L -72.87101745605469 -13.41928672790527 L -72.8774185180664 -13.496728897094723 L -72.89270782470703 -13.681774139404293 L -72.90592956542969 -13.762385368347164 L -72.90884399414062 -13.780121803283688 L -72.92447662353516 -13.821730613708493 L -73.00299835205078 -14.07299995422363 L -73.05545043945312 -14.157730102539059 L -73.27082824707031 -14.487522125244137 L -73.34042358398438 -14.558634757995602 L -73.48699951171875 -14.690999984741207 L -73.72799682617188 -14.838813781738278 L -73.78700256347656 -14.874999999999996 L -74.0352783203125 -14.96100044250488 L -74.13134765625 -14.991798400878903 L -74.14068603515625 -14.994791030883786 L -74.184814453125 -14.99958229064941 M -11.986695289611816 -13.828470230102536 L -12.051756858825684 -13.540556907653805 L -12.048730850219727 -13.474234580993649 L -12.041999816894531 -13.21100044250488 L -12.035604476928711 -13.186567306518551 L -11.98366928100586 -12.9881477355957 L -11.943825721740723 -12.861304283142086 L -11.818191528320312 -12.593582153320309 L -11.782073974609375 -12.538089752197262 L -11.769774436950684 -12.519191741943356 L -11.739513397216797 -12.486409187316891 L -11.576117515563965 -12.28800010681152 L -11.571999549865723 -12.282999992370602 L -11.333443641662598 -12.108756065368649 L -11.281747817993164 -12.066895484924313 L -11.203825950622559 -12.024783134460446 L -10.933113098144531 -11.907373428344725 L -10.803495407104492 -11.878374099731444 L -10.543999671936035 -11.83500003814697 L -10.192999839782715 -11.854000091552733 L -10.107765197753906 -11.878209114074705 L -9.892095565795898 -11.945140838623045 L -9.825835227966309 -11.965703964233397 L -9.681087493896484 -12.066069602966305 L -9.42533016204834 -12.212643623352047 L -9.344978332519531 -12.28800010681152 L -9.281000137329102 -12.347999572753903 L -9.081061363220215 -12.62003135681152 L -9.072999954223633 -12.630999565124508 L -9.043999671936035 -12.691017150878903 L -9.022061347961426 -12.777260780334469 L -8.883712768554688 -13.145938873291012 L -8.884217262268066 -13.245547294616696 L -8.862530708312988 -13.507287025451657 L -8.884469032287598 -13.604373931884762 L -8.886062622070312 -13.610063552856442 L -9.043008804321289 -14.170478820800778 L -9.109330177307129 -14.285217285156246 L -9.145232200622559 -14.33600044250488 L -9.222999572753906 -14.446000099182125 L -9.475000381469727 -14.690999984741207 L -9.743509292602539 -14.855686187744137 L -9.774999618530273 -14.874999999999996 L -10.056182861328125 -14.96399116516113 L -10.139904022216797 -14.992991447448727 L -10.250356674194336 -15.002573966979977 L -10.631623268127441 -15.012624740600582 L -10.675869941711426 -15.013791084289547 L -10.866565704345703 -14.963686943054196 L -10.954069137573242 -14.949060440063473 L -11.351913452148438 -14.720973968505856 L -11.434122085571289 -14.687686920166012 L -11.48960018157959 -14.650617599487301 L -11.553147315979004 -14.588834762573239 L -11.746834754943848 -14.365234374999996 L -11.765018463134766 -14.33600044250488 L -11.805338859558105 -14.271174430847164 L -11.953409194946289 -13.979521751403805 L -11.974339485168457 -13.916478157043453 L -11.986695289611816 -13.828470230102536 M -54.70000076293945 -28.290000915527337 L -75 -28.290000915527337 L -75 -33.29299926757812 L -75 -51.14500045776366 L -78 -51.14500045776366 L -78 -76.14499664306639 L -75 -76.14499664306639 L -75 -98.99999999999997 L -60.25299835205078 -98.99999999999997 L -57.24800109863281 -98.99999999999997 L 1.2480000257492065 -98.99999999999997 L 4.252999782562256 -98.99999999999997 L 19 -98.99999999999997 L 19 -76.14499664306639 L 22 -76.14499664306639 L 22 -62.39300155639647 L 22 -51.14500045776366 L 19 -51.14500045776366 L 19 -33.29299926757812 L 19 -28.290000915527337 L -6.199999809265137 -28.290000915527337 L -15.496999740600586 -28.290000915527337 L -15.496999740600586 -33.29299926757812 L -40.50299835205078 -33.29299926757812 L -40.50299835205078 -28.290000915527337 L -54.70000076293945 -28.290000915527337 M -49.17832946777344 -47.73617553710937 L -49.23594284057617 -47.73617553710937 L -49.301998138427734 -47.73617553710937 L -51.00299835205078 -47.73617553710937 L -51.00299835205078 -39.26695251464843 L -5.5970001220703125 -39.26695251464843 L -5.5970001220703125 -47.73617553710937 L -7.296999931335449 -47.73617553710937 L -7.2976884841918945 -47.73617553710937 L -7.401326656341553 -47.73617553710937 L -7.4216694831848145 -47.73617553710937 L -7.335999965667725 -48.31499862670897 L -7.296999931335449 -49.098999023437486 L -7.299633026123047 -49.15200042724608 L -7.335999965667725 -49.883998870849595 L -7.451000213623047 -50.659999847412095 L -7.572568416595459 -51.14500045776366 L -7.642000198364258 -51.42200088500975 L -7.9070000648498535 -52.16199874877928 L -8.192000389099121 -52.76602935791014 L -8.241999626159668 -52.872001647949205 L -8.645999908447266 -53.5449981689453 L -9.11400032043457 -54.175998687744126 L -9.640999794006348 -54.757999420166 L -10.222999572753906 -55.284999847412095 L -10.852999687194824 -55.75299835205077 L -11.527000427246094 -56.157001495361314 L -12.237000465393066 -56.493000030517564 L -12.97599983215332 -56.75699996948241 L -13.73799991607666 -56.94800186157225 L -14.513999938964844 -57.06299972534178 L -15.29800033569336 -57.10200119018553 L -16.08300018310547 -57.06299972534178 L -16.384000778198242 -57.01839447021483 L -16.858999252319336 -56.94800186157225 L -17.621000289916992 -56.75699996948241 L -18.360000610351562 -56.493000030517564 L -19.06999969482422 -56.157001495361314 L -19.743999481201172 -55.75299835205077 L -20.374000549316406 -55.284999847412095 L -20.95599937438965 -54.757999420166 L -21.19700050354004 -54.491847991943345 L -21.19700050354004 -54.53977584838866 L -21.19700050354004 -54.67362976074217 L -21.19700050354004 -54.88206100463866 L -21.19700050354004 -55.15042114257811 L -21.19700050354004 -55.479511260986314 L -21.19700050354004 -55.86065292358397 L -21.19700050354004 -56.30512619018553 L -21.19700050354004 -56.942600250244126 L -35.402000427246094 -56.942600250244126 L -35.402000427246094 -54.799377441406236 L -35.402000427246094 -54.56026458740233 L -35.402000427246094 -54.49074554443358 L -35.64400100708008 -54.757999420166 L -36.22600173950195 -55.284999847412095 L -36.85599899291992 -55.75299835205077 L -37.529998779296875 -56.157001495361314 L -38.2400016784668 -56.493000030517564 L -38.979000091552734 -56.75699996948241 L -39.74100112915039 -56.94800186157225 L -40.516998291015625 -57.06299972534178 L -40.959999084472656 -57.08501052856444 L -41.301998138427734 -57.10200119018553 L -42.08599853515625 -57.06299972534178 L -42.86199951171875 -56.94800186157225 L -43.624000549316406 -56.75699996948241 L -44.362998962402344 -56.493000030517564 L -45.055999755859375 -56.16504669189452 L -45.073001861572266 -56.157001495361314 L -45.74700164794922 -55.75299835205077 L -46.37699890136719 -55.284999847412095 L -46.95899963378906 -54.757999420166 L -47.486000061035156 -54.175998687744126 L -47.95399856567383 -53.5449981689453 L -48.358001708984375 -52.872001647949205 L -48.69300079345703 -52.16199874877928 L -48.95800018310547 -51.42200088500975 L -49.02743148803711 -51.14500045776366 L -49.14899826049805 -50.659999847412095 L -49.152000427246094 -50.63975524902342 L -49.263999938964844 -49.883998870849595 L -49.299434661865234 -49.15200042724608 L -49.301998138427734 -49.098999023437486 L -49.263999938964844 -48.31499862670897 L -49.17832946777344 -47.73617553710937 M -74.0153579711914 27.00366020202636 L -73.72799682617188 26.89459037780761 L -73.70800018310547 26.886999130249016 L -73.63512420654297 26.836313247680657 L -73.46910095214844 26.72937393188476 L -73.43978118896484 26.700454711914055 L -73.30532836914062 26.5678424835205 L -73.24531555175781 26.502782821655266 L -73.21000671386719 26.446296691894524 L -73.01407623291016 26.143426895141594 L -73.00621795654297 26.12022399902343 L -72.97852325439453 26.038522720336907 L -72.9000015258789 25.788000106811516 L -72.88600158691406 25.261999130249016 L -72.97200012207031 24.920999526977532 L -73.13099670410156 24.60700035095214 L -73.15461730957031 24.57600021362304 L -73.2846450805664 24.405342102050774 L -73.29100036621094 24.396999359130852 L -73.3681640625 24.3339557647705 L -73.53407287597656 24.192152023315423 L -73.54315948486328 24.18439102172851 L -73.63217163085938 24.139757156372063 L -73.94999694824219 23.96999931335449 L -74.20650482177734 23.91241645812988 L -74.31494140625 23.89047813415527 L -74.70755004882812 23.912164688110348 L -74.84977722167969 23.931583404541012 L -75.2139663696289 24.079652786254876 L -75.30500030517578 24.12000083923339 L -75.58300018310547 24.336000442504876 L -75.78048706054688 24.57600021362304 L -75.80599975585938 24.60700035095214 L -75.99600219726562 25.003999710083 L -76.06300354003906 25.349000930786126 L -76.03700256347656 25.788000106811516 L -76.0105209350586 25.872478485107415 L -75.87217712402344 26.24040794372558 L -75.80610656738281 26.342538833618157 L -75.67082977294922 26.527242660522454 L -75.65055847167969 26.55492210388183 L -75.45238494873047 26.72692108154296 L -75.37899780273438 26.794000625610344 L -75.06999969482422 26.96199989318847 L -74.9847640991211 26.985956192016594 L -74.6990966796875 27.059244155883782 L -74.58839416503906 27.06302642822265 L -74.16287994384766 27.050313949584954 L -74.07613372802734 27.03089523315429 L -74.0153579711914 27.00366020202636 M 0.7450000047683716 1.9999999999999996 L 2.744999885559082 1.1102230246251565e-16 L 5.743000030517578 -2.9979999065399165 L 8.744999885559082 -5.999999999999998 L 14.784500122070312 -12.03949928283691 L 12.663999557495117 -14.159000396728512 L 19 -20.495000839233395 L 22 -23.495000839233395 L 25 -26.49500083923339 L 30.341999053955078 -31.83699989318847 L 32.46200180053711 -29.71699905395507 L 37 -34.25500106811523 L 37 -34.25325775146484 L 37 -5.999999999999998 L 37 -5.998000144958495 L 37 -2.9979999065399165 L 37 1.1102230246251565e-16 L 37 1.9999999999999996 L 34.00199890136719 1.9999999999999996 L 34.00199890136719 4.999999999999999 L 25 4.999999999999999 L 9.001999855041504 4.999999999999999 L 9.001999855041504 1.9999999999999996 L 0.7487940788269043 1.9999999999999996 L 0.7450000047683716 1.9999999999999996 M -1.996999979019165 79.9980010986328 L -1.996999979019165 56.50299835205077 L 1.0049999952316284 56.50299835205077 L 1.0049999952316284 31.497999191284173 L 0.5009999871253967 31.497999191284173 L -1.996999979019165 31.497999191284173 L -1.996999979019165 8.001999855041502 L 8.50100040435791 8.001999855041502 L 10.60099983215332 8.001999855041502 L 23.996999740600586 8.001999855041502 L 25 8.001999855041502 L 26.5049991607666 8.001999855041502 L 28.606000900268555 8.001999855041502 L 41.005001068115234 8.001999855041502 L 41.005001068115234 4.999999999999999 L 41.005001068115234 1.9999999999999996 L 41.005001068115234 1.1102230246251565e-16 L 41.005001068115234 -1.0030000209808345 L 41.005001068115234 -2.9979999065399165 L 41.005001068115234 -5.998000144958495 L 41.005001068115234 -5.999999999999998 L 46.50199890136719 -5.999999999999998 L 48.00199890136719 -5.999999999999998 L 48 -5.998000144958495 L 48.5 -5.998000144958495 L 60.500999450683594 -5.998000144958495 L 60.500999450683594 -2.9979999065399165 L 71.74800109863281 -2.9979999065399165 L 73.5 -2.9979999065399165 L 74.25199890136719 -2.9979999065399165 L 75.50700378417969 -2.9979999065399165 L 76 -2.9979999065399165 L 78 -2.9979999065399165 L 79.75089263916016 -2.9979999065399165 L 81 -2.9979999065399165 L 85.50399780273438 -2.9979999065399165 L 85.50399780273438 -5.998000144958495 L 93 -5.998000144958495 L 93 -2.9979999065399165 L 93 1.215000033378601 L 93 8.001999855041502 L 93 11.746999740600584 L 93 14.7519998550415 L 93 31.497999191284173 L 93 56.50299835205077 L 93 67.55300140380858 L 93 73.2480010986328 L 93 76.25299835205077 L 93 79.9980010986328 L 93 89.28900146484374 L 93 90.9980010986328 L 93 93.9980010986328 L 85.50399780273438 93.9980010986328 L 85.50399780273438 90.9980010986328 L 73.5 90.9980010986328 L 71.74800109863281 90.9980010986328 L 60.50199890136719 90.9980010986328 L 60.50199890136719 93.9980010986328 L 48.5 93.9980010986328 L 48 93.9980010986328 L 48 93.99999999999999 L 41.005001068115234 93.99999999999999 L 41.005001068115234 93.9980010986328 L 41.005001068115234 90.9980010986328 L 41.005001068115234 79.9980010986328 L 26.5049991607666 79.9980010986328 L 25 79.9980010986328 L 8.50100040435791 79.9980010986328 L -1.996999979019165 79.9980010986328 M 48.5 -98.99999999999997 L 73.5 -98.99999999999997 L 73.5 -95.99999999999997 L 88.99800109863281 -95.99999999999997 L 88.99800109863281 -92.9980010986328 L 88.99800109863281 -91.9980010986328 L 92.00299835205078 -91.9980010986328 L 97 -91.9980010986328 L 97 -45.99999999999999 L 92.00299835205078 -45.99999999999999 L 88.99800109863281 -45.99999999999999 L 81 -45.99999999999999 L 78 -45.99999999999999 L 76 -45.99999999999999 L 73.5 -45.99999999999999 L 73.5 -42.99999999999999 L 48.5 -42.99999999999999 L 48.5 -45.75390624999999 L 48.5 -45.99999999999999 L 46.50199890136719 -45.99999999999999 L 44.505001068115234 -45.99999999999999 L 29.99799919128418 -45.99999999999999 L 25 -45.99999999999999 L 25 -91.9980010986328 L 29.99799919128418 -91.9980010986328 L 33.00299835205078 -91.9980010986328 L 33.00299835205078 -95.99999999999997 L 48.5 -95.99999999999997 L 48.5 -98.99999999999997 M 41.744998931884766 -40.99999999999999 L 41.746742248535156 -40.99999999999999 L 43.744998931884766 -40.99999999999999 L 43.746360778808594 -40.99999999999999 L 46.50199890136719 -40.99999999999999 L 48.5 -40.99999999999999 L 73.5 -40.99999999999999 L 76 -40.99999999999999 L 78 -40.99999999999999 L 78 -38.00199890136718 L 81 -38.00199890136718 L 81 -13.0019998550415 L 78 -13.0019998550415 L 78 -5.999999999999998 L 78 -4.748794078826903 L 78 -4.744999885559081 L 76.74500274658203 -5.999999999999998 L 76 -6.74499988555908 L 73.5 -9.24499988555908 L 63.96049880981445 -18.78450012207031 L 61.840999603271484 -16.663999557495114 L 48.5 -30.004999160766594 L 46.50199890136719 -32.002998352050774 L 44.16299819946289 -34.34199905395507 L 46.28300094604492 -36.4620018005371 L 42.74570846557617 -39.99929046630859 L 42.744998931884766 -39.99999999999999 L 41.744998931884766 -40.99999999999999 M -23.19700050354004 -12.264190673828121 L -23.19700050354004 -12.28800010681152 L -23.19700050354004 -12.35299968719482 L -24.576000213623047 -12.35299968719482 L -25.281375885009766 -12.35299968719482 L -25.414573669433594 -12.35299968719482 L -25.594295501708984 -12.35299968719482 L -27.846742630004883 -12.35299968719482 L -27.92951774597168 -12.35299968719482 L -28.672000885009766 -12.35299968719482 L -29.700000762939453 -12.35299968719482 L -30.368200302124023 -12.35299968719482 L -30.624969482421875 -12.35299968719482 L -32.768001556396484 -12.35299968719482 L -32.927589416503906 -12.35299968719482 L -33.03506851196289 -12.35299968719482 L -33.142799377441406 -12.35299968719482 L -34.073001861572266 -12.35299968719482 L -36.17243957519531 -12.35299968719482 L -36.310977935791016 -12.35299968719482 L -36.311180114746094 -12.35299968719482 L -36.86399841308594 -12.35299968719482 L -40.959999084472656 -12.35299968719482 L -49.152000427246094 -12.35299968719482 L -49.25202560424805 -12.35299968719482 L -49.40778350830078 -12.35299968719482 L -49.58055877685547 -12.35299968719482 L -49.60136413574219 -12.35299968719482 L -49.78614044189453 -12.35299968719482 L -49.86285400390625 -12.35299968719482 L -50.415000915527344 -12.35299968719482 L -50.420982360839844 -12.35299968719482 L -50.431949615478516 -12.35299968719482 L -51.20000076293945 -12.35299968719482 L -52.82699966430664 -12.35299968719482 L -52.935340881347656 -12.35299968719482 L -53.0223388671875 -12.35299968719482 L -53.24800109863281 -12.35299968719482 L -54.70000076293945 -12.35299968719482 L -61.202999114990234 -12.35299968719482 L -61.202999114990234 -5.999999999999998 L -61.202999114990234 18.552999496459957 L -54.70000076293945 18.552999496459957 L -49.152000427246094 18.552999496459957 L -43.45199966430664 18.552999496459957 L -40.959999084472656 18.552999496459957 L -32.768001556396484 18.552999496459957 L -29.700000762939453 18.552999496459957 L -24.576000213623047 18.552999496459957 L -23.19700050354004 18.552999496459957 L -23.19700050354004 16.38400077819824 L -23.19700050354004 1.1102230246251565e-16 L -23.19700050354004 -5.999999999999998 L -23.19700050354004 -8.19200038909912 L -23.19700050354004 -8.800950050354002 L -23.19700050354004 -8.851740837097166 L -23.19700050354004 -8.895570755004881 L -23.19700050354004 -8.895571708679197 L -23.19700050354004 -9.64400005340576 L -23.19700050354004 -9.660190582275389 L -23.19700050354004 -9.752865791320799 L -23.19700050354004 -9.855785369873045 L -23.19700050354004 -10.239999771118162 L -23.19700050354004 -11.485777854919432 L -23.19700050354004 -11.504945755004881 L -23.19700050354004 -12.248185157775875 L -23.19700050354004 -12.264190673828121 M -33.95100021362305 -20.650999069213864 L -34.073001861572266 -20.274000167846676 L -34.073001861572266 -19.87800025939941 L -33.95100021362305 -19.499999999999996 L -33.71799850463867 -19.180000305175778 L -33.39799880981445 -18.947000503540036 L -33.020999908447266 -18.823999404907223 L -32.625 -18.823999404907223 L -32.24800109863281 -18.947000503540036 L -31.92799949645996 -19.180000305175778 L -31.69499969482422 -19.499999999999996 L -31.572999954223633 -19.87800025939941 L -31.572999954223633 -20.274000167846676 L -31.69499969482422 -20.650999069213864 L -31.92799949645996 -20.97200012207031 L -32.24800109863281 -21.20499992370605 L -32.625 -21.32799911499023 L -33.020999908447266 -21.32799911499023 L -33.39799880981445 -21.20499992370605 L -33.71799850463867 -20.97200012207031 L -33.95100021362305 -20.650999069213864 M -52.70500183105469 -20.650999069213864 L -52.82699966430664 -20.274000167846676 L -52.82699966430664 -19.87800025939941 L -52.70500183105469 -19.499999999999996 L -52.47200012207031 -19.180000305175778 L -52.152000427246094 -18.947000503540036 L -51.775001525878906 -18.823999404907223 L -51.37900161743164 -18.823999404907223 L -51.00199890136719 -18.947000503540036 L -50.68199920654297 -19.180000305175778 L -50.44900131225586 -19.499999999999996 L -50.32699966430664 -19.87800025939941 L -50.32699966430664 -20.274000167846676 L -50.44900131225586 -20.650999069213864 L -50.68199920654297 -20.97200012207031 L -51.00199890136719 -21.20499992370605 L -51.37900161743164 -21.32799911499023 L -51.775001525878906 -21.32799911499023 L -52.152000427246094 -21.20499992370605 L -52.47200012207031 -20.97200012207031 L -52.70500183105469 -20.650999069213864 M 15.657999992370605 -63.069999694824205 L 15.890999794006348 -62.74900054931639 L 16.211999893188477 -62.51599884033202 L 16.589000701904297 -62.39300155639647 L 16.985000610351562 -62.39300155639647 L 17.363000869750977 -62.51599884033202 L 17.683000564575195 -62.74900054931639 L 17.916000366210938 -63.069999694824205 L 18.038999557495117 -63.44699859619139 L 18.038999557495117 -63.84299850463866 L 17.916000366210938 -64.22000122070311 L 17.683000564575195 -64.54100036621092 L 17.363000869750977 -64.7740020751953 L 16.985000610351562 -64.89700317382811 L 16.589000701904297 -64.89700317382811 L 16.211999893188477 -64.7740020751953 L 15.890999794006348 -64.54100036621092 L 15.657999992370605 -64.22000122070311 L 15.53499984741211 -63.84299850463866 L 15.53499984741211 -63.44699859619139 L 15.657999992370605 -63.069999694824205 M -74.34200286865234 -64.22000122070311 L -74.46499633789062 -63.84299850463866 L -74.46499633789062 -63.44699859619139 L -74.34200286865234 -63.069999694824205 L -74.10900115966797 -62.74900054931639 L -73.78800201416016 -62.51599884033202 L -73.41100311279297 -62.39300155639647 L -73.01499938964844 -62.39300155639647 L -72.63700103759766 -62.51599884033202 L -72.31700134277344 -62.74900054931639 L -72.08399963378906 -63.069999694824205 L -71.96099853515625 -63.44699859619139 L -71.96099853515625 -63.84299850463866 L -72.08399963378906 -64.22000122070311 L -72.31700134277344 -64.54100036621092 L -72.63700103759766 -64.7740020751953 L -73.01499938964844 -64.89700317382811 L -73.41100311279297 -64.89700317382811 L -73.78800201416016 -64.7740020751953 L -74.10900115966797 -64.54100036621092 L -74.34200286865234 -64.22000122070311 M -41.86600112915039 61.58000183105467 L -41.74399948120117 61.201999664306626 L -41.74399948120117 60.80599975585936 L -41.86600112915039 60.42900085449217 L -42.0989990234375 60.10800170898436 L -42.41999816894531 59.874999999999986 L -42.797000885009766 59.75199890136717 L -43.194000244140625 59.75199890136717 L -43.57099914550781 59.874999999999986 L -43.891998291015625 60.10800170898436 L -44.125 60.42900085449217 L -44.24700164794922 60.80599975585936 L -44.24700164794922 61.201999664306626 L -44.125 61.58000183105467 L -43.891998291015625 61.90000152587889 L -43.57099914550781 62.132999420166 L -43.194000244140625 62.256000518798814 L -42.797000885009766 62.256000518798814 L -42.41999816894531 62.132999420166 L -42.0989990234375 61.90000152587889 L -41.86600112915039 61.58000183105467 M -37.87099838256836 42.325000762939446 L -37.76496505737305 41.99999999999999 L -37.74800109863281 41.94800186157226 L -37.74800109863281 41.55199813842773 L -37.87099838256836 41.17499923706054 L -38.104000091552734 40.85400009155273 L -38.42399978637695 40.62099838256835 L -38.801998138427734 40.498001098632805 L -39.198001861572266 40.498001098632805 L -39.57500076293945 40.62099838256835 L -39.895999908447266 40.85400009155273 L -40.12900161743164 41.17499923706054 L -40.25199890136719 41.55199813842773 L -40.25199890136719 41.94800186157226 L -40.23503494262695 41.99999999999999 L -40.12900161743164 42.325000762939446 L -39.895999908447266 42.64599990844726 L -39.57500076293945 42.87900161743163 L -39.198001861572266 43.00199890136718 L -38.801998138427734 43.00199890136718 L -38.42399978637695 42.87900161743163 L -38.104000091552734 42.64599990844726 L -37.87099838256836 42.325000762939446 M -9.459964752197266 24.235164642333977 L -9.563913345336914 24.154399871826165 L -9.827896118164062 24.022035598754876 L -9.950704574584961 23.972105026245114 L -10.171313285827637 23.90779113769531 L -10.28176498413086 23.897956848144528 L -10.740182876586914 23.912164688110348 L -10.805999755859375 23.922000885009762 L -11.054278373718262 24.007251739501946 L -11.1475830078125 24.04179954528808 L -11.44521713256836 24.24595642089843 L -11.537364959716797 24.310575485229485 L -11.54482650756836 24.315809249877923 L -11.60106086730957 24.38414764404296 L -11.76716136932373 24.57600021362304 L -11.793999671936035 24.60700035095214 L -11.83409595489502 24.68618202209472 L -11.991887092590332 25.04663467407226 L -12.01357364654541 25.132625579833977 L -12.047225952148438 25.42577362060546 L -12.049747467041016 25.51428604125976 L -12.032600402832031 25.601285934448235 L -11.980999946594238 25.95800018310546 L -11.948602676391602 26.02745056152343 L -11.856112480163574 26.225721359252923 L -11.805349349975586 26.326391220092766 L -11.796347618103027 26.34424400329589 L -11.73633098602295 26.409303665161126 L -11.557610511779785 26.6240005493164 L -11.505999565124512 26.686000823974602 L -11.452539443969727 26.726095199584954 L -11.17808723449707 26.907817840576165 L -11.17691707611084 26.90839767456054 L -11.118574142456055 26.93732261657714 L -11.01140022277832 26.965061187744134 L -10.762373924255371 27.050313949584954 L -10.633000373840332 27.072000503540032 L -10.192999839782715 27.05699920654296 L -10.107765197753906 27.033042907714837 L -9.825835227966309 26.94629478454589 L -9.712861061096191 26.876695632934563 L -9.406999588012695 26.686000823974602 L -9.34980583190918 26.6240005493164 L -9.346982955932617 26.620939254760735 L -9.152547836303711 26.39958190917968 L -9.108165740966797 26.32266998291015 L -8.947382926940918 25.999608993530266 L -8.920904159545898 25.915130615234368 L -8.870052337646484 25.657131195068352 L -8.863495826721191 25.546426773071282 L -8.879947662353516 25.21887779235839 L -8.904661178588867 25.110948562622063 L -8.960000038146973 24.920999526977532 L -9.119000434875488 24.60700035095214 L -9.14571762084961 24.57600021362304 L -9.39792537689209 24.283369064331048 L -9.406000137329102 24.274000167846673 L -9.459964752197266 24.235164642333977 M -40.948001861572266 24.652000427246087 L -40.959999084472656 24.61521911621093 L -41.07099914550781 24.274999618530266 L -41.30400085449219 23.954000473022457 L -41.625 23.721000671386715 L -42.00199890136719 23.597999572753903 L -42.39799880981445 23.597999572753903 L -42.775001525878906 23.721000671386715 L -43.09600067138672 23.954000473022457 L -43.32899856567383 24.274999618530266 L -43.45199966430664 24.652000427246087 L -43.45199966430664 25.048000335693352 L -43.32899856567383 25.42499923706054 L -43.09600067138672 25.746000289916985 L -42.775001525878906 25.979000091552727 L -42.39799880981445 26.101999282836907 L -42.00199890136719 26.101999282836907 L -41.625 25.979000091552727 L -41.30400085449219 25.746000289916985 L -41.07099914550781 25.42499923706054 L -40.959999084472656 25.084779739379876 L -40.948001861572266 25.048000335693352 L -40.948001861572266 24.652000427246087 M 9.425999641418457 22.527999877929684 L 9.46479320526123 22.534206390380856 L 9.550999641418457 22.548000335693356 L 9.675615310668945 22.527999877929684 L 9.875 22.49600028991699 L 10.168000221252441 22.34700012207031 L 10.239999771118164 22.27499961853027 L 10.399999618530273 22.11499977111816 L 10.550000190734863 21.822000503540036 L 10.60099983215332 21.497999191284176 L 10.587435722351074 21.411563873291012 L 10.550000190734863 21.173000335693356 L 10.399999618530273 20.879999160766598 L 10.239999771118164 20.71999931335449 L 10.168000221252441 20.648000717163082 L 9.875 20.499000549316403 L 9.75661563873291 20.479999542236325 L 9.550999641418457 20.447000503540036 L 9.34475040435791 20.479999542236325 L 9.22599983215332 20.499000549316403 L 8.932999610900879 20.648000717163082 L 8.701000213623047 20.879999160766598 L 8.552000045776367 21.173000335693356 L 8.50100040435791 21.497999191284176 L 8.501944541931152 21.503999710083004 L 8.552000045776367 21.822000503540036 L 8.701000213623047 22.11499977111816 L 8.932999610900879 22.34700012207031 L 9.22599983215332 22.49600028991699 L 9.425999641418457 22.527999877929684 M 2.621000051498413 44.575000762939446 L 2.8540000915527344 44.89599990844726 L 3.174999952316284 45.12900161743163 L 3.552000045776367 45.25199890136718 L 3.947999954223633 45.25199890136718 L 4.324999809265137 45.12900161743163 L 4.645999908447266 44.89599990844726 L 4.879000186920166 44.575000762939446 L 5.001999855041504 44.19800186157226 L 5.001999855041504 43.80199813842773 L 4.879000186920166 43.42499923706054 L 4.645999908447266 43.10400009155273 L 4.324999809265137 42.87099838256835 L 3.947999954223633 42.748001098632805 L 3.552000045776367 42.748001098632805 L 3.174999952316284 42.87099838256835 L 2.8540000915527344 43.10400009155273 L 2.621000051498413 43.42499923706054 L 2.497999906539917 43.80199813842773 L 2.497999906539917 44.19800186157226 L 2.621000051498413 44.575000762939446 M 10.168000221252441 67.35199737548827 L 10.239999771118164 67.27999877929686 L 10.399999618530273 67.12000274658202 L 10.550000190734863 66.82700347900389 L 10.60099983215332 66.50199890136717 L 10.550000190734863 66.17800140380858 L 10.399999618530273 65.88500213623045 L 10.239999771118164 65.72499847412108 L 10.168000221252441 65.65299987792967 L 9.937926292419434 65.53600311279295 L 9.875 65.50399780273436 L 9.550999641418457 65.45200347900389 L 9.22599983215332 65.50399780273436 L 9.163073539733887 65.53600311279295 L 8.932999610900879 65.65299987792967 L 8.701000213623047 65.88500213623045 L 8.552000045776367 66.17800140380858 L 8.50100040435791 66.50199890136717 L 8.552000045776367 66.82700347900389 L 8.701000213623047 67.12000274658202 L 8.932999610900879 67.35199737548827 L 9.22599983215332 67.50099945068358 L 9.550999641418457 67.55300140380858 L 9.875 67.50099945068358 L 10.168000221252441 67.35199737548827 M -33.12900161743164 86.6740036010742 L -33.25199890136719 87.05100250244139 L -33.25199890136719 87.44799804687499 L -33.12900161743164 87.82499694824217 L -32.895999908447266 88.14600372314452 L -32.57600021362305 88.37899780273436 L -32.198001861572266 88.50099945068358 L -31.802000045776367 88.50099945068358 L -31.424999237060547 88.37899780273436 L -31.104000091552734 88.14600372314452 L -30.871000289916992 87.82499694824217 L -30.74799919128418 87.44799804687499 L -30.74799919128418 87.05100250244139 L -30.871000289916992 86.6740036010742 L -31.104000091552734 86.35299682617186 L -31.424999237060547 86.12000274658202 L -31.802000045776367 85.9980010986328 L -32.198001861572266 85.9980010986328 L -32.57600021362305 86.12000274658202 L -32.895999908447266 86.35299682617186 L -33.12900161743164 86.6740036010742 M -29.134000778198242 68.5709991455078 L -28.900999069213867 68.89099884033202 L -28.579999923706055 69.12499999999999 L -28.202999114990234 69.2470016479492 L -27.805999755859375 69.2470016479492 L -27.429000854492188 69.12499999999999 L -27.107999801635742 68.89099884033202 L -26.875 68.5709991455078 L -26.753000259399414 68.19400024414061 L -26.753000259399414 67.79699707031249 L -26.875 67.4199981689453 L -27.107999801635742 67.09899902343749 L -27.429000854492188 66.86599731445311 L -27.805999755859375 66.74400329589842 L -28.202999114990234 66.74400329589842 L -28.579999923706055 66.86599731445311 L -28.900999069213867 67.09899902343749 L -29.134000778198242 67.4199981689453 L -29.256000518798828 67.79699707031249 L -29.256000518798828 68.19400024414061 L -29.134000778198242 68.5709991455078 M 26.555999755859375 66.17800140380858 L 26.5049991607666 66.50199890136717 L 26.555999755859375 66.82700347900389 L 26.624000549316406 66.95982360839842 L 26.70599937438965 67.12000274658202 L 26.937999725341797 67.35199737548827 L 27.231000900268555 67.50099945068358 L 27.55500030517578 67.55300140380858 L 27.8799991607666 67.50099945068358 L 28.17300033569336 67.35199737548827 L 28.405000686645508 67.12000274658202 L 28.554000854492188 66.82700347900389 L 28.59671974182129 66.55999755859374 L 28.606000900268555 66.50199890136717 L 28.554000854492188 66.17800140380858 L 28.405000686645508 65.88500213623045 L 28.17300033569336 65.65299987792967 L 27.94292640686035 65.53600311279295 L 27.8799991607666 65.50399780273436 L 27.55500030517578 65.45200347900389 L 27.231000900268555 65.50399780273436 L 27.168073654174805 65.53600311279295 L 26.937999725341797 65.65299987792967 L 26.70599937438965 65.88500213623045 L 26.624000549316406 66.04517364501952 L 26.555999755859375 66.17800140380858 M 26.555999755859375 21.173000335693356 L 26.5049991607666 21.497999191284176 L 26.555999755859375 21.822000503540036 L 26.624000549316406 21.954826354980465 L 26.70599937438965 22.11499977111816 L 26.937999725341797 22.34700012207031 L 27.231000900268555 22.49600028991699 L 27.430383682250977 22.527999877929684 L 27.55500030517578 22.548000335693356 L 27.68000030517578 22.527999877929684 L 27.8799991607666 22.49600028991699 L 28.17300033569336 22.34700012207031 L 28.405000686645508 22.11499977111816 L 28.554000854492188 21.822000503540036 L 28.605037689208984 21.503999710083004 L 28.606000900268555 21.497999191284176 L 28.554000854492188 21.173000335693356 L 28.405000686645508 20.879999160766598 L 28.17300033569336 20.648000717163082 L 27.8799991607666 20.499000549316403 L 27.761249542236328 20.479999542236325 L 27.55500030517578 20.447000503540036 L 27.349384307861328 20.479999542236325 L 27.231000900268555 20.499000549316403 L 26.937999725341797 20.648000717163082 L 26.70599937438965 20.879999160766598 L 26.624000549316406 21.040172576904293 L 26.555999755859375 21.173000335693356 M 73.5 86.88352966308592 L 73.197998046875 86.78500366210936 L 72.802001953125 86.78500366210936 L 72.42400360107422 86.90799713134764 L 72.10399627685547 87.14099884033202 L 71.87100219726562 87.46199798583983 L 71.74800109863281 87.83899688720702 L 71.74800109863281 88.23500061035155 L 71.87100219726562 88.61299896240233 L 72.10399627685547 88.93299865722655 L 72.42400360107422 89.16600036621092 L 72.802001953125 89.28900146484374 L 73.197998046875 89.28900146484374 L 73.5 89.19046783447264 L 73.57499694824219 89.16600036621092 L 73.89600372314453 88.93299865722655 L 74.12899780273438 88.61299896240233 L 74.25199890136719 88.23500061035155 L 74.25199890136719 87.83899688720702 L 74.12899780273438 87.46199798583983 L 73.89600372314453 87.14099884033202 L 73.57499694824219 86.90799713134764 L 73.5 86.88352966308592 M 73.5 -1.1904695034027095 L 73.197998046875 -1.289000034332275 L 72.802001953125 -1.289000034332275 L 72.42400360107422 -1.1660000085830684 L 72.10399627685547 -0.933000028133392 L 71.87100219726562 -0.611999988555908 L 71.74800109863281 -0.23499999940395339 L 71.74800109863281 0.16099999845027932 L 71.87100219726562 0.5379999876022339 L 72.10399627685547 0.8590000271797179 L 72.42400360107422 1.0920000076293945 L 72.802001953125 1.215000033378601 L 73.197998046875 1.215000033378601 L 73.5 1.1164695024490356 L 73.57499694824219 1.0920000076293945 L 73.89600372314453 0.8590000271797179 L 74.12899780273438 0.5379999876022339 L 74.25199890136719 0.16099999845027932 L 74.25199890136719 -0.23499999940395339 L 74.12899780273438 -0.611999988555908 L 73.89600372314453 -0.933000028133392 L 73.57499694824219 -1.1660000085830684 L 73.5 -1.1904695034027095 M 51.20000076293945 54.70493698120116 L 51.5 54.75299835205077 L 51.887001037597656 54.69100189208983 L 52.236000061035156 54.513000488281236 L 52.51300048828125 54.23600006103514 L 52.691001892089844 53.88700103759764 L 52.75299835205078 53.499999999999986 L 52.691001892089844 53.11299896240233 L 52.51300048828125 52.76399993896483 L 52.236000061035156 52.486999511718736 L 51.887001037597656 52.30899810791014 L 51.5 52.2480010986328 L 51.20000076293945 52.295288085937486 L 51.112998962402344 52.30899810791014 L 50.763999938964844 52.486999511718736 L 50.48699951171875 52.76399993896483 L 50.308998107910156 53.11299896240233 L 50.24700164794922 53.499999999999986 L 50.308998107910156 53.88700103759764 L 50.48699951171875 54.23600006103514 L 50.763999938964844 54.513000488281236 L 51.112998962402344 54.69100189208983 L 51.20000076293945 54.70493698120116 M 57.00299835205078 38.002998352050774 L 57.00299835205078 31.497999191284173 L 57.00299835205078 14.7519998550415 L 57.00299835205078 11.746999740600584 L 57.00299835205078 8.001999855041502 L 57.00299835205078 -1.0030000209808345 L 48.5 -1.0030000209808345 L 45.99700164794922 -1.0030000209808345 L 45.99700164794922 8.001999855041502 L 45.99700164794922 31.497999191284173 L 45.99700164794922 38.002998352050774 L 48.5 38.002998352050774 L 50.24700164794922 38.002998352050774 L 52.75299835205078 38.002998352050774 L 57.00299835205078 38.002998352050774 M 51.20000076293945 60.754936218261705 L 51.5 60.80300140380858 L 51.887001037597656 60.741001129150376 L 52.236000061035156 60.56299972534178 L 52.51300048828125 60.28599929809569 L 52.691001892089844 59.93700027465819 L 52.75299835205078 59.54999923706053 L 52.691001892089844 59.162998199462876 L 52.51300048828125 58.813999176025376 L 52.236000061035156 58.53699874877928 L 51.887001037597656 58.359001159667955 L 51.5 58.298000335693345 L 51.20000076293945 58.34528732299803 L 51.112998962402344 58.359001159667955 L 50.763999938964844 58.53699874877928 L 50.48699951171875 58.813999176025376 L 50.308998107910156 59.162998199462876 L 50.24700164794922 59.54999923706053 L 50.308998107910156 59.93700027465819 L 50.48699951171875 60.28599929809569 L 50.763999938964844 60.56299972534178 L 51.112998962402344 60.741001129150376 L 51.20000076293945 60.754936218261705 M 60.612998962402344 -46.958999633789055 L 61 -46.897998809814446 L 61.387001037597656 -46.958999633789055 L 61.439998626708984 -46.986030578613274 L 61.736000061035156 -47.13700103759765 L 62.01300048828125 -47.41400146484374 L 62.191001892089844 -47.76300048828124 L 62.25299835205078 -48.15000152587889 L 62.191001892089844 -48.53699874877928 L 62.01300048828125 -48.88600158691405 L 61.74700164794922 -49.15200042724608 L 61.736000061035156 -49.162998199462876 L 61.387001037597656 -49.34099960327147 L 61 -49.40299987792967 L 60.612998962402344 -49.34099960327147 L 60.263999938964844 -49.162998199462876 L 60.25299835205078 -49.15200042724608 L 59.98699951171875 -48.88600158691405 L 59.808998107910156 -48.53699874877928 L 59.74800109863281 -48.15000152587889 L 59.808998107910156 -47.76300048828124 L 59.98699951171875 -47.41400146484374 L 60.263999938964844 -47.13700103759765 L 60.612998962402344 -46.958999633789055 M 60.612998962402344 -93.05899810791014 L 61 -92.9980010986328 L 61.387001037597656 -93.05899810791014 L 61.736000061035156 -93.23699951171874 L 62.01300048828125 -93.51399993896483 L 62.191001892089844 -93.86299896240233 L 62.246273040771484 -94.20800018310545 L 62.25299835205078 -94.24999999999999 L 62.191001892089844 -94.63700103759764 L 62.01300048828125 -94.98600006103514 L 61.736000061035156 -95.26300048828124 L 61.387001037597656 -95.44100189208983 L 61 -95.50299835205077 L 60.612998962402344 -95.44100189208983 L 60.263999938964844 -95.26300048828124 L 59.98699951171875 -94.98600006103514 L 59.808998107910156 -94.63700103759764 L 59.74800109863281 -94.24999999999999 L 59.75461959838867 -94.20800018310545 L 59.808998107910156 -93.86299896240233 L 59.98699951171875 -93.51399993896483 L 60.263999938964844 -93.23699951171874 L 60.612998962402344 -93.05899810791014 M 1.2480000257492065 -76.1480026245117 L 1.2480000257492065 -76.14499664306639 L 1.2480000257492065 -51.14500045776366 L 1.2480000257492065 -51.14300155639647 L 4.252999782562256 -51.14300155639647 L 4.252999782562256 -51.14500045776366 L 4.252999782562256 -76.14499664306639 L 4.252999782562256 -76.1480026245117 L 1.2480000257492065 -76.1480026245117 M -60.25299835205078 -76.1480026245117 L -60.25299835205078 -76.14499664306639 L -60.25299835205078 -62.39300155639647 L -60.25299835205078 -51.14500045776366 L -60.25299835205078 -51.14300155639647 L -57.24800109863281 -51.14300155639647 L -57.24800109863281 -51.14500045776366 L -57.24800109863281 -76.14499664306639 L -57.24800109863281 -76.1480026245117 L -60.25299835205078 -76.1480026245117 M 45.99700164794922 45.25199890136718 L 45.99700164794922 51.00299835205077 L 48.5 51.00299835205077 L 50.24700164794922 51.00299835205077 L 52.75299835205078 51.00299835205077 L 57.00299835205078 51.00299835205077 L 57.00299835205078 44.998001098632805 L 52.75299835205078 44.998001098632805 L 50.24700164794922 44.998001098632805 L 48.5 44.998001098632805 L 45.99700164794922 44.998001098632805 L 45.99700164794922 45.25199890136718 M 85.50199890136719 73.2480010986328 L 73.5 73.2480010986328 L 60.49700164794922 73.2480010986328 L 60.49700164794922 76.25299835205077 L 73.5 76.25299835205077 L 85.50199890136719 76.25299835205077 L 85.50199890136719 73.2480010986328 M 85.50199890136719 11.746999740600584 L 73.5 11.746999740600584 L 60.49700164794922 11.746999740600584 L 60.49700164794922 14.7519998550415 L 73.5 14.7519998550415 L 85.50199890136719 14.7519998550415 L 85.50199890136719 11.746999740600584 M 92.00299835205078 -60.9980010986328 L 92.00299835205078 -81.00299835205077 L 88.99800109863281 -81.00299835205077 L 59.74800109863281 -81.00299835205077 L 33.00299835205078 -81.00299835205077 L 29.99799919128418 -81.00299835205077 L 29.99799919128418 -60.9980010986328 L 59.74800109863281 -60.9980010986328 L 62.25299835205078 -60.9980010986328 L 88.99800109863281 -60.9980010986328 L 92.00299835205078 -60.9980010986328 z" fill="none" stroke="rgb(255,0,0)" stroke-width="0.001mm" />
</svg>