  0
SECTION
  2
HEADER
  9
$ACADVER
  1
AC1014
  9
$HANDSEED
  5
FFFF
  9
$MEASUREMENT
 70
     1
  0
ENDSEC
  0
SECTION
  2
TABLES
  0
TABLE
  2
VPORT
  5
8
330
0
100
AcDbSymbolTable
 70
     4
  0
VPORT
  5
2E
330
8
100
AcDbSymbolTableRecord
100
AcDbViewportTableRecord
  2
*ACTIVE
 70
     0
 10
0.0
 20
0.0
 11
1.0
 21
1.0
 12
210.0
 22
148.5
 13
0.0
 23
0.0
 14
10.0
 24
10.0
 15
10.0
 25
10.0
 16
0.0
 26
0.0
 36
1.0
 17
0.0
 27
0.0
 37
0.0
 40
341.0
 41
1.24
 42
50.0
 43
0.0
 44
0.0
 50
0.0
 51
0.0
 71
     0
 72
   100
 73
     1
 74
     3
 75
     0
 76
     0
 77
     0
 78
     0
  0
ENDTAB
  0
TABLE
  2
LTYPE
  5
5
330
0
100
AcDbSymbolTable
 70
     1
  0
LTYPE
  5
14
330
5
100
AcDbSymbolTableRecord
100
AcDbLinetypeTableRecord
  2
BYBLOCK
 70
     0
  3

 72
    65
 73
     0
 40
0.0
  0
LTYPE
  5
15
330
5
100
AcDbSymbolTableRecord
100
AcDbLinetypeTableRecord
  2
BYLAYER
 70
     0
  3

 72
    65
 73
     0
 40
0.0
  0
LTYPE
  5
16
330
5
100
AcDbSymbolTableRecord
100
AcDbLinetypeTableRecord
  2
CONTINUOUS
 70
     0
  3
Solid line
 72
    65
 73
     0
 40
0.0
  0
ENDTAB
  0
TABLE
  2
LAYER
  5
2
100
AcDbSymbolTable
 70
2
  0
LAYER
  5
50
100
AcDbSymbolTableRecord
100
AcDbLayerTableRecord
  2
0
 70
0
  6
CONTINUOUS
  0
LAYER
  5
51
100
AcDbSymbolTableRecord
100
AcDbLayerTableRecord
  2
Capa_1
 70
0
  6
CONTINUOUS
  0
ENDTAB
  0
TABLE
  2
STYLE
  5
3
330
0
100
AcDbSymbolTable
 70
     1
  0
STYLE
  5
11
330
3
100
AcDbSymbolTableRecord
100
AcDbTextStyleTableRecord
  2
STANDARD
 70
     0
 40
0.0
 41
1.0
 50
0.0
 71
     0
 42
2.5
  3
txt
  4

  0
ENDTAB
  0
TABLE
  2
VIEW
  5
6
330
0
100
AcDbSymbolTable
 70
     0
  0
ENDTAB
  0
TABLE
  2
UCS
  5
7
330
0
100
AcDbSymbolTable
 70
     0
  0
ENDTAB
  0
TABLE
  2
APPID
  5
9
330
0
100
AcDbSymbolTable
 70
     2
  0
APPID
  5
12
330
9
100
AcDbSymbolTableRecord
100
AcDbRegAppTableRecord
  2
ACAD
 70
     0
  0
ENDTAB
  0
TABLE
  2
DIMSTYLE
  5
A
330
0
100
AcDbSymbolTable
 70
     1
  0
DIMSTYLE
105
27
330
A
100
AcDbSymbolTableRecord
100
AcDbDimStyleTableRecord
  2
ISO-25
 70
     0
  3

  4

  5

  6

  7

 40
1.0
 41
2.5
 42
0.625
 43
3.75
 44
1.25
 45
0.0
 46
0.0
 47
0.0
 48
0.0
140
2.5
141
2.5
142
0.0
143
0.03937007874016
144
1.0
145
0.0
146
1.0
147
0.625
 71
     0
 72
     0
 73
     0
 74
     0
 75
     0
 76
     0
 77
     1
 78
     8
170
     0
171
     3
172
     1
173
     0
174
     0
175
     0
176
     0
177
     0
178
     0
270
     2
271
     2
272
     2
273
     2
274
     3
340
11
275
     0
280
     0
281
     0
282
     0
283
     0
284
     8
285
     0
286
     0
287
     3
288
     0
  0
ENDTAB
  0
TABLE
  2
BLOCK_RECORD
  5
1
330
0
100
AcDbSymbolTable
 70
     1
  0
BLOCK_RECORD
  5
1F
330
1
100
AcDbSymbolTableRecord
100
AcDbBlockTableRecord
  2
*MODEL_SPACE
  0
BLOCK_RECORD
  5
1B
330
1
100
AcDbSymbolTableRecord
100
AcDbBlockTableRecord
  2
*PAPER_SPACE
  0
ENDTAB
  0
ENDSEC
  0
SECTION
  2
BLOCKS
  0
BLOCK
  5
20
330
1F
100
AcDbEntity
  8
0
100
AcDbBlockBegin
  2
*MODEL_SPACE
 70
     0
 10
0.0
 20
0.0
 30
0.0
  3
*MODEL_SPACE
  1

  0
ENDBLK
  5
21
330
1F
100
AcDbEntity
  8
0
100
AcDbBlockEnd
  0
BLOCK
  5
1C
330
1B
100
AcDbEntity
 67
     1
  8
0
100
AcDbBlockBegin
  2
*PAPER_SPACE
  1

  0
ENDBLK
  5
1D
330
1B
100
AcDbEntity
 67
     1
  8
0
100
AcDbBlockEnd
  0
ENDSEC
  0
SECTION
  2
ENTITIES
  0
LWPOLYLINE
  5
100
100
AcDbEntity
  8
Capa_1
 62
7
100
AcDbPolyline
 90
22
 70
1
 10
55.747095
 20
68.454840
 30
0.0
 10
55.747095
 20
69.455840
 30
0.0
 10
55.747095
 20
72.697040
 30
0.0
 10
55.747095
 20
116.454840
 30
0.0
 10
55.747095
 20
118.454840
 30
0.0
 10
68.247095
 20
118.454840
 30
0.0
 10
68.247095
 20
121.454840
 30
0.0
 10
79.495096
 20
121.454840
 30
0.0
 10
81.999094
 20
121.454840
 30
0.0
 10
90.047095
 20
121.454840
 30
0.0
 10
93.247096
 20
121.454840
 30
0.0
 10
93.247096
 20
118.454840
 30
0.0
 10
105.747100
 20
118.454840
 30
0.0
 10
103.747100
 20
116.454840
 30
0.0
 10
89.587946
 20
102.295690
 30
0.0
 10
87.466097
 20
104.417840
 30
0.0
 10
79.495096
 20
96.446390
 30
0.0
 10
79.247561
 20
96.198840
 30
0.0
 10
75.500094
 20
92.451160
 30
0.0
 10
69.785093
 20
86.735840
 30
0.0
 10
71.906595
 20
84.614340
 30
0.0
 10
56.748095
 20
69.455840
 30
0.0
  0
LWPOLYLINE
  5
101
100
AcDbEntity
  8
Capa_1
 62
7
100
AcDbPolyline
 90
21
 70
1
 10
75.247095
 20
66.455840
 30
0.0
 10
75.247095
 20
69.455840
 30
0.0
 10
66.991095
 20
69.455840
 30
0.0
 10
62.747095
 20
69.455840
 30
0.0
 10
78.906096
 20
85.614840
 30
0.0
 10
81.028093
 20
83.492840
 30
0.0
 10
86.495096
 20
88.959830
 30
0.0
 10
88.999096
 20
91.463840
 30
0.0
 10
90.491095
 20
92.955840
 30
0.0
 10
92.994095
 20
95.458840
 30
0.0
 10
98.709095
 20
101.173840
 30
0.0
 10
96.587246
 20
103.295990
 30
0.0
 10
109.746100
 20
116.454840
 30
0.0
 10
111.746100
 20
118.454840
 30
0.0
 10
112.747100
 20
119.455840
 30
0.0
 10
112.747100
 20
115.211840
 30
0.0
 10
112.747100
 20
89.207840
 30
0.0
 10
112.747100
 20
69.953840
 30
0.0
 10
112.747100
 20
69.455840
 30
0.0
 10
100.247100
 20
69.455840
 30
0.0
 10
100.247100
 20
66.455840
 30
0.0
  0
LWPOLYLINE
  5
102
100
AcDbEntity
  8
Capa_1
 62
7
100
AcDbPolyline
 90
25
 70
1
 10
41.547098
 20
177.354840
 30
0.0
 10
41.747095
 20
177.354840
 30
0.0
 10
44.747095
 20
177.354840
 30
0.0
 10
65.047094
 20
177.354840
 30
0.0
 10
65.047094
 20
182.354840
 30
0.0
 10
66.920096
 20
182.354840
 30
0.0
 10
69.420096
 20
182.354840
 30
0.0
 10
85.674093
 20
182.354840
 30
0.0
 10
88.174095
 20
182.354840
 30
0.0
 10
90.047095
 20
182.354840
 30
0.0
 10
90.047095
 20
177.354840
 30
0.0
 10
113.547100
 20
177.354840
 30
0.0
 10
113.547100
 20
173.657840
 30
0.0
 10
113.547100
 20
164.454840
 30
0.0
 10
113.547100
 20
131.052840
 30
0.0
 10
113.547100
 20
127.354840
 30
0.0
 10
90.049096
 20
127.354840
 30
0.0
 10
90.049096
 20
130.356840
 30
0.0
 10
90.047096
 20
130.356840
 30
0.0
 10
65.047095
 20
130.356840
 30
0.0
 10
65.044095
 20
130.356840
 30
0.0
 10
65.044095
 20
127.354840
 30
0.0
 10
41.547097
 20
127.354840
 30
0.0
 10
41.547097
 20
131.052840
 30
0.0
 10
41.547097
 20
164.454840
 30
0.0
  0
LWPOLYLINE
  5
103
100
AcDbEntity
  8
Capa_1
 62
7
100
AcDbPolyline
 90
56
 70
1
 10
45.562280
 20
173.454420
 30
0.0
 10
45.399468
 20
173.478120
 30
0.0
 10
45.367098
 20
173.483120
 30
0.0
 10
45.256640
 20
173.473120
 30
0.0
 10
45.059214
 20
173.466120
 30
0.0
 10
44.802713
 20
173.408520
 30
0.0
 10
44.747093
 20
173.387820
 30
0.0
 10
44.709403
 20
173.373720
 30
0.0
 10
44.363158
 20
173.186010
 30
0.0
 10
44.263558
 20
173.116410
 30
0.0
 10
44.075105
 20
172.933200
 30
0.0
 10
43.996675
 20
172.826280
 30
0.0
 10
43.973265
 20
172.790380
 30
0.0
 10
43.853102
 20
172.606380
 30
0.0
 10
43.730101
 20
172.277380
 30
0.0
 10
43.681101
 20
171.928380
 30
0.0
 10
43.710101
 20
171.578370
 30
0.0
 10
43.815104
 20
171.242380
 30
0.0
 10
43.991106
 20
170.938380
 30
0.0
 10
44.192446
 20
170.742380
 30
0.0
 10
44.368105
 20
170.571370
 30
0.0
 10
44.677103
 20
170.404370
 30
0.0
 10
44.747103
 20
170.384470
 30
0.0
 10
44.762343
 20
170.380470
 30
0.0
 10
45.048011
 20
170.307170
 30
0.0
 10
45.180655
 20
170.307170
 30
0.0
 10
45.541106
 20
170.308170
 30
0.0
 10
45.798110
 20
170.371170
 30
0.0
 10
45.886870
 20
170.416270
 30
0.0
 10
46.019110
 20
170.483870
 30
0.0
 10
46.179274
 20
170.565770
 30
0.0
 10
46.255934
 20
170.629370
 30
0.0
 10
46.454108
 20
170.802120
 30
0.0
 10
46.526728
 20
170.913080
 30
0.0
 10
46.682276
 20
171.124710
 30
0.0
 10
46.716686
 20
171.203310
 30
0.0
 10
46.787726
 20
171.365540
 30
0.0
 10
46.818486
 20
171.472210
 30
0.0
 10
46.864106
 20
171.665150
 30
0.0
 10
46.865606
 20
171.742550
 30
0.0
 10
46.876076
 20
171.873420
 30
0.0
 10
46.869676
 20
171.950820
 30
0.0
 10
46.854386
 20
172.135860
 30
0.0
 10
46.841166
 20
172.216460
 30
0.0
 10
46.838266
 20
172.234160
 30
0.0
 10
46.822636
 20
172.275760
 30
0.0
 10
46.744116
 20
172.527030
 30
0.0
 10
46.691666
 20
172.611730
 30
0.0
 10
46.476288
 20
172.941530
 30
0.0
 10
46.406698
 20
173.012630
 30
0.0
 10
46.260122
 20
173.144990
 30
0.0
 10
46.019124
 20
173.292810
 30
0.0
 10
45.960124
 20
173.329010
 30
0.0
 10
45.711848
 20
173.415010
 30
0.0
 10
45.615778
 20
173.445810
 30
0.0
 10
45.606478
 20
173.448810
 30
0.0
  0
LWPOLYLINE
  5
104
100
AcDbEntity
  8
Capa_1
 62
7
100
AcDbPolyline
 90
59
 70
1
 10
107.760470
 20
172.282690
 30
0.0
 10
107.695370
 20
171.994780
 30
0.0
 10
107.698370
 20
171.928480
 30
0.0
 10
107.705370
 20
171.665250
 30
0.0
 10
107.711370
 20
171.640850
 30
0.0
 10
107.763270
 20
171.442430
 30
0.0
 10
107.803070
 20
171.315580
 30
0.0
 10
107.928710
 20
171.047860
 30
0.0
 10
107.964810
 20
170.992360
 30
0.0
 10
107.977110
 20
170.973460
 30
0.0
 10
108.007410
 20
170.940660
 30
0.0
 10
108.170800
 20
170.742250
 30
0.0
 10
108.174800
 20
170.737250
 30
0.0
 10
108.413360
 20
170.563010
 30
0.0
 10
108.465060
 20
170.521110
 30
0.0
 10
108.542960
 20
170.479010
 30
0.0
 10
108.813670
 20
170.361600
 30
0.0
 10
108.943290
 20
170.332600
 30
0.0
 10
109.202780
 20
170.289200
 30
0.0
 10
109.553780
 20
170.308200
 30
0.0
 10
109.638980
 20
170.332400
 30
0.0
 10
109.854650
 20
170.399300
 30
0.0
 10
109.920950
 20
170.419900
 30
0.0
 10
110.065700
 20
170.520260
 30
0.0
 10
110.321460
 20
170.666840
 30
0.0
 10
110.401760
 20
170.742240
 30
0.0
 10
110.465760
 20
170.802240
 30
0.0
 10
110.665700
 20
171.074270
 30
0.0
 10
110.673700
 20
171.085270
 30
0.0
 10
110.702700
 20
171.145270
 30
0.0
 10
110.724600
 20
171.231470
 30
0.0
 10
110.862940
 20
171.600150
 30
0.0
 10
110.862440
 20
171.699750
 30
0.0
 10
110.884140
 20
171.961490
 30
0.0
 10
110.862240
 20
172.058590
 30
0.0
 10
110.860240
 20
172.064590
 30
0.0
 10
110.703290
 20
172.625000
 30
0.0
 10
110.636990
 20
172.739740
 30
0.0
 10
110.601090
 20
172.790540
 30
0.0
 10
110.523290
 20
172.900540
 30
0.0
 10
110.271290
 20
173.145540
 30
0.0
 10
110.002780
 20
173.310230
 30
0.0
 10
109.971280
 20
173.329530
 30
0.0
 10
109.690100
 20
173.418530
 30
0.0
 10
109.606400
 20
173.447530
 30
0.0
 10
109.495950
 20
173.457530
 30
0.0
 10
109.114680
 20
173.467630
 30
0.0
 10
109.070480
 20
173.468630
 30
0.0
 10
108.879780
 20
173.418530
 30
0.0
 10
108.792280
 20
173.403930
 30
0.0
 10
108.394440
 20
173.175840
 30
0.0
 10
108.312240
 20
173.142540
 30
0.0
 10
108.256740
 20
173.105440
 30
0.0
 10
108.193240
 20
173.043640
 30
0.0
 10
107.999550
 20
172.820040
 30
0.0
 10
107.981350
 20
172.790840
 30
0.0
 10
107.941050
 20
172.726040
 30
0.0
 10
107.792980
 20
172.434390
 30
0.0
 10
107.772080
 20
172.371390
 30
0.0
  0
LWPOLYLINE
  5
105
100
AcDbEntity
  8
Capa_1
 62
7
100
AcDbPolyline
 90
25
 70
1
 10
65.047094
 20
186.744840
 30
0.0
 10
44.747095
 20
186.744840
 30
0.0
 10
44.747095
 20
191.747840
 30
0.0
 10
44.747095
 20
209.599837
 30
0.0
 10
41.747095
 20
209.599837
 30
0.0
 10
41.747095
 20
234.599833
 30
0.0
 10
44.747095
 20
234.599833
 30
0.0
 10
44.747095
 20
257.454837
 30
0.0
 10
59.494097
 20
257.454837
 30
0.0
 10
62.499094
 20
257.454837
 30
0.0
 10
120.995100
 20
257.454837
 30
0.0
 10
124.000100
 20
257.454837
 30
0.0
 10
138.747100
 20
257.454837
 30
0.0
 10
138.747100
 20
234.599833
 30
0.0
 10
141.747100
 20
234.599833
 30
0.0
 10
141.747100
 20
220.847838
 30
0.0
 10
141.747100
 20
209.599837
 30
0.0
 10
138.747100
 20
209.599837
 30
0.0
 10
138.747100
 20
191.747840
 30
0.0
 10
138.747100
 20
186.744840
 30
0.0
 10
113.547100
 20
186.744840
 30
0.0
 10
104.250100
 20
186.744840
 30
0.0
 10
104.250100
 20
191.747840
 30
0.0
 10
79.244097
 20
191.747840
 30
0.0
 10
79.244097
 20
186.744840
 30
0.0
  0
LWPOLYLINE
  5
106
100
AcDbEntity
  8
Capa_1
 62
7
100
AcDbPolyline
 90
85
 70
1
 10
70.568766
 20
206.191012
 30
0.0
 10
70.511156
 20
206.191012
 30
0.0
 10
70.445106
 20
206.191012
 30
0.0
 10
68.744106
 20
206.191012
 30
0.0
 10
68.744106
 20
197.721789
 30
0.0
 10
114.150100
 20
197.721789
 30
0.0
 10
114.150100
 20
206.191012
 30
0.0
 10
112.450100
 20
206.191012
 30
0.0
 10
112.449420
 20
206.191012
 30
0.0
 10
112.345780
 20
206.191012
 30
0.0
 10
112.325480
 20
206.191012
 30
0.0
 10
112.411180
 20
206.769835
 30
0.0
 10
112.450180
 20
207.553836
 30
0.0
 10
112.447180
 20
207.606836
 30
0.0
 10
112.410780
 20
208.338835
 30
0.0
 10
112.295780
 20
209.114836
 30
0.0
 10
112.174210
 20
209.599836
 30
0.0
 10
112.104810
 20
209.876837
 30
0.0
 10
111.839810
 20
210.616834
 30
0.0
 10
111.554810
 20
211.220865
 30
0.0
 10
111.504810
 20
211.326837
 30
0.0
 10
111.100810
 20
211.999834
 30
0.0
 10
110.632810
 20
212.630834
 30
0.0
 10
110.105810
 20
213.212835
 30
0.0
 10
109.523810
 20
213.739836
 30
0.0
 10
108.893810
 20
214.207834
 30
0.0
 10
108.219810
 20
214.611837
 30
0.0
 10
107.509810
 20
214.947836
 30
0.0
 10
106.770810
 20
215.211836
 30
0.0
 10
106.008810
 20
215.402838
 30
0.0
 10
105.232810
 20
215.517835
 30
0.0
 10
104.448810
 20
215.556835
 30
0.0
 10
103.663810
 20
215.517835
 30
0.0
 10
103.362810
 20
215.473225
 30
0.0
 10
102.887810
 20
215.402835
 30
0.0
 10
102.125810
 20
215.211833
 30
0.0
 10
101.386810
 20
214.947833
 30
0.0
 10
100.676810
 20
214.611834
 30
0.0
 10
100.002810
 20
214.207831
 30
0.0
 10
99.372809
 20
213.739833
 30
0.0
 10
98.790810
 20
213.212832
 30
0.0
 10
98.549809
 20
212.946681
 30
0.0
 10
98.549809
 20
212.994611
 30
0.0
 10
98.549809
 20
213.128464
 30
0.0
 10
98.549809
 20
213.336896
 30
0.0
 10
98.549809
 20
213.605256
 30
0.0
 10
98.549809
 20
213.934346
 30
0.0
 10
98.549809
 20
214.315488
 30
0.0
 10
98.549809
 20
214.759961
 30
0.0
 10
98.549809
 20
215.397435
 30
0.0
 10
84.345095
 20
215.397435
 30
0.0
 10
84.345095
 20
213.254212
 30
0.0
 10
84.345095
 20
213.015099
 30
0.0
 10
84.345095
 20
212.945579
 30
0.0
 10
84.103094
 20
213.212833
 30
0.0
 10
83.521093
 20
213.739834
 30
0.0
 10
82.891096
 20
214.207832
 30
0.0
 10
82.217096
 20
214.611835
 30
0.0
 10
81.507094
 20
214.947834
 30
0.0
 10
80.768095
 20
215.211834
 30
0.0
 10
80.006094
 20
215.402836
 30
0.0
 10
79.230097
 20
215.517833
 30
0.0
 10
78.787096
 20
215.539843
 30
0.0
 10
78.445097
 20
215.556833
 30
0.0
 10
77.661097
 20
215.517833
 30
0.0
 10
76.885096
 20
215.402836
 30
0.0
 10
76.123095
 20
215.211834
 30
0.0
 10
75.384096
 20
214.947834
 30
0.0
 10
74.691095
 20
214.619880
 30
0.0
 10
74.674095
 20
214.611880
 30
0.0
 10
74.000096
 20
214.207877
 30
0.0
 10
73.370098
 20
213.739879
 30
0.0
 10
72.788098
 20
213.212878
 30
0.0
 10
72.261097
 20
212.630877
 30
0.0
 10
71.793099
 20
211.999877
 30
0.0
 10
71.389095
 20
211.326880
 30
0.0
 10
71.054096
 20
210.616877
 30
0.0
 10
70.789097
 20
209.876880
 30
0.0
 10
70.719667
 20
209.599879
 30
0.0
 10
70.598100
 20
209.114879
 30
0.0
 10
70.595100
 20
209.094639
 30
0.0
 10
70.483100
 20
208.338883
 30
0.0
 10
70.447670
 20
207.606884
 30
0.0
 10
70.445070
 20
207.553884
 30
0.0
 10
70.483070
 20
206.769883
 30
0.0
  0
LWPOLYLINE
  5
107
100
AcDbEntity
  8
Capa_1
 62
7
100
AcDbPolyline
 90
49
 70
1
 10
45.731711
 20
131.451220
 30
0.0
 10
46.019072
 20
131.560290
 30
0.0
 10
46.039072
 20
131.568290
 30
0.0
 10
46.111952
 20
131.618990
 30
0.0
 10
46.277975
 20
131.725930
 30
0.0
 10
46.307295
 20
131.754830
 30
0.0
 10
46.441748
 20
131.887450
 30
0.0
 10
46.501758
 20
131.952550
 30
0.0
 10
46.537068
 20
132.009050
 30
0.0
 10
46.732999
 20
132.311920
 30
0.0
 10
46.740899
 20
132.335120
 30
0.0
 10
46.768599
 20
132.416820
 30
0.0
 10
46.847119
 20
132.667340
 30
0.0
 10
46.861119
 20
133.193340
 30
0.0
 10
46.775119
 20
133.534340
 30
0.0
 10
46.616122
 20
133.848340
 30
0.0
 10
46.592502
 20
133.879340
 30
0.0
 10
46.462474
 20
134.050000
 30
0.0
 10
46.456074
 20
134.058000
 30
0.0
 10
46.378914
 20
134.121000
 30
0.0
 10
46.213005
 20
134.262800
 30
0.0
 10
46.203905
 20
134.270800
 30
0.0
 10
46.114895
 20
134.315400
 30
0.0
 10
45.797069
 20
134.485160
 30
0.0
 10
45.540561
 20
134.542760
 30
0.0
 10
45.432125
 20
134.564660
 30
0.0
 10
45.039516
 20
134.542960
 30
0.0
 10
44.897289
 20
134.523560
 30
0.0
 10
44.533100
 20
134.375490
 30
0.0
 10
44.442070
 20
134.335190
 30
0.0
 10
44.164070
 20
134.119190
 30
0.0
 10
43.966583
 20
133.879190
 30
0.0
 10
43.941073
 20
133.848190
 30
0.0
 10
43.751071
 20
133.451190
 30
0.0
 10
43.684071
 20
133.106190
 30
0.0
 10
43.710071
 20
132.667190
 30
0.0
 10
43.736551
 20
132.582690
 30
0.0
 10
43.874895
 20
132.214760
 30
0.0
 10
43.940965
 20
132.112630
 30
0.0
 10
44.076241
 20
131.927930
 30
0.0
 10
44.096511
 20
131.900230
 30
0.0
 10
44.294684
 20
131.728230
 30
0.0
 10
44.368074
 20
131.661130
 30
0.0
 10
44.677072
 20
131.493130
 30
0.0
 10
44.762312
 20
131.469130
 30
0.0
 10
45.047980
 20
131.395830
 30
0.0
 10
45.158682
 20
131.391830
 30
0.0
 10
45.584196
 20
131.404530
 30
0.0
 10
45.670946
 20
131.423930
 30
0.0
  0
LWPOLYLINE
  5
108
100
AcDbEntity
  8
Capa_1
 62
7
100
AcDbPolyline
 90
24
 70
1
 10
120.492080
 20
156.454790
 30
0.0
 10
122.492080
 20
158.454790
 30
0.0
 10
125.490080
 20
161.452790
 30
0.0
 10
128.492080
 20
164.454790
 30
0.0
 10
134.531580
 20
170.494290
 30
0.0
 10
132.411080
 20
172.613790
 30
0.0
 10
138.747080
 20
178.949790
 30
0.0
 10
141.747080
 20
181.949790
 30
0.0
 10
144.747080
 20
184.949790
 30
0.0
 10
150.089080
 20
190.291790
 30
0.0
 10
152.209090
 20
188.171790
 30
0.0
 10
156.747080
 20
192.709790
 30
0.0
 10
156.747080
 20
192.707790
 30
0.0
 10
156.747080
 20
164.454530
 30
0.0
 10
156.747080
 20
164.452530
 30
0.0
 10
156.747080
 20
161.452530
 30
0.0
 10
156.747080
 20
158.454530
 30
0.0
 10
156.747080
 20
156.454530
 30
0.0
 10
153.749080
 20
156.454530
 30
0.0
 10
153.749080
 20
153.454530
 30
0.0
 10
144.747080
 20
153.454530
 30
0.0
 10
128.749080
 20
153.454530
 30
0.0
 10
128.749080
 20
156.454530
 30
0.0
 10
120.495880
 20
156.454530
 30
0.0
  0
LWPOLYLINE
  5
109
100
AcDbEntity
  8
Capa_1
 62
7
100
AcDbPolyline
 90
68
 70
1
 10
117.749880
 20
78.456540
 30
0.0
 10
117.749880
 20
101.951510
 30
0.0
 10
120.751880
 20
101.951510
 30
0.0
 10
120.751880
 20
126.956510
 30
0.0
 10
120.247880
 20
126.956510
 30
0.0
 10
117.749880
 20
126.956510
 30
0.0
 10
117.749880
 20
150.452510
 30
0.0
 10
128.247900
 20
150.452510
 30
0.0
 10
130.347900
 20
150.452510
 30
0.0
 10
143.743900
 20
150.452510
 30
0.0
 10
144.746900
 20
150.452510
 30
0.0
 10
146.251890
 20
150.452510
 30
0.0
 10
148.352900
 20
150.452510
 30
0.0
 10
160.751900
 20
150.452510
 30
0.0
 10
160.751900
 20
153.454510
 30
0.0
 10
160.751900
 20
156.454510
 30
0.0
 10
160.751900
 20
158.454510
 30
0.0
 10
160.751900
 20
159.457510
 30
0.0
 10
160.751900
 20
161.452510
 30
0.0
 10
160.751900
 20
164.452510
 30
0.0
 10
160.751900
 20
164.454510
 30
0.0
 10
166.248890
 20
164.454510
 30
0.0
 10
167.748890
 20
164.454510
 30
0.0
 10
167.746890
 20
164.452510
 30
0.0
 10
168.246890
 20
164.452510
 30
0.0
 10
180.247890
 20
164.452510
 30
0.0
 10
180.247890
 20
161.452510
 30
0.0
 10
191.494900
 20
161.452510
 30
0.0
 10
193.246900
 20
161.452510
 30
0.0
 10
193.998890
 20
161.452510
 30
0.0
 10
195.253900
 20
161.452510
 30
0.0
 10
195.746900
 20
161.452510
 30
0.0
 10
197.746900
 20
161.452510
 30
0.0
 10
199.497790
 20
161.452510
 30
0.0
 10
200.746900
 20
161.452510
 30
0.0
 10
205.250900
 20
161.452510
 30
0.0
 10
205.250900
 20
164.452510
 30
0.0
 10
212.746900
 20
164.452510
 30
0.0
 10
212.746900
 20
161.452510
 30
0.0
 10
212.746900
 20
157.239510
 30
0.0
 10
212.746900
 20
150.452510
 30
0.0
 10
212.746900
 20
146.707510
 30
0.0
 10
212.746900
 20
143.702510
 30
0.0
 10
212.746900
 20
126.956510
 30
0.0
 10
212.746900
 20
101.951510
 30
0.0
 10
212.746900
 20
90.901510
 30
0.0
 10
212.746900
 20
85.206510
 30
0.0
 10
212.746900
 20
82.201510
 30
0.0
 10
212.746900
 20
78.456510
 30
0.0
 10
212.746900
 20
69.165510
 30
0.0
 10
212.746900
 20
67.456510
 30
0.0
 10
212.746900
 20
64.456510
 30
0.0
 10
205.250900
 20
64.456510
 30
0.0
 10
205.250900
 20
67.456510
 30
0.0
 10
193.246900
 20
67.456510
 30
0.0
 10
191.494900
 20
67.456510
 30
0.0
 10
180.248890
 20
67.456510
 30
0.0
 10
180.248890
 20
64.456510
 30
0.0
 10
168.246900
 20
64.456510
 30
0.0
 10
167.746900
 20
64.456510
 30
0.0
 10
167.746900
 20
64.454510
 30
0.0
 10
160.751900
 20
64.454510
 30
0.0
 10
160.751900
 20
64.456510
 30
0.0
 10
160.751900
 20
67.456510
 30
0.0
 10
160.751900
 20
78.456510
 30
0.0
 10
146.251890
 20
78.456510
 30
0.0
 10
144.746900
 20
78.456510
 30
0.0
 10
128.247900
 20
78.456510
 30
0.0
  0
LWPOLYLINE
  5
10a
100
AcDbEntity
  8
Capa_1
 62
7
100
AcDbPolyline
 90
28
 70
1
 10
168.246900
 20
257.454507
 30
0.0
 10
193.246900
 20
257.454507
 30
0.0
 10
193.246900
 20
254.454507
 30
0.0
 10
208.744900
 20
254.454507
 30
0.0
 10
208.744900
 20
251.452508
 30
0.0
 10
208.744900
 20
250.452508
 30
0.0
 10
211.749900
 20
250.452508
 30
0.0
 10
216.746900
 20
250.452508
 30
0.0
 10
216.746900
 20
204.454507
 30
0.0
 10
211.749900
 20
204.454507
 30
0.0
 10
208.744900
 20
204.454507
 30
0.0
 10
200.746900
 20
204.454507
 30
0.0
 10
197.746900
 20
204.454507
 30
0.0
 10
195.746900
 20
204.454507
 30
0.0
 10
193.246900
 20
204.454507
 30
0.0
 10
193.246900
 20
201.454507
 30
0.0
 10
168.246900
 20
201.454507
 30
0.0
 10
168.246900
 20
204.208413
 30
0.0
 10
168.246900
 20
204.454507
 30
0.0
 10
166.248890
 20
204.454507
 30
0.0
 10
164.251900
 20
204.454507
 30
0.0
 10
149.744890
 20
204.454507
 30
0.0
 10
144.746900
 20
204.454507
 30
0.0
 10
144.746900
 20
250.452838
 30
0.0
 10
149.744890
 20
250.452838
 30
0.0
 10
152.749890
 20
250.452838
 30
0.0
 10
152.749890
 20
254.454837
 30
0.0
 10
168.246900
 20
254.454837
 30
0.0
  0
LWPOLYLINE
  5
10b
100
AcDbEntity
  8
Capa_1
 62
7
100
AcDbPolyline
 90
27
 70
1
 10
161.491890
 20
199.454837
 30
0.0
 10
161.493890
 20
199.454837
 30
0.0
 10
163.492150
 20
199.454837
 30
0.0
 10
163.493150
 20
199.454837
 30
0.0
 10
166.248790
 20
199.454837
 30
0.0
 10
168.246790
 20
199.454837
 30
0.0
 10
193.246790
 20
199.454837
 30
0.0
 10
195.746790
 20
199.454837
 30
0.0
 10
197.746790
 20
199.454837
 30
0.0
 10
197.746790
 20
196.456840
 30
0.0
 10
200.746800
 20
196.456840
 30
0.0
 10
200.746800
 20
171.456840
 30
0.0
 10
197.746800
 20
171.456840
 30
0.0
 10
197.746800
 20
164.454840
 30
0.0
 10
197.746800
 20
163.203630
 30
0.0
 10
197.746800
 20
163.199630
 30
0.0
 10
196.491800
 20
164.454630
 30
0.0
 10
195.746800
 20
165.199630
 30
0.0
 10
193.246800
 20
167.699630
 30
0.0
 10
183.707290
 20
177.239130
 30
0.0
 10
181.587800
 20
175.118630
 30
0.0
 10
168.246800
 20
188.459630
 30
0.0
 10
166.248790
 20
190.457630
 30
0.0
 10
163.909790
 20
192.796630
 30
0.0
 10
166.029800
 20
194.916630
 30
0.0
 10
162.492500
 20
198.453921
 30
0.0
 10
162.491790
 20
198.454631
 30
0.0
  0
LWPOLYLINE
  5
10c
100
AcDbEntity
  8
Capa_1
 62
7
100
AcDbPolyline
 90
66
 70
1
 10
96.550095
 20
170.719020
 30
0.0
 10
96.550095
 20
170.742820
 30
0.0
 10
96.550095
 20
170.807820
 30
0.0
 10
95.171095
 20
170.807820
 30
0.0
 10
94.465720
 20
170.807820
 30
0.0
 10
94.332522
 20
170.807820
 30
0.0
 10
94.152800
 20
170.807820
 30
0.0
 10
91.900353
 20
170.807820
 30
0.0
 10
91.817583
 20
170.807820
 30
0.0
 10
91.075100
 20
170.807820
 30
0.0
 10
90.047100
 20
170.807820
 30
0.0
 10
89.378900
 20
170.807820
 30
0.0
 10
89.122131
 20
170.807820
 30
0.0
 10
86.979100
 20
170.807820
 30
0.0
 10
86.819512
 20
170.807820
 30
0.0
 10
86.712033
 20
170.807820
 30
0.0
 10
86.604302
 20
170.807820
 30
0.0
 10
85.674099
 20
170.807820
 30
0.0
 10
83.574662
 20
170.807820
 30
0.0
 10
83.436123
 20
170.807820
 30
0.0
 10
83.435921
 20
170.807820
 30
0.0
 10
82.883103
 20
170.807820
 30
0.0
 10
78.787102
 20
170.807820
 30
0.0
 10
70.595101
 20
170.807820
 30
0.0
 10
70.495076
 20
170.807820
 30
0.0
 10
70.339318
 20
170.807820
 30
0.0
 10
70.166542
 20
170.807820
 30
0.0
 10
70.145742
 20
170.807820
 30
0.0
 10
69.960966
 20
170.807820
 30
0.0
 10
69.884256
 20
170.807820
 30
0.0
 10
69.332109
 20
170.807820
 30
0.0
 10
69.326109
 20
170.807820
 30
0.0
 10
69.315139
 20
170.807820
 30
0.0
 10
68.547087
 20
170.807820
 30
0.0
 10
66.920089
 20
170.807820
 30
0.0
 10
66.811747
 20
170.807820
 30
0.0
 10
66.724747
 20
170.807820
 30
0.0
 10
66.499085
 20
170.807820
 30
0.0
 10
65.047085
 20
170.807820
 30
0.0
 10
58.544087
 20
170.807820
 30
0.0
 10
58.544087
 20
164.454820
 30
0.0
 10
58.544087
 20
139.901820
 30
0.0
 10
65.047085
 20
139.901820
 30
0.0
 10
70.595086
 20
139.901820
 30
0.0
 10
76.295087
 20
139.901820
 30
0.0
 10
78.787087
 20
139.901820
 30
0.0
 10
86.979085
 20
139.901820
 30
0.0
 10
90.047085
 20
139.901820
 30
0.0
 10
95.171086
 20
139.901820
 30
0.0
 10
96.550085
 20
139.901820
 30
0.0
 10
96.550085
 20
142.070820
 30
0.0
 10
96.550085
 20
158.454820
 30
0.0
 10
96.550085
 20
164.454820
 30
0.0
 10
96.550085
 20
166.646820
 30
0.0
 10
96.550085
 20
167.255770
 30
0.0
 10
96.550085
 20
167.306570
 30
0.0
 10
96.550085
 20
167.350370
 30
0.0
 10
96.550085
 20
167.350370
 30
0.0
 10
96.550085
 20
168.098800
 30
0.0
 10
96.550085
 20
168.115000
 30
0.0
 10
96.550085
 20
168.207700
 30
0.0
 10
96.550085
 20
168.310620
 30
0.0
 10
96.550085
 20
168.694840
 30
0.0
 10
96.550085
 20
169.940620
 30
0.0
 10
96.550085
 20
169.959820
 30
0.0
 10
96.550085
 20
170.703060
 30
0.0
  0
LWPOLYLINE
  5
10d
100
AcDbEntity
  8
Capa_1
 62
7
100
AcDbPolyline
 90
20
 70
1
 10
85.796100
 20
179.105880
 30
0.0
 10
85.674098
 20
178.728880
 30
0.0
 10
85.674098
 20
178.332880
 30
0.0
 10
85.796100
 20
177.954880
 30
0.0
 10
86.029102
 20
177.634880
 30
0.0
 10
86.349101
 20
177.401880
 30
0.0
 10
86.726100
 20
177.278880
 30
0.0
 10
87.122100
 20
177.278880
 30
0.0
 10
87.499099
 20
177.401880
 30
0.0
 10
87.819101
 20
177.634880
 30
0.0
 10
88.052100
 20
177.954880
 30
0.0
 10
88.174100
 20
178.332880
 30
0.0
 10
88.174100
 20
178.728880
 30
0.0
 10
88.052100
 20
179.105880
 30
0.0
 10
87.819101
 20
179.426880
 30
0.0
 10
87.499099
 20
179.659880
 30
0.0
 10
87.122100
 20
179.782880
 30
0.0
 10
86.726100
 20
179.782880
 30
0.0
 10
86.349101
 20
179.659880
 30
0.0
 10
86.029102
 20
179.426880
 30
0.0
  0
LWPOLYLINE
  5
10e
100
AcDbEntity
  8
Capa_1
 62
7
100
AcDbPolyline
 90
20
 70
1
 10
67.042098
 20
179.105880
 30
0.0
 10
66.920101
 20
178.728880
 30
0.0
 10
66.920101
 20
178.332880
 30
0.0
 10
67.042098
 20
177.954880
 30
0.0
 10
67.275100
 20
177.634880
 30
0.0
 10
67.595100
 20
177.401880
 30
0.0
 10
67.972099
 20
177.278880
 30
0.0
 10
68.368099
 20
177.278880
 30
0.0
 10
68.745101
 20
177.401880
 30
0.0
 10
69.065101
 20
177.634880
 30
0.0
 10
69.298099
 20
177.954880
 30
0.0
 10
69.420101
 20
178.332880
 30
0.0
 10
69.420101
 20
178.728880
 30
0.0
 10
69.298099
 20
179.105880
 30
0.0
 10
69.065101
 20
179.426880
 30
0.0
 10
68.745101
 20
179.659880
 30
0.0
 10
68.368099
 20
179.782880
 30
0.0
 10
67.972099
 20
179.782880
 30
0.0
 10
67.595100
 20
179.659880
 30
0.0
 10
67.275100
 20
179.426880
 30
0.0
  0
LWPOLYLINE
  5
10f
100
AcDbEntity
  8
Capa_1
 62
7
100
AcDbPolyline
 90
20
 70
1
 10
135.405105
 20
221.524876
 30
0.0
 10
135.638105
 20
221.203877
 30
0.0
 10
135.959105
 20
220.970876
 30
0.0
 10
136.336105
 20
220.847878
 30
0.0
 10
136.732105
 20
220.847878
 30
0.0
 10
137.110105
 20
220.970876
 30
0.0
 10
137.430105
 20
221.203877
 30
0.0
 10
137.663105
 20
221.524876
 30
0.0
 10
137.786105
 20
221.901875
 30
0.0
 10
137.786105
 20
222.297875
 30
0.0
 10
137.663105
 20
222.674878
 30
0.0
 10
137.430105
 20
222.995877
 30
0.0
 10
137.110105
 20
223.228879
 30
0.0
 10
136.732105
 20
223.351880
 30
0.0
 10
136.336105
 20
223.351880
 30
0.0
 10
135.959105
 20
223.228879
 30
0.0
 10
135.638105
 20
222.995877
 30
0.0
 10
135.405105
 20
222.674878
 30
0.0
 10
135.282105
 20
222.297875
 30
0.0
 10
135.282105
 20
221.901875
 30
0.0
  0
LWPOLYLINE
  5
110
100
AcDbEntity
  8
Capa_1
 62
7
100
AcDbPolyline
 90
20
 70
1
 10
45.405097
 20
222.674878
 30
0.0
 10
45.282104
 20
222.297875
 30
0.0
 10
45.282104
 20
221.901875
 30
0.0
 10
45.405097
 20
221.524876
 30
0.0
 10
45.638099
 20
221.203877
 30
0.0
 10
45.959098
 20
220.970876
 30
0.0
 10
46.336097
 20
220.847878
 30
0.0
 10
46.732101
 20
220.847878
 30
0.0
 10
47.110099
 20
220.970876
 30
0.0
 10
47.430099
 20
221.203877
 30
0.0
 10
47.663101
 20
221.524876
 30
0.0
 10
47.786102
 20
221.901875
 30
0.0
 10
47.786102
 20
222.297875
 30
0.0
 10
47.663101
 20
222.674878
 30
0.0
 10
47.430099
 20
222.995877
 30
0.0
 10
47.110099
 20
223.228879
 30
0.0
 10
46.732101
 20
223.351880
 30
0.0
 10
46.336097
 20
223.351880
 30
0.0
 10
45.959098
 20
223.228879
 30
0.0
 10
45.638099
 20
222.995877
 30
0.0
  0
LWPOLYLINE
  5
111
100
AcDbEntity
  8
Capa_1
 62
7
100
AcDbPolyline
 90
20
 70
1
 10
77.881099
 20
96.874880
 30
0.0
 10
78.003101
 20
97.252880
 30
0.0
 10
78.003101
 20
97.648880
 30
0.0
 10
77.881099
 20
98.025880
 30
0.0
 10
77.648101
 20
98.346880
 30
0.0
 10
77.327102
 20
98.579880
 30
0.0
 10
76.950099
 20
98.702880
 30
0.0
 10
76.553100
 20
98.702880
 30
0.0
 10
76.176101
 20
98.579880
 30
0.0
 10
75.855102
 20
98.346880
 30
0.0
 10
75.622100
 20
98.025880
 30
0.0
 10
75.500099
 20
97.648880
 30
0.0
 10
75.500099
 20
97.252880
 30
0.0
 10
75.622100
 20
96.874880
 30
0.0
 10
75.855102
 20
96.554880
 30
0.0
 10
76.176101
 20
96.321880
 30
0.0
 10
76.553100
 20
96.198880
 30
0.0
 10
76.950099
 20
96.198880
 30
0.0
 10
77.327102
 20
96.321880
 30
0.0
 10
77.648101
 20
96.554880
 30
0.0
  0
LWPOLYLINE
  5
112
100
AcDbEntity
  8
Capa_1
 62
7
100
AcDbPolyline
 90
22
 70
1
 10
81.876102
 20
116.129880
 30
0.0
 10
81.982135
 20
116.454880
 30
0.0
 10
81.999095
 20
116.506880
 30
0.0
 10
81.999095
 20
116.902880
 30
0.0
 10
81.876098
 20
117.279880
 30
0.0
 10
81.643096
 20
117.600880
 30
0.0
 10
81.323096
 20
117.833880
 30
0.0
 10
80.945098
 20
117.956880
 30
0.0
 10
80.549094
 20
117.956880
 30
0.0
 10
80.172095
 20
117.833880
 30
0.0
 10
79.851096
 20
117.600880
 30
0.0
 10
79.618095
 20
117.279880
 30
0.0
 10
79.495097
 20
116.902880
 30
0.0
 10
79.495097
 20
116.506880
 30
0.0
 10
79.512057
 20
116.454880
 30
0.0
 10
79.618091
 20
116.129880
 30
0.0
 10
79.851092
 20
115.808880
 30
0.0
 10
80.172091
 20
115.575880
 30
0.0
 10
80.549090
 20
115.452880
 30
0.0
 10
80.945094
 20
115.452880
 30
0.0
 10
81.323092
 20
115.575880
 30
0.0
 10
81.643092
 20
115.808880
 30
0.0
  0
LWPOLYLINE
  5
113
100
AcDbEntity
  8
Capa_1
 62
7
100
AcDbPolyline
 90
57
 70
1
 10
110.287125
 20
134.219710
 30
0.0
 10
110.183175
 20
134.300510
 30
0.0
 10
109.919195
 20
134.432880
 30
0.0
 10
109.796385
 20
134.482780
 30
0.0
 10
109.575775
 20
134.547080
 30
0.0
 10
109.465325
 20
134.557080
 30
0.0
 10
109.006905
 20
134.542880
 30
0.0
 10
108.941105
 20
134.532880
 30
0.0
 10
108.692835
 20
134.447580
 30
0.0
 10
108.599535
 20
134.413080
 30
0.0
 10
108.301905
 20
134.208920
 30
0.0
 10
108.209805
 20
134.144320
 30
0.0
 10
108.202805
 20
134.139320
 30
0.0
 10
108.146605
 20
134.071020
 30
0.0
 10
107.980495
 20
133.879170
 30
0.0
 10
107.953695
 20
133.848170
 30
0.0
 10
107.913595
 20
133.768970
 30
0.0
 10
107.755805
 20
133.408510
 30
0.0
 10
107.734105
 20
133.322510
 30
0.0
 10
107.700505
 20
133.029370
 30
0.0
 10
107.697505
 20
132.940870
 30
0.0
 10
107.714705
 20
132.853870
 30
0.0
 10
107.766305
 20
132.497150
 30
0.0
 10
107.798705
 20
132.427750
 30
0.0
 10
107.891205
 20
132.229480
 30
0.0
 10
107.942005
 20
132.128810
 30
0.0
 10
107.951005
 20
132.111010
 30
0.0
 10
108.011005
 20
132.045910
 30
0.0
 10
108.189725
 20
131.831210
 30
0.0
 10
108.241325
 20
131.769210
 30
0.0
 10
108.294825
 20
131.729110
 30
0.0
 10
108.569275
 20
131.547390
 30
0.0
 10
108.570275
 20
131.546810
 30
0.0
 10
108.628575
 20
131.517910
 30
0.0
 10
108.735755
 20
131.490210
 30
0.0
 10
108.984775
 20
131.404910
 30
0.0
 10
109.114155
 20
131.383210
 30
0.0
 10
109.554155
 20
131.398210
 30
0.0
 10
109.639355
 20
131.422210
 30
0.0
 10
109.921285
 20
131.508910
 30
0.0
 10
110.034255
 20
131.578510
 30
0.0
 10
110.340115
 20
131.769210
 30
0.0
 10
110.397315
 20
131.831210
 30
0.0
 10
110.400315
 20
131.834210
 30
0.0
 10
110.594755
 20
132.055560
 30
0.0
 10
110.639155
 20
132.132460
 30
0.0
 10
110.799935
 20
132.455520
 30
0.0
 10
110.826435
 20
132.540020
 30
0.0
 10
110.877235
 20
132.798020
 30
0.0
 10
110.884235
 20
132.908730
 30
0.0
 10
110.867735
 20
133.236280
 30
0.0
 10
110.843035
 20
133.344210
 30
0.0
 10
110.787735
 20
133.534160
 30
0.0
 10
110.628735
 20
133.848150
 30
0.0
 10
110.602035
 20
133.879150
 30
0.0
 10
110.349825
 20
134.171790
 30
0.0
 10
110.341825
 20
134.180790
 30
0.0
  0
LWPOLYLINE
  5
114
100
AcDbEntity
  8
Capa_1
 62
7
100
AcDbPolyline
 90
22
 70
1
 10
78.799789
 20
133.802750
 30
0.0
 10
78.787789
 20
133.839550
 30
0.0
 10
78.676789
 20
134.179770
 30
0.0
 10
78.443787
 20
134.500770
 30
0.0
 10
78.122788
 20
134.733770
 30
0.0
 10
77.745789
 20
134.856770
 30
0.0
 10
77.349789
 20
134.856770
 30
0.0
 10
76.972787
 20
134.733770
 30
0.0
 10
76.651788
 20
134.500770
 30
0.0
 10
76.418790
 20
134.179770
 30
0.0
 10
76.295789
 20
133.802770
 30
0.0
 10
76.295789
 20
133.406770
 30
0.0
 10
76.418790
 20
133.029770
 30
0.0
 10
76.651788
 20
132.708770
 30
0.0
 10
76.972787
 20
132.475770
 30
0.0
 10
77.349789
 20
132.352770
 30
0.0
 10
77.745789
 20
132.352770
 30
0.0
 10
78.122788
 20
132.475770
 30
0.0
 10
78.443787
 20
132.708770
 30
0.0
 10
78.676789
 20
133.029770
 30
0.0
 10
78.787789
 20
133.369990
 30
0.0
 10
78.799789
 20
133.406790
 30
0.0
  0
LWPOLYLINE
  5
115
100
AcDbEntity
  8
Capa_1
 62
7
100
AcDbPolyline
 90
29
 70
1
 10
129.173795
 20
135.926790
 30
0.0
 10
129.212595
 20
135.920790
 30
0.0
 10
129.298795
 20
135.906990
 30
0.0
 10
129.423405
 20
135.926990
 30
0.0
 10
129.622795
 20
135.958990
 30
0.0
 10
129.915795
 20
136.107990
 30
0.0
 10
129.987795
 20
136.179990
 30
0.0
 10
130.147795
 20
136.339990
 30
0.0
 10
130.297795
 20
136.632990
 30
0.0
 10
130.348795
 20
136.956990
 30
0.0
 10
130.335195
 20
137.043390
 30
0.0
 10
130.297795
 20
137.281950
 30
0.0
 10
130.147795
 20
137.574960
 30
0.0
 10
129.987795
 20
137.734960
 30
0.0
 10
129.915795
 20
137.806960
 30
0.0
 10
129.622795
 20
137.955960
 30
0.0
 10
129.504405
 20
137.974960
 30
0.0
 10
129.298795
 20
138.007960
 30
0.0
 10
129.092545
 20
137.974960
 30
0.0
 10
128.973795
 20
137.955960
 30
0.0
 10
128.680795
 20
137.806960
 30
0.0
 10
128.448795
 20
137.574960
 30
0.0
 10
128.299795
 20
137.281960
 30
0.0
 10
128.248795
 20
136.956960
 30
0.0
 10
128.249735
 20
136.950960
 30
0.0
 10
128.299835
 20
136.632960
 30
0.0
 10
128.448835
 20
136.339960
 30
0.0
 10
128.680835
 20
136.107960
 30
0.0
 10
128.973835
 20
135.958960
 30
0.0
  0
LWPOLYLINE
  5
116
100
AcDbEntity
  8
Capa_1
 62
7
100
AcDbPolyline
 90
20
 70
1
 10
122.368835
 20
113.879950
 30
0.0
 10
122.601835
 20
113.558960
 30
0.0
 10
122.922835
 20
113.325950
 30
0.0
 10
123.299835
 20
113.202960
 30
0.0
 10
123.695835
 20
113.202960
 30
0.0
 10
124.072835
 20
113.325950
 30
0.0
 10
124.393835
 20
113.558960
 30
0.0
 10
124.626835
 20
113.879950
 30
0.0
 10
124.749835
 20
114.256950
 30
0.0
 10
124.749835
 20
114.652960
 30
0.0
 10
124.626835
 20
115.029960
 30
0.0
 10
124.393835
 20
115.350960
 30
0.0
 10
124.072835
 20
115.583960
 30
0.0
 10
123.695835
 20
115.706950
 30
0.0
 10
123.299835
 20
115.706950
 30
0.0
 10
122.922835
 20
115.583960
 30
0.0
 10
122.601835
 20
115.350960
 30
0.0
 10
122.368835
 20
115.029960
 30
0.0
 10
122.245835
 20
114.652960
 30
0.0
 10
122.245835
 20
114.256950
 30
0.0
  0
LWPOLYLINE
  5
117
100
AcDbEntity
  8
Capa_1
 62
7
100
AcDbPolyline
 90
24
 70
1
 10
129.915835
 20
91.102960
 30
0.0
 10
129.987835
 20
91.174960
 30
0.0
 10
130.147835
 20
91.334950
 30
0.0
 10
130.297835
 20
91.627950
 30
0.0
 10
130.348835
 20
91.952960
 30
0.0
 10
130.297835
 20
92.276950
 30
0.0
 10
130.147835
 20
92.569950
 30
0.0
 10
129.987835
 20
92.729960
 30
0.0
 10
129.915835
 20
92.801960
 30
0.0
 10
129.685765
 20
92.918950
 30
0.0
 10
129.622865
 20
92.950950
 30
0.0
 10
129.298865
 20
93.002950
 30
0.0
 10
128.973865
 20
92.950950
 30
0.0
 10
128.910965
 20
92.918950
 30
0.0
 10
128.680885
 20
92.801960
 30
0.0
 10
128.448885
 20
92.569960
 30
0.0
 10
128.299885
 20
92.276960
 30
0.0
 10
128.248885
 20
91.952960
 30
0.0
 10
128.299885
 20
91.627950
 30
0.0
 10
128.448885
 20
91.334950
 30
0.0
 10
128.680885
 20
91.102960
 30
0.0
 10
128.973885
 20
90.953960
 30
0.0
 10
129.298885
 20
90.901960
 30
0.0
 10
129.622885
 20
90.953960
 30
0.0
  0
LWPOLYLINE
  5
118
100
AcDbEntity
  8
Capa_1
 62
7
100
AcDbPolyline
 90
20
 70
1
 10
86.618886
 20
71.780950
 30
0.0
 10
86.495888
 20
71.403950
 30
0.0
 10
86.495888
 20
71.006960
 30
0.0
 10
86.618886
 20
70.629960
 30
0.0
 10
86.851887
 20
70.308950
 30
0.0
 10
87.171887
 20
70.075960
 30
0.0
 10
87.549885
 20
69.953960
 30
0.0
 10
87.945887
 20
69.953960
 30
0.0
 10
88.322888
 20
70.075960
 30
0.0
 10
88.643887
 20
70.308950
 30
0.0
 10
88.876887
 20
70.629960
 30
0.0
 10
88.999888
 20
71.006960
 30
0.0
 10
88.999888
 20
71.403950
 30
0.0
 10
88.876887
 20
71.780950
 30
0.0
 10
88.643887
 20
72.101960
 30
0.0
 10
88.322888
 20
72.334950
 30
0.0
 10
87.945887
 20
72.456960
 30
0.0
 10
87.549080
 20
72.456960
 30
0.0
 10
87.171082
 20
72.334950
 30
0.0
 10
86.851082
 20
72.101960
 30
0.0
  0
LWPOLYLINE
  5
119
100
AcDbEntity
  8
Capa_1
 62
7
100
AcDbPolyline
 90
20
 70
1
 10
90.613082
 20
89.883960
 30
0.0
 10
90.846083
 20
89.563960
 30
0.0
 10
91.167082
 20
89.329960
 30
0.0
 10
91.544083
 20
89.207960
 30
0.0
 10
91.941083
 20
89.207960
 30
0.0
 10
92.318081
 20
89.329960
 30
0.0
 10
92.639083
 20
89.563960
 30
0.0
 10
92.872082
 20
89.883960
 30
0.0
 10
92.994082
 20
90.260960
 30
0.0
 10
92.994082
 20
90.657850
 30
0.0
 10
92.872082
 20
91.034850
 30
0.0
 10
92.639083
 20
91.355850
 30
0.0
 10
92.318081
 20
91.588850
 30
0.0
 10
91.941083
 20
91.710840
 30
0.0
 10
91.544083
 20
91.710840
 30
0.0
 10
91.167082
 20
91.588850
 30
0.0
 10
90.846083
 20
91.355850
 30
0.0
 10
90.613082
 20
91.034850
 30
0.0
 10
90.491082
 20
90.657850
 30
0.0
 10
90.491082
 20
90.260850
 30
0.0
  0
LWPOLYLINE
  5
11a
100
AcDbEntity
  8
Capa_1
 62
7
100
AcDbPolyline
 90
25
 70
1
 10
146.303080
 20
92.276850
 30
0.0
 10
146.252080
 20
91.952850
 30
0.0
 10
146.303080
 20
91.627840
 30
0.0
 10
146.371080
 20
91.495020
 30
0.0
 10
146.453080
 20
91.334840
 30
0.0
 10
146.685080
 20
91.102850
 30
0.0
 10
146.978080
 20
90.953850
 30
0.0
 10
147.302080
 20
90.901850
 30
0.0
 10
147.627080
 20
90.953850
 30
0.0
 10
147.920080
 20
91.102850
 30
0.0
 10
148.152080
 20
91.334840
 30
0.0
 10
148.301080
 20
91.627840
 30
0.0
 10
148.343780
 20
91.894850
 30
0.0
 10
148.352780
 20
91.952850
 30
0.0
 10
148.300780
 20
92.276850
 30
0.0
 10
148.151780
 20
92.569850
 30
0.0
 10
147.919780
 20
92.801850
 30
0.0
 10
147.689710
 20
92.918850
 30
0.0
 10
147.626810
 20
92.950850
 30
0.0
 10
147.301810
 20
93.002850
 30
0.0
 10
146.977810
 20
92.950850
 30
0.0
 10
146.914910
 20
92.918850
 30
0.0
 10
146.684840
 20
92.801850
 30
0.0
 10
146.452840
 20
92.569850
 30
0.0
 10
146.370840
 20
92.409670
 30
0.0
  0
LWPOLYLINE
  5
11b
100
AcDbEntity
  8
Capa_1
 62
7
100
AcDbPolyline
 90
27
 70
1
 10
146.302840
 20
137.281850
 30
0.0
 10
146.251840
 20
136.956850
 30
0.0
 10
146.302840
 20
136.632850
 30
0.0
 10
146.370840
 20
136.500020
 30
0.0
 10
146.452840
 20
136.339850
 30
0.0
 10
146.684840
 20
136.107850
 30
0.0
 10
146.977840
 20
135.958850
 30
0.0
 10
147.177220
 20
135.926850
 30
0.0
 10
147.301840
 20
135.906850
 30
0.0
 10
147.426840
 20
135.926850
 30
0.0
 10
147.626840
 20
135.958850
 30
0.0
 10
147.919840
 20
136.107850
 30
0.0
 10
148.151840
 20
136.339850
 30
0.0
 10
148.300840
 20
136.632850
 30
0.0
 10
148.351840
 20
136.950850
 30
0.0
 10
148.352800
 20
136.956850
 30
0.0
 10
148.300800
 20
137.281850
 30
0.0
 10
148.151800
 20
137.574850
 30
0.0
 10
147.919800
 20
137.806850
 30
0.0
 10
147.626800
 20
137.955850
 30
0.0
 10
147.508050
 20
137.974850
 30
0.0
 10
147.301800
 20
138.007850
 30
0.0
 10
147.096190
 20
137.974850
 30
0.0
 10
146.977800
 20
137.955850
 30
0.0
 10
146.684800
 20
137.806850
 30
0.0
 10
146.452800
 20
137.574850
 30
0.0
 10
146.370800
 20
137.414680
 30
0.0
  0
LWPOLYLINE
  5
11c
100
AcDbEntity
  8
Capa_1
 62
7
100
AcDbPolyline
 90
22
 70
1
 10
193.246800
 20
71.571320
 30
0.0
 10
192.944800
 20
71.669820
 30
0.0
 10
192.548800
 20
71.669820
 30
0.0
 10
192.170800
 20
71.546830
 30
0.0
 10
191.850800
 20
71.313830
 30
0.0
 10
191.617800
 20
70.992830
 30
0.0
 10
191.494800
 20
70.615830
 30
0.0
 10
191.494800
 20
70.219830
 30
0.0
 10
191.617800
 20
69.841830
 30
0.0
 10
191.850800
 20
69.521830
 30
0.0
 10
192.170800
 20
69.288830
 30
0.0
 10
192.548800
 20
69.165830
 30
0.0
 10
192.944800
 20
69.165830
 30
0.0
 10
193.246800
 20
69.264330
 30
0.0
 10
193.321800
 20
69.288830
 30
0.0
 10
193.642810
 20
69.521830
 30
0.0
 10
193.875800
 20
69.841830
 30
0.0
 10
193.998800
 20
70.219830
 30
0.0
 10
193.998800
 20
70.615830
 30
0.0
 10
193.875800
 20
70.992830
 30
0.0
 10
193.642810
 20
71.313830
 30
0.0
 10
193.321800
 20
71.546830
 30
0.0
  0
LWPOLYLINE
  5
11d
100
AcDbEntity
  8
Capa_1
 62
7
100
AcDbPolyline
 90
22
 70
1
 10
193.246800
 20
159.645330
 30
0.0
 10
192.944800
 20
159.743830
 30
0.0
 10
192.548800
 20
159.743830
 30
0.0
 10
192.170800
 20
159.620830
 30
0.0
 10
191.850800
 20
159.387830
 30
0.0
 10
191.617800
 20
159.066830
 30
0.0
 10
191.494800
 20
158.689830
 30
0.0
 10
191.494800
 20
158.293830
 30
0.0
 10
191.617800
 20
157.916830
 30
0.0
 10
191.850800
 20
157.595830
 30
0.0
 10
192.170800
 20
157.362830
 30
0.0
 10
192.548800
 20
157.239830
 30
0.0
 10
192.944800
 20
157.239830
 30
0.0
 10
193.246800
 20
157.338330
 30
0.0
 10
193.321800
 20
157.362830
 30
0.0
 10
193.642810
 20
157.595830
 30
0.0
 10
193.875800
 20
157.916830
 30
0.0
 10
193.998800
 20
158.293830
 30
0.0
 10
193.998800
 20
158.689830
 30
0.0
 10
193.875800
 20
159.066830
 30
0.0
 10
193.642810
 20
159.387830
 30
0.0
 10
193.321800
 20
159.620830
 30
0.0
  0
LWPOLYLINE
  5
11e
100
AcDbEntity
  8
Capa_1
 62
7
100
AcDbPolyline
 90
22
 70
1
 10
170.946800
 20
103.749910
 30
0.0
 10
171.246800
 20
103.701810
 30
0.0
 10
171.633800
 20
103.763810
 30
0.0
 10
171.982800
 20
103.941810
 30
0.0
 10
172.259800
 20
104.218810
 30
0.0
 10
172.437800
 20
104.567810
 30
0.0
 10
172.499800
 20
104.954810
 30
0.0
 10
172.437800
 20
105.341810
 30
0.0
 10
172.259800
 20
105.690810
 30
0.0
 10
171.982800
 20
105.967810
 30
0.0
 10
171.633800
 20
106.145810
 30
0.0
 10
171.246800
 20
106.206810
 30
0.0
 10
170.946800
 20
106.159510
 30
0.0
 10
170.859800
 20
106.145810
 30
0.0
 10
170.510800
 20
105.967810
 30
0.0
 10
170.233800
 20
105.690810
 30
0.0
 10
170.055800
 20
105.341810
 30
0.0
 10
169.993800
 20
104.954810
 30
0.0
 10
170.055800
 20
104.567810
 30
0.0
 10
170.233800
 20
104.218810
 30
0.0
 10
170.510800
 20
103.941810
 30
0.0
 10
170.859800
 20
103.763810
 30
0.0
  0
LWPOLYLINE
  5
11f
100
AcDbEntity
  8
Capa_1
 62
7
100
AcDbPolyline
 90
14
 70
1
 10
176.749790
 20
120.451850
 30
0.0
 10
176.749790
 20
126.956850
 30
0.0
 10
176.749790
 20
143.702850
 30
0.0
 10
176.749790
 20
146.707850
 30
0.0
 10
176.749790
 20
150.452850
 30
0.0
 10
176.749790
 20
159.457850
 30
0.0
 10
168.246800
 20
159.457850
 30
0.0
 10
165.743800
 20
159.457850
 30
0.0
 10
165.743800
 20
150.452850
 30
0.0
 10
165.743800
 20
126.956850
 30
0.0
 10
165.743800
 20
120.451850
 30
0.0
 10
168.246800
 20
120.451850
 30
0.0
 10
169.993800
 20
120.451850
 30
0.0
 10
172.499790
 20
120.451850
 30
0.0
  0
LWPOLYLINE
  5
120
100
AcDbEntity
  8
Capa_1
 62
7
100
AcDbPolyline
 90
22
 70
1
 10
170.946800
 20
97.699910
 30
0.0
 10
171.246800
 20
97.651810
 30
0.0
 10
171.633800
 20
97.713810
 30
0.0
 10
171.982800
 20
97.891810
 30
0.0
 10
172.259800
 20
98.168810
 30
0.0
 10
172.437800
 20
98.517810
 30
0.0
 10
172.499800
 20
98.904810
 30
0.0
 10
172.437800
 20
99.291810
 30
0.0
 10
172.259800
 20
99.640820
 30
0.0
 10
171.982800
 20
99.917820
 30
0.0
 10
171.633800
 20
100.095820
 30
0.0
 10
171.246800
 20
100.156820
 30
0.0
 10
170.946800
 20
100.109520
 30
0.0
 10
170.859800
 20
100.095820
 30
0.0
 10
170.510800
 20
99.917820
 30
0.0
 10
170.233800
 20
99.640820
 30
0.0
 10
170.055800
 20
99.291820
 30
0.0
 10
169.993800
 20
98.904820
 30
0.0
 10
170.055800
 20
98.517820
 30
0.0
 10
170.233800
 20
98.168820
 30
0.0
 10
170.510800
 20
97.891820
 30
0.0
 10
170.859800
 20
97.713820
 30
0.0
  0
LWPOLYLINE
  5
121
100
AcDbEntity
  8
Capa_1
 62
7
100
AcDbPolyline
 90
23
 70
1
 10
180.359790
 20
205.413852
 30
0.0
 10
180.746800
 20
205.352852
 30
0.0
 10
181.133800
 20
205.413852
 30
0.0
 10
181.186800
 20
205.440882
 30
0.0
 10
181.482800
 20
205.591853
 30
0.0
 10
181.759800
 20
205.868853
 30
0.0
 10
181.937800
 20
206.217852
 30
0.0
 10
181.999800
 20
206.604853
 30
0.0
 10
181.937800
 20
206.991850
 30
0.0
 10
181.759800
 20
207.340853
 30
0.0
 10
181.493800
 20
207.606852
 30
0.0
 10
181.482800
 20
207.617852
 30
0.0
 10
181.133800
 20
207.795853
 30
0.0
 10
180.746800
 20
207.857853
 30
0.0
 10
180.359800
 20
207.795853
 30
0.0
 10
180.010800
 20
207.617852
 30
0.0
 10
179.999800
 20
207.606852
 30
0.0
 10
179.733800
 20
207.340853
 30
0.0
 10
179.555800
 20
206.991850
 30
0.0
 10
179.494800
 20
206.604853
 30
0.0
 10
179.555800
 20
206.217852
 30
0.0
 10
179.733800
 20
205.868853
 30
0.0
 10
180.010800
 20
205.591853
 30
0.0
  0
LWPOLYLINE
  5
122
100
AcDbEntity
  8
Capa_1
 62
7
100
AcDbPolyline
 90
22
 70
1
 10
180.359800
 20
251.513850
 30
0.0
 10
180.746800
 20
251.452850
 30
0.0
 10
181.133800
 20
251.513850
 30
0.0
 10
181.482800
 20
251.691851
 30
0.0
 10
181.759800
 20
251.968852
 30
0.0
 10
181.937800
 20
252.317851
 30
0.0
 10
181.993100
 20
252.662852
 30
0.0
 10
182.000100
 20
252.704852
 30
0.0
 10
181.938100
 20
253.091853
 30
0.0
 10
181.760100
 20
253.440852
 30
0.0
 10
181.483100
 20
253.717852
 30
0.0
 10
181.134100
 20
253.895854
 30
0.0
 10
180.747100
 20
253.957854
 30
0.0
 10
180.360100
 20
253.895854
 30
0.0
 10
180.011100
 20
253.717852
 30
0.0
 10
179.734100
 20
253.440852
 30
0.0
 10
179.556100
 20
253.091853
 30
0.0
 10
179.495100
 20
252.704852
 30
0.0
 10
179.502100
 20
252.662852
 30
0.0
 10
179.556500
 20
252.317851
 30
0.0
 10
179.734500
 20
251.968852
 30
0.0
 10
180.011500
 20
251.691851
 30
0.0
  0
LWPOLYLINE
  5
123
100
AcDbEntity
  8
Capa_1
 62
7
100
AcDbPolyline
 90
8
 70
1
 10
120.995500
 20
234.602854
 30
0.0
 10
120.995500
 20
234.599854
 30
0.0
 10
120.995500
 20
209.599858
 30
0.0
 10
120.995500
 20
209.597858
 30
0.0
 10
124.000500
 20
209.597858
 30
0.0
 10
124.000500
 20
209.599858
 30
0.0
 10
124.000500
 20
234.599854
 30
0.0
 10
124.000500
 20
234.602854
 30
0.0
  0
LWPOLYLINE
  5
124
100
AcDbEntity
  8
Capa_1
 62
7
100
AcDbPolyline
 90
9
 70
1
 10
59.494502
 20
234.602854
 30
0.0
 10
59.494502
 20
234.599854
 30
0.0
 10
59.494502
 20
220.847859
 30
0.0
 10
59.494502
 20
209.599858
 30
0.0
 10
59.494502
 20
209.597858
 30
0.0
 10
62.499499
 20
209.597858
 30
0.0
 10
62.499499
 20
209.599858
 30
0.0
 10
62.499499
 20
234.599854
 30
0.0
 10
62.499499
 20
234.602854
 30
0.0
  0
LWPOLYLINE
  5
125
100
AcDbEntity
  8
Capa_1
 62
7
100
AcDbPolyline
 90
11
 70
1
 10
165.744050
 20
113.202830
 30
0.0
 10
165.744050
 20
107.451830
 30
0.0
 10
168.247050
 20
107.451830
 30
0.0
 10
169.994050
 20
107.451830
 30
0.0
 10
172.500050
 20
107.451830
 30
0.0
 10
176.750050
 20
107.451830
 30
0.0
 10
176.750050
 20
113.456830
 30
0.0
 10
172.500050
 20
113.456830
 30
0.0
 10
169.994050
 20
113.456830
 30
0.0
 10
168.247050
 20
113.456830
 30
0.0
 10
165.744050
 20
113.456830
 30
0.0
  0
LWPOLYLINE
  5
126
100
AcDbEntity
  8
Capa_1
 62
7
100
AcDbPolyline
 90
6
 70
1
 10
205.249100
 20
85.206840
 30
0.0
 10
193.247100
 20
85.206840
 30
0.0
 10
180.244100
 20
85.206840
 30
0.0
 10
180.244100
 20
82.201840
 30
0.0
 10
193.247100
 20
82.201840
 30
0.0
 10
205.249100
 20
82.201840
 30
0.0
  0
LWPOLYLINE
  5
127
100
AcDbEntity
  8
Capa_1
 62
7
100
AcDbPolyline
 90
6
 70
1
 10
205.249100
 20
146.707840
 30
0.0
 10
193.247100
 20
146.707840
 30
0.0
 10
180.244100
 20
146.707840
 30
0.0
 10
180.244100
 20
143.702840
 30
0.0
 10
193.247100
 20
143.702840
 30
0.0
 10
205.249100
 20
143.702840
 30
0.0
  0
LWPOLYLINE
  5
128
100
AcDbEntity
  8
Capa_1
 62
7
100
AcDbPolyline
 90
10
 70
1
 10
211.750100
 20
219.452838
 30
0.0
 10
211.750100
 20
239.457835
 30
0.0
 10
208.745100
 20
239.457835
 30
0.0
 10
179.495100
 20
239.457835
 30
0.0
 10
152.750090
 20
239.457835
 30
0.0
 10
149.745090
 20
239.457835
 30
0.0
 10
149.745090
 20
219.452838
 30
0.0
 10
179.495100
 20
219.452838
 30
0.0
 10
182.000090
 20
219.452838
 30
0.0
 10
208.745100
 20
219.452838
 30
0.0
  0
ENDSEC
  0
SECTION
  2
OBJECTS
  0
DICTIONARY
  5
C
330
0
100
AcDbDictionary
  3
ACAD_GROUP
350
D
  3
ACAD_MLINESTYLE
350
17
  0
DICTIONARY
  5
D
330
C
100
AcDbDictionary
  0
DICTIONARY
  5
1A
330
C
100
AcDbDictionary
  0
DICTIONARY
  5
17
330
C
100
AcDbDictionary
  3
STANDARD
350
18
  0
DICTIONARY
  5
19
330
C
100
AcDbDictionary
  0
ENDSEC
  0
EOF
