<?xml version="1.0" standalone="no"?>
<!DOCTYPE svg PUBLIC "-//W3C//DTD SVG 1.1//EN"
  "http://www.w3.org/Graphics/SVG/1.1/DTD/svg11.dtd">
<svg width="179mm" height="191.99999999999994mm" viewBox="-81 -99.99999999999997 179 191.99999999999994" xmlns="http://www.w3.org/2000/svg" version="1.1">
	<title>svgOutput</title>
	<desc>made with tinkercad</desc>
<path d="M 48.5 -98.99999999999997 L 73.5 -98.99999999999997 L 73.5 -95.99999999999997 L 88.99800109863281 -95.99999999999997 L 88.99800109863281 -94.49600219726561 L 88.99800109863281 -91.9980010986328 L 92.00299835205078 -91.9980010986328 L 97 -91.9980010986328 L 97 -45.99999999999999 L 92.00299835205078 -45.99999999999999 L 88.99800109863281 -45.99999999999999 L 76 -45.99999999999999 L 73.5 -45.99999999999999 L 73.5 -42.99999999999999 L 73 -42.99999999999999 L 48.5 -42.99999999999999 L 48.5 -45.99999999999999 L 46.50199890136719 -45.99999999999999 L 44.744998931884766 -45.99999999999999 L 40.505001068115234 -45.99999999999999 L 40.50199890136719 -45.99999999999999 L 29.99799919128418 -45.99999999999999 L 25 -45.99999999999999 L 25 -91.9980010986328 L 29.99799919128418 -91.9980010986328 L 33.00299835205078 -91.9980010986328 L 33.00299835205078 -95.99999999999997 L 48.5 -95.99999999999997 L 48.5 -98.99999999999997 M 76 -16.002000808715817 L 73 -16.002000808715817 L 73 -8.999999999999998 L 73 -8.998000144958494 L 73 -7.74499988555908 L 71.74700164794922 -8.998000144958494 L 71.74500274658203 -8.999999999999998 L 58.96049880981445 -21.78450012207031 L 56.840999603271484 -19.663999557495114 L 46.50199890136719 -30.003000259399407 L 39.16299819946289 -37.34199905395507 L 41.28300094604492 -39.4620018005371 L 39.744998931884766 -40.99999999999999 L 46.50199890136719 -40.99999999999999 L 48.5 -40.99999999999999 L 73 -40.99999999999999 L 76 -40.99999999999999 L 76 -16.002000808715817 M 34 -35.25500106811523 L 34 -8.999999999999998 L 34 -8.998000144958494 L 34 -5.998000144958495 L 34 -1.9999999999999996 L 34 0.9999999999999999 L 20 0.9999999999999999 L 17 0.9999999999999999 L 9.001999855041504 0.9999999999999999 L 9.001999855041504 -1.9999999999999996 L 0.7450000047683716 -1.9999999999999996 L 4.743000030517578 -5.998000144958495 L 7.743000030517578 -8.998000144958494 L 7.744999885559082 -8.999999999999998 L 14.784500122070312 -16.03949928283691 L 12.663999557495117 -18.159000396728512 L 17 -22.495000839233395 L 20 -25.49500083923339 L 25 -30.49500083923339 L 30.341999053955078 -35.8370018005371 L 32.46200180053711 -33.71699905395507 L 34 -35.25500106811523 M 38.005001068115234 90.99999999999999 L 38.005001068115234 90.9980010986328 L 38.005001068115234 87.9980010986328 L 38.005001068115234 76.9980010986328 L 20 76.9980010986328 L 17 76.9980010986328 L 5.500999927520752 76.9980010986328 L -4.997000217437744 76.9980010986328 L -4.997000217437744 53.50299835205077 L -1.9950000047683716 53.50299835205077 L -1.9950000047683716 28.497999191284173 L -4.997000217437744 28.497999191284173 L -4.997000217437744 5.001999855041503 L 5.500999927520752 5.001999855041503 L 7.60099983215332 5.001999855041503 L 17 5.001999855041503 L 20 5.001999855041503 L 23.5049991607666 5.001999855041503 L 25.606000900268555 5.001999855041503 L 38.005001068115234 5.001999855041503 L 38.005001068115234 0.9999999999999999 L 38.005001068115234 -1.9999999999999996 L 38.005001068115234 -4.002999782562255 L 38.005001068115234 -5.998000144958495 L 38.005001068115234 -8.998000144958494 L 38.005001068115234 -8.999999999999998 L 45.00199890136719 -8.999999999999998 L 45 -8.998000144958494 L 57.500999450683594 -8.998000144958494 L 57.500999450683594 -5.998000144958495 L 70.50399780273438 -5.998000144958495 L 73 -5.998000144958495 L 82.50399780273438 -5.998000144958495 L 82.50399780273438 -8.998000144958494 L 90 -8.998000144958494 L 90 -5.998000144958495 L 90 -4.002999782562255 L 90 5.001999855041503 L 90 8.746999740600584 L 90 11.751999855041502 L 90 19.548000335693356 L 90 28.497999191284173 L 90 35.002998352050774 L 90 41.998001098632805 L 90 48.00299835205077 L 90 53.00299835205077 L 90 53.50299835205077 L 90 64.55200195312499 L 90 70.2480010986328 L 90 73.25299835205077 L 90 76.9980010986328 L 90 87.9980010986328 L 90 90.9980010986328 L 82.50399780273438 90.9980010986328 L 82.50399780273438 87.9980010986328 L 57.50199890136719 87.9980010986328 L 57.50199890136719 90.9980010986328 L 45 90.9980010986328 L 45 90.99999999999999 L 38.005001068115234 90.99999999999999 M 48.468318939208984 48.00299835205077 L 47.72700119018555 48.11999893188475 L 47.02899932861328 48.47499847412108 L 46.474998474121094 49.02899932861327 L 46.119998931884766 49.72700119018553 L 45.99700164794922 50.499999999999986 L 46.119998931884766 51.27299880981444 L 46.474998474121094 51.971000671386705 L 47.02899932861328 52.52500152587889 L 47.72700119018555 52.88000106811522 L 48.5 53.00299835205077 L 49.152000427246094 52.89925384521483 L 49.27299880981445 52.88000106811522 L 49.97100067138672 52.52500152587889 L 50.525001525878906 51.971000671386705 L 50.880001068115234 51.27299880981444 L 51.00299835205078 50.499999999999986 L 50.880001068115234 49.72700119018553 L 50.525001525878906 49.02899932861327 L 49.97100067138672 48.47499847412108 L 49.27299880981445 48.11999893188475 L 49.152000427246094 48.10090255737303 L 48.531681060791016 48.00299835205077 L 49.152000427246094 48.00299835205077 L 49.499000549316406 48.00299835205077 L 50.00318145751953 48.00299835205077 L 50.605674743652344 48.00299835205077 L 51.00299835205078 48.00299835205077 L 54.00299835205078 48.00299835205077 L 54.00299835205078 41.998001098632805 L 42.99700164794922 41.998001098632805 L 42.99700164794922 48.00299835205077 L 45.99700164794922 48.00299835205077 L 48.468318939208984 48.00299835205077 M -77.25238037109375 29.626922607421868 L -77.17900085449219 29.694000244140618 L -77 29.791320800781243 L -76.87000274658203 29.861999511718743 L -76.7847671508789 29.885955810546868 L -76.49909210205078 29.959243774414055 L -76.38838958740234 29.963026046752923 L -75.96287536621094 29.950313568115227 L -75.87612915039062 29.930894851684563 L -75.81535339355469 29.903661727905266 L -75.7760009765625 29.88872337341308 L -75.50800323486328 29.787000656127923 L -75.43511962890625 29.73631286621093 L -75.26910400390625 29.629373550415032 L -75.23978424072266 29.60045623779296 L -75.10533142089844 29.467844009399407 L -75.0453109741211 29.40278244018554 L -75.010009765625 29.346296310424798 L -74.81407928466797 29.043426513671868 L -74.80621337890625 29.020223617553704 L -74.77851867675781 28.93852233886718 L -74.69999694824219 28.68799972534179 L -74.69957733154297 28.67200088500976 L -74.68599700927734 28.162000656127923 L -74.77200317382812 27.820999145507805 L -74.93099975585938 27.506999969482415 L -75.08464050292969 27.305341720581048 L -75.09100341796875 27.29700088500976 L -75.16816711425781 27.233957290649407 L -75.33407592773438 27.092151641845696 L -75.34315490722656 27.084390640258782 L -75.43217468261719 27.039756774902337 L -75.75 26.87000083923339 L -76.00650787353516 26.812417984008782 L -76.11493682861328 26.79047775268554 L -76.5075454711914 26.812164306640618 L -76.64977264404297 26.831583023071282 L -77 26.973974227905266 L -77.01396179199219 26.97965240478515 L -77.1050033569336 27.020000457763665 L -77.38300323486328 27.23600006103515 L -77.60600280761719 27.506999969482415 L -77.7959976196289 27.903999328613274 L -77.8239974975586 28.048179626464837 L -77.86299896240234 28.2490005493164 L -77.83794403076172 28.67200088500976 L -77.83699798583984 28.68799972534179 L -77.8239974975586 28.72947692871093 L -77.8105239868164 28.772478103637688 L -77.67217254638672 29.140409469604485 L -77.6061019897461 29.24253845214843 L -77.4708251953125 29.427242279052727 L -77.45055389404297 29.454921722412102 L -77.25238037109375 29.626922607421868 M -80 -15.999999999999996 L -77 -15.999999999999996 L -56.5 -15.999999999999996 L -56.5 -21.999999999999996 L -31.5 -21.999999999999996 L -31.5 -15.999999999999996 L -8 -15.999999999999996 L -8 -12.303000450134274 L -8 -8.999999999999998 L -8 30.302999496459954 L -8 32.38999938964843 L -8 33.99999999999999 L -9.609999656677246 33.99999999999999 L -31.49799919128418 33.99999999999999 L -31.49799919128418 30.997999191284173 L -31.5 30.997999191284173 L -56.5 30.997999191284173 L -56.50299835205078 30.997999191284173 L -56.50299835205078 33.99999999999999 L -77 33.99999999999999 L -80 33.99999999999999 L -80 30.302999496459954 L -80 -12.303000450134274 L -80 -15.999999999999996 M -80 40.99999999999999 L -77 40.99999999999999 L -67.5 40.99999999999999 L -67.5 37.99999999999999 L -56.5 37.99999999999999 L -42.5 37.99999999999999 L -42.5 40.99999999999999 L -34.24300003051758 40.99999999999999 L -30 40.99999999999999 L -46.15935134887695 57.15935134887694 L -48.28099822998047 55.037998199462876 L -65.96199798583984 72.71900177001952 L -63.84049987792969 74.84049987792967 L -77 87.99999999999999 L -80 90.99999999999999 L -80 40.99999999999999 M -75.98481750488281 -12.099582672119137 L -76.14762878417969 -12.123286247253414 L -76.18000030517578 -12.12800025939941 L -76.29045104980469 -12.11841773986816 L -76.48787689208984 -12.111686706542965 L -76.744384765625 -12.054103851318356 L -76.83768463134766 -12.019304275512692 L -77 -11.931311607360838 L -77.18392944335938 -11.831600189208983 L -77.28353881835938 -11.762000083923338 L -77.47199249267578 -11.578782081604002 L -77.5504150390625 -11.471860885620115 L -77.69400024414062 -11.251999855041502 L -77.81700134277344 -10.923000335693358 L -77.8239974975586 -10.873143196105955 L -77.86599731445312 -10.574000358581541 L -77.83699798583984 -10.223999977111815 L -77.8239974975586 -10.182399749755858 L -77.73200225830078 -9.887999534606932 L -77.55599975585938 -9.58399963378906 L -77.17900085449219 -9.217000007629393 L -77 -9.120259284973143 L -76.87000274658203 -9.050000190734862 L -76.7847671508789 -9.025791168212889 L -76.68423461914062 -8.999999999999998 L -76.49909210205078 -8.952504158020018 L -76.366455078125 -8.952504158020018 L -76.00599670410156 -8.95400047302246 L -75.81835174560547 -8.999999999999998 L -75.7490005493164 -9.017000198364256 L -75.66023254394531 -9.06213855743408 L -75.36783599853516 -9.211704254150389 L -75.29117584228516 -9.27525234222412 L -75.09300231933594 -9.447999954223631 L -75.02037048339844 -9.558956146240233 L -74.86482238769531 -9.770590782165526 L -74.8304214477539 -9.84916305541992 L -74.75938415527344 -10.01139163970947 L -74.7286148071289 -10.118061065673826 L -74.69978332519531 -10.239999771118162 L -74.68299865722656 -10.310999870300291 L -74.68148803710938 -10.388417243957518 L -74.6710205078125 -10.519287109374998 L -74.67741394042969 -10.596729278564451 L -74.69270324707031 -10.781773567199705 L -74.7059326171875 -10.862384796142576 L -74.70884704589844 -10.8801212310791 L -74.72447967529297 -10.921730041503904 L -74.8030014038086 -11.173000335693358 L -74.85545349121094 -11.257730484008787 L -75.0708236694336 -11.587521553039549 L -75.14042663574219 -11.65863513946533 L -75.28700256347656 -11.791000366210936 L -75.58699798583984 -11.975000381469725 L -75.7760009765625 -12.040467262268063 L -75.83528137207031 -12.06099987030029 L -75.93135070800781 -12.091797828674313 L -75.94068908691406 -12.094791412353512 L -75.98481750488281 -12.099582672119137 M -10.68421745300293 -10.345547676086424 L -10.662530899047852 -10.607286453247069 L -10.684469223022461 -10.704373359680174 L -10.686062812805176 -10.71006393432617 L -10.843008995056152 -11.27047824859619 L -10.909330368041992 -11.385217666625975 L -11.02299976348877 -11.545999526977537 L -11.274999618530273 -11.791000366210936 L -11.543509483337402 -11.955685615539549 L -11.574999809265137 -11.975000381469725 L -11.856183052062988 -12.063991546630856 L -11.93990421295166 -12.092990875244137 L -12.050355911254883 -12.102574348449703 L -12.288000106811523 -12.108839035034176 L -12.431623458862305 -12.112625122070309 L -12.475870132446289 -12.113791465759274 L -12.666565895080566 -12.063687324523922 L -12.754069328308105 -12.0490608215332 L -13.1519136428833 -11.820973396301268 L -13.234122276306152 -11.78768730163574 L -13.289600372314453 -11.750617027282713 L -13.353147506713867 -11.688835144042967 L -13.546834945678711 -11.465234756469725 L -13.605339050292969 -11.371173858642576 L -13.753408432006836 -11.079522132873533 L -13.774338722229004 -11.016478538513182 L -13.78669548034668 -10.928469657897947 L -13.85175609588623 -10.640556335449217 L -13.848730087280273 -10.574234962463377 L -13.842000007629395 -10.310999870300291 L -13.835604667663574 -10.28656768798828 L -13.783669471740723 -10.088148117065428 L -13.743825912475586 -9.961304664611815 L -13.618191719055176 -9.693582534790037 L -13.582074165344238 -9.63809013366699 L -13.56977367401123 -9.619191169738768 L -13.53951358795166 -9.586408615112303 L -13.418792724609375 -9.439820289611815 L -13.371999740600586 -9.38300037384033 L -13.133442878723145 -9.208756446838377 L -13.081748008728027 -9.166895866394041 L -13.003826141357422 -9.124782562255858 L -12.733113288879395 -9.007373809814451 L -12.700155258178711 -8.999999999999998 L -12.603495597839355 -8.978373527526854 L -12.343999862670898 -8.935000419616697 L -12.288000106811523 -8.938031196594237 L -11.993000030517578 -8.95400047302246 L -11.90776538848877 -8.978208541870115 L -11.837549209594727 -8.999999999999998 L -11.692095756530762 -9.045140266418455 L -11.625834465026855 -9.065704345703123 L -11.481087684631348 -9.166069030761717 L -11.225330352783203 -9.31264305114746 L -11.081000328063965 -9.447999954223631 L -10.881061553955078 -9.720031738281248 L -10.873000144958496 -9.730999946594237 L -10.843999862670898 -9.791017532348631 L -10.822060585021973 -9.877260208129881 L -10.685941696166992 -10.239999771118162 L -10.68371295928955 -10.24593925476074 L -10.68421745300293 -10.345547676086424 M -51.11000061035156 90.99999999999999 L -51.11000061035156 87.99999999999999 L -59.36420440673828 87.99999999999999 L -63.61000061035156 87.99999999999999 L -47.45050048828125 71.84049987792967 L -45.327999114990234 73.96299743652342 L -27.64699935913086 56.280998229980455 L -29.769149780273438 54.15914916992186 L -16.610000610351562 40.99999999999999 L -13.609999656677246 37.99999999999999 L -13.609999656677246 42.243206024169915 L -13.609999656677246 87.99999999999999 L -26.110000610351562 87.99999999999999 L -26.110000610351562 90.99999999999999 L -51.11000061035156 90.99999999999999 M -56.5 -28.290000915527337 L -77 -28.290000915527337 L -77 -33.29299926757812 L -77 -51.14500045776366 L -80 -51.14500045776366 L -80 -76.14499664306639 L -77 -76.14499664306639 L -77 -98.99999999999997 L -62.25299835205078 -98.99999999999997 L -59.24800109863281 -98.99999999999997 L -0.7519999742507935 -98.99999999999997 L 2.253000020980835 -98.99999999999997 L 17 -98.99999999999997 L 17 -76.14499664306639 L 20 -76.14499664306639 L 20 -51.14500045776366 L 17 -51.14500045776366 L 17 -33.29299926757812 L 17 -28.290000915527337 L -8 -28.290000915527337 L -17.496999740600586 -28.290000915527337 L -17.496999740600586 -33.29299926757812 L -42.50299835205078 -33.29299926757812 L -42.50299835205078 -28.290000915527337 L -56.5 -28.290000915527337 M -50.526611328125 -42.68435668945312 L -50.56654357910156 -42.68435668945312 L -50.68437194824219 -42.68435668945312 L -50.87465286254883 -42.68435668945312 L -51.13649368286133 -42.68435668945312 L -51.301998138427734 -42.68435668945312 L -53.00299835205078 -42.68435668945312 L -53.00299835205078 -37.03763580322265 L -7.5970001220703125 -37.03763580322265 L -7.5970001220703125 -42.68435668945312 L -9.29699993133545 -42.68435668945312 L -9.606147766113281 -42.68435668945312 L -9.881063461303711 -42.68435668945312 L -10.02779769897461 -42.68435668945312 L -10.07338809967041 -42.68435668945312 L -9.906999588012695 -43.03699874877929 L -9.642000198364258 -43.77600097656249 L -9.451000213623047 -44.53799819946288 L -9.336000442504883 -45.31499862670898 L -9.29699993133545 -46.09899902343749 L -9.336000442504883 -46.8839988708496 L -9.451000213623047 -47.6599998474121 L -9.642000198364258 -48.42200088500975 L -9.90341854095459 -49.15200042724608 L -9.906999588012695 -49.16199874877928 L -10.241999626159668 -49.872001647949205 L -10.645999908447266 -50.5449981689453 L -11.091008186340332 -51.14500045776366 L -11.11400032043457 -51.175998687744126 L -11.640999794006348 -51.757999420166 L -12.222999572753906 -52.284999847412095 L -12.852999687194824 -52.75299835205077 L -13.527000427246094 -53.157001495361314 L -14.237000465393066 -53.493000030517564 L -14.97599983215332 -53.75699996948241 L -15.73799991607666 -53.94800186157225 L -16.384000778198242 -54.043735504150376 L -16.513999938964844 -54.06299972534178 L -17.29800033569336 -54.10200119018553 L -18.08300018310547 -54.06299972534178 L -18.858999252319336 -53.94800186157225 L -19.621000289916992 -53.75699996948241 L -20.360000610351562 -53.493000030517564 L -21.06999969482422 -53.157001495361314 L -21.743999481201172 -52.75299835205077 L -22.374000549316406 -52.284999847412095 L -22.95599937438965 -51.757999420166 L -23.19700050354004 -51.491847991943345 L -23.19700050354004 -51.53977584838866 L -23.19700050354004 -51.67362976074217 L -23.19700050354004 -51.88206100463866 L -23.19700050354004 -52.15042114257811 L -23.19700050354004 -52.479511260986314 L -23.19700050354004 -52.86065292358397 L -23.19700050354004 -53.30512619018553 L -23.19700050354004 -53.80892944335936 L -23.19700050354004 -53.96879959106444 L -37.402000427246094 -53.96879959106444 L -37.402000427246094 -53.32833862304686 L -37.402000427246094 -52.324150085449205 L -37.402000427246094 -51.799377441406236 L -37.402000427246094 -51.56026458740233 L -37.402000427246094 -51.49074554443358 L -37.64400100708008 -51.757999420166 L -38.22600173950195 -52.284999847412095 L -38.85599899291992 -52.75299835205077 L -39.529998779296875 -53.157001495361314 L -40.2400016784668 -53.493000030517564 L -40.959999084472656 -53.75021362304686 L -40.979000091552734 -53.75699996948241 L -41.74100112915039 -53.94800186157225 L -42.516998291015625 -54.06299972534178 L -43.301998138427734 -54.10200119018553 L -44.08599853515625 -54.06299972534178 L -44.86199951171875 -53.94800186157225 L -45.624000549316406 -53.75699996948241 L -46.362998962402344 -53.493000030517564 L -47.073001861572266 -53.157001495361314 L -47.74700164794922 -52.75299835205077 L -48.37699890136719 -52.284999847412095 L -48.95899963378906 -51.757999420166 L -49.152000427246094 -51.54485702514647 L -49.486000061035156 -51.175998687744126 L -49.50899124145508 -51.14500045776366 L -49.95399856567383 -50.5449981689453 L -50.358001708984375 -49.872001647949205 L -50.69300079345703 -49.16199874877928 L -50.69658279418945 -49.15200042724608 L -50.95800018310547 -48.42200088500975 L -51.14899826049805 -47.6599998474121 L -51.263999938964844 -46.8839988708496 L -51.301998138427734 -46.09899902343749 L -51.263999938964844 -45.31499862670898 L -51.14899826049805 -44.53799819946288 L -50.95800018310547 -43.77600097656249 L -50.69300079345703 -43.03699874877929 L -50.526611328125 -42.68435668945312 M 29.99799919128418 -60.9980010986328 L 55.5 -60.9980010986328 L 73 -60.9980010986328 L 76 -60.9980010986328 L 88.99800109863281 -60.9980010986328 L 92.00299835205078 -60.9980010986328 L 92.00299835205078 -81.00299835205077 L 88.99800109863281 -81.00299835205077 L 76 -81.00299835205077 L 75.50499725341797 -81.00299835205077 L 33.00299835205078 -81.00299835205077 L 29.99799919128418 -81.00299835205077 L 29.99799919128418 -60.9980010986328 M 24.231000900268555 64.50099945068358 L 24.55500030517578 64.55200195312499 L 24.576000213623047 64.54870605468749 L 24.8799991607666 64.50099945068358 L 25.17300033569336 64.35199737548827 L 25.405000686645508 64.12000274658202 L 25.554000854492188 63.826999664306626 L 25.606000900268555 63.50199890136717 L 25.554000854492188 63.17800140380858 L 25.405000686645508 62.88499832153319 L 25.17300033569336 62.65299987792967 L 24.8799991607666 62.504001617431626 L 24.576000213623047 62.45536041259764 L 24.55500030517578 62.451999664306626 L 24.231000900268555 62.504001617431626 L 23.937999725341797 62.65299987792967 L 23.70599937438965 62.88499832153319 L 23.555999755859375 63.17800140380858 L 23.5049991607666 63.50199890136717 L 23.555999755859375 63.826999664306626 L 23.70599937438965 64.12000274658202 L 23.937999725341797 64.35199737548827 L 24.231000900268555 64.50099945068358 M 25.554000854492188 18.822000503540036 L 25.606000900268555 18.497999191284176 L 25.595439910888672 18.431999206542965 L 25.554000854492188 18.173000335693356 L 25.405000686645508 17.879999160766598 L 25.17300033569336 17.648000717163082 L 24.8799991607666 17.499000549316403 L 24.55500030517578 17.447000503540036 L 24.231000900268555 17.499000549316403 L 23.937999725341797 17.648000717163082 L 23.70599937438965 17.879999160766598 L 23.555999755859375 18.173000335693356 L 23.515356063842773 18.431999206542965 L 23.5049991607666 18.497999191284176 L 23.555999755859375 18.822000503540036 L 23.70599937438965 19.11499977111816 L 23.937999725341797 19.34700012207031 L 24.231000900268555 19.49600028991699 L 24.55500030517578 19.548000335693356 L 24.8799991607666 19.49600028991699 L 25.17300033569336 19.34700012207031 L 25.405000686645508 19.11499977111816 L 25.554000854492188 18.822000503540036 M -11.259964942932129 27.135166168212884 L -11.363912582397461 27.054399490356438 L -11.62789535522461 26.92203521728515 L -11.750703811645508 26.872104644775384 L -11.9713134765625 26.80779075622558 L -12.081765174865723 26.797956466674798 L -12.288000106811523 26.804347991943352 L -12.540183067321777 26.812164306640618 L -12.605999946594238 26.822000503540032 L -12.854278564453125 26.90725135803222 L -12.947582244873047 26.941799163818352 L -13.245217323303223 27.145956039428704 L -13.33736515045166 27.21057701110839 L -13.344825744628906 27.215808868408196 L -13.401061058044434 27.284147262573235 L -13.593999862670898 27.506999969482415 L -13.634095191955566 27.586181640624993 L -13.791887283325195 27.946634292602532 L -13.813573837280273 28.03262519836425 L -13.8472261428833 28.325773239135735 L -13.849747657775879 28.414287567138665 L -13.832599639892578 28.50128746032714 L -13.781000137329102 28.857999801635735 L -13.748602867126465 28.927450180053704 L -13.656112670898438 29.12572288513183 L -13.60534954071045 29.22639083862304 L -13.59634780883789 29.244243621826165 L -13.536330223083496 29.3093032836914 L -13.305999755859375 29.586000442504876 L -13.25253963470459 29.626094818115227 L -12.978086471557617 29.807817459106438 L -12.976917266845703 29.808397293090813 L -12.918574333190918 29.837322235107415 L -12.811400413513184 29.865060806274407 L -12.562374114990234 29.950313568115227 L -12.432999610900879 29.972000122070305 L -12.288000106811523 29.967056274414055 L -11.993000030517578 29.957000732421868 L -11.90776538848877 29.933044433593743 L -11.625834465026855 29.846296310424798 L -11.512861251831055 29.776695251464837 L -11.206999778747559 29.586000442504876 L -11.14698314666748 29.52093887329101 L -10.952548027038574 29.299583435058587 L -10.908164978027344 29.222669601440423 L -10.747382164001465 28.89960861206054 L -10.720904350280762 28.81513023376464 L -10.692692756652832 28.67200088500976 L -10.670052528381348 28.557130813598626 L -10.663496017456055 28.446426391601555 L -10.679947853088379 28.118877410888665 L -10.704660415649414 28.010948181152337 L -10.760000228881836 27.820999145507805 L -10.918999671936035 27.506999969482415 L -11.197925567626953 27.18336868286132 L -11.206000328063965 27.173999786376946 L -11.259964942932129 27.135166168212884 M 7.550000190734863 63.826999664306626 L 7.60099983215332 63.50199890136717 L 7.598796367645264 63.48799896240233 L 7.550000190734863 63.17800140380858 L 7.400000095367432 62.88499832153319 L 7.168000221252441 62.65299987792967 L 6.875 62.504001617431626 L 6.551000118255615 62.451999664306626 L 6.22599983215332 62.504001617431626 L 5.933000087738037 62.65299987792967 L 5.701000213623047 62.88499832153319 L 5.552000045776367 63.17800140380858 L 5.503203868865967 63.48799896240233 L 5.500999927520752 63.50199890136717 L 5.552000045776367 63.826999664306626 L 5.701000213623047 64.12000274658202 L 5.933000087738037 64.35199737548827 L 6.22599983215332 64.50099945068358 L 6.551000118255615 64.55200195312499 L 6.875 64.50099945068358 L 7.168000221252441 64.35199737548827 L 7.400000095367432 64.12000274658202 L 7.550000190734863 63.826999664306626 M 7.550000190734863 18.822000503540036 L 7.60099983215332 18.497999191284176 L 7.590642929077148 18.431999206542965 L 7.550000190734863 18.173000335693356 L 7.400000095367432 17.879999160766598 L 7.168000221252441 17.648000717163082 L 6.875 17.499000549316403 L 6.551000118255615 17.447000503540036 L 6.22599983215332 17.499000549316403 L 5.933000087738037 17.648000717163082 L 5.701000213623047 17.879999160766598 L 5.552000045776367 18.173000335693356 L 5.511356830596924 18.431999206542965 L 5.500999927520752 18.497999191284176 L 5.552000045776367 18.822000503540036 L 5.701000213623047 19.11499977111816 L 5.933000087738037 19.34700012207031 L 6.22599983215332 19.49600028991699 L 6.551000118255615 19.548000335693356 L 6.875 19.49600028991699 L 7.168000221252441 19.34700012207031 L 7.400000095367432 19.11499977111816 L 7.550000190734863 18.822000503540036 M 42.99700164794922 35.002998352050774 L 54.00299835205078 35.002998352050774 L 54.00299835205078 28.497999191284173 L 54.00299835205078 19.548000335693356 L 54.00299835205078 11.751999855041502 L 54.00299835205078 8.746999740600584 L 54.00299835205078 5.001999855041503 L 54.00299835205078 -4.002999782562255 L 42.99700164794922 -4.002999782562255 L 42.99700164794922 5.001999855041503 L 42.99700164794922 19.548000335693356 L 42.99700164794922 28.497999191284173 L 42.99700164794922 35.002998352050774 M 57.49700164794922 73.25299835205077 L 82.50199890136719 73.25299835205077 L 82.50199890136719 70.2480010986328 L 57.49700164794922 70.2480010986328 L 57.49700164794922 73.25299835205077 M 57.49700164794922 8.746999740600584 L 57.49700164794922 11.751999855041502 L 82.50199890136719 11.751999855041502 L 82.50199890136719 8.746999740600584 L 57.49700164794922 8.746999740600584 M -0.7519999742507935 -76.1480026245117 L -0.7519999742507935 -76.14499664306639 L -0.7519999742507935 -51.14500045776366 L -0.7519999742507935 -51.14300155639647 L 2.253000020980835 -51.14300155639647 L 2.253000020980835 -51.14500045776366 L 2.253000020980835 -76.14499664306639 L 2.253000020980835 -76.1480026245117 L -0.7519999742507935 -76.1480026245117 M -62.25299835205078 -76.1480026245117 L -62.25299835205078 -76.14499664306639 L -62.25299835205078 -51.14500045776366 L -62.25299835205078 -51.14300155639647 L -59.24800109863281 -51.14300155639647 L -59.24800109863281 -51.14500045776366 L -59.24800109863281 -76.14499664306639 L -59.24800109863281 -76.1480026245117 L -62.25299835205078 -76.1480026245117 M -27.003000259399414 -8.001999855041502 L -27.003000259399414 -7.403999805450438 L -27.003000259399414 26.003000259399407 L -16.99799919128418 26.003000259399407 L -16.99799919128418 -7.403999805450438 L -16.99799919128418 -8.001999855041502 L -27.003000259399414 -8.001999855041502 M -51.301998138427734 -49.1704750061035 L -51.301998138427734 -51.14500045776366 L -51.301998138427734 -49.1704750061035 z" fill="none" stroke="rgb(255,0,0)" stroke-width="0.001mm" />
</svg>