<?xml version="1.0" standalone="no"?>
<!DOCTYPE svg PUBLIC "-//W3C//DTD SVG 1.1//EN"
  "http://www.w3.org/Graphics/SVG/1.1/DTD/svg11.dtd">
<svg width="177mm" height="194.99999999999994mm" viewBox="-79 -99.99999999999997 177 194.99999999999994" xmlns="http://www.w3.org/2000/svg" version="1.1">
	<title>svgOutput</title>
	<desc>made with tinkercad</desc>
<path d="M -57 88.99900054931639 L -53.5 85.49900054931639 L -40.840999603271484 72.83999633789061 L -38.71900177001953 74.96199798583983 L -33.25199890136719 69.49500274658202 L -30.74799919128418 66.99099731445311 L -29.256000518798828 65.49900054931639 L -28.5 64.7429962158203 L -26.753000259399414 62.995998382568345 L -21.038000106811523 57.280998229980455 L -23.159849166870117 55.15885162353514 L -8.00100040435791 39.99999999999999 L -7 38.9990005493164 L -7 39.99999999999999 L -7 43.24300003051757 L -7 69.2470016479492 L -7 88.50099945068358 L -7 88.99900054931639 L -19.5 88.99900054931639 L -19.5 91.99900054931639 L -28.5 91.99900054931639 L -44.5 91.99900054931639 L -44.5 88.99900054931639 L -52.75600051879883 88.99900054931639 L -53.5 88.99900054931639 L -57 88.99900054931639 M -64 39.99999999999999 L -53.5 39.99999999999999 L -51.5 39.99999999999999 L -51.5 36.99999999999999 L -28.5 36.99999999999999 L -26.5 36.99999999999999 L -26.5 39.99999999999999 L -14 39.99999999999999 L -28.5 54.499999999999986 L -30.159149169921875 56.15914916992186 L -32.28099822998047 54.03699874877928 L -40.25199890136719 62.008449554443345 L -40.499534606933594 62.256000518798814 L -44.24700164794922 66.00367736816405 L -49.96200180053711 71.71900177001952 L -47.84049987792969 73.84049987792967 L -53.5 79.49999999999999 L -62.999000549316406 88.99900054931639 L -64 89.99999999999999 L -64 39.99999999999999 M -77 30.999999999999993 L -77 27.302999496459954 L -77 4.999999999999999 L -77 1.9999999999999996 L -77 -18.999999999999996 L -75 -18.999999999999996 L -53.5 -18.999999999999996 L -53.5 -24.999999999999993 L -42.25199890136719 -24.999999999999993 L -39.74800109863281 -24.999999999999993 L -28.5 -24.999999999999993 L -28.5 -19.92399978637695 L -28.5 -18.999999999999996 L -5 -18.999999999999996 L -5 -15.303000450134274 L -5 1.9999999999999996 L -5 4.999999999999999 L -5 27.302999496459954 L -5 30.999999999999993 L -28.49799919128418 30.999999999999993 L -28.49799919128418 27.997999191284173 L -28.5 27.997999191284173 L -42.25199890136719 27.997999191284173 L -53.5 27.997999191284173 L -53.50299835205078 27.997999191284173 L -53.50299835205078 30.999999999999993 L -77 30.999999999999993 M 41.005001068115234 93.99999999999999 L 41.005001068115234 93.9980010986328 L 41.005001068115234 90.9980010986328 L 41.005001068115234 79.9980010986328 L 26.5049991607666 79.9980010986328 L 8.50100040435791 79.9980010986328 L -1.996999979019165 79.9980010986328 L -1.996999979019165 56.50299835205077 L 1.0049999952316284 56.50299835205077 L 1.0049999952316284 31.497999191284173 L -1.996999979019165 31.497999191284173 L -1.996999979019165 8.001999855041502 L 8.50100040435791 8.001999855041502 L 10.60099983215332 8.001999855041502 L 26.5049991607666 8.001999855041502 L 28.606000900268555 8.001999855041502 L 41.005001068115234 8.001999855041502 L 41.005001068115234 4.999999999999999 L 41.005001068115234 1.9999999999999996 L 41.005001068115234 -1.0030000209808345 L 41.005001068115234 -2.9979999065399165 L 41.005001068115234 -5.998000144958495 L 41.005001068115234 -5.999999999999998 L 46.50199890136719 -5.999999999999998 L 48.00199890136719 -5.999999999999998 L 48 -5.998000144958495 L 60.500999450683594 -5.998000144958495 L 60.500999450683594 -2.9979999065399165 L 71.74800109863281 -2.9979999065399165 L 73 -2.9979999065399165 L 74.25199890136719 -2.9979999065399165 L 76 -2.9979999065399165 L 85.50399780273438 -2.9979999065399165 L 85.50399780273438 -5.998000144958495 L 93 -5.998000144958495 L 93 -2.9979999065399165 L 93 1.9999999999999996 L 93 4.999999999999999 L 93 8.001999855041502 L 93 11.746999740600584 L 93 14.7519998550415 L 93 31.497999191284173 L 93 38.002998352050774 L 93 44.998001098632805 L 93 45.25199890136718 L 93 51.00299835205077 L 93 56.00299835205077 L 93 56.50299835205077 L 93 67.55300140380858 L 93 73.2480010986328 L 93 76.25299835205077 L 93 79.9980010986328 L 93 89.29000091552733 L 93 90.9980010986328 L 93 93.9980010986328 L 85.50399780273438 93.9980010986328 L 85.50399780273438 90.9980010986328 L 71.74800109863281 90.9980010986328 L 60.50199890136719 90.9980010986328 L 60.50199890136719 93.9980010986328 L 48 93.9980010986328 L 48 93.99999999999999 L 41.005001068115234 93.99999999999999 M 51.531681060791016 51.00299835205077 L 52.04295349121094 51.00299835205077 L 52.499000549316406 51.00299835205077 L 53.00318145751953 51.00299835205077 L 53.605674743652344 51.00299835205077 L 54.00299835205078 51.00299835205077 L 57.00299835205078 51.00299835205077 L 57.00299835205078 45.25199890136718 L 57.00299835205078 44.998001098632805 L 45.99700164794922 44.998001098632805 L 45.99700164794922 45.25199890136718 L 45.99700164794922 51.00299835205077 L 48.99700164794922 51.00299835205077 L 49.152000427246094 51.00299835205077 L 51.468318939208984 51.00299835205077 L 50.72700119018555 51.11999893188475 L 50.02899932861328 51.47499847412108 L 49.474998474121094 52.02899932861327 L 49.152000427246094 52.664081573486314 L 49.119998931884766 52.72700119018553 L 48.99700164794922 53.499999999999986 L 49.119998931884766 54.27299880981444 L 49.152000427246094 54.33591842651366 L 49.474998474121094 54.971000671386705 L 50.02899932861328 55.52500152587889 L 50.72700119018555 55.88000106811522 L 51.5 56.00299835205077 L 52.27299880981445 55.88000106811522 L 52.97100067138672 55.52500152587889 L 53.525001525878906 54.971000671386705 L 53.880001068115234 54.27299880981444 L 54.00299835205078 53.499999999999986 L 53.9629020690918 53.2480010986328 L 53.880001068115234 52.72700119018553 L 53.525001525878906 52.02899932861327 L 52.97100067138672 51.47499847412108 L 52.27299880981445 51.11999893188475 L 51.531681060791016 51.00299835205077 M -10.401047706604004 24.284132003784173 L -10.593999862670898 24.506999969482415 L -10.628939628601074 24.57600021362304 L -10.634087562561035 24.58616638183593 L -10.792637825012207 24.946643829345696 L -10.814319610595703 25.03261756896972 L -10.847227096557617 25.325784683227532 L -10.849747657775879 25.414279937744134 L -10.832855224609375 25.501262664794915 L -10.781999588012695 25.857999801635735 L -10.750568389892578 25.92497825622558 L -10.656356811523438 26.125740051269524 L -10.605412483215332 26.22634315490722 L -10.596351623535156 26.244237899780266 L -10.536346435546875 26.309537887573235 L -10.305999755859375 26.58699989318847 L -10.252801895141602 26.62683486938476 L -9.979079246520996 26.807821273803704 L -9.979034423828125 26.807844161987298 L -9.919325828552246 26.837320327758782 L -9.811922073364258 26.865053176879876 L -9.562878608703613 26.950311660766594 L -9.432000160217285 26.972000122070305 L -8.993000030517578 26.95800018310546 L -8.907782554626465 26.93379592895507 L -8.625832557678223 26.846294403076165 L -8.512882232666016 26.776960372924798 L -8.206999778747559 26.58699989318847 L -8.192000389099121 26.57067680358886 L -8.146994590759277 26.5216999053955 L -7.9525465965271 26.299581527709954 L -7.908173084259033 26.222682952880852 L -7.746631622314453 25.89960098266601 L -7.720158576965332 25.814888000488274 L -7.670051097869873 25.55686950683593 L -7.663243770599365 25.446439743041985 L -7.679697036743164 25.11812210083007 L -7.704657077789307 25.010213851928704 L -7.760000228881836 24.820999145507805 L -7.884060382843018 24.57600021362304 L -7.919000148773193 24.506999969482415 L -8.192000389099121 24.189136505126946 L -8.197011947631836 24.183301925659173 L -8.204999923706055 24.173999786376946 L -8.258954048156738 24.135173797607415 L -8.362909317016602 24.054403305053704 L -8.626910209655762 23.92202758789062 L -8.749945640563965 23.872108459472653 L -8.971317291259766 23.807790756225582 L -9.08149528503418 23.797958374023434 L -9.53994369506836 23.812168121337887 L -9.605999946594238 23.822000503540036 L -9.855043411254883 23.90725708007812 L -9.948328971862793 23.941799163818356 L -10.245235443115234 24.145969390869134 L -10.337364196777344 24.21057510375976 L -10.344823837280273 24.215806961059563 L -10.401047706604004 24.284132003784173 M 9.001999855041504 4.999999999999999 L 9.001999855041504 1.9999999999999996 L 0.7450000047683716 1.9999999999999996 L 14.784500122070312 -12.03949928283691 L 12.663999557495117 -14.159000396728512 L 25 -26.49500083923339 L 30.341999053955078 -31.83699989318847 L 32.46200180053711 -29.71699905395507 L 34 -31.254999160766594 L 34 -5.999999999999998 L 34 -5.998000144958495 L 34 -2.9979999065399165 L 34 1.9999999999999996 L 34 4.999999999999999 L 9.001999855041504 4.999999999999999 M -72.98505401611328 -15.099832534790036 L -73.15069580078125 -15.124488830566403 L -73.18099975585938 -15.128999710083004 L -73.29117584228516 -15.119167327880856 L -73.48861694335938 -15.111688613891598 L -73.72799682617188 -15.057949066162106 L -73.7451400756836 -15.054101943969723 L -73.83842468261719 -15.019560813903805 L -74.18394470214844 -14.832592010498043 L -74.28353118896484 -14.762753486633297 L -74.47200012207031 -14.579524040222164 L -74.55040740966797 -14.472623825073239 L -74.63932800292969 -14.33600044250488 L -74.69400024414062 -14.2519998550415 L -74.81800079345703 -13.921999931335446 L -74.86599731445312 -13.57400035858154 L -74.83699798583984 -13.223999977111813 L -74.73200225830078 -12.88799953460693 L -74.55599975585938 -12.583999633789059 L -74.25193786621094 -12.28800010681152 L -74.17900085449219 -12.217000007629391 L -73.87000274658203 -12.05000019073486 L -73.78478240966797 -12.025795936584469 L -73.72799682617188 -12.011228561401364 L -73.49909210205078 -11.952504158020018 L -73.3664779663086 -11.952504158020018 L -73.00599670410156 -11.95400047302246 L -72.74800109863281 -12.017000198364254 L -72.65925598144531 -12.06212997436523 L -72.36758422851562 -12.211705207824703 L -72.29119110107422 -12.275239944458004 L -72.27655029296875 -12.28800010681152 L -72.09300231933594 -12.44799995422363 L -72.0203857421875 -12.558934211730953 L -71.86408233642578 -12.770583152770993 L -71.82816314697266 -12.85261249542236 L -71.75862884521484 -13.011400222778317 L -71.72787475585938 -13.117795944213864 L -71.68299865722656 -13.310000419616696 L -71.68148803710938 -13.387653350830075 L -71.6710205078125 -13.519280433654782 L -71.67741394042969 -13.596714019775387 L -71.69270324707031 -13.7817850112915 L -71.7059555053711 -13.862539291381832 L -71.7088394165039 -13.88011264801025 L -71.72447204589844 -13.921965599060055 L -71.8030014038086 -14.17399978637695 L -71.85543823242188 -14.258712768554684 L -72.07083129882812 -14.58852672576904 L -72.14041900634766 -14.659626007080075 L -72.28700256347656 -14.791999816894528 L -72.58599853515625 -14.975999832153317 L -72.83504486083984 -15.061258316040036 L -72.93184661865234 -15.091912269592282 L -72.94093322753906 -15.094790458679196 L -72.98505401611328 -15.099832534790036 M -10.539776802062988 -12.586422920227047 L -10.373000144958496 -12.383000373840328 L -10.242935180664062 -12.28800010681152 L -10.134427070617676 -12.208745002746578 L -10.082489967346191 -12.166892051696774 L -10.004584312438965 -12.124787330627438 L -9.73385238647461 -12.0073709487915 L -9.60426139831543 -11.97837734222412 L -9.343999862670898 -11.935000419616697 L -8.993000030517578 -11.95400047302246 L -8.907782554626465 -11.978203773498533 L -8.693429946899414 -12.04472732543945 L -8.625832557678223 -12.065705299377438 L -8.481114387512207 -12.166049957275387 L -8.267702102661133 -12.28800010681152 L -8.224592208862305 -12.31263446807861 L -8.192000389099121 -12.34335899353027 L -8.081000328063965 -12.44799995422363 L -7.879695415496826 -12.72058010101318 L -7.872000217437744 -12.730999946594235 L -7.843257904052734 -12.791005134582516 L -7.821323394775391 -12.87697887420654 L -7.683713912963867 -13.245682716369625 L -7.683966159820557 -13.345271110534664 L -7.662277698516846 -13.60702800750732 L -7.684464454650879 -13.704094886779782 L -7.684878349304199 -13.705579757690426 L -7.84226655960083 -14.27023887634277 L -7.90857458114624 -14.385457992553707 L -8.02299976348877 -14.546999931335446 L -8.192000389099121 -14.71130561828613 L -8.274999618530273 -14.791999816894528 L -8.574000358581543 -14.975999832153317 L -8.855201721191406 -15.064997673034664 L -8.93915843963623 -15.093739509582516 L -8.948710441589355 -15.094592094421383 L -9.049336433410645 -15.103571891784664 L -9.475625991821289 -15.114042282104489 L -9.667082786560059 -15.063934326171871 L -9.75482177734375 -15.049311637878414 L -9.781749725341797 -15.0339241027832 L -10.152692794799805 -14.82195663452148 L -10.235136985778809 -14.78842449188232 L -10.290351867675781 -14.751614570617672 L -10.311110496520996 -14.731431961059567 L -10.353886604309082 -14.689844131469723 L -10.546838760375977 -14.466229438781735 L -10.605331420898438 -14.372187614440914 L -10.62360954284668 -14.33600044250488 L -10.753411293029785 -14.079019546508786 L -10.774589538574219 -14.015484809875485 L -10.786690711975098 -13.927745819091793 L -10.851494789123535 -13.64422798156738 L -10.852503776550293 -13.639813423156735 L -10.849478721618652 -13.573252677917477 L -10.847105979919434 -13.489736557006832 L -10.842000007629395 -13.310000419616696 L -10.783665657043457 -13.087880134582516 L -10.7440824508667 -12.961315155029293 L -10.618438720703125 -12.693574905395504 L -10.582148551940918 -12.638104438781735 L -10.569779396057129 -12.619198799133297 L -10.539776802062988 -12.586422920227047 M -53.5 -28.290000915527337 L -75 -28.290000915527337 L -75 -33.29299926757812 L -75 -51.14500045776366 L -77 -51.14500045776366 L -78 -51.14500045776366 L -78 -76.14499664306639 L -75 -76.14499664306639 L -75 -98.99999999999997 L -60.25299835205078 -98.99999999999997 L -57.24800109863281 -98.99999999999997 L 1.2480000257492065 -98.99999999999997 L 4.252999782562256 -98.99999999999997 L 19 -98.99999999999997 L 19 -76.14499664306639 L 22 -76.14499664306639 L 22 -62.39300155639647 L 22 -51.14500045776366 L 19 -51.14500045776366 L 19 -33.29299926757812 L 19 -28.290000915527337 L -5 -28.290000915527337 L -15.496999740600586 -28.290000915527337 L -15.496999740600586 -33.29299926757812 L -40.50299835205078 -33.29299926757812 L -40.50299835205078 -28.290000915527337 L -53.5 -28.290000915527337 M -48.526611328125 -42.68435668945312 L -48.56654357910156 -42.68435668945312 L -48.68437194824219 -42.68435668945312 L -48.87465286254883 -42.68435668945312 L -49.152000427246094 -42.68435668945312 L -49.301998138427734 -42.68435668945312 L -51.00299835205078 -42.68435668945312 L -51.00299835205078 -37.03763580322265 L -5.5970001220703125 -37.03763580322265 L -5.5970001220703125 -42.68435668945312 L -7.296999931335449 -42.68435668945312 L -7.6061482429504395 -42.68435668945312 L -7.881063461303711 -42.68435668945312 L -8.02779769897461 -42.68435668945312 L -8.07338809967041 -42.68435668945312 L -7.9070000648498535 -43.03699874877929 L -7.642000198364258 -43.77600097656249 L -7.451000213623047 -44.53799819946288 L -7.335999965667725 -45.31499862670898 L -7.296999931335449 -46.09899902343749 L -7.335999965667725 -46.8839988708496 L -7.451000213623047 -47.6599998474121 L -7.642000198364258 -48.42200088500975 L -7.903419017791748 -49.15200042724608 L -7.9070000648498535 -49.16199874877928 L -8.192000389099121 -49.76602935791014 L -8.241999626159668 -49.872001647949205 L -8.645999908447266 -50.5449981689453 L -9.091008186340332 -51.14500045776366 L -9.11400032043457 -51.175998687744126 L -9.640999794006348 -51.757999420166 L -10.222999572753906 -52.284999847412095 L -10.852999687194824 -52.75299835205077 L -11.527000427246094 -53.157001495361314 L -12.237000465393066 -53.493000030517564 L -12.97599983215332 -53.75699996948241 L -13.73799991607666 -53.94800186157225 L -14.513999938964844 -54.06299972534178 L -15.29800033569336 -54.10200119018553 L -16.08300018310547 -54.06299972534178 L -16.384000778198242 -54.01839447021483 L -16.858999252319336 -53.94800186157225 L -17.621000289916992 -53.75699996948241 L -18.360000610351562 -53.493000030517564 L -19.06999969482422 -53.157001495361314 L -19.743999481201172 -52.75299835205077 L -20.374000549316406 -52.284999847412095 L -20.95599937438965 -51.757999420166 L -21.19700050354004 -51.491847991943345 L -21.19700050354004 -51.53977584838866 L -21.19700050354004 -51.67362976074217 L -21.19700050354004 -51.88206100463866 L -21.19700050354004 -52.15042114257811 L -21.19700050354004 -52.479511260986314 L -21.19700050354004 -52.86065292358397 L -21.19700050354004 -53.30512619018553 L -21.19700050354004 -53.96879959106444 L -35.402000427246094 -53.96879959106444 L -35.402000427246094 -53.32833862304686 L -35.402000427246094 -52.324150085449205 L -35.402000427246094 -51.799377441406236 L -35.402000427246094 -51.56026458740233 L -35.402000427246094 -51.49074554443358 L -35.64400100708008 -51.757999420166 L -36.22600173950195 -52.284999847412095 L -36.85599899291992 -52.75299835205077 L -37.529998779296875 -53.157001495361314 L -38.2400016784668 -53.493000030517564 L -38.979000091552734 -53.75699996948241 L -39.74100112915039 -53.94800186157225 L -40.516998291015625 -54.06299972534178 L -40.959999084472656 -54.08501052856444 L -41.301998138427734 -54.10200119018553 L -42.08599853515625 -54.06299972534178 L -42.86199951171875 -53.94800186157225 L -43.624000549316406 -53.75699996948241 L -44.362998962402344 -53.493000030517564 L -45.073001861572266 -53.157001495361314 L -45.74700164794922 -52.75299835205077 L -46.37699890136719 -52.284999847412095 L -46.95899963378906 -51.757999420166 L -47.486000061035156 -51.175998687744126 L -47.50899124145508 -51.14500045776366 L -47.95399856567383 -50.5449981689453 L -48.358001708984375 -49.872001647949205 L -48.69300079345703 -49.16199874877928 L -48.69658279418945 -49.15200042724608 L -48.95800018310547 -48.42200088500975 L -49.14899826049805 -47.6599998474121 L -49.152000427246094 -47.63975524902343 L -49.263999938964844 -46.8839988708496 L -49.301998138427734 -46.09899902343749 L -49.263999938964844 -45.31499862670898 L -49.152000427246094 -44.558269500732415 L -49.14899826049805 -44.53799819946288 L -48.95800018310547 -43.77600097656249 L -48.69300079345703 -43.03699874877929 L -48.526611328125 -42.68435668945312 M 48.5 -98.99999999999997 L 73.5 -98.99999999999997 L 73.5 -95.99999999999997 L 88.99800109863281 -95.99999999999997 L 88.99800109863281 -92.9980010986328 L 88.99800109863281 -91.9980010986328 L 90.5 -91.9980010986328 L 92.00299835205078 -91.9980010986328 L 97 -91.9980010986328 L 97 -45.99999999999999 L 92.00299835205078 -45.99999999999999 L 88.99800109863281 -45.99999999999999 L 76 -45.99999999999999 L 73.5 -45.99999999999999 L 73.5 -42.99999999999999 L 73 -42.99999999999999 L 48.5 -42.99999999999999 L 48.5 -45.99999999999999 L 46.50199890136719 -45.99999999999999 L 44.505001068115234 -45.99999999999999 L 44.50199890136719 -45.99999999999999 L 29.99799919128418 -45.99999999999999 L 25 -45.99999999999999 L 25 -91.9980010986328 L 29.99799919128418 -91.9980010986328 L 33.00299835205078 -91.9980010986328 L 33.00299835205078 -95.99999999999997 L 48.5 -95.99999999999997 L 48.5 -98.99999999999997 M 76 -16.002000808715817 L 73 -16.002000808715817 L 73 -7.74499988555908 L 58.96049880981445 -21.78450012207031 L 56.840999603271484 -19.663999557495114 L 46.50199890136719 -30.003000259399407 L 39.625 -36.88000106811523 L 39.16299819946289 -37.34199905395507 L 41.28300094604492 -39.4620018005371 L 39.744998931884766 -40.99999999999999 L 43.744998931884766 -40.99999999999999 L 46.50199890136719 -40.99999999999999 L 48.5 -40.99999999999999 L 73 -40.99999999999999 L 76 -40.99999999999999 L 76 -16.002000808715817 M -74.01498413085938 23.979660034179684 L -74.10600280761719 24.020000457763665 L -74.38300323486328 24.23600006103515 L -74.60600280761719 24.506999969482415 L -74.63910675048828 24.57600021362304 L -74.7959976196289 24.90299987792968 L -74.86399841308594 25.2490005493164 L -74.83699798583984 25.687000274658196 L -74.8105239868164 25.77171325683593 L -74.67292022705078 26.14116477966308 L -74.60686492919922 26.243274688720696 L -74.47135925292969 26.426752090454094 L -74.45055389404297 26.454923629760735 L -74.256591796875 26.6240005493164 L -74.25236511230469 26.62768363952636 L -74.17900085449219 26.69499969482421 L -73.87000274658203 26.861999511718743 L -73.78478240966797 26.886203765869134 L -73.72799682617188 26.900770187377923 L -73.49909210205078 26.959495544433587 L -73.38841247558594 26.963026046752923 L -72.96212005615234 26.950311660766594 L -72.87513732910156 26.93089866638183 L -72.81462860107422 26.903669357299798 L -72.50800323486328 26.787000656127923 L -72.43513488769531 26.73657608032226 L -72.41544342041016 26.724033355712884 L -72.26835632324219 26.63037681579589 L -72.23797607421875 26.600131988525384 L -72.1053237915039 26.468088150024407 L -72.0491943359375 26.407011032104485 L -72.04531860351562 26.402788162231438 L -72.009765625 26.34605979919433 L -71.81382751464844 26.043169021606438 L -71.77852630615234 25.938287734985344 L -71.69999694824219 25.687000274658196 L -71.68599700927734 25.162000656127923 L -71.77200317382812 24.820999145507805 L -71.89605712890625 24.57600021362304 L -71.93099975585938 24.506999969482415 L -72.09100341796875 24.29700088500976 L -72.16815185546875 24.233968734741204 L -72.3424072265625 24.084394454956048 L -72.3653564453125 24.0728530883789 L -72.43115234375 24.039768218994134 L -72.7490005493164 23.870000839233395 L -73.00627136230469 23.81241416931152 L -73.11518859863281 23.790479660034176 L -73.50782012939453 23.812168121337887 L -73.65001678466797 23.831581115722653 L -74.01498413085938 23.979660034179684 M 2.621000051498413 44.575000762939446 L 2.8540000915527344 44.89599990844726 L 3.174999952316284 45.12900161743163 L 3.552000045776367 45.25199890136718 L 3.947999954223633 45.25199890136718 L 4.324999809265137 45.12900161743163 L 4.645999908447266 44.89599990844726 L 4.879000186920166 44.575000762939446 L 5.001999855041504 44.19800186157226 L 5.001999855041504 43.80199813842773 L 4.879000186920166 43.42499923706054 L 4.645999908447266 43.10400009155273 L 4.324999809265137 42.87099838256835 L 3.947999954223633 42.748001098632805 L 3.552000045776367 42.748001098632805 L 3.174999952316284 42.87099838256835 L 2.8540000915527344 43.10400009155273 L 2.621000051498413 43.42499923706054 L 2.497999906539917 43.80199813842773 L 2.497999906539917 44.19800186157226 L 2.621000051498413 44.575000762939446 M 71.87100219726562 88.61399841308592 L 72.10399627685547 88.93499755859374 L 72.42400360107422 89.16699981689452 L 72.802001953125 89.29000091552733 L 73.197998046875 89.29000091552733 L 73.57499694824219 89.16699981689452 L 73.89600372314453 88.93499755859374 L 74.12899780273438 88.61399841308592 L 74.25199890136719 88.23799896240233 L 74.25199890136719 87.84200286865233 L 74.12899780273438 87.46499633789061 L 73.89600372314453 87.14499664306639 L 73.57499694824219 86.91200256347655 L 73.197998046875 86.78900146484374 L 72.802001953125 86.78900146484374 L 72.42400360107422 86.91200256347655 L 72.10399627685547 87.14499664306639 L 71.87100219726562 87.46499633789061 L 71.74800109863281 87.84200286865233 L 71.74800109863281 88.23799896240233 L 71.87100219726562 88.61399841308592 M 26.555999755859375 66.17800140380858 L 26.5049991607666 66.50199890136717 L 26.555999755859375 66.82700347900389 L 26.624000549316406 66.95982360839842 L 26.70599937438965 67.12000274658202 L 26.937999725341797 67.35199737548827 L 27.231000900268555 67.50099945068358 L 27.55500030517578 67.55300140380858 L 27.8799991607666 67.50099945068358 L 28.17300033569336 67.35199737548827 L 28.405000686645508 67.12000274658202 L 28.554000854492188 66.82700347900389 L 28.59671974182129 66.55999755859374 L 28.606000900268555 66.50199890136717 L 28.554000854492188 66.17800140380858 L 28.405000686645508 65.88500213623045 L 28.17300033569336 65.65299987792967 L 27.94292640686035 65.53600311279295 L 27.8799991607666 65.50399780273436 L 27.55500030517578 65.45200347900389 L 27.231000900268555 65.50399780273436 L 27.168073654174805 65.53600311279295 L 26.937999725341797 65.65299987792967 L 26.70599937438965 65.88500213623045 L 26.624000549316406 66.04517364501952 L 26.555999755859375 66.17800140380858 M 10.168000221252441 67.35199737548827 L 10.239999771118164 67.27999877929686 L 10.399999618530273 67.12000274658202 L 10.550000190734863 66.82700347900389 L 10.60099983215332 66.50199890136717 L 10.550000190734863 66.17800140380858 L 10.399999618530273 65.88500213623045 L 10.239999771118164 65.72499847412108 L 10.168000221252441 65.65299987792967 L 9.937926292419434 65.53600311279295 L 9.875 65.50399780273436 L 9.550999641418457 65.45200347900389 L 9.22599983215332 65.50399780273436 L 9.163073539733887 65.53600311279295 L 8.932999610900879 65.65299987792967 L 8.701000213623047 65.88500213623045 L 8.552000045776367 66.17800140380858 L 8.50100040435791 66.50199890136717 L 8.552000045776367 66.82700347900389 L 8.701000213623047 67.12000274658202 L 8.932999610900879 67.35199737548827 L 9.22599983215332 67.50099945068358 L 9.550999641418457 67.55300140380858 L 9.875 67.50099945068358 L 10.168000221252441 67.35199737548827 M 57.00299835205078 8.001999855041502 L 57.00299835205078 4.999999999999999 L 57.00299835205078 1.9999999999999996 L 57.00299835205078 -1.0030000209808345 L 46.50199890136719 -1.0030000209808345 L 45.99700164794922 -1.0030000209808345 L 45.99700164794922 1.9999999999999996 L 45.99700164794922 4.999999999999999 L 45.99700164794922 8.001999855041502 L 45.99700164794922 31.497999191284173 L 45.99700164794922 38.002998352050774 L 57.00299835205078 38.002998352050774 L 57.00299835205078 31.497999191284173 L 57.00299835205078 14.7519998550415 L 57.00299835205078 11.746999740600584 L 57.00299835205078 8.001999855041502 M 26.555999755859375 21.173000335693356 L 26.5049991607666 21.497999191284176 L 26.555999755859375 21.822000503540036 L 26.624000549316406 21.954826354980465 L 26.70599937438965 22.11499977111816 L 26.937999725341797 22.34700012207031 L 27.231000900268555 22.49600028991699 L 27.430383682250977 22.527999877929684 L 27.55500030517578 22.548000335693356 L 27.68000030517578 22.527999877929684 L 27.8799991607666 22.49600028991699 L 28.17300033569336 22.34700012207031 L 28.405000686645508 22.11499977111816 L 28.554000854492188 21.822000503540036 L 28.605037689208984 21.503999710083004 L 28.606000900268555 21.497999191284176 L 28.554000854492188 21.173000335693356 L 28.405000686645508 20.879999160766598 L 28.17300033569336 20.648000717163082 L 27.8799991607666 20.499000549316403 L 27.761249542236328 20.479999542236325 L 27.55500030517578 20.447000503540036 L 27.349384307861328 20.479999542236325 L 27.231000900268555 20.499000549316403 L 26.937999725341797 20.648000717163082 L 26.70599937438965 20.879999160766598 L 26.624000549316406 21.040172576904293 L 26.555999755859375 21.173000335693356 M 10.168000221252441 22.34700012207031 L 10.239999771118164 22.27499961853027 L 10.399999618530273 22.11499977111816 L 10.550000190734863 21.822000503540036 L 10.60099983215332 21.497999191284176 L 10.550000190734863 21.173000335693356 L 10.399999618530273 20.879999160766598 L 10.239999771118164 20.71999931335449 L 10.168000221252441 20.648000717163082 L 9.875 20.499000549316403 L 9.75661563873291 20.479999542236325 L 9.550999641418457 20.447000503540036 L 9.34475040435791 20.479999542236325 L 9.22599983215332 20.499000549316403 L 8.932999610900879 20.648000717163082 L 8.701000213623047 20.879999160766598 L 8.552000045776367 21.173000335693356 L 8.50100040435791 21.497999191284176 L 8.501944541931152 21.503999710083004 L 8.552000045776367 21.822000503540036 L 8.701000213623047 22.11499977111816 L 8.932999610900879 22.34700012207031 L 9.22599983215332 22.49600028991699 L 9.425999641418457 22.527999877929684 L 9.550999641418457 22.548000335693356 L 9.675615310668945 22.527999877929684 L 9.875 22.49600028991699 L 10.168000221252441 22.34700012207031 M -28.5 66.84011077880858 L -28.579999923706055 66.86599731445311 L -28.900999069213867 67.09899902343749 L -29.134000778198242 67.4199981689453 L -29.256000518798828 67.79699707031249 L -29.256000518798828 68.19400024414061 L -29.134000778198242 68.5709991455078 L -28.900999069213867 68.89099884033202 L -28.579999923706055 69.12499999999999 L -28.5 69.15088653564452 L -28.202999114990234 69.2470016479492 L -27.805999755859375 69.2470016479492 L -27.429000854492188 69.12499999999999 L -27.107999801635742 68.89099884033202 L -26.875 68.5709991455078 L -26.753000259399414 68.19400024414061 L -26.753000259399414 67.79699707031249 L -26.875 67.4199981689453 L -27.107999801635742 67.09899902343749 L -27.429000854492188 66.86599731445311 L -27.805999755859375 66.74400329589842 L -28.202999114990234 66.74400329589842 L -28.5 66.84011077880858 M -33.12900161743164 87.82499694824217 L -32.895999908447266 88.14600372314452 L -32.57600021362305 88.37899780273436 L -32.198001861572266 88.50099945068358 L -31.802000045776367 88.50099945068358 L -31.424999237060547 88.37899780273436 L -31.104000091552734 88.14600372314452 L -30.871000289916992 87.82499694824217 L -30.74799919128418 87.44799804687499 L -30.74799919128418 87.05100250244139 L -30.871000289916992 86.6740036010742 L -31.104000091552734 86.35299682617186 L -31.424999237060547 86.12000274658202 L -31.802000045776367 85.9980010986328 L -32.198001861572266 85.9980010986328 L -32.57600021362305 86.12000274658202 L -32.895999908447266 86.35299682617186 L -33.12900161743164 86.6740036010742 L -33.25199890136719 87.05100250244139 L -33.25199890136719 87.44799804687499 L -33.12900161743164 87.82499694824217 M -37.87099838256836 41.17499923706054 L -38.104000091552734 40.85400009155273 L -38.42399978637695 40.62099838256835 L -38.801998138427734 40.498001098632805 L -39.198001861572266 40.498001098632805 L -39.57500076293945 40.62099838256835 L -39.895999908447266 40.85400009155273 L -40.12900161743164 41.17499923706054 L -40.25199890136719 41.55199813842773 L -40.25199890136719 41.94800186157226 L -40.12900161743164 42.325000762939446 L -39.895999908447266 42.64599990844726 L -39.57500076293945 42.87900161743163 L -39.198001861572266 43.00199890136718 L -38.801998138427734 43.00199890136718 L -38.42399978637695 42.87900161743163 L -38.104000091552734 42.64599990844726 L -37.87099838256836 42.325000762939446 L -37.74800109863281 41.94800186157226 L -37.74800109863281 41.55199813842773 L -37.87099838256836 41.17499923706054 M -41.86600112915039 61.58000183105467 L -41.74399948120117 61.201999664306626 L -41.74399948120117 60.80599975585936 L -41.86600112915039 60.42900085449217 L -42.0989990234375 60.10800170898436 L -42.41999816894531 59.874999999999986 L -42.797000885009766 59.75199890136717 L -43.194000244140625 59.75199890136717 L -43.57099914550781 59.874999999999986 L -43.891998291015625 60.10800170898436 L -44.125 60.42900085449217 L -44.24700164794922 60.80599975585936 L -44.24700164794922 61.201999664306626 L -44.125 61.58000183105467 L -43.891998291015625 61.90000152587889 L -43.57099914550781 62.132999420166 L -43.194000244140625 62.256000518798814 L -42.797000885009766 62.256000518798814 L -42.41999816894531 62.132999420166 L -42.0989990234375 61.90000152587889 L -41.86600112915039 61.58000183105467 M -42.12900161743164 25.325000762939446 L -41.895999908447266 25.64599990844726 L -41.57500076293945 25.878999710083 L -41.198001861572266 26.002000808715813 L -40.801998138427734 26.002000808715813 L -40.42499923706055 25.878999710083 L -40.104000091552734 25.64599990844726 L -39.87099838256836 25.325000762939446 L -39.74800109863281 24.947999954223626 L -39.74800109863281 24.55200004577636 L -39.87099838256836 24.17499923706054 L -40.104000091552734 23.85400009155273 L -40.42499923706055 23.62100028991699 L -40.801998138427734 23.497999191284176 L -41.198001861572266 23.497999191284176 L -41.57500076293945 23.62100028991699 L -41.895999908447266 23.85400009155273 L -42.12900161743164 24.17499923706054 L -42.25199890136719 24.55200004577636 L -42.25199890136719 24.947999954223626 L -42.12900161743164 25.325000762939446 M -24.003000259399414 -10.404000282287596 L -24.003000259399414 1.9999999999999996 L -24.003000259399414 4.999999999999999 L -24.003000259399414 23.00300025939941 L -13.998000144958496 23.00300025939941 L -13.998000144958496 4.999999999999999 L -13.998000144958496 1.9999999999999996 L -13.998000144958496 -10.404000282287596 L -13.998000144958496 -11.003000259399412 L -24.003000259399414 -11.003000259399412 L -24.003000259399414 -10.404000282287596 M -42.12900161743164 -21.75099945068359 L -42.25199890136719 -21.374000549316403 L -42.25199890136719 -20.978000640869137 L -42.12900161743164 -20.600000381469723 L -41.895999908447266 -20.280000686645504 L -41.57500076293945 -20.047000885009762 L -41.198001861572266 -19.92399978637695 L -40.801998138427734 -19.92399978637695 L -40.42499923706055 -20.047000885009762 L -40.104000091552734 -20.280000686645504 L -39.87099838256836 -20.600000381469723 L -39.74800109863281 -20.978000640869137 L -39.74800109863281 -21.374000549316403 L -39.87099838256836 -21.75099945068359 L -40.104000091552734 -22.072000503540036 L -40.42499923706055 -22.305000305175778 L -40.801998138427734 -22.427999496459957 L -41.198001861572266 -22.427999496459957 L -41.57500076293945 -22.305000305175778 L -41.895999908447266 -22.072000503540036 L -42.12900161743164 -21.75099945068359 M 15.657999992370605 -63.069999694824205 L 15.890999794006348 -62.74900054931639 L 16.211999893188477 -62.51599884033202 L 16.589000701904297 -62.39300155639647 L 16.985000610351562 -62.39300155639647 L 17.363000869750977 -62.51599884033202 L 17.683000564575195 -62.74900054931639 L 17.916000366210938 -63.069999694824205 L 18.038999557495117 -63.44699859619139 L 18.038999557495117 -63.84299850463866 L 17.916000366210938 -64.22000122070311 L 17.683000564575195 -64.54100036621092 L 17.363000869750977 -64.7740020751953 L 16.985000610351562 -64.89700317382811 L 16.589000701904297 -64.89700317382811 L 16.211999893188477 -64.7740020751953 L 15.890999794006348 -64.54100036621092 L 15.657999992370605 -64.22000122070311 L 15.53499984741211 -63.84299850463866 L 15.53499984741211 -63.44699859619139 L 15.657999992370605 -63.069999694824205 M -74.34200286865234 -64.22000122070311 L -74.46499633789062 -63.84299850463866 L -74.46499633789062 -63.44699859619139 L -74.34200286865234 -63.069999694824205 L -74.10900115966797 -62.74900054931639 L -73.78800201416016 -62.51599884033202 L -73.41100311279297 -62.39300155639647 L -73.01499938964844 -62.39300155639647 L -72.63700103759766 -62.51599884033202 L -72.31700134277344 -62.74900054931639 L -72.08399963378906 -63.069999694824205 L -71.96099853515625 -63.44699859619139 L -71.96099853515625 -63.84299850463866 L -72.08399963378906 -64.22000122070311 L -72.31700134277344 -64.54100036621092 L -72.63700103759766 -64.7740020751953 L -73.01499938964844 -64.89700317382811 L -73.41100311279297 -64.89700317382811 L -73.78800201416016 -64.7740020751953 L -74.10900115966797 -64.54100036621092 L -74.34200286865234 -64.22000122070311 M 29.99799919128418 -60.9980010986328 L 59.5 -60.9980010986328 L 73 -60.9980010986328 L 76 -60.9980010986328 L 88.99800109863281 -60.9980010986328 L 92.00299835205078 -60.9980010986328 L 92.00299835205078 -81.00299835205077 L 88.99800109863281 -81.00299835205077 L 79.50499725341797 -81.00299835205077 L 59.74800109863281 -81.00299835205077 L 33.00299835205078 -81.00299835205077 L 29.99799919128418 -81.00299835205077 L 29.99799919128418 -60.9980010986328 M 60.612998962402344 -93.05899810791014 L 61 -92.9980010986328 L 61.387001037597656 -93.05899810791014 L 61.736000061035156 -93.23699951171874 L 62.01300048828125 -93.51399993896483 L 62.191001892089844 -93.86299896240233 L 62.246273040771484 -94.20800018310545 L 62.25299835205078 -94.24999999999999 L 62.191001892089844 -94.63700103759764 L 62.01300048828125 -94.98600006103514 L 61.736000061035156 -95.26300048828124 L 61.387001037597656 -95.44100189208983 L 61 -95.50299835205077 L 60.612998962402344 -95.44100189208983 L 60.263999938964844 -95.26300048828124 L 59.98699951171875 -94.98600006103514 L 59.808998107910156 -94.63700103759764 L 59.74800109863281 -94.24999999999999 L 59.75461959838867 -94.20800018310545 L 59.808998107910156 -93.86299896240233 L 59.98699951171875 -93.51399993896483 L 60.263999938964844 -93.23699951171874 L 60.612998962402344 -93.05899810791014 M 73.89600372314453 -0.9340000152587887 L 73.80094146728516 -1.0030000209808345 L 73.57499694824219 -1.16700005531311 L 73.197998046875 -1.289000034332275 L 73 -1.289000034332275 L 72.802001953125 -1.289000034332275 L 72.42400360107422 -1.16700005531311 L 72.19876098632812 -1.0030000209808345 L 72.10399627685547 -0.9340000152587887 L 71.87100219726562 -0.6140000224113462 L 71.74800109863281 -0.23700000345706923 L 71.74800109863281 0.15899999439716347 L 71.87100219726562 0.5350000262260437 L 72.10399627685547 0.856000006198883 L 72.42400360107422 1.0880000591278076 L 72.802001953125 1.2109999656677246 L 73 1.2109999656677246 L 73.197998046875 1.2109999656677246 L 73.57499694824219 1.0880000591278076 L 73.89600372314453 0.856000006198883 L 74.12899780273438 0.5350000262260437 L 74.25199890136719 0.15899999439716347 L 74.25199890136719 -0.23700000345706923 L 74.12899780273438 -0.6140000224113462 L 73.89600372314453 -0.9340000152587887 M 60.612998962402344 -46.958999633789055 L 61 -46.897998809814446 L 61.387001037597656 -46.958999633789055 L 61.439998626708984 -46.986030578613274 L 61.736000061035156 -47.13700103759765 L 62.01300048828125 -47.41400146484374 L 62.191001892089844 -47.76300048828124 L 62.25299835205078 -48.15000152587889 L 62.191001892089844 -48.53699874877928 L 62.01300048828125 -48.88600158691405 L 61.74700164794922 -49.15200042724608 L 61.736000061035156 -49.162998199462876 L 61.387001037597656 -49.34099960327147 L 61 -49.40299987792967 L 60.612998962402344 -49.34099960327147 L 60.263999938964844 -49.162998199462876 L 60.25299835205078 -49.15200042724608 L 59.98699951171875 -48.88600158691405 L 59.808998107910156 -48.53699874877928 L 59.74800109863281 -48.15000152587889 L 59.808998107910156 -47.76300048828124 L 59.98699951171875 -47.41400146484374 L 60.263999938964844 -47.13700103759765 L 60.612998962402344 -46.958999633789055 M 60.49700164794922 73.2480010986328 L 60.49700164794922 76.25299835205077 L 85.50199890136719 76.25299835205077 L 85.50199890136719 73.2480010986328 L 60.49700164794922 73.2480010986328 M 60.49700164794922 11.746999740600584 L 60.49700164794922 14.7519998550415 L 85.50199890136719 14.7519998550415 L 85.50199890136719 11.746999740600584 L 60.49700164794922 11.746999740600584 M 1.2480000257492065 -76.1480026245117 L 1.2480000257492065 -76.14499664306639 L 1.2480000257492065 -51.14500045776366 L 1.2480000257492065 -51.14300155639647 L 4.252999782562256 -51.14300155639647 L 4.252999782562256 -51.14500045776366 L 4.252999782562256 -76.14499664306639 L 4.252999782562256 -76.1480026245117 L 1.2480000257492065 -76.1480026245117 M -60.25299835205078 -76.1480026245117 L -60.25299835205078 -76.14499664306639 L -60.25299835205078 -62.39300155639647 L -60.25299835205078 -51.14500045776366 L -60.25299835205078 -51.14300155639647 L -57.24800109863281 -51.14300155639647 L -57.24800109863281 -51.14500045776366 L -57.24800109863281 -76.14499664306639 L -57.24800109863281 -76.1480026245117 L -60.25299835205078 -76.1480026245117 z" fill="none" stroke="rgb(255,0,0)" stroke-width="0.001mm" />
</svg>