<?xml version="1.0" standalone="no"?>
<!DOCTYPE svg PUBLIC "-//W3C//DTD SVG 1.1//EN"
  "http://www.w3.org/Graphics/SVG/1.1/DTD/svg11.dtd">
<svg width="57.000999450683594mm" height="73.99999999999999mm" viewBox="57 14.999999999999996 57.000999450683594 73.99999999999999" xmlns="http://www.w3.org/2000/svg" version="1.1">
	<title>svgOutput</title>
	<desc>made with tinkercad</desc>
<path d="M 105.39900207519531 16.334999084472653 L 105.48927307128906 16.38400077819824 L 106.12300109863281 16.728000640869137 L 106.49600219726562 17.035873413085934 L 106.75299835205078 17.247999191284176 L 107.27300262451172 17.87800025939941 L 107.66600036621094 18.600999832153317 L 107.91400146484375 19.400999069213864 L 108 20.25900077819824 L 108 24.57600021362304 L 108 32.76800155639648 L 108 39.49999999999999 L 113.0009994506836 39.49999999999999 L 113.0009994506836 40.95999908447265 L 113.0009994506836 45.05599975585937 L 113.0009994506836 49.15200042724608 L 113.0009994506836 57.34400177001952 L 113.0009994506836 61.43999862670897 L 113.0009994506836 64.49999999999999 L 108.65679168701172 64.49999999999999 L 108 64.49999999999999 L 108 65.53600311279295 L 108 72.8759078979492 L 108 81.9199981689453 L 108 83.74099731445311 L 107.91400146484375 84.59899902343749 L 107.66600036621094 85.3990020751953 L 107.27300262451172 86.1220016479492 L 106.75299835205078 86.75199890136717 L 106.49600219726562 86.96453857421874 L 106.12300109863281 87.2730026245117 L 105.39900207519531 87.66500091552733 L 104.5999984741211 87.91300201416014 L 103.74099731445312 87.99999999999999 L 102.4000015258789 87.99999999999999 L 98.30400085449219 87.99999999999999 L 88.73515319824219 87.99999999999999 L 65.53600311279297 87.99999999999999 L 62.25899887084961 87.99999999999999 L 61.439998626708984 87.91695404052733 L 61.4010009765625 87.91300201416014 L 60.60100173950195 87.66500091552733 L 59.87799835205078 87.2730026245117 L 59.24800109863281 86.75199890136717 L 58.72800064086914 86.1220016479492 L 58.67038345336914 86.01599884033202 L 58.334999084472656 85.3990020751953 L 58.08700180053711 84.59899902343749 L 58 83.74099731445311 L 58 81.9199981689453 L 58 65.53600311279295 L 58 64.50299835205077 L 61.00199890136719 64.49999999999999 L 61.00199890136719 57.34400177001952 L 61.00199890136719 53.2480010986328 L 61.00199890136719 49.15200042724608 L 61.00199890136719 39.498001098632805 L 58 39.498001098632805 L 58 32.76800155639648 L 58 24.57600021362304 L 58 20.479999542236325 L 58 20.25900077819824 L 58.08700180053711 19.400999069213864 L 58.334999084472656 18.600999832153317 L 58.72800064086914 17.87800025939941 L 59.24800109863281 17.247999191284176 L 59.87799835205078 16.728000640869137 L 60.07257843017578 16.622232437133786 L 60.51085662841797 16.38400077819824 L 60.60100173950195 16.334999084472653 L 61.4010009765625 16.086999893188473 L 62.25899887084961 15.999999999999996 L 65.53600311279297 15.999999999999996 L 98.30400085449219 15.999999999999996 L 103.74099731445312 15.999999999999996 L 104.5999984741211 16.086999893188473 L 105.39900207519531 16.334999084472653 M 100.43800354003906 19.216999053955075 L 100.35199737548828 19.340465545654293 L 100.33785247802734 19.360776901245114 L 100.33699798583984 19.361999511718746 L 100.31700134277344 19.427999496459957 L 100.25 19.64399909973144 L 100.22599792480469 19.72900009155273 L 100.20700073242188 20.07999992370605 L 100.25 20.340000152587887 L 100.27899932861328 20.468999862670895 L 100.2837905883789 20.479999542236325 L 100.35199737548828 20.636651992797848 L 100.39700317382812 20.73999977111816 L 100.42884063720703 20.799125671386715 L 100.43900299072266 20.818000793457028 L 100.4800033569336 20.86899948120117 L 100.65499877929688 21.10799980163574 L 100.66000366210938 21.111999511718746 L 100.85800170898438 21.27499961853027 L 100.89099884033203 21.305000305175778 L 100.91000366210938 21.318000793457028 L 100.95124816894531 21.34499931335449 L 100.96499633789062 21.35400009155273 L 101.23300170898438 21.47900009155273 L 101.3123779296875 21.503999710083004 L 101.36000061035156 21.51899909973144 L 101.5575942993164 21.571889877319332 L 101.55799865722656 21.572000503540036 L 101.58300018310547 21.576999664306637 L 101.84600067138672 21.584999084472653 L 101.91200256347656 21.587999343872067 L 102.19999694824219 21.521999359130856 L 102.20099639892578 21.523000717163082 L 102.28900146484375 21.510999679565426 L 102.30999755859375 21.503999710083004 L 102.35199737548828 21.48999977111816 L 102.4000015258789 21.465507507324215 L 102.64399719238281 21.34099960327148 L 102.70800018310547 21.30100059509277 L 102.73799896240234 21.28300094604492 L 102.74105834960938 21.28033638000488 L 102.96099853515625 21.089000701904293 L 103.02300262451172 21.025999069213864 L 103.05999755859375 20.96999931335449 L 103.09300231933594 20.888000488281246 L 103.3219985961914 20.48999977111816 L 103.32359313964844 20.479999542236325 L 103.33599853515625 20.40200042724609 L 103.38600158691406 20.211999893188473 L 103.38500213623047 20.16799926757812 L 103.38333892822266 20.104455947875973 L 103.375 19.7859992980957 L 103.36499786376953 19.67600059509277 L 103.33599853515625 19.591999053955075 L 103.24700164794922 19.311000823974606 L 103.22865295410156 19.281066894531246 L 103.22799682617188 19.280000686645504 L 103.06300354003906 19.010999679565426 L 102.81800079345703 18.75900077819824 L 102.70800018310547 18.68099975585937 L 102.65699768066406 18.64500045776367 L 102.54199981689453 18.579000473022457 L 102.4000015258789 18.539188385009762 L 102.01766967773438 18.431999206542965 L 101.98200225830078 18.422000885009762 L 101.97599792480469 18.42000007629394 L 101.97006225585938 18.418653488159176 L 101.87899780273438 18.398000717163082 L 101.61699676513672 18.42000007629394 L 101.51799774169922 18.42000007629394 L 101.48933410644531 18.430719375610348 L 101.48591613769531 18.431999206542965 L 101.14900207519531 18.55800056457519 L 101.06300354003906 18.57999992370605 L 101.00299835205078 18.608999252319332 L 100.99199676513672 18.61700057983398 L 100.72000122070312 18.8169994354248 L 100.70684814453125 18.83102416992187 L 100.66000366210938 18.881000518798825 L 100.58399963378906 18.96100044250488 L 100.43800354003906 19.216999053955075 M 61.49599838256836 19.249000549316403 L 61.439998626708984 19.338600158691403 L 61.42599868774414 19.361000061035153 L 61.34000015258789 19.642999649047848 L 61.314998626708984 19.72900009155273 L 61.29999923706055 20.16799926757812 L 61.321998596191406 20.297000885009762 L 61.384220123291016 20.479999542236325 L 61.40700149536133 20.547000885009762 L 61.435001373291016 20.653999328613278 L 61.439998626708984 20.6641731262207 L 61.46111297607422 20.70712852478027 L 61.4640007019043 20.712999343872067 L 61.46500015258789 20.712999343872067 L 61.64699935913086 20.988000869750973 L 61.68600082397461 21.041000366210934 L 61.74800109863281 21.0930004119873 L 61.9630012512207 21.271999359130856 L 61.978675842285156 21.286470413208004 L 62.02799987792969 21.33200073242187 L 62.03855514526367 21.336690902709957 L 62.04315948486328 21.338737487792965 L 62.04600143432617 21.340000152587887 L 62.14699935913086 21.392000198364254 L 62.345001220703125 21.483999252319332 L 62.388126373291016 21.503999710083004 L 62.41400146484375 21.51600074768066 L 62.770999908447266 21.568000793457028 L 62.858001708984375 21.584999084472653 L 62.88373947143555 21.58442115783691 L 62.946998596191406 21.583000183105465 L 63.2400016784668 21.54899978637695 L 63.32600021362305 21.527999877929684 L 63.38068389892578 21.503999710083004 L 63.487998962402344 21.456899642944332 L 63.68600082397461 21.370000839233395 L 63.72260665893555 21.351465225219723 L 63.76451110839844 21.330247879028317 L 63.76499938964844 21.32999992370605 L 63.79600143432617 21.302999496459957 L 63.98899841308594 21.135999679565426 L 64.05548095703125 21.08223152160644 L 64.05699920654297 21.080999374389645 L 64.06199645996094 21.07299995422363 L 64.12699890136719 20.98100090026855 L 64.33100128173828 20.68300056457519 L 64.36499786376953 20.589000701904293 L 64.40235900878906 20.479999542236325 L 64.44999694824219 20.34099960327148 L 64.45999908447266 20.275999069213864 L 64.4739990234375 19.818000793457028 L 64.46399688720703 19.70700073242187 L 64.4000015258789 19.486000061035153 L 64.3499984741211 19.363000869750973 L 64.21800231933594 19.09900093078613 L 64.13700103759766 18.995000839233395 L 64.09941101074219 18.941989898681637 L 64.0979995727539 18.940000534057614 L 64.08899688720703 18.93300056457519 L 64.08811950683594 18.9322395324707 L 63.79600143432617 18.680000305175778 L 63.76499938964844 18.652999877929684 L 63.487998962402344 18.5131721496582 L 63.45199966430664 18.495000839233395 L 63.26100158691406 18.438999176025387 L 63.22949981689453 18.431999206542965 L 63.15299987792969 18.41500091552734 L 62.82600021362305 18.398000717163082 L 62.71500015258789 18.405000686645504 L 62.57841110229492 18.431999206542965 L 62.457000732421875 18.455999374389645 L 62.37300109863281 18.48299980163574 L 62.04999923706055 18.64399909973144 L 61.972999572753906 18.687999725341793 L 61.75199890136719 18.88199996948242 L 61.74800109863281 18.885000228881832 L 61.739131927490234 18.893295288085934 L 61.68600082397461 18.943000793457028 L 61.49599838256836 19.249000549316403 M 103.37100219726562 83.72000122070311 L 103.36819458007812 83.69532012939452 L 103.36599731445312 83.67600250244139 L 103.36479949951172 83.67240142822264 L 103.36299896240234 83.66699981689452 L 103.33200073242188 83.5709991455078 L 103.24829864501953 83.32678985595702 L 103.24700164794922 83.32299804687499 L 103.20999908447266 83.26399993896483 L 103.06300354003906 83.0230026245117 L 102.93000030517578 82.87599945068358 L 102.85900115966797 82.80599975585936 L 102.52899932861328 82.59100341796874 L 102.44499969482422 82.53900146484374 L 102.4000015258789 82.52489471435545 L 102.19300079345703 82.45999908447264 L 102.1520004272461 82.4449996948242 L 102.13737487792969 82.44256591796874 L 102.13400268554688 82.44200134277342 L 102.0530014038086 82.42800140380858 L 101.86799621582031 82.41300201416014 L 101.79100036621094 82.40699768066405 L 101.66000366210938 82.41799926757811 L 101.58300018310547 82.4189987182617 L 101.54759216308594 82.42743682861327 L 101.38999938964844 82.46499633789061 L 101.28299713134766 82.49500274658202 L 101.12100219726562 82.56600189208983 L 101.11764526367188 82.56748962402342 L 101.04199981689453 82.60099792480467 L 100.83100128173828 82.75599670410155 L 100.72000122070312 82.82900238037108 L 100.61952209472656 82.94400024414061 L 100.5469970703125 83.02700042724608 L 100.48300170898438 83.10399627685545 L 100.4010009765625 83.26399993896483 L 100.35199737548828 83.36053466796874 L 100.33399963378906 83.39600372314452 L 100.28900146484375 83.48500061035155 L 100.22599792480469 83.7419967651367 L 100.22537231445312 83.96800231933592 L 100.2249984741211 84.10199737548827 L 100.2249984741211 84.23500061035155 L 100.2979965209961 84.52100372314452 L 100.302001953125 84.53600311279295 L 100.3219985961914 84.60600280761717 L 100.48749542236328 84.91221618652342 L 100.48899841308594 84.91500091552733 L 100.66000366210938 85.08999633789061 L 100.85600280761719 85.29199981689452 L 101.16000366210938 85.46800231933592 L 101.49600219726562 85.57299804687499 L 101.84600067138672 85.60199737548827 L 102.19499969482422 85.55300140380858 L 102.4000015258789 85.47635650634764 L 102.52400207519531 85.43000030517577 L 102.70800018310547 85.30999755859374 L 102.74400329589844 85.28600311279295 L 102.85099792480469 85.20800018310545 L 103.03399658203125 85.01999664306639 L 103.10299682617188 84.9199981689453 L 103.29100036621094 84.57399749755858 L 103.30599975585938 84.53600311279295 L 103.32599639892578 84.48100280761717 L 103.38400268554688 84.22399902343749 L 103.39099884033203 84.02600097656249 L 103.39622497558594 83.96800231933592 L 103.4009017944336 83.9160919189453 L 103.4010009765625 83.91500091552733 L 103.39600372314453 83.88300323486327 L 103.37200164794922 83.7210006713867 L 103.37100219726562 83.72000122070311 M 62.25299835205078 82.54199981689452 L 62.229000091552734 82.5500030517578 L 61.926998138427734 82.74600219726561 L 61.869998931884766 82.78199768066405 L 61.86637496948242 82.78534698486327 L 61.80500030517578 82.84200286865233 L 61.672000885009766 82.97599792480467 L 61.66363525390625 82.98465728759764 L 61.643001556396484 83.00599670410155 L 61.5359992980957 83.17099761962889 L 61.486000061035156 83.24400329589842 L 61.47700119018555 83.26399993896483 L 61.439998626708984 83.36176300048827 L 61.36800003051758 83.55200195312499 L 61.36800003051758 83.55100250244139 L 61.340999603271484 83.61199951171874 L 61.321998596191406 83.69899749755858 L 61.308998107910156 84.12400054931639 L 61.3129997253418 84.23500061035155 L 61.36800003051758 84.44972229003905 L 61.38600158691406 84.51999664306639 L 61.40999984741211 84.60600280761717 L 61.439998626708984 84.66117858886717 L 61.577999114990234 84.91500091552733 L 61.64500045776367 84.98799896240233 L 61.81598663330078 85.18582916259764 L 61.81700134277344 85.18699645996092 L 61.845001220703125 85.20700073242186 L 61.848026275634766 85.20921325683592 L 62.029998779296875 85.34200286865233 L 62.13199996948242 85.40799713134764 L 62.5 85.54599761962889 L 62.58399963378906 85.57299804687499 L 63.02399826049805 85.59899902343749 L 63.36800003051758 85.53199768066405 L 63.487998962402344 85.47471618652342 L 63.76470947265625 85.34261322021483 L 63.76599884033203 85.34200286865233 L 63.797000885009766 85.31600189208983 L 64.03600311279297 85.11900329589842 L 64.25199890136719 84.84100341796874 L 64.29299926757812 84.74999999999999 L 64.44100189208984 84.38600158691405 L 64.45999908447266 84.2429962158203 L 64.47539520263672 83.96800231933592 L 64.48200225830078 83.84999847412108 L 64.45999908447266 83.7419967651367 L 64.41380310058594 83.53372192382811 L 64.40299987792969 83.48500061035155 L 64.23300170898438 83.16799926757811 L 64.19097900390625 83.08300781249999 L 64.18900299072266 83.07900238037108 L 64.18000030517578 83.0699996948242 L 64.03900146484375 82.90299987792967 L 63.97600173950195 82.82599639892577 L 63.971397399902344 82.8229293823242 L 63.96699905395508 82.8199996948242 L 63.797000885009766 82.69100189208983 L 63.76599884033203 82.66699981689452 L 63.76411437988281 82.66604614257811 L 63.487998962402344 82.52622985839842 L 63.45199966430664 82.50800323486327 L 63.111000061035156 82.42199707031249 L 62.584999084472656 82.43599700927733 L 62.3782958984375 82.50023651123045 L 62.33399963378906 82.51399993896483 L 62.25299835205078 82.54199981689452 M 100.09300231933594 27.53899955749511 L 99.39099884033203 26.68799972534179 L 98.54000091552734 25.98600006103515 L 98.30400085449219 25.857843399047844 L 97.56400299072266 25.45599937438964 L 96.48500061035156 25.121000289916985 L 95.32599639892578 25.004999160766594 L 73.55799865722656 25.004999160766594 L 72.4000015258789 25.121000289916985 L 71.31999969482422 25.45599937438964 L 70.34400177001953 25.98600006103515 L 69.49299621582031 26.68799972534179 L 68.79100036621094 27.53899955749511 L 68.26100158691406 28.516000747680657 L 67.9260025024414 29.594999313354485 L 67.80999755859375 30.753000259399407 L 67.80999755859375 32.76800155639648 L 67.80999755859375 65.53600311279295 L 67.80999755859375 73.2470016479492 L 67.9260025024414 74.40499877929686 L 68.26100158691406 75.48400115966795 L 68.79100036621094 76.46099853515624 L 69.49299621582031 77.31199645996092 L 70.34400177001953 78.01300048828124 L 71.31999969482422 78.54299926757811 L 72.4000015258789 78.87799835205077 L 73.55799865722656 78.99500274658202 L 95.32599639892578 78.99500274658202 L 96.48500061035156 78.87799835205077 L 97.56400299072266 78.54299926757811 L 98.30400085449219 78.14115905761717 L 98.54000091552734 78.01300048828124 L 99.39099884033203 77.31199645996092 L 100.09300231933594 76.46099853515624 L 100.62300109863281 75.48400115966795 L 100.95800018310547 74.40499877929686 L 101.07499694824219 73.2470016479492 L 101.07499694824219 65.53600311279295 L 101.07499694824219 57.34400177001952 L 101.07499694824219 49.15200042724608 L 101.07499694824219 40.95999908447265 L 101.07499694824219 32.76800155639648 L 101.07499694824219 30.753000259399407 L 100.95800018310547 29.594999313354485 L 100.62300109863281 28.516000747680657 L 100.09300231933594 27.53899955749511 M 109.5770034790039 42.932998657226555 L 109.69999694824219 42.55699920654296 L 109.69999694824219 42.1599998474121 L 109.5770034790039 41.78400039672851 L 109.34400177001953 41.46400070190429 L 109.02400207519531 41.230998992919915 L 108.64600372314453 41.10900115966796 L 108.25 41.10900115966796 L 107.87200164794922 41.230998992919915 L 107.552001953125 41.46400070190429 L 107.31900024414062 41.78400039672851 L 107.19599914550781 42.1599998474121 L 107.19599914550781 42.55699920654296 L 107.31900024414062 42.932998657226555 L 107.37361145019531 43.00799942016601 L 107.552001953125 43.252998352050774 L 107.87200164794922 43.48600006103515 L 108.25 43.60800170898437 L 108.64600372314453 43.60800170898437 L 109.02400207519531 43.48600006103515 L 109.34400177001953 43.252998352050774 L 109.52239227294922 43.00799942016601 L 109.5770034790039 42.932998657226555 M 107.31900024414062 60.537998199462876 L 107.19599914550781 60.91500091552733 L 107.19599914550781 61.311000823974595 L 107.23819732666016 61.43999862670897 L 107.31900024414062 61.68700027465819 L 107.552001953125 62.007999420166 L 107.87200164794922 62.24000167846678 L 108 62.281650543212876 L 108.25 62.36299896240233 L 108.64600372314453 62.36299896240233 L 109.02400207519531 62.24000167846678 L 109.34400177001953 62.007999420166 L 109.5770034790039 61.68700027465819 L 109.65779876708984 61.43999862670897 L 109.69999694824219 61.311000823974595 L 109.69999694824219 60.91500091552733 L 109.5770034790039 60.537998199462876 L 109.34400177001953 60.21799850463866 L 109.02400207519531 59.98500061035155 L 108.64600372314453 59.86299896240233 L 108.25 59.86299896240233 L 107.87200164794922 59.98500061035155 L 107.552001953125 60.21799850463866 L 107.31900024414062 60.537998199462876 M 62.946998596191406 50.60599899291991 L 62.625999450683594 50.83900070190428 L 62.393001556396484 51.159999847412095 L 62.37995147705078 51.20000076293944 L 62.27000045776367 51.53699874877928 L 62.27000045776367 51.93299865722655 L 62.393001556396484 52.310001373291 L 62.625999450683594 52.631000518798814 L 62.946998596191406 52.86399841308592 L 63.32400131225586 52.986999511718736 L 63.720001220703125 52.986999511718736 L 64.09700012207031 52.86399841308592 L 64.41799926757812 52.631000518798814 L 64.6510009765625 52.310001373291 L 64.77400207519531 51.93299865722655 L 64.77400207519531 51.53699874877928 L 64.66404724121094 51.20000076293944 L 64.6510009765625 51.159999847412095 L 64.41799926757812 50.83900070190428 L 64.09700012207031 50.60599899291991 L 63.75699996948242 50.49499893188475 L 63.720001220703125 50.48300170898436 L 63.32400131225586 50.48300170898436 L 63.2869987487793 50.49499893188475 L 62.946998596191406 50.60599899291991 z" fill="none" stroke="rgb(255,0,0)" stroke-width="0.001mm" />
</svg>