<?xml version="1.0" standalone="no"?>
<!DOCTYPE svg PUBLIC "-//W3C//DTD SVG 1.1//EN"
  "http://www.w3.org/Graphics/SVG/1.1/DTD/svg11.dtd">
<svg width="58mm" height="73.99999999999999mm" viewBox="-3 14.999999999999996 58 73.99999999999999" xmlns="http://www.w3.org/2000/svg" version="1.1">
	<title>svgOutput</title>
	<desc>made with tinkercad</desc>
<path d="M 51 15.999999999999996 L 51 32.76800155639648 L 51 39.49999999999999 L 54 39.49999999999999 L 54 49.15200042724608 L 54 57.34400177001952 L 54 64.49999999999999 L 51 64.49999999999999 L 51 65.53600311279295 L 51 81.9199981689453 L 51 84.75299835205077 L 51 87.99999999999999 L 32.768001556396484 87.99999999999999 L 29.14689826965332 87.99999999999999 L 27.20426368713379 87.99999999999999 L 24.288074493408203 87.99999999999999 L 23.2587833404541 87.99999999999999 L 16.384000778198242 87.99999999999999 L 13.998000144958496 87.99999999999999 L 7.309999942779541 87.99999999999999 L 6.934999942779541 87.97000122070311 L 6.579999923706055 87.88200378417967 L 6.249000072479248 87.7419967651367 L 5.947000026702881 87.55500030517577 L 5.677999973297119 87.32399749755858 L 5.447000026702881 87.05500030517577 L 5.260000228881836 86.75299835205077 L 5.119999885559082 86.42199707031249 L 5.0320000648498535 86.06700134277342 L 5.001999855041504 85.69300079345702 L 5.001999855041504 81.9199981689453 L 5.001999855041504 79.9980010986328 L 3.1080000400543213 79.9980010986328 L 2.7660000324249268 79.97000122070311 L 2.441999912261963 79.89099884033202 L 2.140000104904175 79.76300048828124 L 1.8630000352859497 79.59100341796874 L 1.6180000305175781 79.37999725341795 L 1.406999945640564 79.13500213623045 L 1.2350000143051147 78.85900115966795 L 1.1080000400543213 78.55599975585936 L 1.027999997138977 78.23200225830077 L 1 77.88999938964842 L 1 73.72799682617186 L 1 65.53600311279295 L 1 64.49999999999999 L 0 64.49999999999999 L -2 64.49999999999999 L -2 39.49999999999999 L 0 39.49999999999999 L 1 39.49999999999999 L 1 32.76800155639648 L 1 26.11100006103515 L 1.027999997138977 25.768999099731438 L 1.1080000400543213 25.44499969482421 L 1.2350000143051147 25.14200019836425 L 1.406999945640564 24.86599922180175 L 1.6180000305175781 24.62000083923339 L 1.6693333387374878 24.57600021362304 L 1.8630000352859497 24.409999847412102 L 2.140000104904175 24.23800086975097 L 2.33870267868042 24.153781890869134 L 2.441999912261963 24.110000610351555 L 2.7660000324249268 24.031000137329094 L 3.1080000400543213 24.003000259399407 L 3.5273239612579346 24.003000259399407 L 4.545101642608643 24.003000259399407 L 5.001999855041504 24.003000259399407 L 5.001999855041504 18.306999206542965 L 5.0320000648498535 17.93300056457519 L 5.119999885559082 17.57799911499023 L 5.260000228881836 17.246999740600582 L 5.447000026702881 16.944999694824215 L 5.677999973297119 16.67600059509277 L 5.947000026702881 16.444999694824215 L 6.045513153076172 16.38400077819824 L 6.249000072479248 16.257999420166012 L 6.579999923706055 16.118000030517575 L 6.934999942779541 16.030000686645504 L 7.309999942779541 15.999999999999996 L 16.384000778198242 15.999999999999996 L 32.768001556396484 15.999999999999996 L 49.152000427246094 15.999999999999996 L 51 15.999999999999996 M 2.7920000553131104 53.245998382568345 L 3.13700008392334 53.19100189208983 L 3.4860000610351562 53.013000488281236 L 3.763000011444092 52.73600006103514 L 3.940999984741211 52.38700103759764 L 4.001999855041504 51.999999999999986 L 3.941228151321411 51.61444854736327 L 3.940999984741211 51.61299896240233 L 3.940999984741211 51.61399841308592 L 3.763000011444092 51.26499938964842 L 3.697999954223633 51.20000076293944 L 3.4860000610351562 50.98799896240233 L 3.1442809104919434 50.813713073730455 L 3.13700008392334 50.810001373291 L 2.7920000553131104 50.75500106811522 L 2.75 50.7480010986328 L 2.36299991607666 50.80899810791014 L 2.0139999389648438 50.986999511718736 L 1.8009999990463257 51.20000076293944 L 1.7369999885559082 51.26399993896483 L 1.559000015258789 51.61299896240233 L 1.496999979019165 51.999999999999986 L 1.559000015258789 52.38700103759764 L 1.7369999885559082 52.73600006103514 L 2.0139999389648438 53.013000488281236 L 2.0480000972747803 53.03034210205077 L 2.36299991607666 53.19100189208983 L 2.718790292739868 53.2480010986328 L 2.75 53.25299835205077 L 2.7799999713897705 53.2480010986328 L 2.7920000553131104 53.245998382568345 M 33.57600021362305 19.247999191284176 L 32.768001556396484 19.247999191284176 L 24.576000213623047 19.247999191284176 L 20.423999786376953 19.247999191284176 L 19.41900062561035 19.3120002746582 L 18.437999725341797 19.50300025939941 L 17.506000518798828 19.8169994354248 L 16.64699935913086 20.245000839233395 L 16.384000778198242 20.427419662475582 L 15.880000114440918 20.77700042724609 L 15.225000381469727 21.39999961853027 L 14.697999954223633 22.09900093078613 L 14.312000274658203 22.85600090026855 L 14.07699966430664 23.652999877929684 L 13.998000144958496 24.46899986267089 L 13.998000144958496 24.57600021362304 L 13.998000144958496 32.76800155639648 L 13.998000144958496 39.49999999999999 L 13.998000144958496 49.15200042724608 L 13.998000144958496 57.34400177001952 L 13.998000144958496 65.53600311279295 L 13.998000144958496 73.72799682617186 L 13.998000144958496 79.53099822998045 L 14.07699966430664 80.3470001220703 L 14.312000274658203 81.1439971923828 L 14.697999954223633 81.90100097656249 L 14.712325096130371 81.9199981689453 L 15.225000381469727 82.59999847412108 L 15.880000114440918 83.22299957275389 L 16.384000778198242 83.57257843017577 L 16.64699935913086 83.75499725341795 L 17.506000518798828 84.18299865722655 L 18.437999725341797 84.4970016479492 L 19.41900062561035 84.68800354003905 L 19.67691421508789 84.70468139648436 L 20.151384353637695 84.73536682128905 L 20.423999786376953 84.75299835205077 L 21.365360260009766 84.75299835205077 L 22.12277603149414 84.75299835205077 L 32.768001556396484 84.75299835205077 L 33.57600021362305 84.75299835205077 L 34.58100128173828 84.68800354003905 L 35.5620002746582 84.4970016479492 L 36.49399948120117 84.18299865722655 L 37.35300064086914 83.75499725341795 L 38.119998931884766 83.22299957275389 L 38.775001525878906 82.59999847412108 L 38.9969482421875 82.30561065673827 L 39.28767395019531 81.9199981689453 L 39.301998138427734 81.90100097656249 L 39.6879997253418 81.1439971923828 L 39.92300033569336 80.3470001220703 L 40.00299835205078 79.53099822998045 L 40.00299835205078 73.72799682617186 L 40.00299835205078 65.53600311279295 L 40.00299835205078 54.670349121093736 L 40.00299835205078 51.835651397705064 L 40.00299835205078 49.35351181030272 L 40.00299835205078 49.15200042724608 L 40.00299835205078 40.377998352050774 L 40.00299835205078 32.76800155639648 L 40.00299835205078 24.57600021362304 L 40.00299835205078 24.46899986267089 L 39.92300033569336 23.652999877929684 L 39.6879997253418 22.85600090026855 L 39.301998138427734 22.09900093078613 L 38.775001525878906 21.39999961853027 L 38.119998931884766 20.77700042724609 L 37.69180679321289 20.479999542236325 L 37.35300064086914 20.245000839233395 L 36.49399948120117 19.8169994354248 L 35.5620002746582 19.50300025939941 L 34.58100128173828 19.3120002746582 L 33.57600021362305 19.247999191284176 M 50.04100036621094 51.61299896240233 L 49.862998962402344 51.26399993896483 L 49.58599853515625 50.986999511718736 L 49.23699951171875 50.80899810791014 L 49.152000427246094 50.79560089111327 L 48.849998474121094 50.7480010986328 L 48.4630012512207 50.80899810791014 L 48.11399841308594 50.986999511718736 L 47.83700180053711 51.26399993896483 L 47.659000396728516 51.61299896240233 L 47.59700012207031 51.999999999999986 L 47.659000396728516 52.38700103759764 L 47.83700180053711 52.73600006103514 L 48.11399841308594 53.013000488281236 L 48.4630012512207 53.19100189208983 L 48.849998474121094 53.25299835205077 L 49.152000427246094 53.204616546630845 L 49.23699951171875 53.19100189208983 L 49.58599853515625 53.013000488281236 L 49.862998962402344 52.73600006103514 L 49.89899826049805 52.66600036621092 L 49.91600036621094 52.631000518798814 L 49.933998107910156 52.596000671386705 L 49.95199966430664 52.56200027465819 L 50.00600051879883 52.45700073242186 L 50.01474380493164 52.438999176025376 L 50.02299880981445 52.42200088500975 L 50.04100036621094 52.38700103759764 L 50.041481018066406 52.38395309448241 L 50.04411697387695 52.36723327636717 L 50.10200119018555 51.999999999999986 L 50.04100036621094 51.61299896240233 z" fill="none" stroke="rgb(255,0,0)" stroke-width="0.001mm" />
</svg>