<?xml version="1.0" standalone="no"?>
<!DOCTYPE svg PUBLIC "-//W3C//DTD SVG 1.1//EN"
  "http://www.w3.org/Graphics/SVG/1.1/DTD/svg11.dtd">
<svg width="78.70999908447266mm" height="101.9980010986328mm" viewBox="39.290000915527344 -87.9980010986328 78.70999908447266 101.9980010986328" xmlns="http://www.w3.org/2000/svg" version="1.1">
	<title>svgOutput</title>
	<desc>made with tinkercad</desc>
<path d="M 117 -49.50299835205077 L 111.99700164794922 -49.50299835205077 L 111.99700164794922 -32.76800155639648 L 111.99700164794922 -24.49699974060058 L 117 -24.49699974060058 L 117 1.1102230246251565e-16 L 117 9.999999999999998 L 98.30400085449219 9.999999999999998 L 94.1449966430664 9.999999999999998 L 94.1449966430664 12.999999999999996 L 81.91999816894531 12.999999999999996 L 70.76667022705078 12.999999999999996 L 69.1449966430664 12.999999999999996 L 69.1449966430664 9.999999999999998 L 65.53600311279297 10.000170707702635 L 49.152000427246094 10.000945091247557 L 47.98500061035156 10.001000404357908 L 47.2239990234375 9.963000297546385 L 46.47700119018555 9.852000236511229 L 45.74700164794922 9.66800022125244 L 45.040000915527344 9.414999961853026 L 44.361000061035156 9.093999862670897 L 43.715999603271484 8.708000183105467 L 43.108001708984375 8.25800037384033 L 43.03515625 8.19200038909912 L 42.54399871826172 7.747000217437742 L 42.03300094604492 7.183000087738035 L 41.58300018310547 6.574999809265135 L 41.196998596191406 5.92899990081787 L 40.875999450683594 5.250999927520751 L 40.62300109863281 4.5440001487731925 L 40.43899917602539 3.813999891281127 L 40.327999114990234 3.066999912261962 L 40.290000915527344 2.3059999942779537 L 40.290000915527344 1.1102230246251565e-16 L 40.290000915527344 -65.53600311279295 L 40.290000915527344 -76.30400085449217 L 40.44599914550781 -77.85500335693358 L 40.89500045776367 -79.2990036010742 L 41.604000091552734 -80.60600280761717 L 42.54399871826172 -81.74500274658202 L 43.68299865722656 -82.68499755859374 L 44.9900016784668 -83.3939971923828 L 46.433998107910156 -83.84300231933592 L 47.98500061035156 -83.99900054931639 L 65.53600311279297 -83.9998321533203 L 69.1449966430664 -83.99999999999999 L 69.1449966430664 -86.9980010986328 L 69.70206451416016 -86.9980010986328 L 81.91999816894531 -86.9980010986328 L 94.1449966430664 -86.9980010986328 L 94.1449966430664 -83.99999999999999 L 98.30400085449219 -83.99999999999999 L 117 -83.99999999999999 L 117 -65.53600311279295 L 117 -49.50299835205077 M 91.22000122070312 -44.10200119018554 L 91.17222595214844 -44.10200119018554 L 91.03836822509766 -44.10200119018554 L 90.82994079589844 -44.10200119018554 L 90.56157684326172 -44.10200119018554 L 90.23249053955078 -44.10200119018554 L 88.76899719238281 -44.10200119018554 L 88.76899719238281 -32.76800155639648 L 88.76899719238281 -29.896999359130852 L 91.22100067138672 -29.896999359130852 L 90.9540023803711 -29.6550006866455 L 90.427001953125 -29.072999954223626 L 89.95899963378906 -28.443000793457024 L 89.55500030517578 -27.768999099731438 L 89.21900177001953 -27.059000015258782 L 88.95500183105469 -26.31999969482421 L 88.76899719238281 -25.57794761657714 L 88.76399993896484 -25.558000564575188 L 88.64900207519531 -24.781999588012688 L 88.6387710571289 -24.57600021362304 L 88.62699890136719 -24.33900070190429 L 88.61000061035156 -23.996999740600582 L 88.64900207519531 -23.212999343872067 L 88.76399993896484 -22.4370002746582 L 88.95500183105469 -21.674999237060543 L 89.21306610107422 -20.95260620117187 L 89.21900177001953 -20.936000823974606 L 89.5469970703125 -20.243000030517575 L 89.55500030517578 -20.225999832153317 L 89.95899963378906 -19.552000045776364 L 90.427001953125 -18.922000885009762 L 90.9540023803711 -18.340000152587887 L 91.53600311279297 -17.812999725341793 L 92.16699981689453 -17.34499931335449 L 92.83999633789062 -16.940999984741207 L 93.55000305175781 -16.60600090026855 L 94.169921875 -16.38400077819824 L 94.28363800048828 -16.34327888488769 L 94.29000091552734 -16.34099960327148 L 94.56700134277344 -16.271999359130856 L 95.052001953125 -16.14999961853027 L 95.0719985961914 -16.146999359130856 L 95.8280029296875 -16.034999847412106 L 96.55999755859375 -15.999999999999996 L 96.61299896240234 -15.996999740600582 L 96.61783599853516 -15.997234344482418 L 97.39700317382812 -16.034999847412106 L 97.9749984741211 -16.120000839233395 L 97.9749984741211 -16.063014984130856 L 97.9749984741211 -15.932342529296871 L 97.9749984741211 -15.919905662536618 L 97.9749984741211 -15.716925621032711 L 97.9749984741211 -15.71154975891113 L 97.9749984741211 -15.41473007202148 L 97.9749984741211 -15.02137184143066 L 97.9749984741211 -14.295999526977536 L 98.30400085449219 -14.295999526977536 L 106.44499969482422 -14.295999526977536 L 106.44499969482422 -32.76800155639648 L 106.44499969482422 -49.50299835205077 L 106.44499969482422 -59.701999664306626 L 98.30400085449219 -59.701999664306626 L 97.9749984741211 -59.701999664306626 L 97.9749984741211 -58.06858825683592 L 97.9749984741211 -57.87799835205077 L 97.39700317382812 -57.96300125122069 L 96.61697387695312 -58.00180053710936 L 96.61299896240234 -58.00199890136717 L 96.55999755859375 -57.99900054931639 L 95.8280029296875 -57.96300125122069 L 95.06377410888672 -57.84974288940428 L 95.052001953125 -57.84799957275389 L 94.56700134277344 -57.72600173950194 L 94.29000091552734 -57.657001495361314 L 93.55000305175781 -57.39199829101561 L 93.44827270507812 -57.34400177001952 L 92.94599914550781 -57.1069984436035 L 92.83999633789062 -57.056999206542955 L 92.16699981689453 -56.65299987792967 L 91.53600311279297 -56.185001373291 L 90.9540023803711 -55.65800094604491 L 90.427001953125 -55.07600021362303 L 89.95899963378906 -54.4459991455078 L 89.55500030517578 -53.771999359130845 L 89.21900177001953 -53.06200027465819 L 88.95500183105469 -52.32300186157225 L 88.76399993896484 -51.561000823974595 L 88.64900207519531 -50.784999847412095 L 88.61000061035156 -50.00099945068358 L 88.64900207519531 -49.21599960327147 L 88.65835571289062 -49.15200042724608 L 88.69300079345703 -48.91500091552733 L 88.76399993896484 -48.43999862670897 L 88.95500183105469 -47.67800140380859 L 89.21900177001953 -46.93899917602538 L 89.55500030517578 -46.22900009155273 L 89.95899963378906 -45.555000305175774 L 90.427001953125 -44.92499923706054 L 90.9540023803711 -44.342998504638665 L 91.22000122070312 -44.10200119018554 M 82.89700317382812 -81.98500061035155 L 82.77400207519531 -82.36299896240233 L 82.54100036621094 -82.68299865722655 L 82.22000122070312 -82.91600036621092 L 81.91999816894531 -83.01388549804686 L 81.88899993896484 -83.0240020751953 L 81.84300231933594 -83.03900146484374 L 81.4469985961914 -83.03900146484374 L 81.06999969482422 -82.91600036621092 L 80.7490005493164 -82.68299865722655 L 80.51599884033203 -82.36299896240233 L 80.39299774169922 -81.98500061035155 L 80.39299774169922 -81.9199981689453 L 80.39299774169922 -81.58899688720702 L 80.51599884033203 -81.21199798583983 L 80.7490005493164 -80.89099884033202 L 81.06999969482422 -80.65799713134764 L 81.4469985961914 -80.53500366210936 L 81.84300231933594 -80.53500366210936 L 81.88899993896484 -80.5500030517578 L 81.91999816894531 -80.5601119995117 L 82.22000122070312 -80.65799713134764 L 82.54100036621094 -80.89099884033202 L 82.77400207519531 -81.21199798583983 L 82.89700317382812 -81.58899688720702 L 82.89700317382812 -81.98500061035155 M 82.77400207519531 8.788000106811522 L 82.89700317382812 8.411000251770018 L 82.89700317382812 8.015000343322752 L 82.77400207519531 7.637000083923338 L 82.54100036621094 7.316999912261961 L 82.22000122070312 7.084000110626219 L 81.91999816894531 6.9861221313476545 L 81.84300231933594 6.960999965667723 L 81.4469985961914 6.960999965667723 L 81.06999969482422 7.084000110626219 L 80.7490005493164 7.316999912261961 L 80.51599884033203 7.637000083923338 L 80.39299774169922 8.015000343322752 L 80.39299774169922 8.411000251770018 L 80.51599884033203 8.788000106811522 L 80.7490005493164 9.10900020599365 L 81.06999969482422 9.342000007629393 L 81.4469985961914 9.465000152587889 L 81.84300231933594 9.465000152587889 L 81.88999938964844 9.449999809265135 L 81.91999816894531 9.43978691101074 L 81.93699645996094 9.434000015258787 L 82.03099822998047 9.404000282287596 L 82.0790023803711 9.387999534606932 L 82.1259994506836 9.373000144958494 L 82.1729965209961 9.357000350952147 L 82.22000122070312 9.342000007629393 L 82.22254943847656 9.340150833129881 L 82.54100036621094 9.10900020599365 L 82.77400207519531 8.788000106811522 M 89.95404052734375 -72.50199890136717 L 81.91999816894531 -72.50199890136717 L 69.14299774169922 -72.50199890136717 L 69.14299774169922 -69.50099945068358 L 81.91999816894531 -69.50099945068358 L 92.13914489746094 -69.50099945068358 L 94.1449966430664 -69.50099945068358 L 94.14800262451172 -69.50099945068358 L 94.14800262451172 -72.50199890136717 L 94.1449966430664 -72.50199890136717 L 89.95404052734375 -72.50199890136717 M 94.14800262451172 -1.4969999790191646 L 94.14800262451172 -4.497000217437743 L 69.14299774169922 -4.497000217437743 L 69.14299774169922 -1.4969999790191646 L 94.14800262451172 -1.4969999790191646 z" fill="none" stroke="rgb(255,0,0)" stroke-width="0.001mm" />
</svg>