<?xml version="1.0" standalone="no"?>
<!DOCTYPE svg PUBLIC "-//W3C//DTD SVG 1.1//EN"
  "http://www.w3.org/Graphics/SVG/1.1/DTD/svg11.dtd">
<svg width="102mm" height="70.99999999999999mm" viewBox="-104 14.999999999999996 102 70.99999999999999" xmlns="http://www.w3.org/2000/svg" version="1.1">
	<title>svgOutput</title>
	<desc>made with tinkercad</desc>
<path d="M -66.74600219726562 72.99999999999999 L -75.00399780273438 72.99999999999999 L -75.00399780273438 75.99999999999999 L -75.06400299072266 76.68599700927733 L -75.24400329589844 77.36599731445311 L -75.54199981689453 78.03199768066405 L -75.95600128173828 78.67900085449217 L -76.4800033569336 79.30100250244139 L -77.11100006103516 79.88899993896483 L -77.84100341796875 80.44200134277342 L -78.66500091552734 80.94999694824217 L -79.5739974975586 81.41200256347655 L -80.55899810791016 81.8199996948242 L -81.61199951171875 82.1740036010742 L -81.91999816894531 82.25537109374999 L -82.72100067138672 82.46700286865233 L -83.8759994506836 82.69999694824217 L -84.36299896240234 82.76699829101561 L -85.06500244140625 82.86599731445311 L -85.1095199584961 82.8697052001953 L -86.27899932861328 82.96700286865233 L -87.50399780273438 82.99999999999999 L -88.72899627685547 82.96700286865233 L -89.94300079345703 82.86599731445311 L -91.13300323486328 82.69999694824217 L -92.28800201416016 82.46700286865233 L -92.55500030517578 82.39700317382811 L -93.39700317382812 82.1740036010742 L -94.15182495117188 81.9199981689453 L -94.4489974975586 81.8199996948242 L -95.43399810791016 81.41100311279295 L -96.34300231933594 80.94999694824217 L -97 80.54496002197264 L -97.16699981689453 80.44200134277342 L -97.89700317382812 79.88899993896483 L -98.30400085449219 79.5090866088867 L -98.52799987792969 79.3000030517578 L -99.0530014038086 78.67900085449217 L -99.46600341796875 78.03199768066405 L -99.76399993896484 77.36599731445311 L -99.94400024414062 76.68599700927733 L -100.00399780273438 75.99999999999999 L -100.00399780273438 72.99999999999999 L -103 73.00099945068358 L -103 65.53600311279295 L -103 36.74858093261718 L -103 36.748001098632805 L -98.46299743652344 41.283000946044915 L -97 39.81999969482421 L -96.34300231933594 39.16299819946288 L -88.2879638671875 47.36425018310546 L -78.8239974975586 56.999999999999986 L -80.78600311279297 58.960998535156236 L -75.49462127685547 64.25199890136717 L -74.21053314208984 65.53600311279295 L -66.74600219726562 72.99999999999999 M -78.68099975585938 18.13400077819824 L -78.63648223876953 18.130296707153317 L -77.46700286865234 18.03300094604492 L -76.24199676513672 17.999999999999996 L -75.01699829101562 18.03300094604492 L -73.8030014038086 18.13400077819824 L -73.72799682617188 18.144462585449215 L -72.61299896240234 18.299999237060543 L -71.45800018310547 18.53300094604492 L -71.19100189208984 18.603000640869137 L -70.3489990234375 18.826000213623043 L -69.2969970703125 19.180000305175778 L -68.31199645996094 19.589000701904293 L -67.40299987792969 20.049999237060543 L -66.5790023803711 20.55800056457519 L -65.8489990234375 21.111000061035153 L -65.53600311279297 21.40316581726074 L -65.21800231933594 21.70000076293945 L -64.69300079345703 22.32099914550781 L -64.27999877929688 22.9680004119873 L -63.981998443603516 23.63400077819824 L -63.801998138427734 24.313999176025384 L -63.742000579833984 24.999999999999993 L -63.742000579833984 27.999999999999993 L -62 27.999418258666985 L -60.74599838256836 27.9990005493164 L -60.74599838256836 31.59600067138671 L -60.74599838256836 32.76800155639648 L -60.74599838256836 64.2514190673828 L -60.74599838256836 64.25199890136717 L -62 62.998554229736314 L -65.28299713134766 59.716999053955064 L -67.40299987792969 61.837001800537095 L -75.45803833007812 53.63574981689452 L -84.9219970703125 43.99999999999999 L -82.96440124511719 42.04339599609374 L -82.95999908447266 42.03900146484374 L -88.25137329101562 36.748001098632805 L -92.23165893554688 32.76800155639648 L -97 27.999999999999993 L -88.74199676513672 27.999999999999993 L -88.74199676513672 24.999999999999993 L -88.68199920654297 24.313999176025384 L -88.50199890136719 23.63400077819824 L -88.2040023803711 22.9680004119873 L -87.79000091552734 22.32099914550781 L -87.26599884033203 21.698999404907223 L -86.63500213623047 21.111000061035153 L -85.90499877929688 20.55800056457519 L -85.08100128173828 20.049999237060543 L -84.1719970703125 19.587999343872067 L -83.18699645996094 19.180000305175778 L -82.13400268554688 18.826000213623043 L -81.91999816894531 18.769460678100582 L -81.0250015258789 18.53300094604492 L -79.87000274658203 18.299999237060543 L -79.38300323486328 18.23299980163574 L -78.68099975585938 18.13400077819824 M -62 81.99999999999999 L -56.40399932861328 76.40399932861327 L -49.5 69.49999999999999 L -49.152000427246094 69.15200042724608 L -49 68.99999999999999 L -45.840999603271484 65.84100341796874 L -43.71900177001953 67.96299743652342 L -41.29225540161133 65.53600311279295 L -40.959999084472656 65.20371246337889 L -37.19668960571289 61.43999862670897 L -34.2400016784668 58.48300170898436 L -33.10100173950195 57.34400177001952 L -32.768001556396484 57.01100158691405 L -26.038000106811523 50.280998229980455 L -27.16699981689453 49.15200042724608 L -28.15999984741211 48.1590003967285 L -20.960554122924805 40.95999908447265 L -16.384000778198242 36.38372802734374 L -12.768047332763672 32.76800155639648 L -12.288000106811523 32.28798294067382 L -11.996999740600586 31.99699974060058 L -11.894000053405762 31.903999328613274 L -11.784000396728516 31.822999954223626 L -11.666999816894531 31.753999710083 L -11.545000076293945 31.697000503540032 L -11.416999816894531 31.652000427246087 L -11.28600025177002 31.621000289916985 L -11.152000427246094 31.601999282836907 L -11.017000198364258 31.59600067138671 L -10.880000114440918 31.60499954223632 L -10.796106338500977 31.618570327758782 L -10.744000434875488 31.627000808715813 L -10.239999771118164 31.734621047973626 L -9.88700008392334 31.809999465942376 L -9.737000465393066 31.853000640869134 L -9.595999717712402 31.91600036621093 L -9.467000007629395 31.996000289916985 L -9.35099983215332 32.09199905395507 L -9.25 32.20199966430663 L -9.163000106811523 32.325000762939446 L -9.093999862670898 32.45800018310546 L -9.043000221252441 32.601001739501946 L -9.01099967956543 32.75099945068359 L -9.009808540344238 32.76800155639648 L -9 32.908000946044915 L -9 49.15200042724608 L -9 65.53600311279295 L -9 68.99999999999999 L -9 81.99999999999999 L -24.5 81.99999999999999 L -24.5 84.99999999999999 L -32.768001556396484 84.99999999999999 L -49.152000427246094 84.99999999999999 L -49.5 84.99999999999999 L -49.5 81.99999999999999 L -56.40399932861328 81.99999999999999 L -62 81.99999999999999 M -38.12799835205078 79.6750030517578 L -38.12874984741211 79.6750030517578 L -38.12900161743164 79.6750030517578 L -38.23500061035156 79.99999999999999 L -38.25199890136719 80.05200195312499 L -38.25199890136719 80.44799804687499 L -38.12900161743164 80.82499694824217 L -37.895999908447266 81.14600372314452 L -37.61600112915039 81.34999847412108 L -37.57600021362305 81.37899780273436 L -37.198001861572266 81.50199890136717 L -36.86399841308594 81.50199890136717 L -36.801998138427734 81.50199890136717 L -36.42499923706055 81.37899780273436 L -36.104000091552734 81.14600372314452 L -35.87099838256836 80.82499694824217 L -35.74800109863281 80.44799804687499 L -35.74800109863281 80.05212402343749 L -35.74800109863281 80.05200195312499 L -35.76499938964844 79.99999999999999 L -35.87099838256836 79.6750030517578 L -36.104000091552734 79.35399627685545 L -36.42499923706055 79.12100219726561 L -36.801998138427734 78.9980010986328 L -36.86399841308594 78.9980010986328 L -37.198001861572266 78.9980010986328 L -37.57600021362305 79.12100219726561 L -37.61600112915039 79.15000152587889 L -37.895999908447266 79.35399627685545 L -38.12799835205078 79.6750030517578 M -3.496000051498413 16.350999832153317 L -3.4686896800994873 16.38400077819824 L -3.4000000953674316 16.466999053955075 L -3.319999933242798 16.596000671386715 L -3.256999969482422 16.736999511718746 L -3.2139999866485596 16.88699913024902 L -3.0309998989105225 17.74399948120117 L -3.009000062942505 17.879999160766598 L -3 18.017000198364254 L -3.00600004196167 18.15200042724609 L -3.0250000953674316 18.2859992980957 L -3.055999994277954 18.416999816894528 L -3.1010000705718994 18.54500007629394 L -3.1579999923706055 18.666999816894528 L -3.2269999980926514 18.784000396728512 L -3.308000087738037 18.89399909973144 L -3.4010000228881836 18.996999740600582 L -16.384000778198242 31.980802536010735 L -17.1711483001709 32.76800155639648 L -19.562999725341797 35.1599998474121 L -21.684999465942383 33.03799819946288 L -24.30951690673828 35.662517547607415 L -29.60700035095215 40.95999908447265 L -29.886999130249023 41.24000167846679 L -32.768001556396484 44.12069702148437 L -37.799835205078125 49.15200042724608 L -39.367000579833984 50.71900177001952 L -37.244998931884766 52.84099960327147 L -40.90399932861328 56.499999999999986 L -41.74800109863281 57.34400177001952 L -49.152000427246094 64.7480010986328 L -49.939998626708984 65.53600311279295 L -53.40399932861328 68.99999999999999 L -53.40399932861328 65.53600311279295 L -53.40399932861328 56.499999999999986 L -56.40399932861328 56.499999999999986 L -56.40399932861328 49.15200042724608 L -56.40399932861328 45.25199890136718 L -56.40399932861328 45.05599975585937 L -56.40399932861328 40.95999908447265 L -56.40399932861328 32.76800155639648 L -56.40399932861328 31.59600067138671 L -56.40399932861328 31.499999999999993 L -53.40399932861328 31.499999999999993 L -53.40399932861328 15.999999999999996 L -32.768001556396484 15.999999999999996 L -16.384000778198242 15.999999999999996 L -4.311999797821045 15.999999999999996 L -4.15500020980835 16.010999679565426 L -4.005000114440918 16.04299926757812 L -3.861999988555908 16.093999862670895 L -3.7290000915527344 16.16300010681152 L -3.6059999465942383 16.249999999999996 L -3.496000051498413 16.350999832153317 M -51.07899856567383 45.127998352050774 L -50.97937774658203 45.05599975585937 L -50.757999420166016 44.89599990844726 L -50.55400085449219 44.61600112915038 L -50.525001525878906 44.57600021362304 L -50.402000427246094 44.19800186157226 L -50.402000427246094 43.80199813842773 L -50.525001525878906 43.42499923706054 L -50.757999420166016 43.10400009155273 L -50.8902587890625 43.00799942016601 L -51.07899856567383 42.87099838256835 L -51.40399932861328 42.76499938964843 L -51.45600128173828 42.748001098632805 L -51.45612335205078 42.748001098632805 L -51.85200119018555 42.748001098632805 L -52.229000091552734 42.87099838256835 L -52.41774368286133 43.00799942016601 L -52.54999923706055 43.10400009155273 L -52.78300094604492 43.42499923706054 L -52.90599822998047 43.80199813842773 L -52.90599822998047 44.19800186157226 L -52.78300094604492 44.57600021362304 L -52.75400161743164 44.61600112915038 L -52.54999923706055 44.89599990844726 L -52.32957077026367 45.05599975585937 L -52.229000091552734 45.12900161743163 L -51.85200119018555 45.25199890136718 L -51.45600128173828 45.25199890136718 L -51.40399932861328 45.235000610351555 L -51.07899856567383 45.12900161743163 L -51.07899856567383 45.1287498474121 L -51.07899856567383 45.127998352050774 M -33.375 62.19200134277342 L -33.202999114990234 62.2480010986328 L -33.202232360839844 62.2480010986328 L -32.805999755859375 62.2480010986328 L -32.768001556396484 62.23562622070311 L -32.63399887084961 62.19200134277342 L -32.42900085449219 62.124999999999986 L -32.108001708984375 61.89199829101561 L -31.875 61.5709991455078 L -31.753000259399414 61.19400024414061 L -31.753000259399414 60.798000335693345 L -31.875 60.4199981689453 L -32.108001708984375 60.09999847412108 L -32.42900085449219 59.86700057983397 L -32.768001556396484 59.75639724731444 L -32.805999755859375 59.74399948120116 L -33.202999114990234 59.74399948120116 L -33.52000045776367 59.84799957275389 L -33.58000183105469 59.86700057983397 L -33.581722259521484 59.86824798583983 L -33.9010009765625 60.09999847412108 L -34.13399887084961 60.4199981689453 L -34.25600051879883 60.798000335693345 L -34.25600051879883 61.19400024414061 L -34.1763916015625 61.43999862670897 L -34.13399887084961 61.5709991455078 L -33.9010009765625 61.89199829101561 L -33.58000183105469 62.124999999999986 L -33.52000045776367 62.14500045776366 L -33.375 62.19200134277342 M -32.597999572753906 38.752998352050774 L -32.768001556396484 38.80801391601562 L -32.974998474121094 38.87499999999999 L -33.29600143432617 39.10800170898437 L -33.52899932861328 39.42900085449218 L -33.59600067138672 39.6339988708496 L -33.652000427246094 39.80599975585937 L -33.652000427246094 40.20223236083984 L -33.652000427246094 40.20299911499023 L -33.59600067138672 40.37499999999999 L -33.54899978637695 40.520000457763665 L -33.52899932861328 40.58000183105468 L -33.29600143432617 40.90100097656249 L -32.974998474121094 41.1339988708496 L -32.768001556396484 41.20098495483398 L -32.597999572753906 41.25600051879882 L -32.20199966430664 41.25600051879882 L -31.823999404907227 41.1339988708496 L -31.58502960205078 40.95999908447265 L -31.503999710083008 40.90100097656249 L -31.272249221801758 40.58172225952148 L -31.270999908447266 40.58000183105468 L -31.25200080871582 40.520000457763665 L -31.148000717163086 40.20299911499023 L -31.148000717163086 39.80599975585937 L -31.270999908447266 39.42900085449218 L -31.503999710083008 39.10800170898437 L -31.823999404907227 38.87499999999999 L -32.20199966430664 38.752998352050774 L -32.597999572753906 38.752998352050774 z" fill="none" stroke="rgb(255,0,0)" stroke-width="0.001mm" />
</svg>