<?xml version="1.0" standalone="no"?>
<!DOCTYPE svg PUBLIC "-//W3C//DTD SVG 1.1//EN"
  "http://www.w3.org/Graphics/SVG/1.1/DTD/svg11.dtd">
<svg width="101.99800109863281mm" height="96.9970016479492mm" viewBox="-94.99800109863281 -85.9970016479492 101.99800109863281 96.9970016479492" xmlns="http://www.w3.org/2000/svg" version="1.1">
	<title>svgOutput</title>
	<desc>made with tinkercad</desc>
<path d="M 5.979000091552734 -36.84199905395507 L 5.916999816894531 -36.42800140380859 L 5.815999984741211 -36.02399826049804 L 5.676000118255615 -35.631999969482415 L 5.498000144958496 -35.256999969482415 L 5.283999919891357 -34.89899826049804 L 5.034999847412109 -34.56299972534179 L 4.751999855041504 -34.24999999999999 L 4.440000057220459 -33.96699905395507 L 4.103000164031982 -33.717998504638665 L 4.0960001945495605 -33.71380233764648 L 3.746000051498413 -33.50400161743163 L 3.369999885559082 -33.32699966430663 L 2.9790000915527344 -33.1860008239746 L 2.575000047683716 -33.08499908447265 L 2.1610000133514404 -33.022998809814446 L 1.7400000095367432 -33.00199890136718 L 0 -33.00199890136718 L -8.001999855041504 -33.00199890136718 L -8.001999855041504 -32.76800155639648 L -8.001999855041504 -16.38400077819824 L -8.001999855041504 1.1102230246251565e-16 L -8.001999855041504 6.998000144958494 L -8.001999855041504 9.999999999999998 L -31.496999740600586 9.999999999999998 L -31.496999740600586 6.998000144958494 L -32.768001556396484 6.998000144958494 L -40.959999084472656 6.998000144958494 L -45.651336669921875 6.998000144958494 L -48.37810516357422 6.998000144958494 L -49.152000427246094 6.998000144958494 L -56.50199890136719 6.998000144958494 L -56.50199890136719 9.999999999999998 L -65.53600311279297 9.999999999999998 L -79.99800109863281 9.999999999999998 L -79.99800109863281 1.1102230246251565e-16 L -79.99800109863281 -8.19200038909912 L -79.99800109863281 -16.38400077819824 L -79.99800109863281 -24.57600021362304 L -79.99800109863281 -32.76800155639648 L -79.99800109863281 -33.00199890136718 L -81.91999816894531 -33.00199890136718 L -89.73799896240234 -33.00199890136718 L -90.11199951171875 -33.039924621582024 L -90.59600067138672 -33.08900070190429 L -91.39600372314453 -33.3370018005371 L -92.12000274658203 -33.72999954223632 L -92.75 -34.24999999999999 L -93.2699966430664 -34.88100051879882 L -93.66300201416016 -35.60400009155273 L -93.91200256347656 -36.403999328613274 L -93.99800109863281 -37.26300048828124 L -93.99800109863281 -40.95999908447265 L -93.99800109863281 -49.15200042724608 L -93.99800109863281 -51.997001647949205 L -93.99800109863281 -52.4980010986328 L -90.99800109863281 -52.4980010986328 L -90.99800109863281 -57.34400177001952 L -90.99800109863281 -64.64645385742186 L -90.99800109863281 -65.53600311279295 L -90.99800109863281 -66.24900054931639 L -90.99800109863281 -67.27965545654295 L -90.99800109863281 -77.49900054931639 L -90.99800109863281 -77.50099945068358 L -93.99800109863281 -77.50099945068358 L -93.99800109863281 -79.9970016479492 L -93.99800109863281 -84.9970016479492 L 0 -84.9970016479492 L 5.998000144958496 -84.9970016479492 L 5.998000144958496 -79.9970016479492 L 5.998000144958496 -77.50099945068358 L 2.997999906539917 -77.50099945068358 L 2.997999906539917 -65.53600311279295 L 2.997999906539917 -59.98168563842772 L 2.997999906539917 -59.8470001220703 L 2.997999906539917 -52.49900054931639 L 5.34935998916626 -52.49900054931639 L 5.450933933258057 -52.49900054931639 L 5.998000144958496 -52.49900054931639 L 5.998065948486328 -51.997001647949205 L 5.998219013214111 -50.829502105712876 L 5.998266220092773 -50.47116851806639 L 5.998439311981201 -49.15200042724608 L 5.999514579772949 -40.95999908447265 L 6 -37.26300048828124 L 5.98009729385376 -36.86399841308593 L 5.979000091552734 -36.84199905395507 M -28.450000762939453 -44.74999999999999 L -28.672000885009766 -44.71443557739257 L -28.836999893188477 -44.68799972534179 L -29.18600082397461 -44.509998321533196 L -29.46299934387207 -44.23300170898437 L -29.641000747680664 -43.8839988708496 L -29.70199966430664 -43.49700164794921 L -29.655000686645508 -43.1969985961914 L -29.641000747680664 -43.110000610351555 L -29.46299934387207 -42.761001586914055 L -29.18600082397461 -42.48400115966796 L -28.836999893188477 -42.30599975585937 L -28.672000885009766 -42.27956771850585 L -28.450000762939453 -42.243999481201165 L -28.062999725341797 -42.30599975585937 L -27.714000701904297 -42.48400115966796 L -27.437000274658203 -42.761001586914055 L -27.259000778198242 -43.110000610351555 L -27.2450008392334 -43.1969985961914 L -27.19700050354004 -43.49700164794921 L -27.259000778198242 -43.8839988708496 L -27.437000274658203 -44.23300170898437 L -27.714000701904297 -44.509998321533196 L -28.062999725341797 -44.68799972534179 L -28.450000762939453 -44.74999999999999 M -35.75199890136719 -43.49700164794921 L -35.70500183105469 -43.1969985961914 L -35.691001892089844 -43.110000610351555 L -35.63897705078125 -43.00799942016601 L -35.51300048828125 -42.761001586914055 L -35.236000061035156 -42.48400115966796 L -34.887001037597656 -42.30599975585937 L -34.5 -42.243999481201165 L -34.112998962402344 -42.30599975585937 L -33.763999938964844 -42.48400115966796 L -33.48699951171875 -42.761001586914055 L -33.36102294921875 -43.00799942016601 L -33.308998107910156 -43.110000610351555 L -33.29499816894531 -43.1969985961914 L -33.24700164794922 -43.49700164794921 L -33.308998107910156 -43.8839988708496 L -33.48699951171875 -44.23300170898437 L -33.763999938964844 -44.509998321533196 L -34.112998962402344 -44.68799972534179 L -34.5 -44.74999999999999 L -34.887001037597656 -44.68799972534179 L -35.236000061035156 -44.509998321533196 L -35.51300048828125 -44.23300170898437 L -35.691001892089844 -43.8839988708496 L -35.75199890136719 -43.49700164794921 M -43.00199890136719 -48.999999999999986 L -43.00199890136719 -40.95999908447265 L -43.00199890136719 -37.993999481201165 L -36.99700164794922 -37.993999481201165 L -36.99700164794922 -40.95999908447265 L -36.99700164794922 -45.05599975585937 L -36.99700164794922 -48.999999999999986 L -40.959999084472656 -48.999999999999986 L -43.00199890136719 -48.999999999999986 M -50.17499923706055 -48.712001800537095 L -50.17599868774414 -48.71311569213866 L -50.22700119018555 -48.77000045776366 L -50.28499984741211 -48.82199859619139 L -50.34700012207031 -48.868000030517564 L -50.41299819946289 -48.90800094604491 L -50.481998443603516 -48.93999862670897 L -50.55500030517578 -48.96599960327147 L -50.62900161743164 -48.98500061035155 L -50.70600128173828 -48.995998382568345 L -50.78300094604492 -48.999999999999986 L -51.20000076293945 -48.999999999999986 L -53.24800109863281 -48.999999999999986 L -57.34400177001953 -48.999999999999986 L -65.53600311279297 -48.999999999999986 L -79.99800109863281 -48.999999999999986 L -81.91999816894531 -48.999999999999986 L -86.01599884033203 -48.999999999999986 L -88.06400299072266 -48.999999999999986 L -88.21700286865234 -48.999999999999986 L -88.29499816894531 -48.995998382568345 L -88.37100219726562 -48.98500061035155 L -88.44599914550781 -48.96599960327147 L -88.51799774169922 -48.93999862670897 L -88.58699798583984 -48.90800094604491 L -88.65299987792969 -48.868000030517564 L -88.71499633789062 -48.82199859619139 L -88.77300262451172 -48.77000045776366 L -88.82499694824219 -48.712001800537095 L -88.87100219726562 -48.65000152587889 L -88.87705993652344 -48.63999938964842 L -88.91100311279297 -48.58399963378905 L -88.94300079345703 -48.51499938964842 L -88.96900177001953 -48.44300079345702 L -88.98799896240234 -48.368000030517564 L -88.9990005493164 -48.29199981689452 L -89.00299835205078 -48.21400070190428 L -89.00299835205078 -48.12799835205077 L -89.00299835205078 -47.10400009155273 L -89.00299835205078 -45.05599975585937 L -89.00299835205078 -40.95999908447265 L -89.00299835205078 -38.91199874877929 L -89.00299835205078 -38.77999877929687 L -88.9990005493164 -38.70199966430663 L -88.98799896240234 -38.62599945068359 L -88.96900177001953 -38.55099868774413 L -88.94300079345703 -38.47900009155273 L -88.91100311279297 -38.4099998474121 L -88.90493774414062 -38.4000015258789 L -88.87100219726562 -38.344001770019524 L -88.82499694824219 -38.28200149536132 L -88.77300262451172 -38.22399902343749 L -88.71499633789062 -38.17200088500976 L -88.65299987792969 -38.12599945068359 L -88.58699798583984 -38.0870018005371 L -88.51799774169922 -38.05400085449218 L -88.44599914550781 -38.02799987792968 L -88.37100219726562 -38.0089988708496 L -88.29499816894531 -37.998001098632805 L -88.21700286865234 -37.993999481201165 L -88.06400299072266 -37.993999481201165 L -86.01599884033203 -37.993999481201165 L -81.91999816894531 -37.993999481201165 L -79.99800109863281 -37.993999481201165 L -65.53600311279297 -37.993999481201165 L -57.34400177001953 -37.993999481201165 L -53.24800109863281 -37.993999481201165 L -51.20000076293945 -37.993999481201165 L -50.78300094604492 -37.993999481201165 L -50.70600128173828 -37.998001098632805 L -50.62900161743164 -38.0089988708496 L -50.55500030517578 -38.02799987792968 L -50.481998443603516 -38.05400085449218 L -50.41299819946289 -38.0870018005371 L -50.34700012207031 -38.12599945068359 L -50.28499984741211 -38.17200088500976 L -50.22700119018555 -38.22399902343749 L -50.17599868774414 -38.28088378906249 L -50.17499923706055 -38.28200149536132 L -50.12900161743164 -38.344001770019524 L -50.09000015258789 -38.4099998474121 L -50.05699920654297 -38.47900009155273 L -50.03099822998047 -38.55099868774413 L -50.012001037597656 -38.62599945068359 L -50.000999450683594 -38.70199966430663 L -49.99700164794922 -38.77999877929687 L -49.99700164794922 -38.91199874877929 L -49.99700164794922 -40.95999908447265 L -49.99700164794922 -45.05599975585937 L -49.99700164794922 -47.10400009155273 L -49.99700164794922 -48.12799835205077 L -49.99700164794922 -48.21400070190428 L -50.000999450683594 -48.29199981689452 L -50.012001037597656 -48.368000030517564 L -50.03099822998047 -48.44300079345702 L -50.05699920654297 -48.51499938964842 L -50.09000015258789 -48.58399963378905 L -50.12900161743164 -48.65000152587889 L -50.17499923706055 -48.712001800537095 M -21.17300033569336 -20.55100059509277 L -21.440000534057617 -20.593999862670895 L -21.49799919128418 -20.603000640869137 L -21.82200050354004 -20.55100059509277 L -21.96161651611328 -20.479999542236325 L -22.114999771118164 -20.40200042724609 L -22.347000122070312 -20.17000007629394 L -22.464000701904297 -19.940000534057614 L -22.496000289916992 -19.877000808715817 L -22.527999877929688 -19.677000045776364 L -22.54800033569336 -19.552000045776364 L -22.527999877929688 -19.42738533020019 L -22.496000289916992 -19.228000640869137 L -22.464000701904297 -19.16500091552734 L -22.347000122070312 -18.93499946594238 L -22.114999771118164 -18.70299911499023 L -21.954999923706055 -18.62100028991699 L -21.82200050354004 -18.552999496459957 L -21.49799919128418 -18.502000808715817 L -21.17300033569336 -18.552999496459957 L -21.040000915527344 -18.62100028991699 L -20.8799991607666 -18.70299911499023 L -20.648000717163086 -18.93499946594238 L -20.499000549316406 -19.228000640869137 L -20.479999542236328 -19.34638404846191 L -20.44700050354004 -19.552000045776364 L -20.479999542236328 -19.75824928283691 L -20.499000549316406 -19.877000808715817 L -20.648000717163086 -20.17000007629394 L -20.8799991607666 -20.40200042724609 L -21.033382415771484 -20.479999542236325 L -21.17300033569336 -20.55100059509277 M -22.347000122070312 -2.164999961853027 L -22.406517028808594 -2.04800009727478 L -22.464000701904297 -1.9349999427795406 L -22.496000289916992 -1.8719999790191646 L -22.54800033569336 -1.5479999780654903 L -22.496000289916992 -1.223000049591064 L -22.464000701904297 -1.1599999666213985 L -22.347000122070312 -0.930000007152557 L -22.114999771118164 -0.6980000138282774 L -21.82200050354004 -0.549000024795532 L -21.49799919128418 -0.49799999594688393 L -21.17300033569336 -0.549000024795532 L -20.8799991607666 -0.6980000138282774 L -20.648000717163086 -0.930000007152557 L -20.499000549316406 -1.223000049591064 L -20.479999542236328 -1.341750025749206 L -20.44700050354004 -1.5479999780654903 L -20.479999542236328 -1.7536153793334956 L -20.499000549316406 -1.8719999790191646 L -20.5885009765625 -2.04800009727478 L -20.648000717163086 -2.164999961853027 L -20.8799991607666 -2.3970000743865962 L -21.17300033569336 -2.5469999313354488 L -21.49799919128418 -2.598000049591064 L -21.82200050354004 -2.5469999313354488 L -22.114999771118164 -2.3970000743865962 L -22.347000122070312 -2.164999961853027 M -65.46600341796875 -1.4620000123977657 L -65.4520034790039 -1.5479999780654903 L -65.47200012207031 -1.6729999780654903 L -65.50399780273438 -1.8719999790191646 L -65.53600311279297 -1.9349261522293086 L -65.59349822998047 -2.04800009727478 L -65.65299987792969 -2.164999961853027 L -65.88500213623047 -2.3970000743865962 L -66.1780014038086 -2.5469999313354488 L -66.50199890136719 -2.598000049591064 L -66.58899688720703 -2.585000038146972 L -66.8270034790039 -2.5469999313354488 L -67.12000274658203 -2.3970000743865962 L -67.35199737548828 -2.164999961853027 L -67.4114990234375 -2.04800009727478 L -67.5009994506836 -1.8719999790191646 L -67.5199966430664 -1.7539999485015865 L -67.5530014038086 -1.5479999780654903 L -67.5009994506836 -1.223000049591064 L -67.35199737548828 -0.930000007152557 L -67.12000274658203 -0.6980000138282774 L -66.8270034790039 -0.549000024795532 L -66.50218200683594 -0.49802827835082986 L -66.50199890136719 -0.49799999594688393 L -66.49600219726562 -0.49900001287460305 L -66.1780014038086 -0.549000024795532 L -65.88500213623047 -0.6980000138282774 L -65.65299987792969 -0.930000007152557 L -65.53600311279297 -1.16007387638092 L -65.50533294677734 -1.2203767299652095 L -65.50399780273438 -1.223000049591064 L -65.47200012207031 -1.4229999780654903 L -65.46600341796875 -1.4620000123977657 M -65.50399780273438 -19.877000808715817 L -65.53600311279297 -19.939926147460934 L -65.65299987792969 -20.17000007629394 L -65.88500213623047 -20.40200042724609 L -66.03838348388672 -20.479999542236325 L -66.17214965820312 -20.548025131225582 L -66.1780014038086 -20.55100059509277 L -66.49600219726562 -20.60199928283691 L -66.50199890136719 -20.603000640869137 L -66.8270034790039 -20.55100059509277 L -66.96661376953125 -20.479999542236325 L -67.12000274658203 -20.40200042724609 L -67.35199737548828 -20.17000007629394 L -67.5009994506836 -19.877000808715817 L -67.5530014038086 -19.552000045776364 L -67.53754425048828 -19.455999374389645 L -67.5199966430664 -19.34700012207031 L -67.5009994506836 -19.228000640869137 L -67.35199737548828 -18.93499946594238 L -67.12000274658203 -18.70299911499023 L -66.95999908447266 -18.62100028991699 L -66.8270034790039 -18.552999496459957 L -66.50199890136719 -18.502000808715817 L -66.1780014038086 -18.552999496459957 L -66.04499816894531 -18.62100028991699 L -65.88500213623047 -18.70299911499023 L -65.65299987792969 -18.93499946594238 L -65.53600311279297 -19.165073394775387 L -65.50437927246094 -19.22725677490234 L -65.50399780273438 -19.228000640869137 L -65.47200012207031 -19.427999496459957 L -65.4520034790039 -19.552000045776364 L -65.50399780273438 -19.877000808715817 M -45.25199890136719 4.054999828338622 L -45.25199890136719 4.09600019454956 L -45.25199890136719 4.451000213623046 L -45.12900161743164 4.82800006866455 L -44.895999908447266 5.149000167846679 L -44.57500076293945 5.381999969482421 L -44.198001861572266 5.505000114440917 L -43.801998138427734 5.505000114440917 L -43.42499923706055 5.381999969482421 L -43.104000091552734 5.149000167846679 L -42.87099838256836 4.82800006866455 L -42.74800109863281 4.451000213623046 L -42.74800109863281 4.09600019454956 L -42.74800109863281 4.054999828338622 L -42.87099838256836 3.6779999732971183 L -43.104000091552734 3.3570001125335684 L -43.42499923706055 3.124000072479247 L -43.801998138427734 3.000999927520751 L -44.198001861572266 3.000999927520751 L -44.57500076293945 3.124000072479247 L -44.895999908447266 3.3570001125335684 L -45.12900161743164 3.6779999732971183 L -45.25199890136719 4.054999828338622 M -87.14099884033203 -65.8929977416992 L -87.46199798583984 -66.12599945068358 L -87.83899688720703 -66.24900054931639 L -88.23500061035156 -66.24900054931639 L -88.61199951171875 -66.12599945068358 L -88.93299865722656 -65.8929977416992 L -89.16600036621094 -65.57199859619139 L -89.1780014038086 -65.53600311279295 L -89.19100189208984 -65.4970016479492 L -89.28900146484375 -65.1949996948242 L -89.28900146484375 -64.7990036010742 L -89.16600036621094 -64.42099761962889 L -88.93299865722656 -64.10099792480467 L -88.61199951171875 -63.868000030517564 L -88.23500061035156 -63.74499893188475 L -87.83899688720703 -63.74499893188475 L -87.46199798583984 -63.868000030517564 L -87.14099884033203 -64.10099792480467 L -86.90799713134766 -64.42099761962889 L -86.78500366210938 -64.7990036010742 L -86.78500366210938 -65.18762207031249 L -86.78500366210938 -65.1949996948242 L -86.88400268554688 -65.4970016479492 L -86.89647674560547 -65.53600311279295 L -86.90799713134766 -65.57199859619139 L -87.14099884033203 -65.8929977416992 M 0.23499999940395355 -66.24900054931639 L 0 -66.24900054931639 L -0.16099999845027924 -66.24900054931639 L -0.5379999876022339 -66.12599945068358 L -0.859000027179718 -65.8929977416992 L -1.0920000076293945 -65.57199859619139 L -1.1039999723434448 -65.53600311279295 L -1.1169999837875366 -65.4970016479492 L -1.215000033378601 -65.1949996948242 L -1.215000033378601 -64.7990036010742 L -1.0920000076293945 -64.42099761962889 L -0.859000027179718 -64.10099792480467 L -0.5379999876022339 -63.868000030517564 L -0.16099999845027924 -63.74499893188475 L 0 -63.74499893188475 L 0.23499999940395355 -63.74499893188475 L 0.6129999756813049 -63.868000030517564 L 0.9330000281333923 -64.10099792480467 L 1.1660000085830688 -64.42099761962889 L 1.2890000343322754 -64.7990036010742 L 1.2890000343322754 -65.18762207031249 L 1.2890000343322754 -65.1949996948242 L 1.190000057220459 -65.4970016479492 L 1.1775200366973877 -65.53600311279295 L 1.1660000085830688 -65.57199859619139 L 0.9330000281333923 -65.8929977416992 L 0.6129999756813049 -66.12599945068358 L 0.23499999940395355 -66.24900054931639 M -79.50199890136719 -52.49499893188475 L -76.5009994506836 -52.49499893188475 L -76.5009994506836 -77.49999999999999 L -79.50199890136719 -77.49999999999999 L -79.50199890136719 -52.49499893188475 M -11.496999740600586 -52.49499893188475 L -8.496999740600586 -52.49499893188475 L -8.496999740600586 -77.49999999999999 L -11.496999740600586 -77.49999999999999 L -11.496999740600586 -52.49499893188475 z" fill="none" stroke="rgb(255,0,0)" stroke-width="0.001mm" />
</svg>